<?xml version="1.0" encoding="utf-8"?>
<!-- Generator: Adobe Illustrator 21.1.0, SVG Export Plug-In . SVG Version: 6.00 Build 0)  -->
<svg version="1.1" id="Layer_1" xmlns="http://www.w3.org/2000/svg" xmlns:xlink="http://www.w3.org/1999/xlink" x="0px" y="0px"
	 viewBox="0 0 54.3 81.7" style="enable-background:new 0 0 54.3 81.7;" xml:space="preserve">
<style type="text/css">
	.st0{fill:#201406;}
</style>
<title>bob</title>
<path class="st0" d="M20.8,0.5c0.1,0.6,0.1,1.2,0.2,1.8c0.1,0.9,0.1,1.8-0.1,2.7c-0.2,0.9-0.4,1.8-0.7,2.7c-0.2,0.7-0.4,1.3-0.5,1.9
	c-0.2,0.7-0.4,1.3-0.6,2s-0.3,1.1-0.5,1.6c-0.3,0.9-0.4,1.9-0.5,2.9c0,0.4,0,0.9-0.1,1.3c-0.1,0.4,0,0.9,0.1,1.3
	c0.1,0.5,0.3,1,0.3,1.5c0.1,0.7,0.3,1.3,0.7,1.9c0.1,0.2,0.3,0.5,0.4,0.8c-0.6-0.2-1.2-0.4-1.8-0.6c-0.8-0.2-1.5-0.5-2.3-0.6
	c-0.8-0.2-1.2-0.2-1.9-0.3c-1.3-0.3-2.6-0.7-3.9-1.2c-0.6-0.2-1.1-0.5-1.7-0.6c-0.4-0.1-0.8-0.2-1.2-0.4c-0.9-0.3-1.7-0.9-2.4-1.5
	c-0.3-0.4-0.7-0.7-1-1c-0.8-0.7-1.5-1.5-2.1-2.3C1.1,14.2,1,14,0.8,14c-0.3,0.1-0.5,0.2-0.7,0.3C0,14.4,0,14.5,0,14.5
	c0,0.1,0.1,0.3,0.1,0.4c0.1,0.1,0.2,0.2,0.2,0.4c0.2,0.6,0.5,1.2,0.6,1.8c0.4,1.1,0.7,2.2,1.1,3.3c0.2,0.6,0.3,1.3,0.5,2
	s0.2,1.2,0.3,1.9c0.1,0.8,0.3,1.6,0.4,2.3c0,0.1,0,0.1,0,0.2c0.1,1.5,0.2,3.1,0.3,4.6c0,0.9,0.1,1.7,0.1,2.6c0,1,0.1,2,0.2,3
	C4,38,4.2,39,4.4,39.9c0,0.2,0.1,0.5,0.2,0.7c0.2,0.7,0.5,1.4,0.8,2c0.3,0.7,0.7,1.4,1.1,2c0.5,0.7,1,1.3,1.5,1.9
	c0.4,0.5,0.9,0.9,1.3,1.3c0.2,0.2,0.5,0.3,0.7,0.5c0.3,0.3,0.7,0.5,1.1,0.6c0.2,0.1,0.5,0.3,0.7,0.4c-0.3,0.3-0.5,0.6-0.7,0.9
	c-0.4,0.5-0.8,1-1.1,1.6l0,0c-0.3,0.5-0.7,1-1,1.5c-0.5,0.8-1,1.7-1.4,2.6c-0.4,0.8-0.8,1.6-1.2,2.3s-0.6,1.3-0.9,2
	c-0.6,1.1-1.1,2.3-1.4,3.6c0,0.2-0.1,0.4-0.1,0.6c0,0.3-0.1,0.6-0.2,0.9c-0.2,0.6-0.4,1.2-0.4,1.8c0,0.1,0,0.3-0.1,0.4
	c-0.1,0.7-0.2,1.3-0.2,2c0,0.6-0.1,1.1-0.2,1.7c0,0.1,0,0.2,0,0.2c0,0.5,0.1,1,0.1,1.4s0.2,0.9,0.3,1.4c0.1,0.7,0.2,1.3,0.3,2
	c0.1,0.4,0.1,0.8,0.3,1.2C3.8,77.7,4,78,4.1,78.3c0.3,0.8,0.7,1.4,1.3,2c0.4,0.4,1,0.7,1.6,0.9c0.6,0.1,1.2,0.2,1.8,0.2
	c0.1,0,0.1,0,0.2,0c0.2,0.1,0.5,0.2,0.8,0.2l0.9,0.1c0.1,0,0.2,0,0.2,0c0.3-0.1,0.6-0.2,0.9-0.2c0.6,0,1.1,0.1,1.6,0.1
	c1.1,0,2.2,0,3.3-0.2c0.2,0,0.3-0.1,0.5-0.1c0.5,0,0.9,0,1.4-0.1l1.2-0.1l2.1-0.3c0.1,0,0.1,0,0.2,0c0.7-0.3,1.4-0.5,2.1-0.6
	c0.6-0.1,1.2-0.2,1.8-0.4c0.6-0.1,1.3-0.3,1.9-0.5c0.3,0,0.5-0.1,0.8-0.2c0.8-0.3,1.5-0.6,2.3-0.9c0.4-0.2,0.9-0.4,1.3-0.5
	c0.2,0,0.4-0.1,0.5-0.3c0.3-0.3,0.7-0.5,1.1-0.6c0.2,0.1,0.3,0.2,0.4,0.3l1.1,0.8c0.3,0.3,0.7,0.5,1.1,0.8c0.6,0.3,1.2,0.5,1.8,0.8
	c0.1,0,0.3,0.1,0.4,0.1c0.4,0,0.9,0.1,1.3,0.1c0.5,0.1,1,0,1.4-0.1c0.5-0.2,1.1-0.4,1.6-0.7c1-0.6,1.9-1.4,2.8-2.2
	c0.3-0.3,0.6-0.6,0.9-0.9c0.2-0.2,0.3-0.3,0.5-0.5c0.4-0.5,0.7-1.1,1.2-1.6c0.4-0.6,0.8-1.1,1.2-1.7c0.3-0.6,0.6-1.1,0.9-1.7
	c0.3-0.5,0.5-1,0.7-1.6c0.2-0.7,0.4-1.3,0.6-2c0.1-0.5,0.3-0.9,0.4-1.4c0.2-0.9,0.5-1.8,0.7-2.8c0.1-0.6,0.3-1.2,0.5-1.8
	s0.2-1.1,0.3-1.7c0-0.3,0-0.6,0.1-0.9c0.1-1.1,0.3-2.2,0.4-3.2c0.1-0.8,0.2-1.6,0.3-2.4c0.2-1.3,0.2-2.6,0.1-3.9c0-0.1,0-0.2,0-0.3
	c0-0.6,0-1.2,0-1.7c0-0.9,0.1-1.8,0-2.7s-0.1-2-0.1-3c0-0.1,0-0.2,0-0.2c-0.1-0.4-0.2-0.9-0.2-1.3c0-0.3-0.1-0.7-0.2-1
	c-0.1-0.5-0.3-1-0.5-1.5c-0.1-0.4-0.2-0.9-0.2-1.3c0-0.1,0-0.3-0.1-0.4c-0.2-0.6-0.5-1.1-0.7-1.7c-0.3-0.8-0.6-1.5-1-2.2
	c-0.1-0.2-0.2-0.4-0.3-0.6c-0.3-0.5-0.5-1-0.8-1.5c-0.2-0.3-0.3-0.7-0.5-1c-0.1-0.1-0.2-0.2-0.3-0.3c-0.4-0.2-0.7-0.5-1-0.9
	c-0.4-0.4-0.8-0.9-1.3-1.2c-0.5-0.3-1-0.7-1.5-0.9c-0.7-0.5-1.5-0.7-2.4-0.5c-0.2,0-0.4,0-0.5,0l-0.1-0.3c-0.2-0.8-0.5-1.6-0.9-2.4
	c-0.3-0.9-0.6-1.7-0.8-2.6c-0.1-0.5-0.1-1.1-0.1-1.6c-0.1-0.6,0-1.1,0.1-1.7c0.2-0.5,0.3-1,0.5-1.6c0.1-0.5,0.2-1,0.5-1.5
	c0.1-0.3,0.2-0.6,0.1-0.9c0-0.4-0.3-0.7-0.6-0.9c-0.2-0.1-0.3-0.2-0.5-0.3c-0.2-0.2-0.4-0.3-0.5-0.4c-0.5-0.2-1.1-0.4-1.6-0.3
	c-0.5,0.1-1,0.1-1.4,0.1c-0.4,0-0.7,0-1.1,0.1c-0.4,0.1-0.8,0.3-1,0.7c-0.2,0.4-0.2,0.9-0.1,1.3c0,0.2,0.1,0.4,0.2,0.6
	c0.1,0.5,0.1,1,0.2,1.4c0,0.3,0.2,0.5,0.2,0.8c0.1,0.6,0.2,1.2,0.3,1.8c0,0.2,0,0.3,0,0.5H36c-0.1-0.1-0.1-0.2-0.2-0.2l-0.4-0.7
	c-0.5-0.8-1-1.4-1.7-2c-0.8-0.8-1.7-1.5-2.5-2.2c-0.4-0.3-0.8-0.7-1.2-1c-0.4-0.3-1-0.9-1.5-1.4c-0.9-0.7-1.6-1.5-2.4-2.3
	S24.8,5.3,24,4.4c-0.1-0.2-0.2-0.4-0.4-0.5c-0.1-0.2-0.2-0.3-0.3-0.5c-0.5-0.8-0.9-1.7-1.2-2.6c0-0.3-0.2-0.5-0.5-0.6
	c-0.1,0-0.3-0.1-0.4-0.1C20.8,0,20.7,0.1,20.8,0.5z M21.2,13.8c0.4,0.1,0.4,0.6,0.9,0.7c0-0.1-0.1-0.3-0.1-0.4
	c-0.1-0.2-0.2-0.4-0.3-0.5c-0.1-0.1-0.1-0.3,0-0.4c0.1-0.1-0.1-0.4-0.1-0.6L22,13c0-0.5-0.3-0.8-0.4-1.1l0.2-0.4h0
	c0.5,0,0.6,0.4,0.8,0.7c0.4,0.9,1,1.7,1.8,2.5l1,1.1c0.1,0.1,0.2,0.2,0.1,0.4c-0.1,0.2,0,0.3,0,0.5l-0.6-0.6l-0.5-0.5l-0.6-0.5
	c-0.2,0.4-0.2,0.4,0,0.6c0.5,0.5,0.9,0.9,1.4,1.4c0.1,0.1,0.1,0.1,0.1,0.2c-0.2-0.1-0.5-0.3-0.7-0.5c-0.2-0.2-0.5-0.4-0.7-0.7
	c-0.2-0.2-0.6-0.7-0.9-1.1c-0.1-0.1-0.2-0.2-0.3-0.1c-0.1,0.1-0.1,0.2,0,0.3c0,0,0,0,0,0c0.2,0.4,0.5,0.7,0.8,1.1
	c0.3,0.4,0.7,0.7,1,1.1c-0.6-0.2-1.2-0.6-1.7-1.1c-0.5-0.7-1-1.4-1.5-2.2C21.3,14.1,21.2,13.9,21.2,13.8L21.2,13.8z M26.2,14.8
	c0-0.2,0-0.3,0-0.5c0-0.2,0.1-0.5,0.2-0.7c0.1-0.2,0-0.2,0.3-0.2C26.8,13.9,26.6,14.4,26.2,14.8L26.2,14.8z M27.3,13.7
	c0.2,0.1,0.2,0.2,0.2,0.4c-0.1,0.4-0.2,0.7-0.3,1.1c-0.1,0.2-0.1,0.4-0.2,0.6c-0.1,0.2-0.1,0.3-0.3,0.2
	C26.7,15.1,27.1,14.5,27.3,13.7L27.3,13.7z M27,17.3l-0.1,0.3C26.8,17.5,26.8,17.3,27,17.3z M21.3,18.7c-0.3-0.4-0.6-0.8-0.9-1.2
	c-0.2-0.3-0.3-0.5-0.4-0.8c0,0,0-0.1,0-0.2s0.1,0,0.1,0.1c0.3,0.4,0.5,0.7,0.8,1.1c0.1,0.1,0.3,0.3,0.4,0.4l0.1-0.1
	c0-0.1-0.1-0.2-0.1-0.3c-0.3-0.4-0.6-0.8-0.9-1.3c-0.2-0.3-0.3-0.6-0.3-0.9c0.5,0.4,0.7,1,1.1,1.4c0.2-0.1,0.1-0.2,0-0.4l-0.5-0.8
	l-0.2-0.4c0.5,0.1,0.9,0.1,1.1,0.4c0.2,0.3,0.5,0.6,0.8,0.9c0.6,0.7,1.2,1.3,1.9,1.9c0.2,0.1,0.3,0.4,0.5,0.6c0.2,0.2,0.7,0.6,1,0.9
	c0.2,0.1,0.3,0.3,0.4,0.6c-0.5-0.2-0.9-0.4-1.3-0.6c-0.6-0.4-1.2-0.9-1.9-1.3c-0.1-0.1-0.2-0.2-0.3-0.1s0,0.2,0,0.3
	c0.2,0.2,0.4,0.4,0.5,0.5c0.3,0.3,0.7,0.5,1,0.7c0.5,0.3,1,0.6,1.5,0.8l0.3,0.1v0.5c-0.8-0.4-1.6-0.7-2.4-1.1c-0.5-0.3-1-0.6-1.5-1
	C21.8,19.3,21.5,19,21.3,18.7L21.3,18.7z M20,20.3L20,20.3l0.2,0.3h-0.1L20,20.3z M22.5,20.5l1.3,0.8c-0.1,0.2-0.2,0.1-0.3,0.1
	l-1.1-0.8L22.5,20.5z M6.2,20.9c-0.1,0.4-0.1,0.8,0.1,1.1c0,0,0,0.1,0,0.1C6.2,22,6,21.8,6.1,21.5c0-0.2,0-0.5,0.1-0.8
	C6.2,20.8,6.2,20.8,6.2,20.9L6.2,20.9z M5.4,21.2c-0.3-0.3-0.3-0.3,0-0.5V21.2z M5.8,23c-0.3-0.1-0.6-0.2-0.9-0.4
	c-0.1,0-0.1-0.1-0.2-0.2c-0.1-0.3-0.2-0.6-0.4-1c-0.2-0.3-0.2-0.6,0-0.9l0.2,0.8c0,0.1,0,0.1,0.1,0.2c0.1,0.2,0.2,0.2,0.4,0.1
	l0.2-0.1c0,0,0.1,0,0.1,0c0.1,0.3,0.2,0.7,0.4,1C5.9,22.6,6,22.8,6.1,23C6,23,5.9,23,5.8,23z M7.2,24c0-0.4-0.1-0.9-0.2-1.3
	c0-0.2-0.1-0.4-0.2-0.6c0-0.1,0-0.2,0-0.4h0.1c0,0,0,0,0,0.1s0.1,0.3,0.3,0.3s0.3-0.1,0.4-0.2s0.1-0.2,0.2-0.2l0.7,0.4
	c0.1,0.4,0.2,0.7,0.1,1.1c0,0.1,0,0.3,0.1,0.4c0.2,0.1,0.2,0.2,0.2,0.4S9,24.4,9,24.7c0.1,0.3,0.1,0.5,0,0.8c0,0.3-0.1,0.7-0.1,1
	c0,0,0,0.1,0,0.1c-0.1,0-0.1-0.1-0.1-0.1c-0.1-0.6-0.2-1.2-0.4-1.7c-0.2-0.5-0.3-1-0.5-1.6c-0.1-0.3-0.3-0.5-0.6-0.7
	c0,0.1,0,0.3,0,0.4c0.3,0.8,0.5,1.7,0.7,2.6c-0.1-0.1-0.1-0.1-0.2-0.2l-0.5-0.7C7.2,24.4,7.2,24.2,7.2,24L7.2,24z M9.9,25
	c-0.1,0-0.3-0.1-0.3-0.2c0,0,0,0,0,0c-0.1-0.5-0.2-1.1-0.4-1.7l0.6,0.2L9.9,25z M15.6,23.5c0.2,0.1,0.1,0.3,0.2,0.5
	C15.5,23.9,15.5,23.9,15.6,23.5L15.6,23.5z M20.8,23c0.3,0,0.4,0.2,0.6,0.4C21.1,23.3,20.9,23.3,20.8,23z M6.3,24.6
	c0.3-0.2,0.3,0,0.4,0.2L6.3,24.6z M5.4,24.8c0.2,0,0.3,0,0.4,0.1c0.3,0.1,0.6,0.2,0.8,0.2c0.3,0.1,0.6,0.3,0.7,0.6
	C6.6,25.7,5.9,25.3,5.4,24.8z M4.1,25.1L4.1,25.1l0.3,0.1l-0.1,0.3H4.2L4.1,25.1z M5.5,26.3c-0.1,0-0.1-0.1-0.2-0.1
	c-0.4,0-0.6-0.4-0.8-0.6l0.4-0.2L6,25.9c0.1,0,0.2,0.1,0.2,0.2c0.1,0.5,0.6,0.5,0.9,0.7c0.1,0.1,0.2,0.1,0.4,0.1V27
	C6.8,26.8,6.1,26.6,5.5,26.3z M6.3,27.5c0.1,0,0.3,0,0.4,0.2C6.4,27.8,6.4,27.6,6.3,27.5L6.3,27.5z M9,28.3c-0.4,0-0.8-0.1-1.1-0.4
	C8.3,27.7,8.7,27.8,9,28.3L9,28.3z M6,28.3c-0.1-0.1-0.2-0.1-0.2-0.3c0.3,0.1,0.5,0.2,0.8,0.4c0.2,0.1,0.5,0.3,0.7,0.4
	s0.6,0.1,0.8,0.5l-0.8,0C7,28.7,6.5,28.5,6,28.3L6,28.3z M11.6,29.3c0-0.4,0.1-0.8,0-1.2s-0.1-1-0.2-1.5c0-0.2-0.2-0.4-0.4-0.4
	c0,0.2,0,0.5,0,0.7c0,0.3,0,0.6,0.1,0.8s-0.1,0.2-0.2,0.2c-0.2-0.4-0.3-0.8-0.2-1.2c0-0.7,0-1.4,0-2c0-0.1,0-0.2,0-0.4
	c0.3,0,0.5,0,0.6-0.3c0.1,0.1,0.3,0.1,0.4,0.1c0.2,0,0.3,0.1,0.3,0.3c0,0.2,0.1,0.4,0.1,0.6c0.1,0.7,0.3,1.4,0.4,2.1
	c0.1,0.5,0.1,1,0.2,1.4c0,0.1,0,0.2,0,0.3L12.2,29c-0.2-0.4,0-0.9-0.3-1.2c-0.1,0.2-0.1,0.4-0.1,0.5c0,0.4,0,0.7,0,1.1
	c0,0,0,0.1-0.1,0.1S11.6,29.3,11.6,29.3z M13.6,28.1c0-0.4,0-0.7-0.1-1.1c-0.1-0.1,0-0.3,0-0.5c0-0.1,0-0.2,0-0.3
	c0-0.1-0.1-0.2-0.1-0.3c0,0-0.2,0-0.2,0c-0.1,0-0.1,0.1-0.2,0.1c-0.1-0.5-0.2-1-0.3-1.5c0,0,0.1-0.1,0.1-0.2
	c0.1,0.2,0.2,0.5,0.2,0.8c0,0.2-0.1,0.4,0.1,0.5s0.2-0.2,0.3-0.3c0.1-0.1,0.2-0.2,0.3-0.2c0.1,0,0.2,0.1,0.2,0.2
	c0.2,0.3,0.3,0.7,0.2,1.1c0,0.6,0,1.1,0.1,1.7c0.1,0.3,0.1,0.6,0,1c-0.1,0.5-0.2,1-0.4,1.5h-0.1c0-0.4-0.1-0.8-0.1-1.2
	S13.6,28.6,13.6,28.1L13.6,28.1z M24.7,26.1c0.2-0.1,0.5,0,0.6,0.1c0.5,0.3,1,0.5,1.5,0.7c0.2,0.1,0.5,0.1,0.8,0.1
	c0.5,0,0.5,0,0.6,0.5c0,0.1,0.1,0.3,0.1,0.4c0,0,0,0.1,0,0.1c-0.5-0.1-1-0.3-1.5-0.6c-0.3,0.2-0.4,0.3-0.1,0.5
	c0.4,0.3,0.9,0.6,1.4,0.6l0.5,0.1c-0.1,0.4-0.3,0.8-0.6,1.2c-0.5-0.7-1-1.3-1.5-2C25.9,27.2,25.4,26.6,24.7,26.1L24.7,26.1z
	 M18.5,26.9c-0.2-0.2-0.1-0.4,0-0.5C18.5,26.6,18.5,26.7,18.5,26.9L18.5,26.9z M22.1,30.4c-0.2,0.6-0.2,1.2-0.2,1.9
	c0,0.2,0.1,0.3,0.5,0.4c0.1,0.3,0,0.7-0.1,1c-0.2,0.7-0.3,1.5-0.5,2.1c-0.2,0.4-0.4,0.8-0.7,1.1C21,37,21,37.1,20.9,37.2h-0.5
	c0.2-0.4,0.3-0.8,0.4-1.2c0.1-0.4,0.2-0.8,0.3-1.2c0.2-0.4,0.2-0.8,0.3-1.2h-0.1L21,34c0,0-0.1,0-0.1-0.1c0-0.1,0-0.2,0-0.4
	c0.1-0.4,0.3-0.9,0.4-1.3c0.1-0.1,0.1-0.3,0-0.4c-0.1,0-0.2,0-0.3,0.2c0,0,0,0,0,0c-0.1,0.5-0.4,1-0.5,1.5c-0.3,0.9-0.5,1.8-0.7,2.7
	c0,0.2-0.1,0.5-0.2,0.7c-0.1,0.1-0.1,0.2-0.2,0.3h-0.1c0-0.1,0-0.2,0-0.3c0.1-0.4,0.3-0.8,0.4-1.2c0.2-0.4,0.3-0.9,0.4-1.3
	c0.1-0.7,0.2-1.4,0.3-2.1c0.1-0.5,0.2-1,0.2-1.5c0-0.2-0.1-0.5-0.1-0.7c0-0.5,0-1.1,0.1-1.6c0-0.2,0.1-0.4,0.2-0.6
	c0.2,0.5,0.2,1,0,1.5c-0.1,0.1,0,0.2,0.1,0.3c0,0,0,0,0,0c0.1,0.1,0.2,0,0.3-0.1c0-0.1,0,0,0,0c0.3-0.4,0.4-0.9,0.4-1.3l0.3,0.2
	c0,0.5-0.5,1-0.1,1.7l0.4-0.7c0,0.6,0.1,0.5,0.5,0.5c0.1,0.8,0,1.6-0.3,2.3c-0.2-0.6-0.3-1.3-0.2-1.9C22.3,30.3,22.2,30.3,22.1,30.4
	L22.1,30.4z M13.6,36.2l0.5,0.1C13.9,36.4,13.8,36.5,13.6,36.2L13.6,36.2z M19.6,32.1h-0.3l0.1-1l0.3,0.2L19.6,32.1z M18.4,27.6
	l0.4,0.1c0,0.3,0,0.6,0,0.9c0,0.9-0.1,1.7-0.2,2.6s-0.3,1.9-0.5,2.8l0,0c0,0.2-0.2,0.3-0.4,0.3s-0.2-0.2-0.1-0.4
	c0.1-0.2,0.2-0.5,0.2-0.7s0-0.3-0.2-0.3L17.2,34h0c0-0.1,0-0.1,0-0.2c0.1-0.4,0.2-0.8,0.3-1.2c0.1-0.4,0.2-0.9,0.2-1.3
	c0-0.2,0-0.3,0.1-0.4c0.1-0.1,0.1-0.4-0.2-0.5c-0.1,0-0.1-0.2-0.1-0.3c0-0.3,0.1-0.6,0.2-0.9c0.1-0.5,0.2-0.9,0.3-1.4
	c0.1-0.2,0-0.5,0.3-0.7L18.4,27.6z M15.1,33.4V33C15.4,33.2,15.3,33.3,15.1,33.4L15.1,33.4z M15.3,32.9L15.3,32.9l0-0.8
	C15.5,32.4,15.5,32.7,15.3,32.9L15.3,32.9z M15.6,31.5l-0.2-0.5c-0.4,0.4-0.2,0.9-0.6,1.4c0-0.1,0-0.2,0-0.3
	c0.2-0.8,0.3-1.6,0.5-2.4c0.1-0.6,0.2-1.2,0.3-1.8c0-0.1,0-0.2-0.1-0.3c-0.2-0.3-0.3-0.6-0.3-1c0.5-0.3,0.5-0.3,1.1,0.1
	C16.5,28.4,16.2,30.1,15.6,31.5L15.6,31.5z M14.6,30.6c-0.2-0.2-0.2-0.4-0.2-0.6s0.1-0.5,0.2-0.8s0-0.1,0.4-0.3
	C14.9,29.5,14.8,30,14.6,30.6L14.6,30.6z M7.2,30.3C7.2,30.3,7.2,30.3,7.2,30.3c0.4-0.2,0.9-0.1,1.3,0.2c0.1,0.1,0.2,0.1,0.3,0.1
	c0.2,0.1,0.4,0.1,0.6,0.2c0.1,0,0.2,0.2,0.3,0.3c-0.1,0-0.1,0.1-0.1,0c-0.2-0.1-0.5-0.1-0.7,0c-0.1,0-0.2,0-0.3,0
	c-0.2,0-0.4-0.1-0.6-0.2c-0.1-0.1-0.3-0.2-0.3-0.2C7.7,30.5,7.5,30.3,7.2,30.3z M7,31.9c-0.1,0-0.2,0-0.2-0.1
	c-0.3-0.1-0.6-0.3-0.9-0.4c-0.2-0.1-0.3-0.2-0.5-0.4l-0.4-0.2v-0.1c0.1,0,0.2,0,0.3,0C6,30.8,6.6,31,7.2,31.2c0.5,0.2,1,0.4,1.4,0.5
	s1.1,0.3,1.6,0.5c0,0,0.1,0,0.1,0.1c-0.2,0-0.3,0.1-0.4,0.1c-0.6-0.2-1.1-0.3-1.7-0.3C7.9,32,7.5,31.9,7,31.9L7,31.9z M5.6,32.4
	L6,32.5v0.1C6,32.6,5.7,32.6,5.6,32.4L5.6,32.4z M4.9,32.7L4.9,32.7l0.3,0.5C4.8,33.2,4.8,33.2,4.9,32.7L4.9,32.7z M8.4,34.6
	c-0.1,0-0.3-0.1-0.4-0.1c-0.4,0-0.9-0.1-1.2-0.3c-0.2-0.1-0.4-0.3-0.7-0.4c-0.3-0.1-0.3-0.2-0.3-0.6l0.8,0.4
	c0.1,0.1,0.3,0.2,0.5,0.2c0.1,0,0.3,0.1,0.4-0.1c0.1-0.1,0-0.3-0.1-0.4c0,0,0,0,0,0l-0.6-0.3c-0.2-0.1-0.3-0.2-0.4-0.4
	c0.1,0,0.2,0,0.2,0c0.1,0.1,0.3,0.1,0.4,0.2c0.3,0.1,0.4,0,0.4-0.3c0-0.1,0-0.1,0-0.2c0,0,0-0.1,0.1-0.1l0.9,0.1l1.7,0.3
	c0.4,0,0.8,0.2,1.1,0.6c-0.8,0-1.6-0.2-2.3-0.5c-0.2-0.1-0.4-0.1-0.6-0.1c-0.1,0-0.2,0-0.2,0.1c0,0.1,0,0.2,0.1,0.2
	c0.2,0.1,0.4,0.2,0.6,0.3c0.2,0.1,0.4,0.1,0.5,0.2c0,0.1,0,0.3,0.1,0.4C9.5,33.9,9.6,34,9.7,34l0.9,0.2c0.1,0,0.2,0.1,0.3,0.1
	c-0.3,0.2-0.8,0.2-1.1,0c-0.4-0.2-0.9-0.4-1.4-0.6c-0.1,0-0.2-0.1-0.3-0.1c-0.1,0-0.2,0.1-0.2,0.2c0,0,0.1,0.2,0.1,0.2
	c0.1,0.1,0.2,0.2,0.3,0.2c0.3-0.2,0.6,0.1,0.9,0.3C9,34.6,8.7,34.6,8.4,34.6L8.4,34.6z M10.7,38.1l-0.6,0c-0.2,0-0.4-0.1-0.5-0.2
	c0.1,0,0.2,0,0.3,0h2.3c0.3,0,0.7-0.1,1-0.2c-0.2-0.1-0.4-0.2-0.6-0.2c-0.2,0-0.4,0-0.6,0c-0.7,0.1-1.3,0.1-2,0
	c-0.4-0.1-0.7-0.1-1.1-0.1c-0.1,0-0.2,0-0.3,0.1v0.3c-0.4,0-0.8-0.1-1.2-0.4c-0.2-0.1-0.4-0.2-0.6-0.2c-0.3,0-0.3,0-0.5-0.4L7,36.8
	c0.1,0,0.2,0,0.2,0.1c0.1,0,0.2,0,0.2-0.1c0-0.1,0-0.2,0-0.3c-0.1-0.2-0.3-0.3-0.4-0.4h0.6c0-0.3,0.3-0.5,0-0.8
	c0.3,0.1,0.4,0.1,0.6,0.2c0.2,0,0.3,0,0.5,0c0.4-0.1,0.7-0.1,1.1,0c0.3,0,0.6,0,1,0.1c0.1,0,0.2,0,0.3,0.1v0.1h-0.4
	c-0.4,0-0.8,0-1.2,0c-0.1,0-0.2,0.1-0.4,0.2c0.2,0.1,0.3,0.2,0.5,0.3c0.3,0.1,0.7,0.1,1,0c0.5-0.1,0.9-0.1,1.4-0.2
	c0.1,0,0.2,0,0.2,0l0.7,0.1c0.1,0,0.2,0.1,0.2,0.1c-0.2,0.1-0.4,0.2-0.6,0.2c-1.1,0.1-2.2,0.1-3.3,0c-0.1,0-0.2,0-0.2,0.1
	c0,0.1,0,0.2,0.1,0.3C9.3,37,9.4,37,9.5,37c0.6,0.1,1.1,0.1,1.7,0.1l2.2-0.2c0.2,0,0.5,0,0.7,0c0.3,0.1,0.6,0.1,0.9,0.2
	c-0.2,0.2-0.3,0.1-0.4,0.1s-0.3,0-0.3,0.1c-0.1,0.2-0.3,0.2-0.5,0.3c-0.3,0.1-0.7,0.2-1,0.3C12.1,38.3,11.4,38.3,10.7,38.1
	L10.7,38.1z M21.9,37.7c0.2-0.5,0.5-1.1,0.7-1.6s0.3-1.1,0.4-1.7c0-0.1,0-0.1,0.1-0.2c0.3,0,0.4-0.2,0.5-0.5
	c0.1-0.6,0.3-1.2,0.5-1.9c0-0.1,0.1-0.2,0.1-0.4h0.1c0,0.3,0,0.6-0.1,0.9c-0.1,0.4-0.1,0.4,0.3,0.5c-0.6,1.8-1.3,3.6-2.1,5.3
	l-0.6,0.1C21.8,38.1,21.8,37.9,21.9,37.7L21.9,37.7z M22.5,38.9l0.5-1l0.2,0.2c0.1,0.1,0.2,0.1,0.3,0c0,0,0,0,0,0
	c0.2-0.2,0.5-0.4,0.5-0.7c0-0.1,0.1-0.2,0.2-0.2c0,0,0.1,0,0.1,0c0.2,0.1,0.3,0,0.4-0.2c0.1-0.1,0.1-0.3,0.2-0.5
	c0-0.3,0-0.6-0.1-0.8c0-0.1-0.1-0.1-0.2-0.1c0,0-0.1,0-0.1,0.1c-0.1,0.2-0.3,0.3-0.4,0.5c-0.2,0.4-0.4,0.8-0.6,1.2
	c0,0-0.1,0-0.2,0.1c0.3-0.7,0.5-1.4,0.8-2.1c0.1-0.3,0.2-0.6,0.2-0.9c0-0.1,0.1-0.2,0.1-0.2c0.1-0.2,0.2-0.5,0.2-0.7
	c0-0.2,0.1-0.4,0.3-0.5s0.1-0.2,0.2-0.3c0-0.1,0-0.2,0-0.3c0.2,0.3,0.1,0.6,0.1,0.8c0,0.1,0,0.3,0,0.4c0,0.1,0.1,0.2,0.1,0.4
	c0.2,0.2,0.2,0.4,0.2,0.7c-0.1,0.4-0.1,0.4,0.3,0.6c0,0.4-0.1,0.8-0.3,1.2c-0.1,0.5-0.5,0.9-0.9,1.1c-0.5,0.3-1,0.6-1.5,0.9
	C22.9,38.7,22.7,38.8,22.5,38.9L22.5,38.9z M7.8,40.9c-0.1-0.1-0.2-0.2-0.4-0.3l1.2,0.1h0.2c0.2,0,0.3-0.1,0.3-0.2S9,40.2,8.9,40.2
	l-1.6-0.3l-0.4-0.1c0.1-0.1,0.2-0.2,0.3-0.1c0.2,0.1,0.5,0.2,0.7,0.2S8,40,8.3,39.8l-0.1-0.4c0.1,0,0.2-0.1,0.4-0.1h2.6
	c0.5,0,1,0,1.5,0s0.8-0.1,1.2-0.2c0.2,0,0.4,0,0.6,0.1c0.1,0,0.2,0.2,0.3,0.3l-0.9,0.1l-0.9,0.1l-0.9,0.1c-0.2,0-0.3,0.1-0.5,0.2
	c0,0.2,0.1,0.2,0.3,0.2c0.4,0,0.9,0,1.3-0.1l1.5-0.1l0.6-0.1h0.5c0,0.1-0.1,0.2-0.3,0.2c-0.7,0.1-1.4,0.3-2.1,0.5
	c-0.7,0.2-1.4,0.3-2.1,0.2c-0.6,0-1.1,0-1.6-0.1c-0.2,0-0.2,0-0.2,0.2c0,0,0,0.1,0,0.1l-0.8-0.1C8.2,41.2,7.9,41.2,7.8,40.9z
	 M11.8,42.6l-1.1-0.1c-0.2,0-0.5,0-0.7,0c-0.3-0.1-0.6-0.2-0.9-0.3c-0.1-0.2,0-0.4,0.1-0.5c0.2-0.1,0.1-0.3,0-0.4l0.8,0.1
	c0.3,0.1,0.6,0.1,0.9,0.1c0.8,0,1.7-0.1,2.5-0.3c0.7-0.2,1.3-0.3,2-0.5l0.4-0.1c0.1-0.1,0.3,0,0.4,0.1c0,0,0,0,0,0
	c-0.8,0.1-1.5,0.4-2.1,0.8c-0.2,0.1-0.4,0.2-0.5,0.3c0,0.1-0.2,0.1-0.2,0.1l-0.7,0.1c-0.4,0-0.4,0.1-0.5,0.5
	C12.1,42.6,11.9,42.6,11.8,42.6L11.8,42.6z M10.3,45.6c0.3-0.3,0.7-0.5,1.1-0.5c0.1,0,0.1,0,0.2-0.1c0.1-0.2,0.3-0.3,0.5-0.2
	c0.1,0,0.1,0,0.2,0c0.1-0.1,0.2-0.2,0.2-0.3c0-0.1-0.1-0.2-0.2-0.2s-0.4-0.2-0.7-0.2c0.1-0.1,0.3-0.2,0.5-0.2
	c0.3-0.1,0.6-0.1,0.9-0.2c0.2-0.1,0.4,0,0.6,0.1c0.1,0.1,0.3,0.1,0.5,0c0.2-0.1,0.5-0.2,0.8-0.2c0.2,0,0.3-0.1,0.5-0.1l0.4-0.2
	l0.3,0.4c-0.3,0.1-0.6,0.3-0.9,0.4c-0.8,0.3-1.5,0.6-2.3,0.9c-0.4,0.1-0.8,0.2-1.2,0.2c-0.2,0-0.4,0.1-0.6,0.2
	C10.9,45.6,10.6,45.7,10.3,45.6L10.3,45.6z M11.3,46l1-0.3c0.1,0,0.2-0.1,0.3-0.1c0.2-0.2,0.4-0.3,0.7-0.3c0.9-0.3,1.7-0.6,2.6-1
	l0.5-0.2v0.1c-0.1,0.1-0.3,0.2-0.4,0.3c-0.5,0.3-1.1,0.7-1.6,1c-0.3,0.2-0.6,0.3-0.9,0.5c-0.2,0.1-0.3,0.1-0.5,0
	c-0.2-0.1-0.4-0.1-0.6,0c-0.2,0.1-0.5,0.2-0.8,0.3L11.3,46z M11.2,47.2c0.3-0.2,0.7-0.2,1,0c0.3,0.1,0.5,0.1,0.8,0.2
	c-0.5,0.5-1.2,0.5-1.7,0C11.3,47.3,11.2,47.2,11.2,47.2L11.2,47.2z M11.1,52.5l0.2-0.3l0.1,0.1L11.1,52.5L11.1,52.5z M10.3,53.8
	l0.2-0.4c0.1,0.2,0,0.3-0.1,0.5L10.3,53.8z M5.2,67.2c0.1,0.3,0.1,0.3-0.1,0.6L5.2,67.2z M6.3,71.3c0.1-0.7,0.3-1.3,0.4-2
	C7,68,7.5,66.6,8,65.3c0.2-0.5,0.3-0.9,0.5-1.4s0.5-1,0.7-1.6c0.1-0.2,0.2-0.3,0.1-0.5S8.9,62,8.8,62.1c-0.1,0.1-0.2,0.2-0.3,0.4
	c-0.3,0.7-0.6,1.4-0.9,2.1c-0.1,0.3-0.2,0.6-0.3,0.8c-0.1,0.2-0.1,0.3-0.2,0.5c-0.1,0.4-0.3,0.8-0.4,1.2c-0.2,0.5-0.3,1-0.5,1.6
	s-0.3,1.1-0.4,1.7c0,0.2-0.1,0.4-0.1,0.6c0,0.1-0.1,0.3-0.2,0.3c0-0.2,0-0.4,0-0.7c0.1-0.6,0.1-1.2,0.2-1.7c0.2-0.8,0.4-1.6,0.6-2.4
	c0.1-0.4,0.2-0.8,0.3-1.1c0-0.1,0-0.3,0-0.4c-0.1-0.2-0.1-0.4,0-0.6c0.2-0.7,0.4-1.3,0.7-1.9c0.3-0.7,0.5-1.4,0.8-2s0.5-1.1,0.7-1.7
	c0-0.1,0.1-0.2,0.1-0.3c0-0.2,0.1-0.3,0.1-0.5c0.1-0.2,0.2-0.4,0.1-0.6c-0.3-0.1-0.6,0-0.6,0.3c-0.2,0.6-0.5,1.2-0.8,1.7
	c-0.4,0.6-0.7,1.3-1,2l-0.3,0.7c0-0.1-0.1-0.1-0.1-0.1l0.4-1c0.1-0.3,0.2-0.7,0.4-1c0.2-0.3,0.3-0.7,0.4-1c0.2-0.4,0.5-0.9,0.7-1.3
	c0.1-0.1,0.1-0.3,0.2-0.4c0.2-0.5,0.5-1.1,0.9-1.5c0.1-0.1,0.1-0.1,0.2-0.2c0,0.1,0,0.2,0,0.3c0,0.4,0,0.5,0.5,0.5L10,56
	c0.5-1.1,1-2.1,1.7-3c0.1-0.1,0.1-0.3,0.2-0.4c0.2-0.3,0.4-0.6,0.7-0.8c0,0,0.1-0.1,0.1-0.1c0.1-0.1,0.1-0.2,0.1-0.3
	c0-0.1-0.2-0.1-0.3-0.1c-0.1,0-0.2,0-0.4,0c0-0.1,0.1-0.2,0.2-0.3c1.8-2,3.5-4,5.4-5.9l0.1,0.2c0.1,0.1,0.2,0.2,0.3,0.1l0.8-0.6
	l1.2-0.9l2-1.5c0.2-0.2,0.4-0.3,0.7-0.5c0.2-0.2,0.3-0.3,0.5-0.4c0.1,0,0.2-0.1,0.2-0.1c-0.2-0.3-0.3-0.4-0.7-0.2
	c-0.7,0.4-1.3,0.9-1.9,1.4c0,0,0,0-0.1,0c-0.3,0.4-0.8,0.6-1.1,0.9c-0.3,0.3-0.6,0.5-0.9,0.8s-0.2,0.4-0.4,0.5l-0.2,0.1
	c0-0.1,0.1-0.2,0.1-0.3c0.5-0.6,1-1.1,1.5-1.6c0.2-0.2,0.4-0.4,0.6-0.6c0.3-0.3,0.6-0.6,1-0.9c0.6-0.4,1.2-0.8,1.8-1.2
	c0.4-0.3,0.9-0.5,1.4-0.6c0,0.2-0.1,0.4-0.1,0.6c-0.2,0.5-0.3,1.1-0.5,1.6c-0.1,0.8-0.2,1.7-0.3,2.5c0,0.2,0,0.4,0.1,0.5
	c0,0.5,0,0.9,0,1.4c0,0.5-0.3,1-0.8,1.2c-0.6,0.4-1.2,1-1.7,1.5l-2.2,2.5l-0.9,1c-0.6,0.6-1.1,1.3-1.7,1.9c-0.4,0.4-0.7,0.8-1,1.3
	s-0.6,0.8-0.9,1.2s-0.4,0.6-0.6,0.9c-0.3,0.5-0.6,1.1-1,1.6c-0.1,0.1-0.1,0.2-0.2,0.3l-0.5,0.8c-0.1,0.1-0.1,0.2-0.2,0.3
	c-0.2,0.5-0.5,1-0.9,1.5c-0.1,0.2-0.2,0.5-0.3,0.7c-0.1,0.2-0.2,0.3-0.3,0.5c-0.5,1.1-1.1,2.1-1.6,3.2s-1,2.3-1.5,3.4
	c-0.1,0.3-0.2,0.6-0.4,0.9H7.3c0.1-0.3,0.2-0.7,0.3-1c0.2-0.6,0.4-1.3,0.6-1.9s0.6-1.4,0.9-2c0.1-0.3,0.3-0.7,0.4-1
	c0.4-0.8,0.8-1.7,1.3-2.5c0.3-0.5,0.4-1,0.7-1.5c0-0.2,0.1-0.3,0.1-0.5c-0.2-0.1-0.5,0.1-0.6,0.3c-0.1,0.1-0.1,0.2-0.2,0.3
	c-0.3,0.6-0.6,1.2-1,1.8c-0.1,0.1-0.1,0.3-0.2,0.4c-0.2,0.5-0.5,1-0.7,1.5c-0.3,0.8-0.7,1.5-1,2.3c-0.2,0.5-0.4,1.1-0.6,1.6
	c-0.2,0.7-0.4,1.4-0.7,2.1c-0.1,0.3-0.2,0.6-0.3,1c0,0.1-0.1,0.1-0.1,0.1C6.2,71.7,6.2,71.5,6.3,71.3z M9.5,73.8
	c0.1-0.2,0.2-0.5,0.3-0.7c0.6-1,1.1-2,1.7-3c0.2-0.3,0.3-0.7,0.5-1c0.4-0.7,0.9-1.3,1.4-2c0.6-0.8,1.3-1.5,2-2.2
	c0.2-0.2,0.5-0.4,0.7-0.6c0.1-0.1,0.2-0.2,0.3-0.4c-0.2-0.1-0.4-0.1-0.6,0c-0.8,0.6-1.5,1.2-2.1,2c-0.3,0.4-0.6,0.7-0.8,1.1
	c-0.2,0.3-0.5,0.7-0.8,1l-0.1,0.2c-0.4,0.6-0.9,1.2-1.3,1.9s-0.8,1.1-1.1,1.7S8.7,73,8.4,73.6c0,0-0.1,0.1-0.1,0.1
	c0-0.1,0-0.2,0-0.3c0.2-0.6,0.5-1.1,0.7-1.7c0.4-0.8,0.8-1.6,1.2-2.4c0.8-1.3,1.7-2.6,2.6-3.8c0.6-0.8,1.3-1.7,1.9-2.5
	c0.4-0.5,0.7-1,1.1-1.6c0.2-0.2,0.2-0.5,0.2-0.8c-0.2,0-0.3,0.1-0.4,0.3c-0.5,0.9-1.1,1.7-1.8,2.5c-0.5,0.7-1,1.4-1.6,2.1
	c0,0,0,0.1-0.1,0.1c-0.6,0.6-1,1.4-1.6,2c-0.1,0.1-0.1,0.2-0.2,0.3l-0.2,0.3h-0.1c0-0.1,0-0.1,0-0.2c0.4-0.8,0.8-1.5,1.3-2.3
	c0.2-0.3,0.4-0.7,0.6-1s0.3-0.4,0.2-0.7c0,0,0-0.1,0-0.2c0.3-0.6,0.6-1.1,1-1.7c0,0,0.1-0.1,0.1-0.1c0.4-0.1,0.6-0.4,0.8-0.8
	c0.1-0.2,0.3-0.5,0.5-0.7c0.5-0.7,1-1.4,1.5-2c0.7-0.9,1.5-1.7,2.3-2.5c0.6-0.6,1.2-1.2,1.7-1.8c0.1-0.2,0.2-0.3,0.3-0.5
	c-0.1-0.1-0.3-0.2-0.4-0.1c0,0-0.1,0-0.1,0.1c-0.5,0.4-0.9,0.8-1.3,1.3c-0.4,0.4-1.1,1.1-1.7,1.7c-0.3,0.3-0.5,0.5-0.8,0.8
	c0,0-0.1,0-0.1,0c0,0,0-0.1,0-0.1c0.5-0.8,1.1-1.6,1.8-2.4c0.6-0.6,1.1-1.3,1.6-1.9c0.3-0.4,0.7-0.8,1.1-1.2s0.6-0.8,0.9-1.1
	c0.5-0.6,1-1.2,1.5-1.8c0.2-0.3,0.5-0.6,0.9-0.8c0,0.3,0.1,0.7,0.1,1c0,0.7,0,1.3,0.1,2s0.1,1.1,0.2,1.7c0.1,0.8,0.2,1.5,0.3,2.3
	c0,0.5,0.1,0.9,0.3,1.4c0,0.1,0.1,0.3,0.1,0.4c-0.2,0.1-0.3,0.3-0.4,0.4S24.1,58,23.9,58c-0.1,0-0.2,0.1-0.2,0.2l-1.2,1.2
	c-0.3,0.2-0.6,0.5-0.9,0.7c-0.6,0.5-1.2,1-1.7,1.6c-0.6,0.7-1.3,1.3-1.9,1.9s-1.2,1.3-1.8,2c-1,1.2-2,2.4-2.9,3.7
	c-0.5,0.6-1,1.2-1.5,1.8c-0.3,0.4-0.6,0.8-0.9,1.2l-0.9,1.3C9.7,73.7,9.6,73.7,9.5,73.8L9.5,73.8z M18.1,66L18.1,66
	c0.1,0.3-0.2,0.4-0.4,0.5L18.1,66z M17.4,66.7L17.4,66.7l-0.2,0.4h0L17.4,66.7z M7.9,74.2L8,74h0.1L8,74.3L7.9,74.2z M12.8,74.2
	c0.1-0.1,0.1-0.2,0.2-0.2l1.1-0.9l1.9-1.6l0.9-0.7c0.6-0.5,1.3-1,1.9-1.5c0.3-0.3,0.7-0.5,1.1-0.7c0.3-0.1,0.4-0.4,0.5-0.6
	c0-0.1,0-0.2,0-0.3c-0.4,0-0.8,0.2-1.1,0.5c-0.4,0.3-0.7,0.6-1,0.9c-0.1,0.1-0.2,0.3-0.5,0.2c0.2-0.2,0.3-0.3,0.5-0.5l1.9-1.6
	l2.1-1.8c0.5-0.3,0.9-0.7,1.4-1.1c0.4-0.4,0.7-0.7,1.1-1.1c0.1-0.2,0.3-0.3,0.5-0.4c0.1-0.1,0.2-0.2,0.2-0.4
	C25.3,62,25.1,61.9,25,62c-0.1,0-0.1,0.1-0.2,0.1c-0.2,0.2-0.5,0.4-0.7,0.6c-0.1,0.1-0.2,0.3-0.4,0.5s-0.4,0.6-0.8,0.6
	c-0.1,0-0.1,0.1-0.2,0.2c-0.5,0.5-1.1,1-1.7,1.5c-0.8,0.7-1.6,1.4-2.5,2.1l-2.5,2.1c-0.2,0.1-0.3,0.3-0.5,0.5
	c-0.2,0.2-0.1,0.4,0.1,0.6c0.3-0.2,0.6-0.5,0.9-0.7c0.1-0.1,0.2-0.3,0.5-0.2l-0.9,0.8l-1.3,1.1c-0.1,0.1-0.2,0.1-0.2,0.1l-0.3-0.7
	c0.2-0.2,0.4-0.5,0.6-0.7c0.5-0.6,1-1.1,1.5-1.7c0.3-0.3,0.6-0.6,0.9-0.9c0.3-0.3,0.6-0.6,1-0.9c0.1-0.1,0.2-0.2,0.2-0.4
	c0-0.1,0.1-0.3,0.2-0.4c0.7-0.7,1.4-1.4,2.2-2c0.2-0.2,0.4-0.4,0.5-0.7c-0.1-0.2-0.2-0.1-0.4,0c-0.2,0.1-0.3,0.2-0.5,0.3l-0.1-0.1
	c0.1-0.1,0.1-0.2,0.2-0.2c0.3-0.3,0.7-0.7,1-1c0.4-0.3,0.5-0.5,0.8-0.8l1.8-1.7c0.1-0.1,0.1-0.1,0.2-0.1l1-0.7
	c0.1,0.3,0.1,0.5,0.2,0.7c0.1,0.4,0.2,0.8,0.3,1.2c0.2,0.6,0.4,1.2,0.7,1.8c0.1,0.3,0.2,0.5,0.3,0.8c0.1,0.1,0,0.3-0.1,0.3l-0.4,0.3
	l-0.7,0.5l-1.2,0.8L24,65.9l-0.1-0.2c-0.2-0.2-0.3-0.2-0.5-0.1c-0.3,0.1-0.7,0.3-1,0.4c-0.3,0.2-0.6,0.5-0.9,0.7
	c-0.1,0.1-0.1,0.2-0.2,0.3c-0.1,0.1,0,0.3,0.1,0.3c0.1,0.1,0.2,0.1,0.3,0l1-0.7c0.1,0,0.1-0.1,0.2-0.1v0.1c-0.4,0.3-0.8,0.7-1.3,1
	l-3.3,2.4c-0.6,0.5-1.3,1-1.9,1.5c-0.3,0.2-0.5,0.4-0.8,0.6c-0.5,0.3-0.8,0.7-1.3,1c-0.5,0.3-1,0.7-1.4,1.1
	C12.8,74.2,12.8,74.3,12.8,74.2L12.8,74.2z M12.4,74.4L12.4,74.4c0,0.3-0.2,0.4-0.4,0.5L12.4,74.4z M11.6,75.2
	c0-0.2,0.2-0.2,0.4-0.3l-0.3,0.4L11.6,75.2z M12.5,77.3c0.3-0.1,0.6-0.2,0.8-0.3l0.6-0.2l1-0.4l3.1-1.4c0.1-0.1,0.3-0.2,0.4-0.3
	c0.1-0.1,0.2-0.2,0.1-0.3c-0.1-0.1-0.1-0.2-0.2-0.2c-0.1,0-0.2,0-0.3,0c-0.5,0.3-1.1,0.6-1.6,0.8c-0.3,0.2-0.6,0.2-1,0.4
	s-0.8,0.4-1.2,0.6C14.1,76,14,76,13.9,76V76c0.2-0.2,0.5-0.3,0.8-0.4c0.5-0.2,1-0.5,1.5-0.7c0.7-0.3,1.3-0.6,2-0.9
	c0.7-0.3,1.1-0.4,1.6-0.6c0.1,0,0.1-0.1,0.2-0.1c0.3-0.2,0.3-0.2,0-0.6c-0.5,0.2-1.1,0.4-1.6,0.7s-1,0.5-1.6,0.6v-0.1l0.2-0.1
	c0.5-0.3,1-0.6,1.5-0.9c0.2-0.1,0.4-0.2,0.5-0.2l2-1c0.2-0.1,0.3-0.1,0.5-0.2c0.2-0.1,0.3-0.1,0.4-0.2c0.1-0.1,0.1-0.2,0-0.3
	c0,0,0,0,0,0c0-0.1-0.2-0.1-0.3-0.1c0,0,0,0,0,0c-0.5,0.2-1,0.4-1.5,0.6c-0.5,0.2-1,0.5-1.4,0.7c-0.1,0-0.2,0-0.2,0
	c0.1-0.1,0.2-0.2,0.4-0.3l2.2-1.4l2-1.2c0.1-0.1,0.2-0.1,0.3-0.1c0.3-0.1,0.3-0.2,0.1-0.5l0-0.1c0.5-0.5,1.1-1,1.8-1.4
	c0.4-0.3,0.8-0.6,1.2-0.8c0.3-0.2,0.7-0.4,1-0.5l1.7,3.8c-0.2,0.2-0.5,0.4-0.8,0.6c-0.4,0.3-0.9,0.7-1.3,1c-0.3,0.2-0.6,0.4-0.9,0.6
	c-0.5,0.3-1,0.6-1.5,0.9c-0.6,0.3-1.3,0.6-1.9,0.9c-1.1,0.4-2.2,1-3.3,1.5c-0.4,0.2-0.9,0.4-1.3,0.6L16,76.4l-2.5,0.9l-1.4,0.5
	c-0.2,0.1-0.4,0.1-0.6,0.2C11.8,77.6,12.1,77.4,12.5,77.3z M28.9,72.4c-0.3,0.3-0.7,0.6-1.1,0.9c-0.4,0.2-0.7,0.3-1.1,0.4
	c-0.4,0.2-0.9,0.3-1.3,0.4l-0.9,0.2v-0.1c0.1-0.1,0.1-0.1,0.2-0.2c0.6-0.3,1.1-0.5,1.7-0.8c0.5-0.3,0.9-0.5,1.3-0.8
	c0.6-0.4,1.1-0.8,1.7-1.2c0.2-0.1,0.5-0.3,0.7-0.4c0.2,0.2,0.4,0.5,0.4,0.8C29.7,71.6,29.3,72.1,28.9,72.4L28.9,72.4z M31,76.7
	L29.9,77c0.1-0.3,0.4-0.3,0.6-0.4c0.1,0,0.3-0.1,0.4-0.2c0.1-0.1,0-0.3-0.2-0.3c-0.1,0-0.2,0-0.3,0l-1,0.3l-2.6,0.8h-0.2
	c-0.1,0.1-0.3,0.1-0.2,0.3c0,0.2,0.2,0.2,0.4,0.2c0.5-0.1,1.1-0.2,1.6-0.4c0.4-0.1,0.7-0.3,1-0.4l0.2-0.1V77
	c-0.3,0.2-0.6,0.3-0.9,0.5c-0.6,0.2-1.2,0.4-1.8,0.4c-0.2,0-0.3,0.1-0.5,0.1c-0.7,0.2-1.3,0.4-1.9,0.7c-0.6,0.2-1.2,0.4-1.8,0.5
	h-0.2c-0.3-0.3-0.3-0.3-0.7-0.1c-0.5,0.2-1,0.4-1.5,0.4c-0.4,0.1-0.9,0.1-1.3,0.2c-0.1,0-0.2,0-0.3-0.2c0.1-0.1,0.1-0.1,0.2-0.1
	c1.4-0.4,2.7-0.8,4.1-1c0.5-0.1,0.9-0.2,1.4-0.4c0.2-0.1,0.5-0.2,0.7-0.3c0.2-0.1,0.3-0.2,0.2-0.4c-0.1-0.2-0.3-0.3-0.5-0.2
	c0,0,0,0,0,0c-0.2,0.1-0.5,0.2-0.7,0.3c-0.4,0.2-0.9,0.3-1.4,0.4l-0.4,0.1c-0.3,0.1-0.6,0.1-0.9,0.2s-0.8,0.3-1.2,0.4
	c-0.3,0.1-0.7,0.2-1,0.2c0,0,0-0.1,0-0.1c0-0.5-0.1-0.5-0.6-0.4c-0.1,0-0.2,0-0.3,0.1c-0.4,0.2-0.9,0.3-1.3,0.3l-2.6,0.4L14,78.9
	v-0.1l5.8-2v-0.5c0.4-0.3,1-0.3,1.5-0.6c0.1,0.2,0.3,0.2,0.5,0.1c0.4-0.2,0.9-0.3,1.3-0.5c0.6-0.2,1.2-0.4,1.8-0.6
	c1.3-0.4,2.5-0.8,3.6-1.4c0.1,0,0.2,0,0.4-0.1c0.3-0.5,0.7-0.8,1.3-1c0.2-0.1,0.3-0.1,0.4-0.4c0.5,0.7,0.9,1.3,1.3,2
	c0.3,0.6,0.7,1.2,1.1,1.7c0.2,0.2,0.2,0.3-0.1,0.5c-0.4,0.3-0.8,0.4-1.3,0.5C31.4,76.6,31.2,76.7,31,76.7L31,76.7z M48.1,70.5
	c-0.1,0.1-0.1,0.2-0.2,0.3c-0.2,0.3-0.4,0.5-0.5,0.8c-0.1,0.2-0.2,0.4-0.3,0.6c-0.1,0.3-0.2,0.5-0.4,0.7c-0.1,0.1-0.1,0.1-0.2,0.2
	c-0.2,0.4-0.5,0.7-0.8,1c-0.2,0.2-0.4,0.5-0.6,0.8s-0.4,0.4-0.7,0.6l-0.1-0.1c0.2-0.2,0.3-0.4,0.5-0.6c0.2-0.3,0.5-0.6,0.7-0.8
	c0.4-0.4,0.7-0.9,0.9-1.4c0.1-0.3,0.3-0.5,0.5-0.7C47.2,71.4,47.6,71,48.1,70.5L48.1,70.5z M44.7,25.9c0.5,0.3,0.9,0.6,1.3,0.9
	c0.7,0.6,1.4,1.3,2,2c0.2,0.3,0.5,0.7,0.7,1.1c0,0,0,0.1,0,0.1c0.5,0.3,0.5,0.9,0.8,1.4c0.3,0.5,0.5,1.1,0.7,1.7
	c0.1,0.4,0.4,0.8,0.5,1.2s0.3,1,0.5,1.5c0.1,0.5,0.3,1,0.5,1.5c0.1,0.3,0.3,0.7,0.4,1.1c0.2,0.6,0.2,1.3,0.4,2
	c0,0.2,0.1,0.4,0.2,0.5c0,0.1,0.1,0.2,0.1,0.3c0,0.4,0,0.9,0.1,1.3c0,0.8,0.1,1.5,0.2,2.2c0,0.2,0,0.4,0,0.6c0,1.1,0,2.2,0,3.3
	c0,0.5-0.1,1.1-0.1,1.6s-0.1,1.1-0.1,1.6c0,0.2-0.1,0.4-0.1,0.6c0,0.8,0,1.5-0.2,2.3c-0.1,1.2-0.3,2.5-0.6,3.7
	c-0.1,0.5-0.1,1.1-0.2,1.6s-0.3,1.2-0.4,1.7c-0.1,0.2-0.1,0.5-0.2,0.8c0,0.5-0.1,0.9-0.3,1.3c-0.2,0.6-0.4,1.2-0.6,1.8
	c-0.3,0.8-0.6,1.6-0.9,2.4c-0.2,0.4-0.4,0.9-0.6,1.3c-0.1,0.1-0.2,0.3-0.3,0.4c0-0.1,0-0.2,0-0.2c0-0.1-0.1-0.2-0.2-0.2
	c0,0-0.2,0.1-0.2,0.1c-0.3,0.4-0.6,0.7-0.9,1.1c-0.1,0.1-0.2,0.3-0.3,0.4c-0.1,0.2-0.2,0.3-0.3,0.5c-0.4,0.4-0.7,0.9-0.8,1.4
	c-0.1,0.2-0.3,0.4-0.5,0.6c-0.2,0.2-0.5,0.5-0.7,0.8c-0.5,0.6-1.1,1.2-1.6,1.8c-0.2,0.2-0.5,0.4-0.8,0.5c-0.2,0.1-0.4,0.2-0.6,0.3
	c-0.2,0.1-0.3,0.4-0.1,0.6c0,0.1,0.1,0.1,0.1,0.1c0.1,0.1,0.3,0.1,0.4,0l0.7-0.3c0,0.2-0.1,0.3-0.2,0.4c-0.7,0.5-1.6,0.7-2.4,0.6
	c-0.6-0.1-1.2,0-1.8-0.2c-0.3,0-0.6-0.1-0.8-0.3c-0.1-0.1-0.3-0.2-0.4-0.2c-0.7-0.3-1.3-0.7-1.8-1.2c-0.5-0.5-1-0.9-1.6-1.4
	c-0.5-0.5-1-1-1.3-1.6c-0.3-0.4-0.6-0.9-0.9-1.3c-0.4-0.5-0.7-1.1-0.9-1.7c-0.1-0.2-0.2-0.5-0.3-0.7l0,0c-0.5-0.5-0.5-1.1-0.7-1.7
	c-0.1-0.4-0.3-0.7-0.5-1.1c-0.3-0.8-0.5-1.7-0.8-2.5c-0.1-0.2-0.2-0.4-0.3-0.7s-0.1-0.5-0.1-0.7c-0.1-0.6-0.3-1.2-0.5-1.8
	c-0.1-0.2-0.1-0.5-0.2-0.7c-0.1-0.5-0.3-1-0.5-1.6c-0.1-0.6-0.2-0.8-0.3-1.2c-0.2-0.6-0.3-1.2-0.3-1.8c0,0,0-0.1,0-0.2
	c-0.2-0.6-0.3-1.3-0.3-2c0-0.4-0.1-0.8-0.1-1.2c0,0,0,0,0-0.1c0-0.6,0-1.2-0.1-1.8c0-1.2-0.1-2.3,0-3.5c0-0.6,0.1-1.3,0.1-1.9
	c0-0.5,0.1-1,0.1-1.4c0-0.5,0.1-1.1,0.2-1.6c0.1-0.6,0.2-1.2,0.3-1.8c0.1-0.4,0.2-0.8,0.3-1.1c0.1-0.3,0.2-0.7,0.3-1l0.1-0.2
	c0.1-0.3,0.2-0.6,0.3-0.9c0.3-0.8,0.6-1.5,0.9-2.3c0.1-0.4,0.3-0.7,0.4-1.1c0.3-0.6,0.6-1.3,0.9-1.9c0.5-1,1-1.9,1.6-2.8
	c0.1-0.2,0.2-0.5,0.4-0.6c0.3-0.4,0.6-1,1.2-1c0.1,0,0.2-0.1,0.3-0.2c1.1-0.5,2.2-0.6,3.3-0.5c0.7,0,1.4,0.1,2.2,0.2
	c0.5,0,1.1,0,1.6,0c0.1,0,0.1,0,0.2,0l1.5-0.5c0.1,0,0.2,0,0.2,0c0.5,0,1-0.1,1.4-0.3C44.1,25.8,44.4,25.8,44.7,25.9z M17.7,26.2
	c0.1,0.8,0,1.6-0.2,2.3c-0.1,0.8-0.3,1.5-0.7,2.2c0-0.1,0-0.1,0-0.2c0-0.6,0.1-1.3,0.1-1.9c0-0.9-0.1-1.8-0.2-2.7c0-0.3,0-0.5,0-0.8
	h0.7c0,0.2,0,0.4,0,0.5C17.5,25.9,17.6,26.1,17.7,26.2L17.7,26.2z M25,25.4c-0.4-0.2-0.8-0.5-1.2-0.6c-0.3-0.2-0.6-0.4-0.9-0.6
	c0,0-0.1-0.1-0.1-0.1c0-0.4-0.3-0.5-0.5-0.7c-0.4-0.4-0.7-0.7-1.1-1.1C21.2,22.1,21,22,20.9,22c0,0.4,0.4,0.6,0.5,0.9
	c-0.9-0.4-1-0.5-1.3-1.8c0.3,0,0.5,0.1,0.7,0.3c0,0,0.1,0.1,0.1,0.1c0.6,0,0.9,0.5,1.3,0.9c0.1,0.1,0.2,0.2,0.3,0.2
	c-0.1-0.5-0.5-0.6-0.8-1c0.4,0.1,0.7,0,1.1,0.2c0.7,0.5,1.5,1,2.3,1.3c0.3,0.1,0.7,0.3,1,0.5c0.4,0.2,0.7,0.6,0.6,1.1
	c-0.6-0.1-1.2-0.3-1.7-0.6c-0.3-0.2-0.5-0.4-0.8-0.5c-0.1,0-0.2,0-0.3,0s0,0.2,0,0.3c0.1,0.1,0.2,0.2,0.3,0.2l0.2,0.1l0,0.1
	c-0.3-0.2-0.5-0.3-0.8-0.4c-0.3-0.1-0.4-0.4-0.8-0.4c-0.1,0.2,0,0.4,0.2,0.5c0.4,0.3,0.9,0.6,1.3,0.9c0.2,0.1,0.4,0.3,0.6,0.4
	c0.1,0.1,0.2,0.2,0.3,0.3l-0.1,0.1C25.1,25.4,25.1,25.4,25,25.4L25,25.4z M26.8,25.3c-0.2,0-0.2,0-1-0.6
	C26.2,24.8,26.5,25,26.8,25.3z M31.5,25.1c0-0.1,0.1-0.2,0.1-0.3c0.2-0.4,0.5-0.7,0.6-1.1c0.4-1,0.7-2,1.1-2.9l0.8-2h0.4
	c0,0,0,0.1,0,0.1c0,0.2-0.1,0.4-0.1,0.6s-0.2,0.5,0,0.7c0,0.1,0,0.2,0,0.2c-0.3,0.7-0.5,1.3-0.8,2c0,0.1-0.1,0.2-0.2,0.3
	c-0.2,0.2-0.2,0.3-0.1,0.6c0.3-0.4,0.6-0.8,0.8-1.3c0.2-0.5,0.4-0.9,0.5-1.4c0.1,0.2,0.2,0.3,0.2,0.5c0,0.1,0,0.2,0,0.3
	c-0.1,0.3-0.2,0.6-0.3,0.8c-0.1,0.5-0.3,0.9-0.4,1.4c-0.1,0.3,0.2,0.3,0.3,0.4c-0.2,0.1-0.4,0.2-0.6,0.2c-0.7,0.1-1.4,0.4-2.1,0.6
	C31.8,25,31.7,25.1,31.5,25.1L31.5,25.1z M34.6,24.1c0-0.2,0.2-0.2,0.3-0.3l0.1,0.3H34.6z M40,14l-0.1,0.3l-0.6-0.2
	C39.6,14,39.8,14,40,14L40,14z M37.3,16.3c-0.1-0.8-0.2-1.5-0.3-2.3c0-0.3-0.1-0.6-0.2-0.9s-0.2-0.9-0.2-1.3c0-0.2,0.1-0.4,0.2-0.4
	c0.2-0.1,0.3-0.2,0.5-0.2c0.8-0.1,1.6-0.1,2.4,0.1c0.4,0.1,0.5,0.3,0.6,0.8c-0.5,0.1-1,0.1-1.6,0c-0.2,0-0.4,0-0.6,0
	c-0.2,0-0.4,0.1-0.4,0.3c0,0.2,0.1,0.4,0.4,0.5c0.6,0,1.2,0.1,1.8,0.1h0.2c0.1,0,0.2,0,0.2,0.2s-0.1,0.2-0.3,0.2
	c-0.4,0-0.7-0.1-1.1-0.1c-0.1,0-0.3,0-0.4,0c-0.2,0-0.4,0.1-0.4,0.3c0,0.1,0,0.2,0.1,0.2c0.2,0.2,0.4,0.4,0.7,0.4
	c-0.1,0-0.3,0.1-0.4,0.1c-0.2,0.1-0.3,0.3-0.2,0.5c0,0.2,0.2,0.3,0.4,0.3h0.8c0.1,0,0.2,0,0.3,0l-0.2,0.6l-0.8-0.1
	c-0.1,0-0.2,0-0.3,0c-0.3,0-0.4,0.1-0.4,0.3c0,0.2,0.2,0.4,0.4,0.4c0.1,0,0.2,0,0.3,0l0.4,0c0.4,0.1,0.4,0.1,0.3,0.5
	c-0.3,0-0.6,0-1,0s-0.4,0.1-0.4,0.3c0,0.2,0.2,0.4,0.4,0.4c0,0,0,0,0,0c0.2,0,0.3,0,0.5,0c0.1,0,0.2,0,0.4,0c0.2,0,0.2,0.2,0.2,0.4
	s-0.1,0.2-0.3,0.2L38.5,18c-0.2,0-0.3,0-0.4,0.2c0,0.2,0,0.3,0.2,0.4c0,0,0,0,0,0c0.2,0,0.4,0.1,0.6,0.1c0.4,0,0.7,0.3,0.5,0.7h-0.4
	h-0.4c-0.3,0-0.5,0.1-0.5,0.3s0.2,0.4,0.5,0.4l1,0.1l0.2,0.6h-0.3c-0.3,0-0.6-0.1-0.8-0.1c-0.2,0-0.4,0.1-0.4,0.3c0,0,0,0,0,0.1
	c0,0.2,0.2,0.4,0.4,0.4c0,0,0,0,0,0c0.3,0,0.7,0,1,0.1c0.2,0,0.3,0.1,0.2,0.4c-0.2,0-0.3,0-0.5,0c-0.2,0-0.4,0-0.5,0.1
	c-0.2,0.1-0.3,0.3-0.2,0.5c0,0.2,0.2,0.2,0.4,0.2h0.9c0.2,0,0.4,0.1,0.4,0.4l-0.8,0.1c-0.2,0-0.4,0.1-0.5,0.1
	c-0.1,0-0.3,0.1-0.2,0.3c0,0.2,0.1,0.3,0.3,0.4c0.1,0,0.2,0,0.4,0c0.4,0,0.7,0,1.1-0.1c0.2-0.1,0.5,0.1,0.5,0.3c0,0,0,0,0,0
	c-0.2,0.2-0.6,0.3-0.9,0.3c-0.5,0.1-1.1,0.2-1.6,0.2c-0.2,0-0.5-0.1-0.6-0.3l0.2-0.2c-0.1-0.1-0.1-0.2-0.1-0.3
	C38,23.6,38,23.2,38,22.7c0-0.7,0-1.5-0.1-2.2c0-0.2,0-0.4-0.1-0.5c-0.1-0.7-0.2-1.4-0.2-2.2C37.5,17.4,37.4,16.9,37.3,16.3z
	 M32.8,16.3c0,0.1-0.1,0.2-0.1,0.3c0.1,0.6,0,1.3-0.3,1.9c-0.1,0.3-0.2,0.6-0.2,1c0.2,0,0.3-0.2,0.3-0.3c0.1-0.3,0.2-0.6,0.3-1
	s0.2-0.6,0.3-0.9c0-0.1,0.1-0.2,0.2-0.4c0.1,0.3,0,0.7-0.1,1c-0.2,0.6-0.3,1.1-0.5,1.7c-0.1,0.1,0,0.3,0.1,0.3c0,0,0,0,0,0
	c0.1,0,0.1,0.1,0.2,0.1c-0.2,0.5-0.3,0.9-0.5,1.4c-0.2,0.6-0.5,1.3-0.7,1.9c0,0.2-0.2,0.4-0.4,0.4c-0.1,0-0.1,0.1-0.2,0.1
	c-0.2,0.3-0.3,0.6-0.5,1c-0.1-0.1-0.2-0.1-0.3-0.2c-0.1-0.1-0.1-0.3,0-0.4c0.3-0.5,0.6-1.1,0.8-1.7c0.1-0.1,0.1-0.3,0-0.5
	c-0.3,0.2-0.4,0.5-0.5,0.7s-0.4,0.8-0.6,1.2c0,0.1-0.1,0.1-0.1,0.1c-0.1,0-0.1,0-0.2,0c0,0-0.1-0.1,0-0.2c0-0.2,0.1-0.3,0.1-0.5
	c0.3-0.8,0.7-1.5,1-2.3c0.1-0.2,0.3-0.5,0.4-0.7c0.1-0.2,0.2-0.4,0.3-0.6c0.1-0.1,0-0.3-0.1-0.3c0,0,0,0,0,0
	c-0.2,0.2-0.4,0.4-0.5,0.7c-0.1,0.3-0.3,0.6-0.5,0.8c-0.1-0.1-0.2-0.3-0.1-0.4c0.1-0.3,0.2-0.6,0.3-0.9c0.2-0.6,0.4-1.1,0.5-1.7
	c0-0.1,0-0.2,0.1-0.3c0-0.3,0.1-0.6,0.3-0.8c0,0,0.1-0.1,0.1-0.1c0-0.3,0.2-0.5,0.5-0.6c0,0,0,0,0.1,0c0,0.8-0.1,1.6-0.4,2.3
	c0.6-0.8,0.6-1.8,1.1-2.6C32.8,16,32.8,16.2,32.8,16.3z M30.4,14.2c-0.2,0.5-0.4,1-0.6,1.6c-0.1,0.2-0.1,0.4-0.1,0.6
	c0,0.1,0.1,0.1,0.2,0.2c0.1,0.1,0.1-0.1,0.1-0.2c0.2-0.7,0.5-1.3,0.8-1.9c0.1-0.1,0.1-0.2,0.3-0.2c0.2-0.1,0.3,0,0.3,0.2
	c0,0.4-0.1,0.8-0.3,1.2c-0.1,0.2-0.2,0.4-0.2,0.7c-0.2,0.6-0.3,1.1-0.4,1.7c0,0.2-0.1,0.5-0.1,0.7c-0.1,0.3-0.3,0.5-0.4,0.8
	c-0.2,0.5-0.5,1-0.7,1.5c0,0.1-0.1,0.1-0.2,0.2c-0.2-0.1-0.2-0.2-0.1-0.4c0.2-0.4,0.4-0.8,0.5-1.2c0-0.1,0-0.2,0-0.2
	c-0.4,0.1-0.3,0.5-0.6,0.7c-0.2-0.1-0.2-0.4-0.1-0.5c0.3-0.5,0.5-1.1,0.8-1.6c0.1-0.3,0.3-0.6,0.4-0.8c0-0.1,0-0.1,0-0.2
	c0-0.1,0-0.2-0.1-0.3c-0.1,0-0.2,0-0.2,0.1c-0.1,0.1-0.1,0.2-0.2,0.3l-1.2,2.2c0,0-0.1,0-0.1,0.1h-0.1c0-0.2,0.1-0.3,0.1-0.5
	c0.2-0.5,0.4-1,0.5-1.5c0.1-0.4,0.2-0.9,0.3-1.3c0.1-0.2,0.2-0.3,0.3-0.5c0.2-0.7,0.5-1.4,0.9-2.1C30.4,13.7,30.4,14,30.4,14.2
	L30.4,14.2z M28.6,11.8c0,0.1,0,0.2,0,0.3c0,0.1,0,0.3,0.1,0.4s0.3,0,0.4,0c0,0.2-0.1,0.4-0.2,0.7c-0.2,0.5-0.2,1-0.2,1.5
	c0,0.3,0,0.7-0.1,1c0,0.3-0.1,0.5-0.2,0.8c0,0.1-0.1,0.1-0.2,0.2v-0.6c-0.3,0.1-0.5,0.4-0.7,0.7l-0.4-0.1c0-0.2,0-0.5,0.2-0.7
	c0.2-0.5,0.4-1.1,0.5-1.6c0.1-0.1,0.1-0.3,0-0.4c-0.1-0.2-0.1-0.5,0-0.7c0.2-0.4,0.4-0.9,0.5-1.3c0,0,0-0.1,0.1-0.1L28.6,11.8z
	 M25.7,9.9c0,0.3-0.2,0.5-0.1,0.8c0.4-0.1,0.3-0.5,0.6-0.7c0.1,0,0.2,0,0.2,0.2c0,0.6-0.1,1.2-0.3,1.8c-0.1-0.1-0.2-0.3-0.3-0.3
	c-0.1,0-0.3,0-0.4,0c-0.1-0.4-0.2-0.8-0.3-1.2c0-0.1,0-0.2,0-0.2c0.2-0.4,0.5-0.7,0.7-1.1C25.9,9.4,25.6,9.6,25.7,9.9L25.7,9.9z
	 M22.7,6.9L23,7.2c0.2-0.2,0-0.4,0-0.6c0.2,0.1,0.5,0.4,0.7,0c0.3,0.2,0.3,0.5,0.4,0.8c0.2-0.1,0.5,0,0.6,0.2
	c0.2,0.2,0.3,0.4,0.5,0.6c0.2,0.2,0.2,0.4,0.1,0.6c-0.1,0.3-0.1,0.6-0.4,0.8c-0.4-0.6-0.3-1.3-0.6-1.9c-0.3,0-0.3,0.2-0.3,0.4
	c0,0.5,0.1,0.9,0.1,1.4c0,0,0,0-0.1,0.1L23,8.3c-0.2,0.1-0.3,0.3-0.2,0.4c0,0,0,0,0,0.1c0.3,0.7,0.7,1.4,1.3,1.9
	c0.1,0.1,0.2,0.2,0.2,0.3c0.1,0.3,0.1,0.6,0.2,1c0,0.1,0,0.1,0,0.2c-0.2-0.1-0.4-0.3-0.5-0.5c-0.4-0.6-0.8-1.2-1.2-1.8
	c-0.1-0.1-0.1-0.2-0.2-0.2l-0.1,0.1c0,0.2,0.1,0.4,0.1,0.6c0.4,0.8,0.8,1.5,1.3,2.2c0.1,0.1,0.2,0.2,0.2,0.4
	c0.1,0.3,0.3,0.5,0.7,0.4l0.1,0.5L24.4,14c-0.5-0.5-0.9-1.1-1.2-1.7c0-0.1-0.1-0.2-0.1-0.3c0-0.3-0.1-0.6-0.3-0.8
	c-0.1-0.1-0.2-0.3-0.4-0.4c-0.1-0.1-0.2-0.3-0.3-0.4C22,10,21.8,9.5,21.7,9.1c0-0.1,0-0.2,0-0.2c0.4,0,0.3,0.5,0.7,0.6l0.1-0.3h0.2
	c0-0.1,0-0.1,0-0.1c-0.2-0.7-0.4-1.4-0.7-2c-0.2-0.2-0.2-0.5-0.1-0.7c0.4,0.4,0.4,1,0.9,1.5C22.9,7.4,22.5,7.2,22.7,6.9L22.7,6.9z"
	/>
<path class="st0" d="M44.7,28.8c-0.2,0-0.4-0.1-0.5-0.2c-0.2-0.1-0.4-0.1-0.5-0.1c-0.6,0-1.2,0.1-1.8,0.3c-0.3,0.1-0.6,0.1-0.9,0.1
	c-0.9-0.1-1.8-0.4-2.7-0.5c0.1-0.5-0.2-0.6-0.6-0.7c-0.2-0.1-0.4,0-0.6,0.1c-0.3,0.1-0.6,0.1-0.8,0c-0.1,0-0.2,0-0.3,0
	c-0.4,0.1-0.7,0.1-1.1,0c-0.4-0.2-0.9-0.2-1.3,0c-0.7,0.4-1.3,0.9-1.8,1.6c-0.3,0.4-0.4,1-0.8,1.3c0,0,0,0.1-0.1,0.2l-0.2,0.4
	c-0.2,0.3-0.3,0.5-0.4,0.8c-0.2,0.5-0.5,1-0.7,1.6c-0.1,0.3-0.2,0.7-0.3,1c0,0.1,0,0.3,0.1,0.3c0,0,0,0,0,0c0.2,0,0.2-0.1,0.3-0.2
	c0.2-0.5,0.4-0.9,0.6-1.4c0.3-0.8,0.7-1.5,1.2-2.2l0.5-0.7c0.3-0.4,0.5-0.8,0.8-1.1c0.2-0.2,0.4-0.4,0.6-0.5
	c0.5-0.3,1.2-0.4,1.8-0.1l-0.5,0.3c-0.7,0.4-1.3,0.8-1.8,1.4c-0.4,0.5-0.8,1-1.2,1.5c-0.4,0.5-0.8,1-1,1.6c-0.2,0.6-0.7,1.1-0.8,1.7
	c-0.2,0.8-0.6,1.5-0.8,2.3c-0.3,1-0.5,2-0.7,3c-0.2,1-0.3,2-0.5,3.1c-0.2,1-0.2,2-0.3,3.1c0,0.7,0,1.3,0,2c-0.1,1.4,0,2.7,0.1,4.1
	c0.1,1.2,0.1,2.3,0.2,3.5c0,0.8,0.1,1.7,0.2,2.5c0.2,1,0.5,1.9,0.7,2.9c0,0.1-0.2,0.3-0.2,0.4c0,0.6,0.1,1.2,0.2,1.8
	c0.2,0.7,0.4,1.5,0.8,2.2c0.5,1.2,0.9,2.4,1.4,3.5c0.2,0.3,0.4,0.7,0.6,0.9c0.1,0.1,0.2,0.1,0.3,0c0.1-0.1,0.1-0.1,0.1-0.2
	c0-0.1,0-0.2-0.1-0.3c-0.2-0.4-0.4-0.8-0.6-1.3c-0.3-0.7-0.5-1.3-0.7-2h0.1h0.1c0.2,0.6,0.5,1.1,0.7,1.7c0.4,1,0.9,2,1.4,3
	c0.4,0.7,0.8,1.3,1.2,1.9c0.5,0.7,1.1,1.4,1.7,2c0.4,0.4,0.9,0.8,1.4,1c0.2,0,0.3,0.1,0.5,0.2c0.4,0.2,0.8,0.3,1.2,0.3
	c0.8,0,1.6-0.1,2.3-0.3c0.4-0.1,0.9-0.2,1.3-0.4c0.5-0.2,0.9-0.5,1.3-0.9c0.4-0.5,0.8-1,1.2-1.5c0.1-0.1,0.1-0.2,0.2-0.3
	c0.1-0.3,0.2-0.5,0.4-0.8c0.4-0.6,0.7-1.1,1-1.8c0.1-0.3,0.2-0.6,0.4-0.9c0.3-0.6,0.6-1.2,0.9-1.9c0.4-0.9,0.7-1.8,1-2.7
	c0.1-0.3,0.2-0.6,0.3-0.9c0.2-0.8,0.4-1.7,0.6-2.5c0.2-0.7,0.4-1.5,0.5-2.2c0-0.1,0-0.2,0.1-0.3c0.2-0.5,0.3-1.1,0.3-1.6
	c0.1-0.8,0.3-1.6,0.3-2.5c0-0.7,0.1-1.5,0.2-2.2c0.2-1.3,0.2-2.5,0.2-3.8c0-0.5,0-1,0-1.6s0-1,0-1.6S51,44.7,51,44
	c0-0.6-0.1-1.2-0.2-1.8c0-0.1-0.1-0.3-0.1-0.4c-0.2-0.9-0.3-1.7-0.5-2.6c-0.1-0.8-0.3-1.5-0.6-2.3c-0.4-0.9-0.6-1.9-1-2.8
	c-0.2-0.8-0.6-1.6-1-2.2c-0.1-0.1-0.2-0.3-0.2-0.4c-0.1-0.3-0.3-0.6-0.6-0.9c-0.3-0.3-0.6-0.7-0.9-1S45.3,28.8,44.7,28.8z M33.9,33
	c-0.3-0.1-0.4-0.4-0.2-0.7c0.1-0.4,0.3-0.7,0.6-1c0.1-0.2,0.3-0.3,0.6-0.3c0.6,0,1.2,0.3,1.6,0.8c0.1,0.2,0.1,0.4,0.1,0.7
	c-0.1,0.5-0.7,0.9-1.2,0.8C34.9,33.3,34.4,33.2,33.9,33z M32.2,35.9c0,0,0-0.1,0-0.1c-0.2-0.3-0.2-0.6,0-0.8
	c0.1-0.1,0.2-0.3,0.2-0.4c0.3-0.4,0.8-0.6,1.3-0.6c0.6,0.1,1.1,0.3,1.5,0.7c0.1,0.1,0.2,0.3,0.1,0.5c-0.1,0.7-0.7,1.1-1.3,1.1h-1.3
	C32.5,36.4,32.3,36.3,32.2,35.9z M40,34.2c0.3,0,0.5,0,0.8,0.1c0.2,0.1,0.4,0.1,0.5-0.1c0.5,0.2,0.7,0.7,0.9,1.1c0,0,0,0.1,0,0.1
	c0,0.7-0.3,1.3-0.7,1.8c-0.2,0.2-0.4,0.3-0.7,0.2c-0.5-0.1-1-0.1-1.4,0c-0.4,0.1-0.9,0.1-1.3-0.1c-0.1,0-0.2-0.1-0.3-0.1
	c-0.9-0.2-1.5-1.1-1.5-2c0-0.4,0.2-0.7,0.6-0.9c0.5-0.2,1.1-0.3,1.6-0.2C39.1,34.2,39.6,34.2,40,34.2z M44,44.1
	c0.1-0.1,0.2-0.2,0.2-0.2c0.1,0,0.1-0.1,0.2-0.1l0.5,0.8l-0.8,0.7c-0.3-0.5-0.5-0.9-0.7-1.3s-0.7-1.1-0.9-1.7
	c-0.1-0.2-0.2-0.4-0.4-0.3c0,0-0.1,0-0.1,0l-0.9-0.5c0.9-0.2,1.8-0.7,2.2-1.6l0.5,0.7c-0.2,0.3-0.4,0.6-0.8,0.6
	c0.1,0.3,0,0.5-0.2,0.7s-0.2,0.3,0,0.5c0.1,0,0.2,0,0.3,0c0.1-0.1,0.2-0.2,0.3-0.3c0.3,0.4,0.5,0.8,0.7,1.2
	c-0.1,0.2-0.3,0.3-0.4,0.4c-0.1,0.1-0.2,0.2-0.1,0.3c0.1,0.1,0.2,0.1,0.4,0.1C43.9,44.1,44,44.1,44,44.1L44,44.1z M42.5,46
	c-0.3,0.3-0.6,0.6-0.8,0.8c-0.3,0.3-0.8,0.5-1.2,0.4c-0.8,0-1.6-0.3-2.4-0.7c-0.3-0.2-0.6-0.4-0.8-0.6c-0.2-0.1-0.3-0.3-0.5-0.4
	c-0.2-0.2-0.4-0.4-0.5-0.6c-0.2-0.4-0.1-0.8,0.1-1.2c0.4-0.5,0.9-0.9,1.5-1c0.4-0.2,0.8-0.3,1.3-0.3l0.6-0.1c0.6,0,1.2,0,1.7,0.1
	c0.1,0,0.2,0.1,0.2,0.1c0.5,0.4,1,1,1.2,1.7C43,44.9,42.9,45.6,42.5,46L42.5,46z M43.5,45.3l0.2,0.3C43.5,45.7,43.5,45.7,43.5,45.3z
	 M44,55.4c-0.1-0.1-0.1-0.3-0.2-0.4c0.3-0.3,0.5-0.7,0.9-0.9c0,0.2,0,0.3-0.1,0.4c-0.3,0.4-0.4,1-0.3,1.5c0,0,0,0.1,0,0.2
	C44.4,55.8,44.1,55.7,44,55.4z M43.5,56.3L43,56.6L42.7,56l0.7-0.6c0.2,0.1,0.3,0.3,0.4,0.5C43.8,56,43.7,56.2,43.5,56.3L43.5,56.3z
	 M43.5,54.5L43,53.2l1-0.7l0.5,1.1L43.5,54.5z M43,52.8c0,0-0.1,0-0.1,0.1c-0.1-0.3-0.2-0.7-0.7-0.9c0.5-0.6,0.6-1.4,0.4-2.2h0.1
	l0.8,1.7l0,0c0,0.2,0.3,0.4,0.2,0.6C43.4,52.3,43.2,52.5,43,52.8L43,52.8z M37.8,54.8c0-0.3,0-0.6,0.1-1c0.1-0.2,0.2-0.4,0.4-0.5
	c0.3-0.2,0.7-0.3,1.2-0.3c0.7-0.1,1.4,0.3,1.7,1c0.2,0.3,0.2,0.6,0.1,0.9c-0.1,0.4-0.4,0.8-0.8,1.1c-0.2,0.1-0.4,0.2-0.6,0.2
	c-0.6,0-1.1-0.1-1.5-0.5l-0.2-0.2C37.9,55.2,37.8,55,37.8,54.8L37.8,54.8z M35.8,55.5c-0.4-0.6-0.7-1.2-1-1.9l0.9-0.8l1,1.9
	L35.8,55.5z M37,54.1l-0.1-0.2c-0.1-0.2-0.3-0.5-0.4-0.7c-0.1-0.2-0.2-0.5-0.3-0.7c0-0.1,0-0.2,0-0.4c-0.3-0.1-0.4-0.3-0.5-0.6
	c-0.1-0.2-0.2-0.5-0.3-0.7c-0.1-0.1-0.1-0.3,0.1-0.5c0.1-0.2,0.3-0.4,0.4-0.5c0-0.1,0-0.1,0-0.2c-0.1,0-0.1,0-0.2,0
	c-0.2,0.1-0.4,0.2-0.5,0.3c-0.2-0.2-0.4-0.5-0.4-0.8l0.8-0.8c0.1,0.2,0.2,0.3,0.3,0.4s0.1,0.3,0.2,0.5c0.2,0.2,0.2,0.5,0.1,0.8
	c0,0.3,0,0.7,0.2,1c0.2,0.5,0.6,0.9,1,1.2c0.1,0.1,0.2,0.1,0.3,0.2C37.3,53,37.1,53.5,37,54.1L37,54.1z M37.9,49.3
	c0.5-0.2,0.9-0.4,1.4-0.5c0.2-0.1,0.4-0.1,0.6-0.1c0.4,0.1,0.8,0,1.2,0.3c0.5,0.3,0.8,0.9,0.8,1.5c-0.1,0.4-0.2,0.8-0.5,1.1l0,0
	c-0.5,0.2-1,0.3-1.6,0.3c-0.4,0-0.7,0-1.1-0.1c-0.8,0-1.4-0.6-1.6-1.3c0-0.2,0-0.3,0-0.5c0-0.2,0.2-0.4,0.2-0.6
	c0-0.2,0.2-0.3,0.4-0.3C37.8,49.3,37.9,49.3,37.9,49.3z M41.4,48l0.5-0.3l0.4,1.3L41.4,48z M38.9,48c-0.3,0.2-0.6,0.3-1,0.4
	c-0.1,0-0.2,0-0.3-0.1c-0.3-0.3-0.4-0.7-0.5-1.1c0.3,0.2,0.5,0.3,0.8,0.5S38.5,47.8,38.9,48L38.9,48z M36.6,47.3
	c0.3,0.3,0.3,0.7,0.6,1l-0.6,0.9c-0.2-0.1-0.3-0.3-0.4-0.5c-0.1-0.2-0.2-0.5-0.4-0.7L36.6,47.3z M35.6,47.6c-0.3-0.5-0.6-1-0.8-1.5
	l0.7-0.6c0.4,0.4,0.7,0.9,0.9,1.5L35.6,47.6z M43.4,50.4l0.7-0.8l0.6,1.3L44,51.6C43.8,51.2,43.6,50.8,43.4,50.4L43.4,50.4z
	 M43.2,49.9c-0.4-0.8-0.7-1.6-0.9-2.4l0.6-0.4l1,2.1L43.2,49.9z M37.7,40.5c-0.2-0.1-0.3-0.2-0.4-0.4c0-0.1,0-0.2,0-0.3
	c0.1-0.1,0.2-0.2,0.3-0.3c0.5-0.4,1.1-0.6,1.7-0.8c0.1,0,0.2-0.2,0.3-0.3l1.2-0.1c0.6-0.1,1.2,0.1,1.7,0.6c0.3,0.2,0.3,0.7,0.1,0.9
	c0,0,0,0-0.1,0.1c-0.2,0.2-0.4,0.3-0.6,0.4c-0.7,0.3-1.4,0.5-2.2,0.6C39,41.1,38.3,40.9,37.7,40.5L37.7,40.5z M43.7,41.6l0.4-0.6
	l0.8,1.2l-0.5,0.6L43.7,41.6z M44.5,40.7c0-0.1,0-0.2,0-0.3s0.1-0.2,0.1-0.4l-0.5,0.2c-0.4-0.6-0.8-1.1-1.1-1.7l1-0.5l1.6,2.5
	l-0.6,1C44.8,41.3,44.6,41,44.5,40.7L44.5,40.7z M42.3,37.7l0.6-1.6c0.3,0.5,0.6,0.9,0.8,1.3c0.1,0.1,0,0.2,0,0.3c0,0,0,0,0,0
	l-0.1,0.1C43,38.2,42.8,38.2,42.3,37.7L42.3,37.7z M31.4,36.5l0.2,0.3c-0.1,0.2-0.3,0.2-0.5,0.2C31.1,36.7,31.2,36.6,31.4,36.5z
	 M35.8,36.7c0.2,0.3,0.4,0.5,0.5,0.8c0,0.1,0.1,0.3,0.1,0.4c0,0.1,0.2,0.2,0.3,0.1c0,0,0,0,0.1,0l0-0.4l1.2,0.5
	c0,0.3-0.2,0.4-0.5,0.5c-0.4,0.2-0.8,0.5-1.1,0.9c-0.4-0.5-0.5-1.2-0.9-1.7c-0.1,0.1-0.2,0.2-0.2,0.3c0,0.2,0,0.3,0.1,0.5
	c0.3,0.7,0.6,1.4,0.9,2.1c0.1,0.2,0.3,0.4,0.5,0.5c0.4,0.1,0.8,0.3,1.2,0.5l-1.5,0.7c0-0.1-0.1-0.2-0.2-0.3c-0.3-0.7-0.7-1.3-1-2
	c-0.1-0.3-0.2-0.5-0.2-0.8c-0.1-0.3-0.1-0.5-0.2-0.8c-0.1-0.5-0.4-0.9-0.8-1.2C34.7,37.3,35.3,37.1,35.8,36.7L35.8,36.7z M30.6,39.1
	c0-0.1,0-0.2,0-0.2c0.1-0.2,0.1-0.4,0-0.5c0.3-0.4,0.7-0.7,1.2-0.8c0.7-0.1,1.4,0.1,2,0.5c0.3,0.2,0.5,0.5,0.5,0.9
	c0,0.3-0.1,0.6-0.3,0.7c-0.3,0.2-0.6,0.3-0.9,0.3c-0.1,0-0.3,0-0.4,0.1c-0.5,0-1-0.1-1.5-0.3C30.9,39.7,30.6,39.4,30.6,39.1z
	 M29.9,40.3l0.1-0.6l0.4,0.5C30.2,40.4,30.1,40.5,29.9,40.3z M30.1,41.9c-0.1-0.4,0-0.5,0.4-0.7c0.8-0.3,1.7-0.2,2.4,0.4
	c0.1,0.1,0.2,0.2,0.2,0.3c0.2,0.2,0.2,0.6,0,0.8c0,0,0,0,0,0c-0.2,0.2-0.4,0.3-0.6,0.4c-0.1,0-0.2,0-0.3,0c-0.5-0.1-1-0.1-1.5-0.1
	c-0.3,0-0.5-0.2-0.7-0.3C30.2,42.4,30.3,42.1,30.1,41.9z M29.2,42.8c0.3,0.4,0.3,0.4-0.2,0.7C29,43.2,29,43.1,29.2,42.8z M33.9,43.2
	c0.3-0.7,0.2-1.6-0.4-2.1l-0.2-0.2c0.6,0,1.2-0.2,1.6-0.7c0.1,0.1,0.1,0.1,0.1,0.1l1,2c0.2,0.3,0.1,0.3-0.1,0.6s-0.3,0.4-0.5,0.7
	c0,0-0.1,0-0.1-0.1c-0.1-0.3-0.2-0.6-0.3-0.9c-0.1-0.3-0.3-0.6-0.5-0.9c-0.1-0.2-0.2-0.2-0.5,0c0.6,1.1,1.1,2.2,1.3,3.4l-0.6,0.5
	c-0.1-0.2-0.2-0.5-0.3-0.7c-0.2-0.4-0.4-0.8-0.5-1.2C33.8,43.5,33.8,43.4,33.9,43.2L33.9,43.2z M34.8,46.8c0.2,0.2,0.3,0.5,0.4,0.8
	s0.2,0.3-0.1,0.5l-0.6,0.5c-0.2-0.3-0.3-0.5-0.4-0.8c-0.2-0.5-0.4-1-0.6-1.5c-0.1-0.2-0.1-0.5,0-0.7c0.1-0.5,0.1-0.9-0.2-1.3
	L33.1,44l0.3-0.2C33.8,44.8,34.3,45.8,34.8,46.8L34.8,46.8z M29.6,45.9c-0.1,0-0.2-0.2-0.3-0.2c-0.2-0.2-0.1-0.6-0.2-0.9
	c0-0.1,0.2-0.3,0.3-0.4c0.1-0.1,0.1,0,0.1-0.1c0.3-0.4,0.8-0.6,1.3-0.4c0.5,0.1,0.9,0.2,1.4,0.2c0.3,0.1,0.5,0.3,0.5,0.6
	c0,0.2,0,0.4-0.1,0.6c-0.1,0.3-0.2,0.4-0.6,0.5c0.2-0.2,0.4-0.4,0.3-0.7c-0.1-0.1-0.1-0.2-0.2-0.3c-0.1,0-0.1,0-0.2,0.1
	c-0.2,0.3-0.6,0.5-0.9,0.5c-0.2,0-0.3,0.2-0.2,0.5c0,0.1,0,0.1,0.1,0.2C30.4,46,30,46,29.6,45.9L29.6,45.9z M28.8,46.1l0.6,0.5
	l-0.7,0.5C28.6,46.8,28.6,46.4,28.8,46.1L28.8,46.1z M29.3,48.8c-0.2-0.4-0.1-0.9,0.3-1.2c0,0,0,0,0,0c0.5-0.3,1.2-0.3,1.8-0.1
	l0.5,0.2c0,0.1,0,0.2,0,0.4c0,0.3-0.1,0.3-0.4,0.4c-0.1,0-0.3,0.1-0.4,0.2c-0.1,0.1-0.3,0.2-0.2,0.3c0.1,0.1,0.2,0.2,0.3,0.3
	c0.5,0,1-0.3,1.3-0.7c0-0.2,0-0.4,0-0.5c0.2,0.2,0.4,0.4,0.6,0.6c0.1,0.1,0.1,0.3,0,0.5c-0.1,0.6-0.6,1-1.2,1l-1.3,0.1
	c-0.1,0-0.1,0-0.2,0c-0.4-0.2-0.8-0.4-1.1-0.7C29.4,49.3,29.4,49,29.3,48.8C29.3,48.8,29.3,48.8,29.3,48.8L29.3,48.8z M28.7,50.1
	L28.7,50.1l0.6,0.4l-0.5,0.2L28.7,50.1z M33.5,50.2c0.5-0.8,0.4-1.8-0.3-2.4l-1.1-0.9l0.8-0.4c0.7,1.3,1.3,2.5,1.8,3.9
	c-0.2,0.1-0.3,0.3-0.5,0.4s-0.2,0.2-0.1,0.2c0.1,0.1,0.2,0.1,0.3,0.1c0.2-0.1,0.3-0.1,0.5-0.2c0.2,0.2,0.3,0.5,0.3,0.8
	c0,0.1,0.1,0.3,0.2,0.4c0.1,0.3,0.1,0.4-0.1,0.5L34.8,53c-0.1,0.1-0.3,0.1-0.3-0.1c-0.4-0.8-0.7-1.6-1-2.4
	C33.4,50.4,33.4,50.3,33.5,50.2L33.5,50.2z M29.7,52.6c-0.1-0.1-0.2-0.2-0.3-0.3c-0.1-0.2-0.2-0.3-0.4-0.4c-0.1,0-0.1-0.2-0.2-0.3
	c0.4-0.3,0.9-0.5,1.5-0.5c0.6-0.1,1.2-0.1,1.8,0.1c0.3,0.1,0.4,0.4,0.4,0.7c0,0.3-0.1,0.5-0.4,0.6c-0.2,0.1-0.5,0.1-0.7,0.2
	c0.2-0.1,0.4-0.2,0.6-0.3c0.2-0.2,0.2-0.3,0.1-0.5s-0.3-0.2-0.5,0s-0.3,0.1-0.5,0.2c-0.4,0.2-0.5,0.3-0.2,0.8
	C30.3,52.9,29.9,52.8,29.7,52.6L29.7,52.6z M28.8,53.7c0-0.2,0-0.5,0-0.7l0.7,0.5c-0.1,0.3-0.1,0.3-0.7,0.4
	C28.8,53.8,28.8,53.8,28.8,53.7z M31.9,53.5c0.1-0.1,0.2-0.1,0.2-0.2c0.6-0.1,1-0.6,0.9-1.2c0-0.4,0-0.7-0.2-1
	c-0.1-0.1-0.1-0.2,0.1-0.3c0.2,0.4,0.4,0.9,0.6,1.4s0.5,0.9,0.7,1.4l-0.5,0.4c-0.1,0.1-0.2,0.2-0.1,0.3c0,0.1,0.2,0.2,0.3,0.1
	c0,0,0,0,0,0c0.2-0.1,0.3-0.2,0.5-0.3l0.5,1l0.5,1l-0.8,0.5c-0.1,0-0.1,0.1-0.1,0.1c0,0.2,0.1,0.4,0.3,0.5c0.2,0.1,0.3,0,0.3-0.2
	c0.1-0.2,0.4-0.4,0.6-0.5c0.2,0.5,0.5,0.9,0.7,1.4c0,0.1,0,0.2-0.1,0.3c-0.2,0.2-0.5,0.4-0.7,0.6c0.1,0.4,0.2,0.5,0.6,0.5l-0.2,0.6
	h-0.1c-0.1-0.4-0.4-0.7-0.6-1.1c-0.2-0.4-0.4-0.8-0.6-1.1c-0.2-0.4-0.4-0.8-0.7-1.2c-0.1-0.3-0.3-0.5-0.4-0.8
	c-0.1-0.1-0.3-0.3-0.5-0.4c0-0.5-0.3-1-0.8-1.2C32.3,53.8,32.1,53.7,31.9,53.5L31.9,53.5z M37.7,61.2c-0.3-0.3-0.4-0.7-0.6-1.1
	c0-0.2,0-0.3,0-0.5c0.2-0.4,0.5-0.8,0.9-1.1c0.1-0.1,0.2-0.2,0.3-0.3c0.1-0.1,0.2-0.2,0.4-0.2c0.9-0.3,1.9,0,2.6,0.7
	c0.1,0.1,0.1,0.2,0.2,0.3c0.5,0.9,0.2,2.1-0.7,2.7c-0.5,0.4-1.2,0.5-1.8,0.3l-0.7-1.3C37.8,60.8,37.9,61.1,37.7,61.2z M29.7,55.9
	c-0.3-0.2-0.4-0.5-0.5-0.8c0-0.1,0.1-0.2,0.2-0.2c0.4-0.3,0.8-0.4,1.3-0.4h0.2c0.5-0.1,1,0,1.4,0.2c0.3,0.1,0.5,0.5,0.4,0.8
	c-0.1,0.6-0.6,1-1.2,1C30.8,56.4,30.2,56.2,29.7,55.9L29.7,55.9z M28.9,56.2l1.3,0.9c-0.5,0.3-0.6,0.8-1,1.3
	C29.1,57.7,29,57,28.9,56.2L28.9,56.2z M31,59.7c-0.1,0-0.2-0.1-0.3-0.2c-0.2-0.2-0.3-0.4-0.4-0.6c-0.1-0.1-0.1-0.2-0.1-0.3
	c0.1-0.4,0.4-0.7,0.7-0.9c0.5-0.2,1-0.1,1.5,0.1c0.4,0.1,0.7,0.2,1,0.5c0.1,0.1,0.2,0.2,0.3,0.3c-0.3,0.5-0.8,0.9-1.4,0.9
	C31.9,59.7,31.4,59.8,31,59.7L31,59.7z M34.5,59.2c0.2-0.3,0-0.7-0.2-0.9c-0.4-0.6-1-1-1.7-1.1l0.8-1.4c0,0,0.1,0.1,0.1,0.1
	c0.2,0.5,0.4,0.9,0.7,1.4s0.7,1.2,1,1.7c0.2,0.3,0.3,0.6,0.5,0.9c0.1,0.2,0.1,0.4-0.1,0.5c0,0,0,0,0,0c-0.2,0.2-0.3,0.3-0.6,0.5
	c0.1,0.1,0.1,0.2,0.2,0.3c0.1,0,0.3,0,0.4-0.1c0.2-0.1,0.3-0.3,0.5-0.4c0.2,0.3,0.4,0.7,0.5,1s0.1,0.4-0.2,0.5l-0.5,0.2
	c-0.2-0.5-0.6-0.9-1.1-1.2c-0.5-0.2-1.1-0.4-1.7-0.5c-0.1,0-0.3-0.1-0.4-0.1c0.1,0,0.2-0.1,0.3-0.1C33.7,60.3,34.2,59.8,34.5,59.2
	L34.5,59.2z M29.7,60.1c0.4,0.5,1,0.4,1.6,0.5c-0.2,0.1-0.5,0.3-0.7,0.5c-0.2,0.2-0.3,0.4-0.4,0.6C29.9,61.4,29.8,61.2,29.7,60.1
	L29.7,60.1z M30.9,62.2c0.3-0.5,0.8-0.8,1.4-0.8c0.9,0,1.7,0.2,2.5,0.6c0.5,0.3,0.6,0.9,0.3,1.4c0,0.1-0.1,0.1-0.1,0.2
	c-0.3,0.3-0.6,0.4-1,0.4c-0.8-0.1-1.6-0.2-2.4-0.3c-0.5-0.1-0.9-0.5-0.8-1C30.7,62.5,30.8,62.3,30.9,62.2L30.9,62.2z M29.4,63.6
	l0.3,0.5l0,0C29.5,64.1,29.5,63.9,29.4,63.6L29.4,63.6z M29.7,64.1l0.1,0.6C29.7,64.5,29.6,64.3,29.7,64.1L29.7,64.1z M29.8,64.7
	c0.2,0.2,0.3,0.3,0.3,0.7C29.9,65.2,29.8,65,29.8,64.7L29.8,64.7z M31.1,64.5l2.1,0.2l1,0.1c0.5,0,1-0.2,1.3-0.7
	c0.2-0.2,0.3-0.4,0.4-0.6c0-0.2,0-0.4,0-0.6l0.9-0.6c0.3,0.1,0.2,0.6,0.7,0.5v-0.4l0.4,0.3l-0.2,0.2c-0.5,0.3-0.7,1-0.5,1.6
	c0.1,0.4,0.5,0.7,0.9,0.8c0.2,0.1,0.4,0.2,0.7,0.3l-0.6,0.2l-0.6,0.2c-0.1-0.1-0.2-0.3-0.3-0.4c-0.2-0.4-0.5-0.8-0.7-1.2
	c-0.1-0.1-0.1-0.1-0.2-0.1c-0.2,0-0.1,0.2,0,0.3c0.2,0.5,0.5,0.9,0.8,1.4l0.1,0.1l-0.6,0.6c-0.1-0.2-0.2-0.4-0.3-0.6
	c-0.3-0.5-0.8-0.8-1.4-0.9c-0.3-0.1-0.7-0.1-1,0c-0.6,0.1-1.2,0.3-1.7,0.7l-0.2,0.2L31.1,64.5z M41.7,63.5c0.1,0.1,0.2,0.2,0.3,0.3
	c0.2,0.2,0.2,0.5,0,0.7c-0.3,0.4-0.8,0.7-1.3,0.7c-0.9,0-1.7-0.2-2.5-0.6c-0.2-0.1-0.3-0.5-0.2-0.7c0,0,0.1-0.1,0.1-0.1
	c0.2-0.2,0.4-0.3,0.7-0.4c0.3-0.2,0.7-0.3,1.1-0.2C40.7,63,41.3,63.2,41.7,63.5L41.7,63.5z M39.9,66.5c0.5-0.1,1.1,0.2,1.4,0.6
	c0.1,0.3,0.2,0.6,0.2,0.9c-0.2,0.8-0.8,1.3-1.6,1.5l-0.8,0.1c-0.5,0-1.1-0.1-1.5-0.4c-0.2-0.1-0.3-0.3-0.4-0.5c0-0.3,0-0.6,0-0.9
	c0-0.1,0-0.2,0.1-0.3c0.5-0.6,1.2-0.8,1.9-0.6c0.2,0.1,0.4,0.1,0.6,0.1L39.9,66.5z M34.1,68c-0.6-0.1-1.1-0.4-1.4-0.8
	c-0.1-0.1-0.1-0.3,0-0.4c0,0,0,0,0,0c0.1-0.1,0.3-0.2,0.4-0.3c0.3-0.2,0.7-0.3,1.1-0.3H35v0.1c-0.3,0.2-0.5,0.5-0.9,0.4
	c-0.1,0-0.2,0-0.3,0c-0.1,0.1-0.2,0.2-0.2,0.2c0,0.1,0.1,0.2,0.2,0.3c0.6,0.2,1.2,0,1.5-0.4c0.1-0.2,0.1-0.3,0.1-0.5
	c0.2,0,0.3,0.2,0.3,0.3c0.1,0.3,0,0.6-0.2,0.8C35.2,67.8,34.6,68,34.1,68L34.1,68z M33.1,68.5l0.8,0.3l-0.3,0.4
	C33.3,69.1,33.1,68.8,33.1,68.5L33.1,68.5z M34.5,70.4c-0.3-0.2-0.4-0.4-0.3-0.6c0.1-0.3,0.3-0.4,0.6-0.4H35l0,0
	c0.2,0,0.4,0,0.7,0.1c0.1,0.1,0.3,0.1,0.4,0.3c0.1,0.1,0.2,0.3,0.1,0.4c0,0,0,0-0.1,0.1C35.6,70.7,35,70.8,34.5,70.4L34.5,70.4z
	 M35.3,68.7l1-0.6c0.2,0.5,0.1,0.9,0.4,1.3c0.2,0.3,0.6,0.6,1,0.8c-0.2,0.3-0.4,0.5-0.8,0.6C37,69.7,36.3,68.8,35.3,68.7L35.3,68.7z
	 M40.2,70.8c0.4,0.2,0.6,0.5,0.8,0.8c0.1,0.3,0,0.7-0.3,0.8c-0.5,0.3-1,0.4-1.5,0.3H39h-0.4c-0.5,0-1-0.4-1.1-0.9
	c-0.1-0.3,0-0.6,0.3-0.7c0,0,0,0,0,0c0.3-0.1,0.6-0.2,0.8-0.3C39.2,70.6,39.7,70.6,40.2,70.8L40.2,70.8z M36.3,73.8
	c-0.5-0.7-1-1.5-1.3-2.3c0.6,0,1.2-0.2,1.8-0.6c-0.2,0.8,0.1,1.7,0.7,2.2c-0.2,0.1-0.4,0.3-0.5,0.4c-0.1,0.2-0.3,0.3-0.4,0.5
	C36.5,74,36.4,73.9,36.3,73.8z M38.2,75c-0.4-0.1-0.7-0.3-0.8-0.7c0-0.2,0.2-0.4,0.3-0.4c0.2,0,0.5,0,0.7-0.1c0.7-0.3,1.5-0.1,2,0.5
	c0.1,0.1,0.1,0.3,0.2,0.4C39.9,75,39.1,75.1,38.2,75z M41.4,74.4l-0.6-1l0.9-0.6l0.7,1.3C42.1,74.4,42,74.4,41.4,74.4z M44.6,69.6
	c0.2,0.1,0.3,0.3,0.2,0.5c0,0,0,0,0,0.1L44.4,71c-0.1,0.2-0.4,0.4-0.6,0.3c-0.5-0.1-0.8-0.5-1-0.9c-0.1-0.3,0-0.5,0.3-0.7
	s0.4-0.2,0.6-0.2c0.2,0,0.3-0.1,0.5-0.1C44.3,69.5,44.4,69.6,44.6,69.6z M45.1,66.5c0.3,0,0.6,0.2,0.8,0.5c0.2,0.3,0.1,0.7-0.2,1
	c-0.4,0.3-0.9,0.5-1.4,0.4h-0.2c-0.4,0-0.7-0.3-0.7-0.7c0-0.1,0-0.2,0.1-0.3C43.7,66.7,44.4,66.4,45.1,66.5z M46.3,63.1
	c0.3,0.1,0.5,0.5,0.5,0.8c0,0.3-0.1,0.6-0.3,0.9c-0.3,0.3-0.7,0.5-1.2,0.4c-0.4-0.1-0.9-0.3-1.2-0.7c-0.3-0.3-0.2-0.5,0-0.7
	c0.5-0.5,1.1-0.8,1.8-0.8C46,63,46.2,63.1,46.3,63.1L46.3,63.1z M47.1,62.1v0.4L47,62.6l-0.6-0.4L47.1,62.1z M45.7,61.8
	c0.1,0.1,0.2,0.2,0.3,0.3c-0.2,0-0.5,0-0.7,0c-0.2,0-0.4,0-0.6,0.1c-0.4,0.1-0.5,0.1-0.7-0.3c-0.3-0.5-0.6-1-0.8-1.5
	c-0.1-0.1-0.2-0.3-0.3-0.4c0,0-0.1-0.1-0.2-0.1S42.6,60,42.6,60c0.1,0.4,0.3,0.8,0.5,1.2c0.2,0.5,0.6,1,0.9,1.5L43.5,63
	c-0.2-0.2-0.3-0.4-0.4-0.6c-0.1-0.2-0.2-0.4-0.3-0.6c0-0.1-0.2-0.2-0.3-0.2c0,0,0,0-0.1,0c-0.1,0.3,0,0.6,0.2,0.8
	c0.2,0.3,0.4,0.6,0.5,0.9c0,0.1,0.1,0.2,0,0.3c-0.1,0.5,0.2,1.1,0.6,1.4c0.1,0.1,0.3,0.2,0.4,0.3c-0.1,0.1-0.2,0.2-0.4,0.2
	c-0.3,0.2-0.7,0.3-0.8,0.8l0,0c-0.7,0.7-0.5,1.4-0.1,2.1c0,0,0,0.1,0,0.1c-0.1,0.1-0.3,0.2-0.4,0.4c-0.2,0.2-0.4,0.4-0.5,0.7
	c-0.1,0.2-0.1,0.4,0,0.5c0.1,0.4,0.3,0.8,0.5,1.2c0.1,0.2,0.3,0.3,0.5,0.4c0.2,0.2,0.5,0.3,0.7,0.4c-0.2,0.5-0.4,1-0.7,1.5
	c-0.1-0.1-0.2-0.2-0.3-0.2c-0.2-0.4-0.5-0.8-0.7-1.2c0-0.1-0.1-0.2-0.1-0.3c0-0.3-0.1-0.6-0.2-0.9c-0.1-0.2-0.3-0.4-0.5-0.6
	c-0.1-0.1-0.3-0.2-0.4-0.3c0.3-0.2,0.6-0.5,0.9-0.8c0.6-0.5,0.8-1.3,0.6-2.1c0-0.1,0-0.2-0.1-0.3c-0.1-0.4-0.2-0.9-0.7-1.1
	c0.3-0.2,0.6-0.3,0.8-0.4c0.6-0.3,0.9-1,0.7-1.6c0-0.1,0-0.2,0-0.2c-0.1-0.5-0.4-0.8-0.8-1l-0.7-0.3c0.3-0.4,0.5-0.7,0.7-1
	c0.4-0.5,0.4-1.1,0.2-1.7c-0.1-0.3-0.2-0.6-0.2-0.9c-0.1-0.5-0.4-0.8-0.8-1.1c-0.5-0.3-1-0.5-1.5-0.6c-0.2,0-0.4,0-0.6,0
	c-0.4,0.1-0.8,0.2-1.2,0.3c0-0.1,0-0.3-0.1-0.3s-0.3,0-0.4,0.1s-0.2,0.2-0.4,0.3c-0.3-0.4-0.5-0.8-0.8-1.3c-0.1-0.1-0.1-0.2,0-0.3
	c0.2-0.3,0.5-0.5,0.8-0.8c0.4,0.8,1.1,1.5,2,1.7c0.4,0.1,0.8,0.1,1.2,0.1c0.7-0.1,1.3-0.6,1.5-1.2c0.3-0.5,0.4-1.2,0.3-1.8
	c-0.1-0.3-0.2-0.7-0.5-0.9l-0.3-0.4l0.9-0.5l1,2.7l-1,1l0.5,1.2l-0.4,0.4c-0.2,0.2-0.2,0.3-0.1,0.4c0.1,0.1,0.4,0.1,0.5,0
	c0.1,0,0.1-0.1,0.2-0.1c0.2,0,0.3,0.1,0.4,0.2c0.2,0.4,0.4,0.9,0.5,1.4c0.1,0.6,0.3,1.1,0.8,1.5C44.8,61.2,45.2,61.5,45.7,61.8
	L45.7,61.8z M47.1,58.3c0.4,0,0.7,0.3,0.7,0.7c0,0.1,0,0.2-0.1,0.3c-0.1,0.3-0.1,0.6-0.2,0.9s-0.1,0.5-0.2,0.7c0,0,0,0.1-0.1,0.1
	c-0.4,0.3-1,0.3-1.4,0.1c-0.4-0.2-0.8-0.5-1.1-0.8c-0.2-0.3-0.3-0.6-0.4-1c0-0.2,0.1-0.4,0.2-0.4c0.2-0.2,0.5-0.2,0.7-0.2
	c0.1,0,0.3,0,0.4-0.1C46.2,58.4,46.6,58.4,47.1,58.3z M45.6,57.5c-0.6,0.2-1.3,0.2-1.7,0.7c-0.8-0.8-0.6-1,0.1-1.6
	c0,0.1,0.1,0.1,0.1,0.2c0,0.3,0.3,0.4,0.4,0.6c0.1,0.1,0.1,0.1,0.2,0c0.1-0.1,0.1-0.1,0.1-0.2c0-0.1,0-0.2-0.1-0.2
	c-0.2-0.3-0.3-0.5-0.5-0.8c0.1,0.1,0.2,0.2,0.3,0.3c0.3,0.3,0.5,0.6,0.8,0.9L45.6,57.5z M48.8,55.2c0,0.1,0.1,0.2,0.1,0.3
	c0,0.4-0.2,0.7-0.5,1c-0.1,0.1-0.1,0.1-0.2,0.2c-0.5,0.5-1.3,0.7-1.9,0.3c-0.4-0.3-0.8-0.6-1.1-1c-0.2-0.2-0.2-0.5,0-0.7
	c0.3-0.4,0.7-0.7,1.1-1c0.2-0.1,0.3-0.1,0.5-0.1c0.2,0,0.5,0.1,0.8,0.1C48.1,54.4,48.6,54.7,48.8,55.2z M49.2,53.7l-0.1,0.5
	l-0.3-0.3L49.2,53.7L49.2,53.7z M44.9,53.4c-0.2-0.4-0.4-0.7-0.6-1.1c0-0.1,0-0.2,0-0.2c0.1-0.2,0.2-0.3,0.3-0.5h0.1
	c0,0.3,0.1,0.7,0.2,1c0.1,0.3,0.3,0.6,0.5,0.8C45.1,53.7,45.1,53.7,44.9,53.4L44.9,53.4z M46.6,50.9c0.6,0.1,1.1,0.2,1.7,0.3
	c0.5,0.1,0.9,0.6,0.9,1.1c0,0.3-0.3,0.6-0.6,0.8c-0.3,0.2-0.7,0.3-1,0.2c-0.3-0.1-0.7-0.1-1-0.1c-0.5,0-0.8-0.4-1-0.8
	c-0.1-0.4,0-0.7,0.2-1c0.2,0.1,0.5,0,0.6-0.2C46.4,51,46.5,51,46.6,50.9L46.6,50.9z M45.2,50.5c0,0-0.1,0-0.1-0.1
	c-0.2-0.3-0.4-0.7-0.6-1c-0.1-0.1,0-0.3,0.1-0.4c0.1-0.1,0.1-0.1,0.2-0.2c0.1-0.1,0.2-0.2,0-0.3s-0.2,0-0.3,0s-0.2,0.1-0.4,0.2l-1-2
	c0.2-0.3,0.6-0.5,0.9-0.6l0.8,1.2c0.1,0.1,0.2,0.3,0.3,0.4c0.1,0.1,0.2,0.3,0.1,0.5c-0.3,0.6-0.2,1.3,0.2,1.9c0,0,0,0.1,0,0.1
	L45.2,50.5z M48.4,47.3c0.4,0.1,0.6,0.4,1,0.6c0,0,0.1,0.1,0.1,0.2c0.1,0.5,0.1,1,0.2,1.4c0,0.2-0.1,0.3-0.2,0.4
	c-0.5,0.2-1,0.2-1.5,0.2C47.4,50,47,50,46.6,49.9c-0.3,0-0.5-0.2-0.5-0.5c-0.2-0.4-0.1-0.8,0.2-1.1c0.3-0.3,0.7-0.6,1.1-0.8
	c0.1-0.1,0.2-0.2,0.3-0.3v-0.1C47.8,47.2,48.1,47.3,48.4,47.3z M46,47l-0.5,0.4c-0.2-0.2-0.3-0.5-0.5-0.7s-0.3-0.5-0.4-0.7
	s-0.2-0.5,0.2-0.7C44.9,46,45.4,46.6,46,47L46,47z M49.3,45c0,0.1,0,0.2,0,0.3c0.1,0.3-0.1,0.6-0.4,0.8c-0.4,0.2-0.8,0.3-1.2,0.3
	c-0.3,0-0.6,0.1-1,0c-0.4,0-0.7-0.2-1-0.5c-0.2-0.2-0.3-0.4-0.2-0.7c0-0.1,0-0.2,0-0.2c0-0.2,0.2-0.4,0.4-0.4c0.2,0,0.3-0.1,0.5-0.2
	c0.4-0.2,0.8-0.3,1.2-0.3c0.1,0,0.3,0,0.4-0.1C48.8,44,49.2,44.4,49.3,45L49.3,45z M49.2,43.4L49,43.2
	C49.2,43.1,49.2,43.2,49.2,43.4L49.2,43.4z M46,43.5l0.2-0.2l0.2,0.1L45.2,44c-0.3-0.2-0.3-0.5-0.5-0.7c0.1-0.2,0.1-0.5,0.4-0.6
	C45.5,42.9,45.5,43.3,46,43.5L46,43.5z M49.4,41.5c0,0.1,0,0.2,0,0.3c-0.1,0.3-0.4,0.5-0.7,0.7c-0.6,0.3-1.3,0.3-2,0.2
	c-0.5-0.1-0.7-0.6-0.6-1c0-0.1,0.1-0.2,0.1-0.3c0.2-0.3,0.5-0.5,0.8-0.6c0.1,0,0.2-0.2,0.3-0.2c0.2-0.1,0.4-0.1,0.7-0.1
	C48.7,40.4,49.2,40.9,49.4,41.5L49.4,41.5z M49.3,39.9L49.3,39.9l-0.2-0.2l0.1-0.1L49.3,39.9z M47.9,37.2c0.1,0,0.1,0.1,0.1,0.1
	c0.3,0.5,0.5,1,0.7,1.5c-0.6,0.7-1.7,1-2.6,0.5c-0.4-0.2-0.6-0.6-0.6-1c0-0.3,0.2-0.6,0.6-0.7c0.2,0,0.3-0.1,0.4-0.2
	C46.9,37.2,47.4,37.1,47.9,37.2L47.9,37.2z M44.9,37.6c0,0.2-0.1,0.3-0.2,0.5l-0.3-0.5l0.7-0.5C45.2,37.3,45,37.4,44.9,37.6
	L44.9,37.6z M45.9,36.6l-0.5,0.3c-0.3-0.2,0.1-0.4,0-0.5h0.1L45.9,36.6z M45,36.2c-0.1-0.1-0.1-0.1-0.2-0.2
	c-0.5-0.7-0.9-1.4-1.4-2.1c-0.1-0.2-0.2-0.4-0.5-0.3c-0.1,0.2-0.1,0.4,0.1,0.6l1.5,2.2c0.1,0.1,0.1,0.2,0.2,0.4l-0.5,0.5l-0.6-1
	c-0.4-0.7-0.7-1.3-1-2c-0.1-0.1-0.2-0.2-0.3-0.3c-0.1-0.1-0.2-0.2-0.3-0.3l0.8-0.6l0.4,0.5l0.7,1c0.1,0.2,0.3,0.3,0.5,0.3l0.8,1.4
	C45.2,36.3,45.1,36.3,45,36.2L45,36.2z M47.2,34.2c0.1,0.1,0.2,0.2,0.2,0.3c0.1,0.4,0.2,0.8,0.2,1.2c-0.7,0.4-1.5,0.2-2-0.4
	c-0.2-0.2-0.3-0.4-0.4-0.7c-0.1-0.2,0-0.4,0.2-0.5c0,0,0,0,0,0C46,34,46.6,34,47.2,34.2L47.2,34.2z M45.4,31c0.4,0.3,0.8,0.7,1,1.1
	c-0.5,0.4-1.3,0.4-1.8,0c-0.3-0.2-0.4-0.6-0.2-0.9c0.1-0.1,0.2-0.2,0.3-0.3C45,30.9,45.2,30.9,45.4,31L45.4,31z M44,30.4
	c-0.3,0.3-0.4,0.7-0.3,1.1c-0.4,0.4-0.4,0.6,0,0.9c0.4,0.3,0.7,0.5,1.2,0.7l0.3,0.1c-0.2,0.3-0.8,0.4-0.7,1
	c-0.3-0.4-0.7-0.8-0.9-1.2c-0.3-0.4-0.4-0.9-0.3-1.4c0-0.5-0.2-1-0.6-1.3c-0.1-0.1-0.2-0.2-0.3-0.3v-0.1L44,30.4z M40,30
	c0.3,0.5,0.5,1,0.7,1.5c-0.1,0.2-0.3,0.3-0.5,0.3c-0.1,0-0.1,0-0.2,0c-0.2,0-0.3,0.2-0.3,0.3c0,0,0,0,0,0c0,0.2,0.2,0.2,0.3,0.2
	c0.5,0,0.9-0.3,1-0.7c0-0.3,0-0.5-0.1-0.7c-0.1-0.3-0.3-0.6-0.4-0.8c0.2-0.1,0.4,0,0.5,0.1c0.4,0.4,0.8,0.8,1.2,1.2
	c0.3,0.3,0.3,0.7,0,1c-0.1,0.1-0.1,0.1-0.2,0.1c-0.7,0.5-1.5,0.7-2.3,0.6c-0.1,0-0.1,0-0.2,0c-0.3-0.1-0.6-0.1-0.9-0.2
	c-0.7,0-1.3-0.7-1.3-1.4c0,0,0-0.1,0-0.1c0-0.6,0.5-1.1,1.1-1.2c0.3-0.1,0.7-0.2,1-0.2C39.6,30,39.8,30,40,30L40,30z M36.9,30.2
	c-0.1,0.2-0.2,0.5-0.3,0.7c-0.4-0.1-0.7-0.5-1-0.6c0.6-0.4,1.2-0.6,1.9-0.7C37.4,29.9,37,30,36.9,30.2L36.9,30.2z"/>
<path class="st0" d="M51.9,47.3c0,0.1,0,0.3,0,0.4c0,0.6,0,1.2,0,1.8c0,0.5,0,1.1,0,1.6c0,0.2,0,0.3,0,0.5c0,1-0.1,1.9-0.3,2.9
	c-0.1,0.4-0.2,0.8-0.3,1.2s-0.1,0.7-0.2,1s-0.2,0.8-0.2,1.3c-0.1,0.6-0.2,1.2-0.2,1.8c0,0.1,0,0.1,0,0.2L50,61.8c0,0,0,0.1,0,0.1
	c0,0.3,0,0.6-0.2,0.8c-0.2,0.3-0.3,0.7-0.3,1.1c0,0.1,0,0.2-0.1,0.2l-0.3,0.9c-0.3,0.8-0.7,1.7-1,2.5C48,67.8,48,68.1,48,68.5
	c0,0.1,0.1,0.1,0.1,0.2c0.2-0.1,0.4-0.3,0.4-0.6c0-0.2,0-0.4,0.1-0.6c0.4-0.9,0.8-1.8,1.1-2.8s0.5-1.8,0.8-2.7
	c0.2-0.8,0.4-1.5,0.6-2.3c0.1-0.6,0.2-1.2,0.3-1.8s0.2-1.2,0.2-1.9c0.1-0.4,0.1-0.7,0.2-1.1c0.1-0.3,0.2-0.7,0.3-1
	c0.2-0.9,0.3-1.9,0.3-2.9c0-1-0.1-1.9-0.1-2.9c0-0.4-0.1-0.8-0.2-1.2C51.9,47.1,51.9,47.2,51.9,47.3z"/>
<path class="st0" d="M26.8,49.4c-0.1-0.6-0.1-1.2,0-1.7c0.1-1.2,0.3-2.4,0.4-3.6v-0.2c0-0.4,0.1-0.9,0.2-1.3s0.2-0.9,0.3-1.4
	c0.1-0.5,0.2-1,0.4-1.5c0.2-0.4,0.3-0.9,0.4-1.3c0-0.2,0.1-0.3,0.1-0.5c0.2-0.4,0.3-0.8,0.5-1.2c0.1-0.2,0-0.4-0.1-0.5
	c0,0-0.1,0-0.1,0c-0.2-0.1-0.4,0-0.4,0.3c-0.2,0.6-0.4,1.2-0.5,1.8c-0.1,0.3-0.1,0.5-0.2,0.8c-0.2,0.5-0.4,1.1-0.5,1.6
	c-0.1,0.5-0.2,0.9-0.3,1.4c-0.1,0.8-0.2,1.6-0.4,2.5c0,0,0,0.1,0,0.2c0,0.5-0.1,1.1-0.1,1.6c-0.1,0.7-0.2,1.3-0.1,2
	c0,0.5,0.1,1,0.1,1.6c0,0.6,0,0.5,0.6,0.5C26.8,49.9,26.8,49.7,26.8,49.4z"/>
<path class="st0" d="M42.6,27.6c-0.3,0.1-0.6,0.1-0.9,0.1c-0.4,0-0.7-0.1-1.1-0.1s-0.5,0.1-0.6,0.3s0.1,0.4,0.5,0.4s0.8,0,1.2,0.1
	c0.6,0.1,1.2,0,1.8-0.2c0.4-0.2,0.8-0.2,1.2,0c0.4,0.2,0.8,0.4,1.1,0.6c0.2,0.1,0.4,0.2,0.6,0.3c0-0.2,0-0.3-0.1-0.5
	c-0.4-0.5-0.9-0.9-1.4-1.1c-0.3-0.1-0.6-0.2-0.9-0.2C43.5,27.3,43,27.5,42.6,27.6z"/>
<path class="st0" d="M50.5,36.4c0,0.1,0,0.2,0,0.3c0.1,0.3,0.2,0.5,0.3,0.8c0.2,0.5,0.3,1,0.5,1.5s0.3,1.1,0.4,1.7s0.2,1,0.3,1.6
	c0,0.1,0.1,0.2,0.1,0.3h0.1c0-0.1,0.1-0.2,0.1-0.3c0-0.5-0.1-1-0.2-1.5s-0.1-0.9-0.2-1.3s-0.2-0.7-0.3-1c-0.1-0.6-0.3-1.2-0.6-1.7
	c-0.1-0.1-0.2-0.3-0.3-0.4C50.7,36.2,50.6,36.2,50.5,36.4C50.5,36.3,50.5,36.4,50.5,36.4z"/>
<path class="st0" d="M27.4,57c-0.1-0.7-0.2-1.4-0.4-2.1c-0.1-0.5-0.2-1-0.1-1.4c0-0.2,0-0.4,0-0.6c0-0.2-0.1-0.3-0.2-0.4
	c-0.2,0.1-0.4,0.3-0.3,0.5c0,0.3,0,0.7,0,1c0,0.1,0,0.1,0,0.2c0.2,1,0.4,1.9,0.6,2.9c0,0.2,0.2,0.4,0.3,0.3S27.4,57.3,27.4,57z"/>
<path class="st0" d="M47.4,30.1l0.3,0.3c0.7,0.8,1.2,1.7,1.5,2.7c0,0.2,0.1,0.3,0.2,0.5c0.1,0.1,0.2,0.2,0.2,0.3l0.1-0.1
	c0-0.1,0-0.3,0-0.4c-0.1-0.3-0.2-0.7-0.3-1c-0.1-0.6-0.4-1.3-0.8-1.8L48,29.9c0-0.1-0.1-0.1-0.2-0.1c-0.1-0.1-0.3-0.1-0.5,0
	C47.3,29.9,47.3,30,47.4,30.1z"/>
<path class="st0" d="M42.9,26.5c0.1,0.1,0.1,0.1,0.2,0.2c0.3-0.2,0.7-0.3,1-0.3c0.1,0,0.3,0,0.4,0c0.1,0,0.2-0.1,0.2-0.2
	c0,0,0-0.1-0.1-0.1c-0.5-0.4-1.1-0.5-1.6-0.2c-0.2,0.1-0.2,0.3-0.2,0.5C42.8,26.5,42.8,26.5,42.9,26.5z"/>
<path class="st0" d="M11.9,55.8c0.3-0.5,0.7-0.9,1-1.4s0.7-1,1.1-1.5c0.8-0.9,1.6-1.8,2.4-2.6c0.3-0.4,0.7-0.7,1-1.1
	c0.9-0.8,1.7-1.6,2.6-2.4c0.1-0.1,0.2-0.3,0.3-0.4c-0.3-0.3-0.5-0.3-0.7,0c-0.3,0.3-0.6,0.6-0.9,0.9c-0.4,0.3-0.7,0.8-1.2,1
	c0,0,0,0,0,0.1c-0.6,0.7-1.3,1.3-1.9,2c-0.6,0.7-1.4,1.5-2,2.3s-1.4,1.8-2,2.6c-0.3,0.5-0.6,1-0.9,1.5c-0.1,0.3-0.1,0.3,0.2,0.6
	c0.1-0.1,0.2-0.2,0.3-0.3C11.3,56.6,11.6,56.2,11.9,55.8z"/>
<path class="st0" d="M10.9,59.6c0.2-0.4,0.3-0.7,0.5-1.1c0.5-0.8,1-1.6,1.5-2.3c0.1-0.2,0.3-0.4,0.4-0.6c0.3-0.4,0.6-0.9,0.9-1.3
	c0.6-0.8,1.2-1.5,1.8-2.2c0.1-0.1,0.1-0.2,0.1-0.3c0-0.1,0-0.2-0.1-0.3c-0.1-0.1-0.2-0.1-0.3,0c-0.1,0.1-0.2,0.2-0.3,0.4l-1,1.2
	h-0.1c-0.2,0.3-0.5,0.6-0.8,0.9s-0.5,0.8-0.8,1.2c-0.5,0.6-1,1.2-1.3,2c-0.3,0.7-0.7,1.3-1.1,1.9c-0.1,0.1-0.1,0.2-0.2,0.4
	c0,0.1,0,0.2,0.1,0.2c0.1,0.1,0.2,0.2,0.3,0.2C10.7,59.8,10.9,59.7,10.9,59.6z"/>
<path class="st0" d="M14.9,54.5c-0.2,0.3-0.4,0.6-0.6,1c-0.5,0.7-1,1.5-1.5,2.2c-0.1,0.2-0.3,0.5-0.4,0.8c0.1,0.1,0.1,0.2,0.2,0.3
	c0.1,0,0.2,0,0.3,0c0,0,0.1-0.1,0.1-0.1l1-1.5c0.3-0.5,0.6-0.9,0.9-1.3s0.4-0.6,0.6-1s0-0.4-0.2-0.5S14.9,54.3,14.9,54.5z"/>
<path class="st0" d="M21.2,44.9c0.5-0.3,0.8-0.7,1.3-1l0.5-0.4c-0.4-0.3-0.7-0.3-1,0c-0.3,0.3-0.5,0.5-0.8,0.7l-1.8,1.5
	c-0.4,0.4-0.8,0.7-1.2,1C18,46.8,18,47,18.3,47.1c0.4-0.4,0.9-0.7,1.4-1C20.2,45.7,20.7,45.2,21.2,44.9z"/>
<path class="st0" d="M22.5,45.1c-0.7,0.7-1.3,1.4-2,2.2c0.2,0.2,0.3,0,0.5,0c0.4-0.3,0.8-0.7,1.2-1l1.1-1c0.1-0.1,0.1-0.1,0.1-0.2
	c0-0.1-0.1-0.2-0.2-0.2c-0.1,0-0.2,0-0.3,0C22.7,44.9,22.6,45,22.5,45.1z"/>
<path class="st0" d="M17.9,59.2c0.5-0.6,1.1-1.2,1.7-1.8l2.1-2c0.1-0.1,0.1-0.2,0.2-0.3c0-0.1,0-0.2-0.1-0.3c-0.1-0.1-0.2,0-0.3,0.1
	c-0.1,0.2-0.3,0.3-0.5,0.4c-0.1,0.1-0.2,0.1-0.2,0.2l-1,0.9c-0.6,0.6-1.3,1.2-1.9,1.8c-0.3,0.2-0.5,0.5-0.5,0.8
	C17.6,59.5,17.7,59.5,17.9,59.2z"/>
<path class="st0" d="M22.8,56.1c-0.2,0.2-0.3,0.4-0.5,0.6c-0.4,0.5-0.9,0.9-1.3,1.3c-0.2,0.2-0.3,0.3-0.5,0.6c0.2,0.1,0.5,0,0.6-0.1
	c0.2-0.2,0.4-0.3,0.6-0.5l2-1.8c0.1-0.1,0.2-0.3,0.1-0.5c-0.1-0.1-0.3-0.2-0.5-0.1c0,0,0,0,0,0C23.2,55.7,23,55.9,22.8,56.1z"/>
<path class="st0" d="M17.9,62.3c0.2-0.2,0.4-0.5,0.6-0.7c0.6-0.6,1.2-1.2,1.9-1.8c0.1-0.1,0.3-0.3,0.2-0.6c-0.5,0.2-0.9,0.5-1.3,0.8
	c-0.5,0.5-1,0.9-1.5,1.4c-0.1,0.2-0.3,0.3-0.4,0.5c-0.1,0.1-0.1,0.3,0,0.5C17.7,62.6,17.8,62.4,17.9,62.3z"/>
<path class="st0" d="M21.8,52.6c0.6-0.6,1.1-1.2,1.7-1.8c0.2-0.2,0.2-0.4,0-0.5c-0.2-0.1-0.4-0.1-0.5,0.1c0,0,0,0,0,0
	c-0.3,0.3-0.5,0.7-0.8,1c-0.3,0.2-0.5,0.5-0.7,0.8c-0.2,0.4-0.5,0.5-0.8,0.8c-0.1,0.1-0.1,0.2-0.2,0.3c0.2,0,0.3,0,0.4,0
	C21.2,53.1,21.5,52.8,21.8,52.6z"/>
<path class="st0" d="M22.5,53.5c0.2-0.2,0.5-0.5,0.7-0.7c0.1-0.1,0.1-0.4,0-0.5c-0.2-0.1-0.4,0-0.5,0.1c-0.1,0.1-0.2,0.2-0.2,0.3
	L21.3,54c-0.1,0.1-0.2,0.2-0.1,0.4c0.2-0.2,0.5-0.3,0.7-0.5C22.1,53.8,22.3,53.6,22.5,53.5z"/>
<path class="st0" d="M21.3,73.6c1-0.5,2-1.1,3-1.6c0.7-0.3,1.4-0.6,2.1-1l0.6-0.3c0.1-0.1,0.2-0.2,0.1-0.3c-0.1-0.1-0.2-0.2-0.3-0.2
	c-0.2,0.1-0.4,0.1-0.6,0.2L24.9,71c-0.2,0.1-0.3,0.1-0.5,0.2c-1.2,0.7-2.4,1.4-3.6,1.9c-0.1,0-0.1,0.1-0.2,0.1
	c-0.1,0.1-0.2,0.2-0.1,0.3c0.1,0.1,0.2,0.1,0.3,0.1C20.9,73.7,21.1,73.7,21.3,73.6z"/>
<path class="st0" d="M24.6,69.5c0.2-0.1,0.4-0.1,0.6-0.2c0.1,0,0.2,0,0.3,0.1c0.2,0.2,0.2,0.3,0.5,0.1c0.3-0.2,0.6-0.4,1-0.5
	c0.1,0,0.2-0.1,0.3-0.1c0.1,0,0.2-0.1,0.2-0.2c0-0.1-0.1-0.2-0.1-0.2c-0.2-0.1-0.5-0.1-0.7,0l-1.1,0.6c-0.1-0.4-0.4-0.3-0.7-0.3
	c-0.3,0.1-0.6,0.2-0.8,0.3c-0.2,0.1-0.5,0.2-0.7,0.3c-0.2,0.1-0.4,0.2-0.6,0.3c-0.2,0.1-0.2,0.3-0.1,0.4c0.1,0.2,0.2,0.1,0.4,0
	L24.6,69.5z"/>
<path class="st0" d="M26.1,68c0.3-0.2,0.6-0.3,1-0.4c0.2,0,0.3-0.1,0.4-0.2c0.2-0.2,0.1-0.4-0.1-0.4L27,66.9
	c-0.2,0.1-0.4,0.2-0.6,0.2c-0.5,0.3-1.1,0.7-1.6,1c-0.2,0.1-0.2,0.2,0,0.4c0.1,0.1,0.3,0.1,0.4,0L26.1,68z"/>
<path class="st0" d="M29,74.9C29,74.8,29,74.8,29,74.9c0.3-0.4,0.6-0.6,1-0.8c0.2-0.1,0.5-0.1,0.6-0.2c0.2-0.1,0.3-0.2,0.2-0.4
	c-0.1-0.2-0.2-0.3-0.4-0.2h-0.1v-0.1c-0.2,0.1-0.4,0.2-0.6,0.3c-0.4,0.2-0.7,0.5-1,0.7c-0.2,0.1-0.3,0.3-0.4,0.5
	c0,0.2-0.2,0.4-0.4,0.5c-0.3,0.1-0.6,0.2-1,0.3l-2.4,0.7c-0.3,0.1-0.7,0.2-1,0.3c-0.8,0.2-1.6,0.4-2.4,0.7c-0.2,0.1-0.4,0.2-0.5,0.3
	c-0.1,0.1-0.1,0.2-0.1,0.3c0.1,0.1,0.2,0.1,0.2,0.1c0.2,0,0.3-0.1,0.5-0.1c0.5-0.2,0.9-0.3,1.4-0.5c0.7-0.2,1.3-0.3,2-0.5
	s1.2-0.4,1.8-0.5c0.6-0.1,1.2-0.3,1.7-0.6C28.7,75.5,29.1,75.4,29,74.9z"/>
<path class="st0" d="M29.5,75.5c0.3,0.2,0.6,0.3,0.9,0.1c0.2-0.1,0.4-0.2,0.6-0.2c0.1,0,0.3-0.1,0.4-0.1s0.2-0.1,0.2-0.2
	s-0.1-0.2-0.2-0.2c-0.1-0.1-0.3-0.1-0.4-0.1C30.4,74.8,29.9,75.1,29.5,75.5z"/>
<path class="st0" d="M24.9,61.3c0.1-0.1,0.1-0.1,0.1-0.2C25,61,25,61,25,60.9c-0.1-0.1-0.4-0.2-0.5,0c0,0,0,0,0,0
	c-0.2,0.2-0.3,0.4-0.5,0.6l-1.3,1.3c-0.1,0.1-0.2,0.2-0.3,0.3c0,0.1,0,0.2,0.1,0.3c0,0,0.2,0,0.2,0s0.3-0.2,0.5-0.4
	C23.8,62.5,24.4,62,24.9,61.3z"/>
<path class="st0" d="M41.5,44.4c0,0.2,0,0.4,0,0.6s0,0.4-0.3,0.6c-0.1,0.1-0.2,0.2-0.3,0.3c0,0.1-0.1,0.2,0,0.2
	c0.1,0.1,0.2,0.1,0.3,0.1c0.2,0,0.3-0.1,0.5-0.2c0.6-0.5,0.6-1.4,0.1-2C41.6,44.1,41.5,44.3,41.5,44.4z"/>
<path class="st0" d="M39.7,45.8c-0.1-0.2-0.3-0.3-0.6-0.2c-0.2,0.1-0.5,0-0.7-0.1c-0.1,0-0.2-0.1-0.3,0c-0.2,0-0.2,0.1-0.2,0.3
	c0.2,0.3,0.5,0.5,0.8,0.5l0.7-0.1C39.8,46.2,39.9,46,39.7,45.8z"/>
<path class="st0" d="M41.2,35.3c0.1,0.3,0,0.6-0.2,0.9c-0.1,0.1-0.1,0.2-0.2,0.2c-0.1,0.1,0,0.3,0.1,0.4c0.1,0.1,0.2,0,0.3-0.1
	c0.3-0.2,0.4-0.6,0.5-0.9c-0.1-0.2-0.1-0.4-0.2-0.7c0,0-0.2-0.1-0.2-0.1S41.2,35.2,41.2,35.3z"/>
<path class="st0" d="M40.3,61.3c0.3-0.1,0.6-0.3,0.8-0.6c0.1-0.1,0.1-0.2,0-0.3c-0.1-0.1-0.2-0.1-0.3,0c0,0,0,0,0,0
	c-0.2,0.2-0.4,0.3-0.6,0.3c-0.1,0-0.3,0.1-0.4,0.1c-0.2,0.1-0.3,0.2-0.4,0.4c0,0.2,0.1,0.3,0.3,0.3c0,0,0.1,0,0.1,0
	C39.9,61.4,40.1,61.3,40.3,61.3z"/>
<path class="st0" d="M38.2,51c0,0-0.1,0.1-0.2,0.1s0.2,0.6,0.5,0.6s0.5-0.1,0.7-0.1s0.2-0.1,0.2-0.2s-0.1-0.2-0.2-0.3
	C38.9,51,38.6,51,38.2,51z"/>
<path class="st0" d="M40.1,50.9c0.1,0.1,0.3,0.2,0.4,0.1c0.1-0.1,0.3-0.2,0.4-0.2c0.3-0.2,0.3-0.4,0.1-0.7c-0.3,0.2-0.5,0.3-0.8,0.5
	C40.1,50.6,40,50.8,40.1,50.9C40.1,50.9,40.1,50.9,40.1,50.9z"/>
<path class="st0" d="M40.2,67.9c0,0.2-0.2,0.3-0.4,0.3c-0.3,0.1-0.6,0.3-0.8,0.4c-0.1,0-0.2,0.2-0.1,0.3c0,0,0,0,0,0
	c0.1,0.1,0.2,0.2,0.3,0.2l0.2-0.1c0.2-0.1,0.5-0.2,0.7-0.2c0.3-0.1,0.5-0.4,0.5-0.7c0-0.1,0-0.1,0-0.2c0-0.1-0.1-0.2-0.2-0.2
	S40.2,67.8,40.2,67.9z"/>
<path class="st0" d="M41.4,40c0.2-0.2,0.2-0.5,0.1-0.7c-0.1-0.1-0.1-0.1-0.2-0.2c-0.1,0.1-0.3,0.2-0.4,0.3c-0.1,0.2-0.4,0.3-0.7,0.3
	c-0.2,0-0.5,0-0.7,0.1c-0.1,0-0.2,0.1-0.2,0.2c0,0.1,0.1,0.2,0.2,0.3c0.1,0,0.1,0,0.2,0c0.4,0.1,0.9,0,1.3-0.1
	C41.1,40.2,41.3,40.1,41.4,40z"/>
<path class="st0" d="M33.5,63.4c0.3-0.2,0.5-0.3,0.8-0.5c0,0,0.1-0.1,0.1-0.1c0.1-0.1,0.1-0.3-0.1-0.4c-0.1-0.1-0.3-0.1-0.4,0
	c-0.2,0.2-0.5,0.3-0.8,0.4l-0.2,0.1c-0.2,0.1-0.2,0.2,0,0.4c0.1,0.1,0.2,0.1,0.3,0.2C33.3,63.4,33.4,63.4,33.5,63.4z"/>
<path class="st0" d="M39.5,55.9c0.1,0.1,0.3,0.1,0.5,0c0.1-0.2,0.3-0.2,0.4-0.2c0.2-0.1,0.3-0.2,0.4-0.3c0-0.1,0-0.2,0-0.3
	c0-0.1-0.1-0.1-0.1-0.2L40.3,55c-0.2,0.1-0.5,0.2-0.7,0.3C39.4,55.5,39.4,55.7,39.5,55.9C39.5,55.8,39.5,55.8,39.5,55.9z"/>
<path class="st0" d="M47.7,55.5c-0.3,0.1-0.5,0.2-0.8,0.3c-0.1,0-0.1,0.1-0.2,0.2c0,0.2,0.2,0.4,0.4,0.4c0,0,0.1,0,0.1,0
	c0.3-0.1,0.6-0.2,0.8-0.3c0.2-0.1,0.3-0.2,0.4-0.3c0-0.1,0.1-0.2,0-0.3c0-0.2-0.1-0.2-0.3-0.2S47.8,55.4,47.7,55.5z"/>
<path class="st0" d="M48,48.6c-0.1,0-0.1,0-0.2,0c-0.2,0-0.3,0.2-0.3,0.3c0,0.2,0.2,0.3,0.3,0.3c0.5,0.1,1-0.2,1.2-0.6
	c0.2-0.4,0.2-0.5-0.2-0.7c-0.1,0.1-0.1,0.2-0.2,0.2C48.5,48.4,48.2,48.6,48,48.6z"/>
<path class="st0" d="M46.5,59.9c-0.1,0-0.3,0-0.4,0.1c-0.2,0.1-0.2,0.3,0,0.4c0.1,0.1,0.2,0.1,0.3,0.1l0.8-0.2c0.1,0,0.1,0,0.2-0.1
	c0.2-0.1,0.2-0.3,0.1-0.5c-0.1-0.2-0.2-0.1-0.4-0.1C46.9,59.9,46.7,59.9,46.5,59.9z"/>
<path class="st0" d="M33.7,38.6c0-0.1-0.1-0.2-0.1-0.4h-0.4v0.5l-0.2,0.1h-0.3c-0.2,0-0.3,0.2-0.3,0.4c0,0.2,0.2,0.3,0.3,0.3
	c0.1,0,0.3,0,0.4,0C33.5,39.3,33.8,39.1,33.7,38.6z"/>
<path class="st0" d="M47.6,52c0,0-0.1,0-0.2,0c-0.2,0.1-0.3,0.2-0.2,0.4c0,0,0,0,0,0c0.1,0.2,0.2,0.2,0.4,0.2l0.5-0.1
	c0.2-0.1,0.4-0.2,0.5-0.4c0.1-0.2,0-0.3-0.2-0.3c-0.1,0-0.1,0-0.2,0.1C48,51.9,47.8,52,47.6,52z"/>
<path class="st0" d="M48.3,44.9c-0.1,0.2-0.4,0.4-0.6,0.3c-0.1,0-0.1,0-0.2,0c-0.2,0-0.3,0.2-0.3,0.3c0,0,0,0,0,0
	c0,0.2,0.1,0.3,0.3,0.3c0.3,0,0.5-0.1,0.8-0.1c0.3-0.1,0.5-0.4,0.5-0.7c0-0.1-0.1-0.2-0.2-0.2C48.5,44.7,48.4,44.8,48.3,44.9z"/>
<path class="st0" d="M40.9,63.8h-0.4c-0.1,0-0.2,0-0.3,0.1c-0.1,0-0.2,0.2-0.2,0.3c0,0.1,0.1,0.2,0.2,0.2c0.5,0,0.9-0.1,1.3-0.1l0,0
	c0-0.1,0.2-0.2,0.2-0.3s-0.1-0.2-0.3-0.2H40.9L40.9,63.8z"/>
<path class="st0" d="M34.6,35.7c0.1-0.1,0.2-0.3,0.2-0.4c0-0.2,0-0.3,0-0.4c0-0.1-0.1-0.1-0.2-0.2c-0.1,0-0.2,0-0.2,0.1
	c0,0-0.1,0.1-0.1,0.1c0,0.2-0.2,0.3-0.4,0.4c-0.1,0-0.2,0.1-0.3,0.1c-0.2,0.1-0.3,0.3-0.2,0.5c0.1,0.2,0.3,0.2,0.5,0.2
	C34.2,35.9,34.4,35.8,34.6,35.7z"/>
<path class="st0" d="M39.2,71.6C39,71.7,39,71.8,39.1,72c0.1,0.1,0.2,0.1,0.3,0.1c0.4,0,0.8-0.2,1-0.5c0.1-0.1,0.1-0.2,0-0.3
	c-0.1-0.1-0.2-0.1-0.3,0C39.9,71.3,39.5,71.5,39.2,71.6z"/>
<path class="st0" d="M47.1,38.6c0.4,0,0.7-0.3,0.8-0.6c0-0.2,0-0.4-0.2-0.4l-0.8,0.7C46.8,38.4,46.8,38.5,47.1,38.6z"/>
<path class="st0" d="M48,41.6l-0.6,0.3c0.2,0.4,0.3,0.4,0.6,0.3c0.3-0.1,0.5-0.2,0.7-0.3c0.1-0.1,0.2-0.2,0.2-0.4
	c0-0.2-0.2-0.3-0.4-0.2L48,41.6z"/>
<path class="st0" d="M31.9,56c0.2-0.2,0.4-0.5,0.3-0.7c0-0.1-0.1-0.2-0.2-0.2c-0.1,0-0.2,0.1-0.2,0.2c-0.1,0.1-0.2,0.2-0.3,0.2
	c-0.1,0-0.3,0.1-0.4,0.2c-0.1,0.1-0.1,0.2-0.2,0.3c0.1,0.1,0.2,0.2,0.3,0.2C31.3,56.2,31.6,56.1,31.9,56z"/>
<path class="st0" d="M32.9,42.3c0.1-0.2,0.2-0.4,0-0.5s-0.3-0.2-0.5,0s-0.5,0.5-0.9,0.6c-0.1,0-0.1,0.1-0.1,0.2s0.1,0.3,0.3,0.3
	C32.2,42.9,32.6,42.7,32.9,42.3z"/>
<path class="st0" d="M32.7,59.1c0.2-0.1,0.4-0.2,0.5-0.3c0.1-0.1,0.1-0.2,0.1-0.3c0,0,0,0-0.1-0.1l-0.3-0.2
	c-0.2,0.3-0.6,0.4-0.9,0.4h-0.2c-0.3,0.1-0.4,0.2-0.3,0.4c0,0.2,0.2,0.3,0.4,0.3c0,0,0.1,0,0.1,0C32.2,59.2,32.4,59.1,32.7,59.1z"/>
<path class="st0" d="M45.5,63.9c-0.1,0-0.3,0-0.4,0c-0.2,0-0.3,0.1-0.3,0.3c0,0.2,0.1,0.3,0.3,0.3c0.3,0,0.6-0.1,0.9-0.1
	c0.1,0,0.2-0.1,0.2-0.2c0-0.1,0-0.2,0-0.3c0-0.1-0.2-0.1-0.3-0.1C45.8,63.8,45.7,63.9,45.5,63.9L45.5,63.9z"/>
<path class="st0" d="M44.1,67.8c0.1,0.2,0.3,0.3,0.5,0.2c0.2-0.1,0.4-0.1,0.6-0.2c0.2-0.1,0.2-0.4,0-0.5c-0.1,0-0.2-0.1-0.3-0.1
	c-0.1,0-0.3,0.1-0.5,0.1C44.1,67.4,44,67.6,44.1,67.8z"/>
<path class="st0" d="M45.9,34.9c0,0,0,0.1,0,0.1c0,0.2,0.1,0.3,0.3,0.3c0.1,0,0.1,0,0.1,0c0.2-0.1,0.3-0.2,0.5-0.3s0.3-0.3,0.2-0.5
	c-0.1-0.2-0.3-0.3-0.5-0.2c0,0-0.1,0-0.1,0C46.3,34.5,46.1,34.7,45.9,34.9z"/>
</svg>
