<svg id="Layer_1" data-name="Layer 1" xmlns="http://www.w3.org/2000/svg" viewBox="0 0 54.26 81.67"><defs><style>.cls-1{fill:#412020;}</style></defs><title>bob3</title><path class="cls-1" d="M22,2.16c.1.61.15,1.23.24,1.84a9.22,9.22,0,0,1-.11,2.73,25.65,25.65,0,0,1-.67,2.7q-.26,1-.55,1.94c-.2.67-.42,1.33-.62,2S20,14.48,19.75,15a10.14,10.14,0,0,0-.46,2.89c0,.43,0,.86-.07,1.28a3.64,3.64,0,0,0,.06,1.32c.11.48.27,1,.34,1.45a5.84,5.84,0,0,0,.68,1.88c.12.24.26.47.41.75-.64-.21-1.22-.41-1.81-.59-.75-.22-1.49-.46-2.25-.63s-1.25-.18-1.87-.31a34.72,34.72,0,0,1-3.9-1.16c-.59-.2-1.15-.45-1.73-.65-.4-.14-.83-.22-1.22-.39a7.2,7.2,0,0,1-2.39-1.52c-.34-.35-.69-.68-1-1A18.09,18.09,0,0,1,2.45,16c-.1-.14-.21-.32-.41-.27A4.38,4.38,0,0,0,1.3,16a.25.25,0,0,0-.08.21,1.71,1.71,0,0,0,.12.42c.06.13.16.25.21.39.22.6.45,1.21.65,1.82.36,1.08.73,2.16,1.06,3.26.19.64.33,1.3.46,2s.2,1.25.3,1.87c.13.78.28,1.56.41,2.34a1.83,1.83,0,0,1,0,.2c.09,1.53.2,3.06.28,4.59,0,.87.08,1.74.08,2.61A18,18,0,0,0,5,38.73c.17,1,.38,1.92.57,2.89a4.74,4.74,0,0,0,.17.7c.25.69.49,1.39.8,2.05a14.17,14.17,0,0,0,1.11,2,18.75,18.75,0,0,0,1.53,1.87,16.06,16.06,0,0,0,1.33,1.29c.22.19.52.29.74.47a4.8,4.8,0,0,0,1.12.62,4.49,4.49,0,0,1,.67.43c-.27.32-.51.59-.72.89a10.93,10.93,0,0,0-1.11,1.57l0,0c-.34.48-.71.95-1,1.45a28.36,28.36,0,0,0-1.44,2.6c-.37.8-.83,1.56-1.23,2.35s-.59,1.35-.94,2a15.58,15.58,0,0,0-1.36,3.6c0,.18-.09.37-.13.55A6.23,6.23,0,0,1,4.9,67a6.49,6.49,0,0,0-.41,1.84c0,.13,0,.27-.05.4-.07.65-.15,1.31-.21,2A4.47,4.47,0,0,1,4,72.89a.48.48,0,0,0,0,.24c0,.48.07,1,.14,1.44s.19.92.26,1.38c.1.66.17,1.33.27,2a8.82,8.82,0,0,0,.26,1.18,8.58,8.58,0,0,0,.37.84,5.22,5.22,0,0,0,1.31,2,3.2,3.2,0,0,0,1.56.86c.61.1,1.22.16,1.83.24a.37.37,0,0,1,.16,0,1.43,1.43,0,0,0,.78.15l.88.08a.41.41,0,0,0,.23,0,1.71,1.71,0,0,1,.93-.19c.55,0,1.1.07,1.65.07a21.6,21.6,0,0,0,3.26-.15c.17,0,.34-.14.5-.12a4.9,4.9,0,0,0,1.4-.11l1.16-.14,2.15-.31a.68.68,0,0,0,.19,0,9,9,0,0,1,2.09-.57c.6-.13,1.21-.24,1.81-.38s1.27-.32,1.91-.48a6.4,6.4,0,0,0,.78-.19c.76-.3,1.51-.63,2.27-.93a5.08,5.08,0,0,1,1.35-.51A1,1,0,0,0,34,79a3.89,3.89,0,0,1,1.13-.64c.15.13.27.24.41.35l1.06.8a9,9,0,0,0,1.09.75c.57.3,1.17.53,1.77.78a1.31,1.31,0,0,0,.39.08c.44,0,.88.08,1.32.1a3.72,3.72,0,0,0,1.44-.07,7.37,7.37,0,0,0,1.57-.7,19.71,19.71,0,0,0,2.79-2.18c.31-.29.58-.63.87-.94a6.21,6.21,0,0,0,.49-.53c.39-.54.74-1.11,1.15-1.64a16.3,16.3,0,0,0,1.16-1.73c.32-.55.63-1.09.91-1.66a12.49,12.49,0,0,0,.66-1.55c.22-.66.38-1.34.57-2,.13-.48.31-.95.41-1.43.2-.94.54-1.85.66-2.82.07-.6.33-1.19.46-1.79s.19-1.11.26-1.67c0-.3,0-.62.06-.92.14-1.08.29-2.16.43-3.24q.15-1.19.27-2.39a20.68,20.68,0,0,0,.14-3.9c0-.09,0-.19,0-.28,0-.58,0-1.15,0-1.73,0-.9.09-1.79,0-2.69s-.1-2-.14-3a1.35,1.35,0,0,0,0-.24,7,7,0,0,1-.24-1.3,4.19,4.19,0,0,0-.17-1c-.14-.52-.34-1-.47-1.54a4.32,4.32,0,0,1-.2-1.31,1,1,0,0,0-.09-.41c-.23-.57-.51-1.13-.71-1.7a15.38,15.38,0,0,0-1-2.23c-.1-.19-.18-.38-.28-.57-.26-.5-.53-1-.78-1.49-.17-.34-.3-.69-.47-1a.76.76,0,0,0-.29-.32,3.91,3.91,0,0,1-1-.88,10.51,10.51,0,0,0-1.28-1.22,14.13,14.13,0,0,0-1.5-.93,3.49,3.49,0,0,0-2.38-.54,3.54,3.54,0,0,1-.54,0l-.1-.31a22.54,22.54,0,0,0-.86-2.43,14.94,14.94,0,0,1-.79-2.65,12.43,12.43,0,0,1-.14-1.6A3.44,3.44,0,0,1,42.19,17c.2-.51.33-1,.5-1.57a6.68,6.68,0,0,1,.45-1.5,1.37,1.37,0,0,0,.09-.9,1.09,1.09,0,0,0-.58-.86c-.16-.1-.31-.21-.46-.33a3.07,3.07,0,0,0-.55-.4A3.14,3.14,0,0,0,40,11.13a8.46,8.46,0,0,1-1.44.11,4.48,4.48,0,0,0-1.08.07,1.32,1.32,0,0,0-1,.74,1.77,1.77,0,0,0-.08,1.3c.05.21.11.42.15.63.07.48.12,1,.2,1.43,0,.26.16.51.21.78.11.61.2,1.22.29,1.83a3.47,3.47,0,0,1,0,.46l-.09,0c-.06-.08-.12-.16-.17-.25l-.36-.68a8.23,8.23,0,0,0-1.7-2c-.8-.76-1.65-1.46-2.48-2.19-.38-.34-.78-.66-1.16-1s-1-.93-1.5-1.35c-.86-.68-1.56-1.52-2.35-2.26S26,6.95,25.2,6.07a3.66,3.66,0,0,1-.35-.54c-.11-.17-.2-.35-.31-.52a8.17,8.17,0,0,1-1.17-2.59.78.78,0,0,0-.5-.63,2.59,2.59,0,0,0-.43-.09C22,1.64,21.89,1.77,22,2.16Z" transform="translate(-1.21 -1.68)"/><path class="cls-1" d="M22.39,15.5c.37.13.38.59.86.7a3.89,3.89,0,0,0-.14-.4c-.09-.18-.21-.35-.29-.53a.42.42,0,0,1,0-.44c.07-.12-.06-.36-.1-.55l.44.38c0-.46-.32-.75-.44-1.14l.24-.35H23c.45,0,.6.36.78.73a9.24,9.24,0,0,0,1.77,2.47l1,1.06c.13.13.25.23.13.44s0,.26,0,.47l-.57-.56-.53-.49-.56-.5c-.19.35-.2.37,0,.59.45.47.92.93,1.38,1.4a.42.42,0,0,1,.12.2,2.7,2.7,0,0,1-.67-.46c-.21-.24-.47-.44-.69-.67s-.62-.7-.93-1.05c-.08-.09-.16-.2-.3-.11a.21.21,0,0,0,0,.32,10.9,10.9,0,0,0,.79,1.06c.33.37.72.68,1,1.06a4.26,4.26,0,0,1-1.7-1.1,22.15,22.15,0,0,1-1.47-2.16A3,3,0,0,1,22.39,15.5Z" transform="translate(-1.21 -1.68)"/><path class="cls-1" d="M27.4,16.51a4.45,4.45,0,0,1,0-.47c0-.25.11-.49.17-.74s.05-.21.32-.25A1.94,1.94,0,0,1,27.4,16.51Z" transform="translate(-1.21 -1.68)"/><path class="cls-1" d="M28.5,15.36c.23.09.22.22.18.35-.11.36-.21.72-.32,1.07-.06.19-.13.38-.2.57s-.12.27-.35.24C27.92,16.81,28.34,16.15,28.5,15.36Z" transform="translate(-1.21 -1.68)"/><path class="cls-1" d="M28.22,19l-.09.34C28,19.14,28,19,28.22,19Z" transform="translate(-1.21 -1.68)"/><path class="cls-1" d="M22.51,20.34c-.3-.38-.59-.77-.85-1.17a7.51,7.51,0,0,1-.44-.81s0-.12,0-.2.11,0,.13.06c.28.36.54.73.83,1.09a4.68,4.68,0,0,0,.42.41l.09-.06a1.75,1.75,0,0,0-.14-.34c-.29-.42-.59-.83-.88-1.26a1.58,1.58,0,0,1-.29-.88c.51.42.68,1,1.13,1.41.15-.13.1-.25,0-.37L22,17.44l-.22-.35c.46.1.86.06,1.14.42a10.88,10.88,0,0,0,.75.94,16.12,16.12,0,0,0,1.86,1.89c.2.15.33.39.52.56s.67.58,1,.86a.81.81,0,0,1,.35.57,11.76,11.76,0,0,1-1.32-.63c-.64-.41-1.25-.88-1.87-1.32-.1-.07-.2-.17-.32-.06s0,.24,0,.32a5.15,5.15,0,0,0,.55.53,10.49,10.49,0,0,0,1,.73c.49.3,1,.56,1.5.84l.26.15,0,.53c-.81-.38-1.63-.72-2.41-1.14a9.82,9.82,0,0,1-1.52-1A5.8,5.8,0,0,1,22.51,20.34Z" transform="translate(-1.21 -1.68)"/><path class="cls-1" d="M21.16,22l.07,0,.16.27-.1,0Z" transform="translate(-1.21 -1.68)"/><path class="cls-1" d="M23.72,22.15,25,23c-.09.18-.19.13-.28.07l-1.08-.75Z" transform="translate(-1.21 -1.68)"/><path class="cls-1" d="M7.44,22.56a1.77,1.77,0,0,0,.11,1.14.51.51,0,0,1,0,.15.84.84,0,0,1-.28-.7c0-.25,0-.5.05-.83C7.39,22.45,7.45,22.52,7.44,22.56Z" transform="translate(-1.21 -1.68)"/><path class="cls-1" d="M6.6,22.88c-.26-.3-.26-.3,0-.53Z" transform="translate(-1.21 -1.68)"/><path class="cls-1" d="M7,24.67c-.32-.11-.63-.22-.93-.35-.07,0-.12-.14-.15-.22-.13-.33-.25-.65-.36-1a1,1,0,0,1,0-.93l.25.83a1.66,1.66,0,0,0,.05.19c.08.19.21.22.38.11l.23-.15s.05,0,.13,0c.12.32.24.67.39,1a4,4,0,0,0,.31.5A1.49,1.49,0,0,1,7,24.67Z" transform="translate(-1.21 -1.68)"/><path class="cls-1" d="M8.43,25.65a4.54,4.54,0,0,0-.2-1.26c0-.2-.14-.38-.19-.57a2,2,0,0,1,0-.36h.1s0,0,0,.06.09.29.26.32.27-.09.35-.23.11-.17.17-.25l.71.36a3,3,0,0,1,.12,1.12.35.35,0,0,0,.14.39c.17.1.18.25.2.41s.06.45.11.68a1.84,1.84,0,0,1,0,.79,6.33,6.33,0,0,0-.05,1,1.12,1.12,0,0,1,0,.14c-.06,0-.13-.06-.13-.09a7.9,7.9,0,0,0-.37-1.74c-.16-.52-.31-1.05-.48-1.57a1.05,1.05,0,0,0-.57-.68,1.67,1.67,0,0,0,0,.39,13.66,13.66,0,0,1,.68,2.62,2.12,2.12,0,0,1-.2-.19L8.6,26.3A.84.84,0,0,1,8.43,25.65Z" transform="translate(-1.21 -1.68)"/><path class="cls-1" d="M11.13,26.68a.25.25,0,0,1-.3-.23c-.11-.55-.24-1.09-.37-1.68l.65.17Z" transform="translate(-1.21 -1.68)"/><path class="cls-1" d="M16.74,25.23c.23.1.11.3.16.48C16.69,25.53,16.69,25.53,16.74,25.23Z" transform="translate(-1.21 -1.68)"/><path class="cls-1" d="M22,24.66c.29,0,.41.19.56.36C22.29,25,22.07,25,22,24.66Z" transform="translate(-1.21 -1.68)"/><path class="cls-1" d="M7.53,26.24c.29-.16.35,0,.41.18Z" transform="translate(-1.21 -1.68)"/><path class="cls-1" d="M6.61,26.44c.15,0,.3,0,.44.09a6.79,6.79,0,0,0,.84.24.86.86,0,0,1,.69.6A2.71,2.71,0,0,1,6.61,26.44Z" transform="translate(-1.21 -1.68)"/><path class="cls-1" d="M5.29,26.74l.08-.06.26.15-.11.28H5.45Z" transform="translate(-1.21 -1.68)"/><path class="cls-1" d="M6.74,28c-.06,0-.11-.09-.17-.1-.42,0-.6-.36-.85-.59l.38-.23,1.1.49c.08,0,.2.1.21.17.1.47.55.49.87.67a2.77,2.77,0,0,0,.35.14l0,.09A8,8,0,0,1,6.74,28Z" transform="translate(-1.21 -1.68)"/><path class="cls-1" d="M7.5,29.21c.13,0,.29,0,.37.17C7.66,29.46,7.6,29.27,7.5,29.21Z" transform="translate(-1.21 -1.68)"/><path class="cls-1" d="M10.22,29.94a1.39,1.39,0,0,1-1.1-.4C9.48,29.36,9.87,29.51,10.22,29.94Z" transform="translate(-1.21 -1.68)"/><path class="cls-1" d="M7.23,29.93c-.12-.07-.25-.11-.17-.3.26.12.52.22.77.35s.49.28.73.41.58.14.75.48l-.81.05C8.23,30.39,7.7,30.2,7.23,29.93Z" transform="translate(-1.21 -1.68)"/><path class="cls-1" d="M12.78,31c0-.41.06-.82,0-1.23s-.13-1-.18-1.51a.43.43,0,0,0-.38-.42,2,2,0,0,0,0,.73c0,.28,0,.56.06.84s-.05.2-.21.19a1.78,1.78,0,0,1-.22-1.22c0-.68,0-1.36,0-2,0-.12,0-.24,0-.39.28,0,.53,0,.55-.27a2.34,2.34,0,0,0,.4.14.33.33,0,0,1,.28.3c0,.19.09.38.13.58.14.7.29,1.39.41,2.09.08.47.12,1,.17,1.44,0,.08,0,.16,0,.26l-.41.11c-.19-.38,0-.85-.32-1.19A.6.6,0,0,0,13,30c0,.36,0,.72,0,1.08,0,0,0,.07-.08.12S12.78,31,12.78,31Z" transform="translate(-1.21 -1.68)"/><path class="cls-1" d="M14.81,29.8a2.32,2.32,0,0,0-.12-1.1c-.07-.12,0-.31,0-.47a1.4,1.4,0,0,0,0-.28.45.45,0,0,0-.12-.27s-.16,0-.24.05a1.24,1.24,0,0,0-.18.11c-.11-.53-.21-1-.3-1.51,0,0,.07-.09.14-.18a1.36,1.36,0,0,1,.17.8c0,.16-.11.39.12.45s.23-.18.3-.33a.5.5,0,0,1,.29-.23c.14,0,.19.09.25.21a1.22,1.22,0,0,1,.2,1.1,10.11,10.11,0,0,0,.14,1.71,2.07,2.07,0,0,1,0,.95A6.79,6.79,0,0,1,15,32.33h-.09c0-.39-.1-.77-.11-1.16S14.84,30.25,14.81,29.8Z" transform="translate(-1.21 -1.68)"/><path class="cls-1" d="M25.94,27.78a.62.62,0,0,1,.63.11,5.38,5.38,0,0,0,1.55.67,3,3,0,0,0,.76.09c.46,0,.49,0,.59.49,0,.13.06.26.08.4a.48.48,0,0,1,0,.14,3.86,3.86,0,0,1-1.46-.6c-.31.16-.36.3-.11.52a2.87,2.87,0,0,0,1.37.64l.48.1a3,3,0,0,1-.65,1.18c-.52-.68-1-1.31-1.49-2A14.69,14.69,0,0,0,25.94,27.78Z" transform="translate(-1.21 -1.68)"/><path class="cls-1" d="M19.69,28.58c-.19-.2-.08-.35,0-.49A.56.56,0,0,1,19.69,28.58Z" transform="translate(-1.21 -1.68)"/><path class="cls-1" d="M23.36,32.05a6.43,6.43,0,0,0-.21,1.87c0,.25.08.3.46.39a2.22,2.22,0,0,1-.06,1c-.17.72-.3,1.45-.53,2.14a5.78,5.78,0,0,1-.67,1.13c-.06.1-.14.19-.23.32l-.52,0a7.79,7.79,0,0,0,.37-1.2c.12-.36.16-.77.26-1.16a4.2,4.2,0,0,0,.29-1.16l-.1,0-.19.24s-.08-.05-.08-.07a1.31,1.31,0,0,1,0-.36c.13-.44.27-.89.43-1.32a.49.49,0,0,0,0-.4.23.23,0,0,0-.29.2c-.11.52-.37,1-.51,1.48a22.23,22.23,0,0,0-.72,2.66,2.7,2.7,0,0,1-.24.68,1.6,1.6,0,0,1-.23.3l-.08,0a.94.94,0,0,1,0-.29c.13-.4.29-.8.42-1.21A12.36,12.36,0,0,0,21.32,36c.14-.68.24-1.37.35-2.06.08-.52.16-1,.21-1.55,0-.22-.07-.45-.07-.68,0-.53,0-1.07.08-1.6a3.4,3.4,0,0,1,.17-.61,2.39,2.39,0,0,1,0,1.46.22.22,0,0,0,.12.3c.14.07.22,0,.27-.15s0,0,0,0a2,2,0,0,0,.38-1.34l.31.16c0,.54-.49,1-.07,1.66l.42-.71c0,.57.13.53.55.55a5.12,5.12,0,0,1-.26,2.34,3.86,3.86,0,0,1-.21-1.94C23.48,31.95,23.38,32,23.36,32.05Z" transform="translate(-1.21 -1.68)"/><path class="cls-1" d="M14.81,37.92l.51.12C15.14,38.11,15,38.19,14.81,37.92Z" transform="translate(-1.21 -1.68)"/><path class="cls-1" d="M20.87,33.74H20.5l.14-1,.31.22Z" transform="translate(-1.21 -1.68)"/><path class="cls-1" d="M19.61,29.31l.44.14c0,.3,0,.61,0,.91-.05.86-.08,1.72-.19,2.57s-.31,1.88-.47,2.82v0c-.05.21-.22.33-.37.27s-.16-.25-.1-.42.17-.48.24-.72,0-.26-.23-.32l-.5,1.15h-.05a.87.87,0,0,1,0-.2c.09-.39.2-.77.28-1.16s.16-.9.23-1.34c0-.15,0-.29.06-.44s.07-.39-.16-.52c-.06,0-.09-.19-.08-.28.05-.3.14-.6.21-.9.1-.46.19-.92.3-1.37.06-.24,0-.54.35-.68Z" transform="translate(-1.21 -1.68)"/><path class="cls-1" d="M16.37,35.08v-.43C16.57,34.86,16.49,35,16.37,35.08Z" transform="translate(-1.21 -1.68)"/><path class="cls-1" d="M16.52,34.56l-.09,0,.13-.75A.61.61,0,0,1,16.52,34.56Z" transform="translate(-1.21 -1.68)"/><path class="cls-1" d="M16.8,33.22l-.24-.46c-.36.38-.24.91-.55,1.37a1.32,1.32,0,0,1,0-.28c.17-.81.35-1.63.5-2.44.11-.59.19-1.19.28-1.78a.41.41,0,0,0-.07-.26,1.31,1.31,0,0,1-.29-1c.53-.33.53-.33,1.11.14A9,9,0,0,1,16.8,33.22Z" transform="translate(-1.21 -1.68)"/><path class="cls-1" d="M15.83,32.32c-.18-.23-.24-.36-.17-.56s.12-.52.18-.78,0-.15.35-.31C16.09,31.23,16,31.73,15.83,32.32Z" transform="translate(-1.21 -1.68)"/><path class="cls-1" d="M8.45,32s-.06,0-.08-.07a1.5,1.5,0,0,1,1.37.28c.08.07.22.07.34.11a4.09,4.09,0,0,1,.6.22c.1.05.17.19.27.3-.08,0-.12.06-.14.05a.65.65,0,0,0-.71,0c-.07,0-.21,0-.31,0a4,4,0,0,1-.58-.18c-.13-.06-.29-.15-.33-.25A.46.46,0,0,0,8.45,32Z" transform="translate(-1.21 -1.68)"/><path class="cls-1" d="M8.23,33.54A.9.9,0,0,1,8,33.46c-.3-.14-.61-.27-.9-.44a4.72,4.72,0,0,1-.47-.36l-.37-.25,0-.1a1.93,1.93,0,0,1,.32,0,10.87,10.87,0,0,1,1.78.62c.47.19,1,.36,1.44.51s1.08.3,1.62.46c0,0,.06,0,.15.12-.16,0-.29.09-.37.06a9.5,9.5,0,0,0-1.69-.33C9.11,33.66,8.67,33.62,8.23,33.54Z" transform="translate(-1.21 -1.68)"/><path class="cls-1" d="M6.85,34.07l.31.08s0,.08,0,.08S6.9,34.29,6.85,34.07Z" transform="translate(-1.21 -1.68)"/><path class="cls-1" d="M6.09,34.43l.08,0,.25.48C6.06,34.83,6.06,34.83,6.09,34.43Z" transform="translate(-1.21 -1.68)"/><path class="cls-1" d="M9.63,36.26a.88.88,0,0,0-.39-.06A2,2,0,0,1,8,35.9a6.83,6.83,0,0,0-.68-.36C7,35.4,7,35.34,7,34.92l.82.43a3.5,3.5,0,0,0,.46.24c.12,0,.28.08.35-.09a.28.28,0,0,0-.12-.38l-.6-.33a1.36,1.36,0,0,1-.43-.38,1,1,0,0,1,.24,0c.14.06.26.14.39.2.3.13.42,0,.39-.28a.83.83,0,0,1,0-.2s0-.07.08-.14l.93.14,1.71.29a1.45,1.45,0,0,1,1.09.56A6.59,6.59,0,0,1,10,34.5a2,2,0,0,0-.55-.11c-.06,0-.18.05-.19.09a.29.29,0,0,0,.07.24,3.59,3.59,0,0,0,.58.28c.17.07.36.11.54.16,0,.13,0,.3.09.37a.9.9,0,0,0,.41.13l.91.17a1.63,1.63,0,0,1,.3.13,1.06,1.06,0,0,1-1.11,0c-.45-.23-.92-.43-1.38-.64a.55.55,0,0,0-.31-.06.38.38,0,0,0-.23.19s.06.16.12.22a2.72,2.72,0,0,0,.31.24c.32-.16.57.07.88.27A1.28,1.28,0,0,1,9.63,36.26Z" transform="translate(-1.21 -1.68)"/><path class="cls-1" d="M11.93,39.78l-.56-.05a.62.62,0,0,1-.49-.22,2.12,2.12,0,0,1,.27,0h2.3a5.79,5.79,0,0,0,1-.21.79.79,0,0,0-.58-.19,2.33,2.33,0,0,0-.6,0,5.8,5.8,0,0,1-2,0A10,10,0,0,0,10.16,39a.8.8,0,0,0-.27.09v.31A1.78,1.78,0,0,1,8.73,39a1.12,1.12,0,0,0-.59-.18c-.35,0-.35,0-.47-.43l.54.12a1.23,1.23,0,0,0,.23.06c.07,0,.2,0,.21-.06a.32.32,0,0,0,0-.26,4.77,4.77,0,0,0-.39-.43h.63c0-.27.29-.47,0-.82.28.08.45.13.62.17a1.11,1.11,0,0,0,.51,0,2.39,2.39,0,0,1,1.07,0c.32,0,.64,0,1,.07a2.66,2.66,0,0,1,.34.08l0,.11h-.42c-.4,0-.8,0-1.2,0-.11,0-.21.11-.4.21a2.09,2.09,0,0,0,.5.26,2.85,2.85,0,0,0,1,0c.46-.1.93-.13,1.4-.19a.78.78,0,0,1,.24,0l.66.14a2.11,2.11,0,0,1,.25.1,1,1,0,0,1-.61.25,25.1,25.1,0,0,1-3.26,0c-.07,0-.22,0-.23.09a.38.38,0,0,0,.08.28.52.52,0,0,0,.29.13,7.77,7.77,0,0,0,1.68.09l2.21-.16a3.46,3.46,0,0,1,.68,0,8.55,8.55,0,0,1,.88.21c-.16.17-.31.1-.44.13s-.29,0-.32.11c-.1.23-.31.24-.49.3-.34.12-.7.19-1,.34A3.42,3.42,0,0,1,11.93,39.78Z" transform="translate(-1.21 -1.68)"/><path class="cls-1" d="M23.09,39.4c.22-.54.48-1.07.66-1.62s.26-1.11.38-1.67c0-.06,0-.13.07-.23.31,0,.41-.17.47-.45.13-.62.32-1.24.48-1.86,0-.12.09-.24.13-.36h.09a7.08,7.08,0,0,1-.06.88c-.07.36-.08.38.27.49a34.41,34.41,0,0,1-2.12,5.34l-.58.06C23,39.78,23,39.59,23.09,39.4Z" transform="translate(-1.21 -1.68)"/><path class="cls-1" d="M23.67,40.56l.51-1,.18.21a.19.19,0,0,0,.31,0c.18-.23.45-.38.51-.71a.17.17,0,0,1,.27-.13c.18.1.29,0,.36-.15a1.16,1.16,0,0,0,.15-.45,4.35,4.35,0,0,0-.08-.85.18.18,0,0,0-.32-.05,3.21,3.21,0,0,0-.36.51c-.22.38-.41.77-.63,1.15,0,0-.08,0-.17.07.27-.73.52-1.41.76-2.08.1-.29.16-.59.24-.89,0-.08.06-.15.08-.23a5.14,5.14,0,0,0,.22-.72c0-.21.07-.38.3-.47s.13-.18.17-.28a1.42,1.42,0,0,0,0-.3c.23.28.12.57.11.84a3.69,3.69,0,0,0,0,.44.92.92,0,0,0,.12.36.9.9,0,0,1,.2.66c-.1.44-.1.44.33.62a3,3,0,0,1-.29,1.19,1.71,1.71,0,0,1-.92,1.09,14,14,0,0,1-1.48.86,2.74,2.74,0,0,0-.49.32Z" transform="translate(-1.21 -1.68)"/><path class="cls-1" d="M9,42.61c-.07-.12-.24-.19-.43-.32l1.25.08.2,0c.17,0,.29-.06.31-.24s-.12-.22-.26-.25l-1.62-.31-.39-.1c.15-.08.21-.15.26-.14.24.07.48.16.72.25s.19.07.44-.09l-.12-.43A2.29,2.29,0,0,1,9.73,41l2.62,0c.5,0,1,0,1.49,0s.77-.12,1.16-.15a1.58,1.58,0,0,1,.59.07c.1,0,.16.18.3.35l-.91.12-.92.09-.91.13a.64.64,0,0,0-.46.18c0,.19.14.21.27.2.43,0,.86,0,1.28-.06l1.48-.13.56-.07.46,0a.27.27,0,0,1-.26.25,18.89,18.89,0,0,0-2.14.49,6.5,6.5,0,0,1-2.07.25c-.55,0-1.1-.05-1.65-.08-.2,0-.25,0-.23.25,0,0,0,.09,0,.14l-.79-.1C9.37,42.89,9.13,42.87,9,42.61Z" transform="translate(-1.21 -1.68)"/><path class="cls-1" d="M12.95,44.27l-1.08-.07a4.89,4.89,0,0,1-.68,0,8.82,8.82,0,0,1-.88-.27.36.36,0,0,1,.11-.47c.16-.13.13-.27,0-.39l.8.09a6.06,6.06,0,0,0,.92.08,9.16,9.16,0,0,0,2.5-.35,19.94,19.94,0,0,1,2-.47l.43-.08a.28.28,0,0,1,.38.18,5.42,5.42,0,0,0-2.13.75,1,1,0,0,0-.53.34c0,.06-.16.08-.25.09l-.68.08c-.38,0-.42.07-.49.47A2.73,2.73,0,0,1,12.95,44.27Z" transform="translate(-1.21 -1.68)"/><path class="cls-1" d="M11.49,47.28a1.66,1.66,0,0,1,1.08-.48.2.2,0,0,0,.16-.1c.09-.23.28-.26.49-.25.05,0,.13,0,.16,0a.62.62,0,0,0,.21-.27c0-.06-.09-.19-.17-.23s-.45-.16-.7-.24a.77.77,0,0,1,.51-.23c.31-.08.63-.13.95-.18a.85.85,0,0,1,.62.07.44.44,0,0,0,.46,0,1.47,1.47,0,0,1,.77-.17,1.54,1.54,0,0,0,.49-.14l.41-.15.3.42a8.91,8.91,0,0,1-.85.4c-.77.27-1.5.63-2.27.9a7,7,0,0,1-1.17.23,1.06,1.06,0,0,0-.61.25A1,1,0,0,1,11.49,47.28Z" transform="translate(-1.21 -1.68)"/><path class="cls-1" d="M12.53,47.72l1-.31a.61.61,0,0,0,.29-.13c.18-.24.45-.26.7-.35.85-.31,1.7-.64,2.55-1l.52-.19,0,.07c-.15.11-.29.24-.44.34-.54.35-1.07.7-1.62,1-.29.18-.6.35-.91.51a.48.48,0,0,1-.49,0,.68.68,0,0,0-.62,0c-.25.12-.52.2-.82.31Z" transform="translate(-1.21 -1.68)"/><path class="cls-1" d="M12.42,48.87a.93.93,0,0,1,1,0,2.79,2.79,0,0,0,.78.15A1.17,1.17,0,0,1,12.42,48.87Z" transform="translate(-1.21 -1.68)"/><path class="cls-1" d="M12.33,54.19l.16-.35.13.07-.21.33Z" transform="translate(-1.21 -1.68)"/><path class="cls-1" d="M11.51,55.47l.18-.42c.11.2,0,.32-.08.46Z" transform="translate(-1.21 -1.68)"/><path class="cls-1" d="M6.4,68.9c.11.33.11.33-.07.64Z" transform="translate(-1.21 -1.68)"/><path class="cls-1" d="M7.47,73c.13-.67.28-1.34.43-2a30.5,30.5,0,0,1,1.28-4c.18-.46.31-.94.49-1.4s.48-1,.72-1.57c.07-.15.24-.32.06-.47s-.31.09-.42.19a1.06,1.06,0,0,0-.29.38c-.31.71-.61,1.43-.9,2.14-.11.27-.21.55-.32.83a2.69,2.69,0,0,0-.17.49,7,7,0,0,1-.44,1.25c-.19.52-.34,1-.48,1.58S7.14,71.56,7,72.15a4.1,4.1,0,0,0-.07.56.29.29,0,0,1-.21.31c0-.24,0-.44,0-.65.06-.57.08-1.16.19-1.72.15-.82.37-1.62.56-2.43.09-.38.2-.75.28-1.13a.65.65,0,0,0,0-.39.69.69,0,0,1,0-.55,15.58,15.58,0,0,1,.68-1.93c.29-.66.5-1.36.77-2s.47-1.11.7-1.67c0-.11.07-.22.11-.33a1.73,1.73,0,0,1,.15-.45.56.56,0,0,0,.07-.57c-.33-.13-.57-.05-.64.28a6.29,6.29,0,0,1-.84,1.68c-.36.63-.67,1.3-1,2l-.35.7c0-.08-.07-.12-.06-.14l.4-1.05c.13-.34.24-.69.4-1s.31-.65.45-1a12.64,12.64,0,0,1,.72-1.3,2.44,2.44,0,0,0,.2-.39,6.64,6.64,0,0,1,.89-1.53,1.15,1.15,0,0,1,.2-.16c0,.14,0,.23,0,.31,0,.39,0,.45.47.48l.18-.43a17.24,17.24,0,0,1,1.71-3c.08-.12.14-.26.22-.38a2.44,2.44,0,0,1,.69-.83s.1-.07.11-.11a.61.61,0,0,0,.06-.33c0-.07-.17-.11-.26-.13a1.65,1.65,0,0,0-.36,0,1.61,1.61,0,0,1,.17-.31c1.8-1.95,3.45-4,5.41-5.87l.13.21c.09.13.21.17.34.07l.77-.64,1.15-.93,2-1.54c.21-.16.44-.3.66-.47s.32-.27.48-.4a1,1,0,0,1,.24-.09c-.24-.35-.35-.36-.66-.18a22.13,22.13,0,0,0-1.94,1.42.22.22,0,0,0-.06.05c-.27.43-.76.6-1.11.92s-.59.51-.89.75-.16.4-.4.47l-.2.09a1.85,1.85,0,0,1,.12-.26,13.06,13.06,0,0,1,1.52-1.59c.2-.2.39-.41.59-.6a10.58,10.58,0,0,1,.95-.86,21,21,0,0,1,1.77-1.19,3.76,3.76,0,0,1,1.42-.61,1.69,1.69,0,0,1-.13.58,12.88,12.88,0,0,0-.46,1.62c-.14.83-.21,1.67-.28,2.5a1.92,1.92,0,0,0,.07.55,9.59,9.59,0,0,1-.05,1.4,1.27,1.27,0,0,1-.76,1.18,8,8,0,0,0-1.68,1.55l-2.21,2.51-.94,1c-.56.63-1.13,1.26-1.67,1.9-.35.41-.65.85-1,1.28s-.59.76-.88,1.15-.42.59-.61.9a16.24,16.24,0,0,1-1,1.59,2.64,2.64,0,0,0-.18.32l-.46.75a1.16,1.16,0,0,0-.17.27,5.59,5.59,0,0,1-.86,1.46,7.77,7.77,0,0,0-.33.72c-.09.18-.2.35-.29.53-.52,1.07-1.07,2.13-1.56,3.22s-1,2.29-1.46,3.44a4.7,4.7,0,0,1-.38.87l-.09,0c.09-.33.18-.66.28-1,.2-.64.38-1.29.61-1.92s.56-1.36.85-2c.14-.34.27-.7.44-1,.42-.84.81-1.7,1.3-2.49.31-.49.42-1,.7-1.53a1.36,1.36,0,0,0,.06-.47.53.53,0,0,0-.6.3,2.55,2.55,0,0,0-.17.32,15.15,15.15,0,0,1-1,1.76c-.06.13-.14.26-.21.39-.24.49-.49,1-.72,1.48-.34.76-.68,1.51-1,2.28-.21.53-.37,1.09-.55,1.64-.23.7-.45,1.4-.67,2.11-.1.32-.18.64-.27,1a.18.18,0,0,1-.1.12A2.08,2.08,0,0,1,7.47,73Z" transform="translate(-1.21 -1.68)"/><path class="cls-1" d="M10.72,75.44a6.49,6.49,0,0,1,.3-.72c.55-1,1.13-2,1.68-3,.18-.33.29-.69.49-1,.44-.69.92-1.35,1.38-2a18.33,18.33,0,0,1,2-2.16c.22-.23.49-.41.73-.63a3.08,3.08,0,0,0,.3-.38.56.56,0,0,0-.64,0,11.07,11.07,0,0,0-2.15,2A10.33,10.33,0,0,0,14,68.68c-.25.33-.51.65-.77,1l-.14.2c-.42.62-.85,1.24-1.26,1.86s-.75,1.14-1.11,1.72-.76,1.23-1.14,1.85a1.1,1.1,0,0,1-.15.13,1.48,1.48,0,0,1,0-.34c.24-.55.47-1.12.73-1.66q.6-1.21,1.24-2.39a29.12,29.12,0,0,1,2.65-3.79c.64-.83,1.29-1.65,1.92-2.49.38-.51.73-1,1.07-1.56a.8.8,0,0,0,.16-.76.47.47,0,0,0-.39.26A18.79,18.79,0,0,1,15,65.22c-.53.69-1,1.39-1.56,2.08a.7.7,0,0,1-.07.1c-.63.59-1,1.36-1.62,2a1.55,1.55,0,0,0-.2.35l-.16.3-.07,0a.68.68,0,0,1,0-.21c.42-.76.83-1.53,1.27-2.29.2-.35.43-.68.65-1s.34-.4.16-.69c0,0,0-.13,0-.19A13.93,13.93,0,0,1,14.4,64c0-.05.09-.13.14-.14.45-.06.56-.44.75-.76a7.87,7.87,0,0,1,.48-.69c.49-.67,1-1.36,1.5-2,.73-.87,1.51-1.71,2.28-2.55.56-.6,1.16-1.16,1.72-1.75a3.51,3.51,0,0,0,.35-.52.28.28,0,0,0-.46,0c-.45.43-.91.85-1.35,1.29S18.69,58,18.13,58.56c-.26.26-.53.52-.8.77a.3.3,0,0,1-.1,0s0-.07,0-.08A27.54,27.54,0,0,1,19,56.85c.58-.59,1.08-1.26,1.63-1.89.34-.39.72-.76,1.06-1.15s.61-.75.92-1.11q.76-.88,1.54-1.75a2.62,2.62,0,0,1,.88-.77c0,.35.09.67.11,1,0,.66,0,1.32.11,2s.14,1.14.22,1.71c.1.77.22,1.54.29,2.31a4.66,4.66,0,0,0,.31,1.36,1.65,1.65,0,0,1,.06.4c-.16.14-.29.27-.43.37s-.35.34-.61.37a.53.53,0,0,0-.23.15L23.62,61c-.29.25-.6.49-.9.74A15.09,15.09,0,0,0,21,63.34c-.6.67-1.27,1.27-1.89,1.93s-1.22,1.35-1.84,2c-1,1.16-2,2.4-2.92,3.65-.48.63-1,1.22-1.51,1.83-.31.39-.6.79-.89,1.2L11,75.25a2.24,2.24,0,0,1-.22.23Z" transform="translate(-1.21 -1.68)"/><path class="cls-1" d="M19.34,67.71l.07.07c0,.22-.22.31-.5.39Z" transform="translate(-1.21 -1.68)"/><path class="cls-1" d="M18.63,68.4l.1.09-.35.33-.05,0Z" transform="translate(-1.21 -1.68)"/><path class="cls-1" d="M9.1,75.93l.15-.26.06,0-.1.29Z" transform="translate(-1.21 -1.68)"/><path class="cls-1" d="M14,75.94a1.4,1.4,0,0,1,.18-.24l1.1-.94,1.93-1.62.91-.73c.64-.51,1.26-1,1.91-1.54a7.58,7.58,0,0,1,1.1-.66,1.19,1.19,0,0,0,.55-.62c0-.09,0-.22,0-.35a2,2,0,0,0-1.13.47c-.37.27-.68.6-1,.88-.14.11-.25.3-.54.21.18-.17.33-.33.5-.48l1.86-1.59,2.15-1.81a16.89,16.89,0,0,0,1.36-1.12c.36-.37.74-.72,1.08-1.1a4.48,4.48,0,0,1,.48-.43c.13-.11.24-.23.16-.41A.31.31,0,0,0,26,63.8a4.29,4.29,0,0,0-.66.57c-.14.14-.25.31-.39.46s-.42.56-.81.61c-.08,0-.15.11-.22.17-.55.51-1.09,1-1.65,1.53-.82.72-1.65,1.41-2.48,2.11l-2.48,2.05a3.83,3.83,0,0,0-.48.49c-.19.23-.15.38.15.59.28-.23.56-.48.86-.7.15-.11.25-.34.51-.23l-.91.77L16.15,73.3a1.41,1.41,0,0,1-.24.13l-.3-.68c.16-.2.36-.47.58-.72.49-.57,1-1.13,1.5-1.69.28-.31.61-.58.87-.89a5.7,5.7,0,0,1,1-.88.54.54,0,0,0,.21-.36.53.53,0,0,1,.18-.37,20.78,20.78,0,0,1,2.21-2,1.13,1.13,0,0,0,.49-.68c-.12-.18-.25-.11-.4,0s-.34.18-.51.27l-.06-.07a2.11,2.11,0,0,1,.17-.23c.32-.34.65-.68,1-1s.55-.51.82-.77l1.75-1.71a1.23,1.23,0,0,1,.19-.14l1-.66c.06.26.1.49.16.72.11.4.2.81.35,1.19a9.64,9.64,0,0,0,.67,1.8,5.12,5.12,0,0,1,.32.82.26.26,0,0,1-.09.35l-.43.29-.73.5-1.18.77-.42.27-.12-.15c-.19-.2-.29-.23-.53-.13a6.28,6.28,0,0,0-1,.44,7.38,7.38,0,0,0-.9.74.9.9,0,0,0-.17.27.24.24,0,0,0,.09.32.21.21,0,0,0,.29,0l1-.74a.63.63,0,0,1,.2-.06l0,.08c-.43.35-.85.71-1.29,1l-3.26,2.43c-.65.49-1.29,1-1.94,1.5a9.67,9.67,0,0,1-.83.56c-.47.29-.82.74-1.28,1a10.7,10.7,0,0,0-1.45,1.07A.16.16,0,0,1,14,75.94Z" transform="translate(-1.21 -1.68)"/><path class="cls-1" d="M13.63,76.11l.08.08c-.05.25-.27.33-.48.41Z" transform="translate(-1.21 -1.68)"/><path class="cls-1" d="M12.83,76.88c0-.18.21-.21.36-.26L12.9,77Z" transform="translate(-1.21 -1.68)"/><path class="cls-1" d="M13.68,79c.27-.11.55-.21.82-.32l.64-.24,1-.43,3.08-1.41a1.7,1.7,0,0,0,.41-.26c.07-.06.15-.2.12-.27a.42.42,0,0,0-.25-.2.51.51,0,0,0-.34,0c-.54.27-1.06.56-1.6.82-.31.15-.65.25-1,.39s-.77.37-1.16.55a1.89,1.89,0,0,1-.26.08l0-.07a4.9,4.9,0,0,1,.76-.42c.52-.18,1-.51,1.47-.73.67-.3,1.33-.62,2-.91S20.44,75.18,21,75a1,1,0,0,0,.21-.12c.27-.2.28-.24,0-.57-.52.22-1.06.45-1.6.67s-1,.47-1.56.63l0-.09.17-.12c.51-.32,1-.64,1.55-.94.17-.1.37-.15.55-.24l2-1c.15-.08.33-.11.49-.17a2.2,2.2,0,0,0,.43-.21.22.22,0,0,0,0-.32.2.2,0,0,0-.27-.1c-.5.21-1,.41-1.51.63s-1,.47-1.43.7a.24.24,0,0,1-.22,0,2.72,2.72,0,0,1,.37-.33L22.41,72l2-1.22c.1-.06.22-.09.33-.14.29-.14.3-.19.09-.47l-.05-.08a10.49,10.49,0,0,1,1.76-1.36c.4-.27.77-.59,1.18-.84a11,11,0,0,1,1-.51l1.74,3.82c-.23.2-.49.43-.76.63q-.65.5-1.32,1c-.28.2-.57.4-.88.57-.51.3-1,.57-1.54.86a14.24,14.24,0,0,1-1.92.9c-1.12.44-2.21,1-3.28,1.52-.43.22-.89.38-1.34.56l-2.25.86-2.46.9-1.36.47c-.17.06-.35.1-.61.16A1.75,1.75,0,0,1,13.68,79Z" transform="translate(-1.21 -1.68)"/><path class="cls-1" d="M30.09,74.15A8.45,8.45,0,0,1,29,75a5.67,5.67,0,0,1-1.11.44c-.44.15-.89.28-1.34.41l-.91.23,0-.07a1,1,0,0,1,.2-.18c.56-.27,1.13-.5,1.67-.8a13.44,13.44,0,0,0,1.31-.85c.57-.4,1.11-.84,1.68-1.23a5.69,5.69,0,0,1,.71-.37,1.24,1.24,0,0,1,.43.75C30.9,73.31,30.52,73.78,30.09,74.15Z" transform="translate(-1.21 -1.68)"/><path class="cls-1" d="M32.2,78.39l-1.08.27c.14-.26.4-.28.63-.36a.92.92,0,0,0,.39-.25c.12-.14,0-.29-.16-.3a1,1,0,0,0-.32,0l-1,.32-2.6.85-.16,0c-.15.05-.27.14-.24.32s.18.24.37.19c.53-.13,1.07-.25,1.6-.4.36-.1.7-.26,1-.39l.18-.05,0,.07a8.72,8.72,0,0,1-.9.48,7.36,7.36,0,0,1-1.83.45,2.49,2.49,0,0,0-.46.12c-.65.21-1.31.41-1.94.65a9.9,9.9,0,0,1-1.83.47l-.15,0c-.3-.29-.33-.33-.68-.11a3.63,3.63,0,0,1-1.46.4c-.42.07-.85.1-1.28.15-.12,0-.25,0-.3-.16a1.27,1.27,0,0,1,.22-.13,28.56,28.56,0,0,1,4.15-1,9.21,9.21,0,0,0,1.35-.41c.24-.08.48-.17.72-.27s.3-.15.23-.36a.36.36,0,0,0-.49-.22,6.64,6.64,0,0,0-.71.27,4.43,4.43,0,0,1-1.35.36l-.39.07c-.32.06-.63.11-.94.19s-.79.26-1.19.36a2,2,0,0,1-1,.15s0-.06,0-.08c0-.52-.07-.54-.59-.41a1.16,1.16,0,0,0-.27.08,4.31,4.31,0,0,1-1.32.34l-2.62.43-.54.08,0-.08,5.81-2,0-.46c.42-.34,1-.33,1.47-.56.13.19.29.17.48.09q.65-.27,1.32-.5c.58-.2,1.18-.38,1.76-.58a25,25,0,0,0,3.65-1.37A.83.83,0,0,0,30.1,75a2.67,2.67,0,0,1,1.26-1c.16-.09.33-.14.39-.4.47.71.9,1.35,1.32,2a13,13,0,0,0,1.09,1.69c.22.25.19.33-.08.51a3.1,3.1,0,0,1-1.27.49A6.3,6.3,0,0,0,32.2,78.39Z" transform="translate(-1.21 -1.68)"/><path class="cls-1" d="M49.26,72.23a3.88,3.88,0,0,1-.18.35c-.17.27-.36.53-.53.8a3.47,3.47,0,0,0-.33.6,1.48,1.48,0,0,1-.43.67.51.51,0,0,0-.15.19,4,4,0,0,1-.79,1c-.22.25-.41.53-.64.78s-.44.43-.66.64l-.06-.06c.15-.2.3-.4.46-.6a9.74,9.74,0,0,1,.71-.82,3.67,3.67,0,0,0,.94-1.38,3.28,3.28,0,0,1,.46-.74c.36-.51.74-1,1.12-1.51Z" transform="translate(-1.21 -1.68)"/><path class="cls-1" d="M45.93,27.54a9.94,9.94,0,0,1,1.35.93,14.88,14.88,0,0,1,2,2,7.29,7.29,0,0,1,.65,1.09s0,.09,0,.11c.46.35.54.91.81,1.37a7.5,7.5,0,0,1,.71,1.66c.12.42.36.8.51,1.22s.31,1,.48,1.53a11.47,11.47,0,0,0,.47,1.49A11,11,0,0,1,53.27,40c.23.64.2,1.32.39,2,.05.19.14.37.21.55a1,1,0,0,1,.07.27c0,.43,0,.86.06,1.28.05.75.13,1.5.19,2.25,0,.21.05.43.05.64,0,1.11,0,2.23,0,3.34,0,.54-.06,1.07-.1,1.61S54,53,54,53.55c0,.2-.07.4-.08.59-.05.76-.05,1.53-.15,2.28a30.32,30.32,0,0,1-.58,3.7c-.13.51-.09,1.07-.18,1.59s-.28,1.15-.42,1.72a4.82,4.82,0,0,0-.15.75,4.69,4.69,0,0,1-.3,1.33c-.22.58-.37,1.18-.58,1.76-.28.8-.57,1.59-.87,2.38-.18.45-.4.88-.62,1.31a2.26,2.26,0,0,1-.33.37c0-.13,0-.19,0-.23a.55.55,0,0,0-.18-.22s-.15.07-.21.14q-.47.55-.93,1.11a4.64,4.64,0,0,0-.27.4,3.25,3.25,0,0,1-.31.47,4.68,4.68,0,0,0-.85,1.4,2,2,0,0,1-.45.61c-.23.24-.45.5-.67.75-.54.61-1.06,1.25-1.63,1.83a3.19,3.19,0,0,1-.79.47c-.19.1-.4.17-.57.29a.41.41,0,0,0,0,.7.36.36,0,0,0,.38,0l.7-.34c0,.24-.1.29-.21.36a3.28,3.28,0,0,1-2.4.58c-.59-.08-1.2,0-1.8-.15a1.59,1.59,0,0,1-.78-.29,1.5,1.5,0,0,0-.42-.24,5.94,5.94,0,0,1-1.81-1.25c-.52-.46-1-.92-1.56-1.39a7.62,7.62,0,0,1-1.33-1.6c-.28-.45-.57-.91-.9-1.33a10.45,10.45,0,0,1-.94-1.69c-.11-.22-.19-.47-.28-.7a.1.1,0,0,0,0,0c-.5-.46-.5-1.14-.74-1.71-.15-.36-.32-.71-.45-1.08-.28-.82-.53-1.66-.81-2.49-.08-.23-.19-.44-.26-.67s-.09-.5-.15-.74c-.14-.61-.26-1.23-.46-1.83-.08-.24-.14-.47-.19-.72-.12-.53-.31-1-.45-1.58s-.16-.79-.29-1.17a4.45,4.45,0,0,1-.26-1.77.39.39,0,0,0,0-.15,6.06,6.06,0,0,1-.33-2c0-.4-.07-.8-.1-1.2,0,0,0-.05,0-.08a14.82,14.82,0,0,0-.07-1.83c0-1.17-.06-2.33,0-3.5,0-.64.09-1.28.14-1.92,0-.48.1-1,.12-1.44a9.31,9.31,0,0,1,.23-1.58,17.69,17.69,0,0,0,.28-1.79,6.39,6.39,0,0,1,.32-1.11c.1-.35.21-.69.31-1l.08-.23c.1-.29.19-.58.3-.87q.43-1.15.87-2.29c.14-.36.28-.72.44-1.08.28-.63.57-1.26.87-1.89a21.32,21.32,0,0,1,1.64-2.76c.14-.21.24-.45.39-.64.33-.42.59-.95,1.21-1a1.27,1.27,0,0,0,.32-.17,6.19,6.19,0,0,1,3.35-.46c.72.05,1.44.13,2.17.16.53,0,1.07,0,1.61,0a.67.67,0,0,0,.2,0l1.55-.54a.81.81,0,0,1,.24,0,5,5,0,0,0,1.42-.26A1.31,1.31,0,0,1,45.93,27.54Z" transform="translate(-1.21 -1.68)"/><path class="cls-1" d="M19,27.92a6.18,6.18,0,0,1-.18,2.33,7.27,7.27,0,0,1-.68,2.18.65.65,0,0,1,0-.19c0-.64.15-1.28.14-1.92,0-.9-.11-1.79-.17-2.69,0-.26,0-.52,0-.78h.71a3.6,3.6,0,0,1,0,.53A.54.54,0,0,0,19,27.92Z" transform="translate(-1.21 -1.68)"/><path class="cls-1" d="M26.26,27.05a6.49,6.49,0,0,0-1.17-.62,5.57,5.57,0,0,1-.91-.58.15.15,0,0,1-.07-.1c0-.35-.31-.51-.52-.72-.37-.37-.74-.74-1.1-1.12a.65.65,0,0,0-.37-.25c.05.39.37.57.53.89-.9-.39-1-.55-1.33-1.81A1.39,1.39,0,0,1,22,23a.25.25,0,0,0,.14.08c.61,0,.9.53,1.3.87.1.08.16.23.35.16-.08-.47-.53-.64-.82-1,.41.08.74,0,1.08.23a8.7,8.7,0,0,0,2.32,1.27,5.75,5.75,0,0,1,1,.46A1,1,0,0,1,28,26.14a3.74,3.74,0,0,1-1.65-.58,4.6,4.6,0,0,0-.84-.54c-.08,0-.22,0-.33,0s0,.22,0,.29a1.12,1.12,0,0,0,.27.22l.18.13-.05.06a5.44,5.44,0,0,0-.81-.42c-.28-.09-.43-.44-.79-.37-.1.22,0,.36.19.47.44.31.89.6,1.34.9.21.14.44.26.65.41a2.1,2.1,0,0,1,.3.34l-.06.07A1,1,0,0,1,26.26,27.05Z" transform="translate(-1.21 -1.68)"/><path class="cls-1" d="M28,27c-.23,0-.23,0-1-.56A1.6,1.6,0,0,1,28,27Z" transform="translate(-1.21 -1.68)"/><path class="cls-1" d="M32.71,26.78a2.78,2.78,0,0,1,.12-.28,9.49,9.49,0,0,0,.64-1.11c.4-1,.74-2,1.11-2.93l.76-2.05h.41s.05.09,0,.12c0,.2-.06.39-.1.59s-.17.46,0,.7a.31.31,0,0,1,0,.23q-.4,1-.8,2a.81.81,0,0,1-.18.31c-.18.16-.16.34-.12.63a5,5,0,0,0,.79-1.3,14.22,14.22,0,0,0,.54-1.38,5,5,0,0,1,.25.5.51.51,0,0,1,0,.31c-.08.28-.2.56-.28.84q-.21.71-.39,1.42c-.07.27.15.32.32.41a3,3,0,0,1-.59.2,10.13,10.13,0,0,0-2.1.65C33,26.72,32.89,26.74,32.71,26.78Z" transform="translate(-1.21 -1.68)"/><path class="cls-1" d="M35.82,25.83c0-.18.15-.22.31-.26l.13.26Z" transform="translate(-1.21 -1.68)"/><path class="cls-1" d="M41.25,15.75l-.09.29-.57-.16A.83.83,0,0,1,41.25,15.75Z" transform="translate(-1.21 -1.68)"/><path class="cls-1" d="M38.5,18c-.13-.76-.22-1.52-.34-2.27,0-.3-.13-.6-.18-.91s-.15-.87-.21-1.31a.41.41,0,0,1,.22-.44,1.86,1.86,0,0,1,.51-.22,5.85,5.85,0,0,1,2.36.08c.42.1.55.28.59.76a4.32,4.32,0,0,1-1.56,0,2.08,2.08,0,0,0-.6,0c-.25,0-.38.13-.4.32a.43.43,0,0,0,.37.46c.6,0,1.2.08,1.81.11h.2c.14,0,.25,0,.25.18s-.14.23-.27.22c-.36,0-.72-.07-1.08-.1a2.37,2.37,0,0,0-.44,0,.35.35,0,0,0-.28.58,1,1,0,0,0,.74.38,2.56,2.56,0,0,0-.38.1.41.41,0,0,0-.21.51.33.33,0,0,0,.38.27l.77,0a2.68,2.68,0,0,1,.32,0l-.18.56-.78-.11a1.63,1.63,0,0,0-.32,0c-.27,0-.38.11-.39.32a.42.42,0,0,0,.37.41c.11,0,.22,0,.32,0l.36.05c.4.08.42.13.32.53-.32,0-.64,0-1,0s-.37.08-.39.29a.41.41,0,0,0,.38.44c.17,0,.35,0,.52,0a1.54,1.54,0,0,1,.36,0c.18.05.19.21.16.36s-.13.19-.27.18l-.8-.08c-.18,0-.32,0-.36.23a.31.31,0,0,0,.25.39,5,5,0,0,0,.64.09c.43.05.67.29.5.74l-.41,0-.44,0c-.34,0-.53.11-.54.34s.17.39.49.43l1,.12.16.58-.33,0c-.28,0-.56-.08-.84-.09a.37.37,0,0,0-.43.36.4.4,0,0,0,.42.38,6.62,6.62,0,0,1,1,.09c.2,0,.32.13.22.39-.15,0-.31,0-.47,0a2.65,2.65,0,0,0-.55.09.41.41,0,0,0-.23.47c0,.2.19.23.37.23h.93c.25,0,.4.12.44.44l-.77.1a5.4,5.4,0,0,0-.55.11c-.13,0-.26.11-.25.27a.35.35,0,0,0,.27.36,1.31,1.31,0,0,0,.36,0c.36,0,.73,0,1.09-.06a.42.42,0,0,1,.52.31,1.5,1.5,0,0,1-.86.29c-.52.11-1.06.17-1.59.23a.55.55,0,0,1-.59-.29l.22-.19a1.3,1.3,0,0,1-.12-.33,10.76,10.76,0,0,1-.07-1.37,11,11,0,0,0-.12-2.17c0-.17,0-.35-.06-.52-.08-.72-.15-1.44-.25-2.16C38.73,19.06,38.59,18.56,38.5,18Z" transform="translate(-1.21 -1.68)"/><path class="cls-1" d="M34,18c0,.09-.09.19-.07.26a2.78,2.78,0,0,1-.3,1.86,2.14,2.14,0,0,0-.16.95c.24,0,.26-.18.31-.31.13-.32.24-.65.35-1s.18-.62.27-.93c0-.11.08-.22.15-.41a1.89,1.89,0,0,1-.1,1c-.15.57-.3,1.14-.45,1.71a.25.25,0,0,0,.14.34,1,1,0,0,1,.17.14c-.18.47-.35.93-.52,1.39-.25.64-.5,1.27-.74,1.91a.6.6,0,0,1-.42.44.33.33,0,0,0-.17.15c-.18.31-.35.62-.55,1a2.38,2.38,0,0,1-.33-.2.3.3,0,0,1-.05-.4q.42-.82.81-1.66c.07-.15.14-.32,0-.49-.28.16-.36.46-.5.71s-.42.78-.64,1.16c0,.06-.07.13-.13.15a.32.32,0,0,1-.22,0,.19.19,0,0,1-.05-.17,2.81,2.81,0,0,1,.15-.46c.33-.77.66-1.53,1-2.3.11-.24.26-.47.38-.71a6.61,6.61,0,0,0,.26-.63.24.24,0,0,0-.1-.33,1.59,1.59,0,0,0-.51.67,2.09,2.09,0,0,1-.51.81.29.29,0,0,1-.08-.4c.12-.3.24-.6.34-.9.18-.56.35-1.12.52-1.68,0-.1,0-.21.06-.31a1.4,1.4,0,0,1,.28-.78.24.24,0,0,0,.07-.14.53.53,0,0,1,.56-.56,10,10,0,0,1-.36,2.32c.59-.76.62-1.75,1.08-2.58C34,17.73,34,17.87,34,18Z" transform="translate(-1.21 -1.68)"/><path class="cls-1" d="M31.57,15.87c-.2.53-.42,1-.61,1.58a2.14,2.14,0,0,0-.11.59c0,.06.1.13.16.19s.13-.1.14-.16a10.58,10.58,0,0,1,.77-1.9.51.51,0,0,1,.26-.23c.19-.09.32,0,.3.22a3.35,3.35,0,0,1-.31,1.19A4,4,0,0,0,32,18c-.15.56-.31,1.11-.44,1.67a7.42,7.42,0,0,1-.14.74,8.57,8.57,0,0,1-.4.78c-.24.49-.47,1-.71,1.49,0,.08-.09.15-.15.24-.21-.11-.17-.22-.09-.37a3.8,3.8,0,0,0,.53-1.21,1.18,1.18,0,0,0,0-.25c-.35.15-.33.53-.57.74a.38.38,0,0,1-.06-.52c.27-.55.55-1.1.82-1.65.13-.28.26-.56.38-.84a1.13,1.13,0,0,0,0-.16c0-.12,0-.24-.11-.26a.31.31,0,0,0-.23.1,1.15,1.15,0,0,0-.17.27l-1.18,2.23s-.06,0-.09.07l-.1,0a1.78,1.78,0,0,1,.13-.47,5,5,0,0,0,.5-1.52c.1-.43.16-.87.28-1.3a2,2,0,0,1,.32-.49,7.8,7.8,0,0,1,.94-2.09A.67.67,0,0,1,31.57,15.87Z" transform="translate(-1.21 -1.68)"/><path class="cls-1" d="M29.74,13.51a2.54,2.54,0,0,0,0,.3c0,.14,0,.34.09.4s.27,0,.44,0c0,.21-.09.44-.15.67A3.72,3.72,0,0,0,30,16.39a3.05,3.05,0,0,1-.09,1,6.18,6.18,0,0,1-.2.78c0,.07-.11.11-.22.22v-.59a1.16,1.16,0,0,0-.66.66l-.43-.09a1.37,1.37,0,0,1,.16-.68c.17-.53.35-1.07.5-1.61a.58.58,0,0,0,0-.43.7.7,0,0,1,0-.72c.17-.44.35-.87.53-1.31,0,0,.05-.05.08-.08Z" transform="translate(-1.21 -1.68)"/><path class="cls-1" d="M26.87,11.61c0,.27-.25.52-.06.82.35-.14.28-.54.56-.74.09,0,.18,0,.18.16a4.51,4.51,0,0,1-.3,1.76c-.11-.13-.17-.27-.27-.32a1.1,1.1,0,0,0-.42,0c-.11-.39-.24-.8-.35-1.21a.33.33,0,0,1,0-.23c.23-.37.46-.73.72-1.14C27.09,11.08,26.83,11.33,26.87,11.61Z" transform="translate(-1.21 -1.68)"/><path class="cls-1" d="M23.85,8.55l.31.38c.24-.19,0-.37,0-.56.24.05.49.38.71,0,.34.17.26.51.36.8a.53.53,0,0,1,.58.25,6.26,6.26,0,0,0,.5.58.55.55,0,0,1,.15.62c-.1.27-.14.58-.44.77-.41-.58-.27-1.34-.62-1.92-.28,0-.32.19-.3.41,0,.47.07.94.1,1.4,0,0,0,0-.08.09L24.25,10a.34.34,0,0,0-.16.51,4.9,4.9,0,0,0,1.33,1.89.51.51,0,0,1,.18.29c.07.31.11.63.16,1a.85.85,0,0,1,0,.19,1.44,1.44,0,0,1-.48-.54c-.41-.6-.8-1.21-1.2-1.81a2.64,2.64,0,0,0-.21-.25l-.1.05a3.35,3.35,0,0,0,.14.6,13.39,13.39,0,0,0,1.29,2.22,3.22,3.22,0,0,1,.25.37c.14.27.29.49.68.4l.08.48-.61.29a8.64,8.64,0,0,1-1.25-1.69.46.46,0,0,1-.07-.26,1.05,1.05,0,0,0-.26-.78c-.11-.15-.23-.3-.35-.45a2,2,0,0,1-.27-.4c-.18-.43-.34-.88-.49-1.32a.72.72,0,0,1,0-.25c.41,0,.31.54.68.6l.09-.27.25,0c0-.06,0-.11,0-.14a10.82,10.82,0,0,0-.7-2A.73.73,0,0,1,23.13,8c.39.45.44,1,.86,1.47C24.11,9.1,23.75,8.89,23.85,8.55Z" transform="translate(-1.21 -1.68)"/><path class="cls-1" d="M53.08,49a3.52,3.52,0,0,0,0,.4c0,.59,0,1.18,0,1.77a11.68,11.68,0,0,1,0,1.59,2.93,2.93,0,0,0,0,.52,9.37,9.37,0,0,1-.35,2.86c-.1.39-.21.77-.31,1.16s-.13.66-.19,1-.15.84-.21,1.27c-.09.61-.17,1.22-.25,1.83a1.17,1.17,0,0,1-.05.15l-.55,1.93a.18.18,0,0,0,0,.08,1.33,1.33,0,0,1-.18.81,2.76,2.76,0,0,0-.28,1.11.67.67,0,0,1-.06.23l-.34.86c-.33.83-.68,1.66-1,2.5a4.94,4.94,0,0,0-.15,1.11c0,.06.06.14.1.22a.64.64,0,0,0,.43-.55,2,2,0,0,1,.09-.63c.36-.92.77-1.82,1.13-2.75s.5-1.8.75-2.69a23.38,23.38,0,0,0,.56-2.31c.1-.59.22-1.19.31-1.78s.15-1.25.25-1.88A8.93,8.93,0,0,1,53,56.75a8.66,8.66,0,0,0,.32-1,14.09,14.09,0,0,0,.29-2.87c0-1-.07-1.93-.13-2.9,0-.4-.11-.79-.16-1.16C53.15,48.78,53.09,48.86,53.08,49Z" transform="translate(-1.21 -1.68)"/><path class="cls-1" d="M28.05,51.1A13.5,13.5,0,0,1,28,49.37c.1-1.22.28-2.43.42-3.64l0-.24c0-.44.08-.88.15-1.31s.2-.92.31-1.37a11.24,11.24,0,0,1,.39-1.55,6.05,6.05,0,0,0,.35-1.35,2.44,2.44,0,0,1,.12-.51c.15-.39.32-.77.48-1.15a.38.38,0,0,0-.22-.56c-.18-.07-.35,0-.44.26-.19.58-.37,1.17-.54,1.76-.08.27-.11.55-.19.82-.16.55-.36,1.08-.51,1.63a14.3,14.3,0,0,0-.29,1.42c-.13.82-.24,1.64-.36,2.47,0,.05,0,.11,0,.16,0,.53-.07,1.07-.14,1.6a11.42,11.42,0,0,0-.15,2c0,.52.06,1,.07,1.57s0,.51.59.49C28.06,51.58,28.06,51.34,28.05,51.1Z" transform="translate(-1.21 -1.68)"/><path class="cls-1" d="M43.78,29.3a3.92,3.92,0,0,1-.87.08c-.36,0-.72-.09-1.07-.14s-.54.07-.58.29.11.35.45.4.83.05,1.24.13a3.19,3.19,0,0,0,1.77-.21,1.39,1.39,0,0,1,1.21,0c.38.2.75.41,1.12.63a1.3,1.3,0,0,0,.63.26.5.5,0,0,0-.1-.45,4,4,0,0,0-1.41-1.12,1.64,1.64,0,0,0-.93-.17C44.74,29,44.26,29.21,43.78,29.3Z" transform="translate(-1.21 -1.68)"/><path class="cls-1" d="M51.66,38.09a.78.78,0,0,0,.05.32c.1.26.23.5.32.76.17.49.34,1,.49,1.48s.31,1.14.44,1.71.19,1.05.29,1.58a2.08,2.08,0,0,0,.13.34l.12,0a1.35,1.35,0,0,0,.06-.34c0-.5-.1-1-.17-1.5s-.13-.9-.22-1.34-.18-.7-.26-1.05a9.42,9.42,0,0,0-.59-1.74,1,1,0,0,0-.31-.36A.22.22,0,0,0,51.66,38.09Z" transform="translate(-1.21 -1.68)"/><path class="cls-1" d="M28.59,58.73c-.13-.68-.24-1.37-.36-2.06a4.5,4.5,0,0,1-.11-1.43c0-.21,0-.43,0-.64a.33.33,0,0,0-.24-.37.46.46,0,0,0-.35.51c0,.33,0,.66,0,1a.86.86,0,0,0,0,.2q.28,1.44.57,2.88c0,.23.18.37.32.35S28.64,59,28.59,58.73Z" transform="translate(-1.21 -1.68)"/><path class="cls-1" d="M48.59,31.8l.27.3a6.56,6.56,0,0,1,1.45,2.65,2,2,0,0,0,.16.46,1.28,1.28,0,0,0,.25.26l.11-.07a2.12,2.12,0,0,0,0-.39c-.09-.35-.22-.69-.29-1a4,4,0,0,0-.83-1.77l-.55-.69a.78.78,0,0,0-.15-.14.4.4,0,0,0-.45,0A.32.32,0,0,0,48.59,31.8Z" transform="translate(-1.21 -1.68)"/><path class="cls-1" d="M44.09,28.23a2.18,2.18,0,0,0,.23.19,2.46,2.46,0,0,1,1-.27,2.58,2.58,0,0,0,.39,0,.16.16,0,0,0,.1-.28,1.51,1.51,0,0,0-1.64-.2A.34.34,0,0,0,44.09,28.23Z" transform="translate(-1.21 -1.68)"/><path class="cls-1" d="M13.07,57.45c.33-.47.69-.92,1-1.37s.74-1,1.15-1.45c.78-.89,1.58-1.76,2.38-2.63.34-.37.67-.73,1-1.07.86-.81,1.74-1.6,2.6-2.41a2.56,2.56,0,0,0,.29-.4c-.33-.27-.48-.26-.72,0a7.55,7.55,0,0,1-.91.88c-.42.31-.68.8-1.17,1,0,0,0,0-.05.06-.58.71-1.3,1.27-1.91,2s-1.42,1.46-2,2.27-1.38,1.75-2,2.64a16,16,0,0,0-.9,1.47c-.15.27-.12.35.19.62a3.51,3.51,0,0,0,.26-.32C12.55,58.29,12.79,57.85,13.07,57.45Z" transform="translate(-1.21 -1.68)"/><path class="cls-1" d="M12.13,61.28c.18-.36.32-.73.53-1.08.47-.79,1-1.57,1.47-2.34.14-.21.3-.41.44-.62.3-.43.58-.88.9-1.28.6-.76,1.23-1.49,1.84-2.23a.57.57,0,0,0,.14-.28.4.4,0,0,0-.1-.31.34.34,0,0,0-.32,0,2,2,0,0,0-.3.37l-1,1.22-.06,0c-.25.29-.52.57-.75.88s-.48.81-.78,1.17a9.17,9.17,0,0,0-1.32,1.95c-.32.66-.74,1.27-1.11,1.9a3.17,3.17,0,0,0-.16.37c0,.1,0,.19.06.23a.85.85,0,0,0,.32.21S12.08,61.37,12.13,61.28Z" transform="translate(-1.21 -1.68)"/><path class="cls-1" d="M16.08,56.15c-.21.31-.39.64-.6.95-.48.74-1,1.47-1.46,2.21-.15.23-.27.49-.42.76.09.12.13.25.22.28a.59.59,0,0,0,.33-.05s.07-.07.1-.12l1-1.48c.29-.45.58-.9.86-1.35s.4-.64.57-1,0-.38-.22-.46S16.16,56,16.08,56.15Z" transform="translate(-1.21 -1.68)"/><path class="cls-1" d="M22.41,46.56c.45-.29.85-.65,1.27-1l.5-.39c-.42-.32-.67-.31-1,0s-.55.47-.82.71L20.6,47.42a6.82,6.82,0,0,1-1.21,1c-.2.11-.16.22.1.37a11.84,11.84,0,0,1,1.37-1C21.43,47.39,21.87,46.91,22.41,46.56Z" transform="translate(-1.21 -1.68)"/><path class="cls-1" d="M23.66,46.76c-.66.72-1.3,1.44-2,2.19.2.18.35.05.46,0,.4-.33.77-.67,1.16-1l1.15-1a.32.32,0,0,0,.11-.23.29.29,0,0,0-.18-.19.46.46,0,0,0-.31,0A1.46,1.46,0,0,0,23.66,46.76Z" transform="translate(-1.21 -1.68)"/><path class="cls-1" d="M19.09,60.93a12.47,12.47,0,0,1,1.69-1.76l2.07-2a.52.52,0,0,0,.15-.27.36.36,0,0,0-.1-.27c-.1-.09-.2,0-.26.07a1.05,1.05,0,0,1-.46.44,1,1,0,0,0-.24.21l-1,.92c-.64.59-1.29,1.16-1.9,1.77a1.79,1.79,0,0,0-.55.85C18.83,61.16,18.92,61.18,19.09,60.93Z" transform="translate(-1.21 -1.68)"/><path class="cls-1" d="M24,57.79c-.17.17-.29.39-.45.56-.44.46-.89.89-1.33,1.35-.16.16-.29.34-.47.56a.63.63,0,0,0,.65-.14,6.88,6.88,0,0,0,.56-.5l2-1.82c.14-.13.24-.26.13-.46a.33.33,0,0,0-.47-.07A3.35,3.35,0,0,0,24,57.79Z" transform="translate(-1.21 -1.68)"/><path class="cls-1" d="M19.15,64c.21-.23.38-.49.59-.71.61-.6,1.25-1.18,1.87-1.77.15-.14.32-.28.25-.56a3.83,3.83,0,0,0-1.29.81c-.47.47-1,.9-1.47,1.37a2.61,2.61,0,0,0-.38.52.34.34,0,0,0,0,.48C18.94,64.26,19,64.08,19.15,64Z" transform="translate(-1.21 -1.68)"/><path class="cls-1" d="M23,54.24c.57-.57,1.11-1.17,1.66-1.75.17-.18.19-.37,0-.49a.36.36,0,0,0-.52.09c-.28.34-.55.68-.84,1a4.78,4.78,0,0,0-.71.81c-.18.36-.5.53-.75.8a2.15,2.15,0,0,0-.18.29c.18,0,.3,0,.36,0A8.28,8.28,0,0,0,23,54.24Z" transform="translate(-1.21 -1.68)"/><path class="cls-1" d="M23.75,55.14c.25-.24.5-.49.73-.74a.36.36,0,0,0,0-.5A.37.37,0,0,0,24,54a3.94,3.94,0,0,1-.24.32L22.5,55.7c-.09.1-.21.17-.1.43.25-.16.49-.3.71-.46A7,7,0,0,0,23.75,55.14Z" transform="translate(-1.21 -1.68)"/><path class="cls-1" d="M22.53,75.27c1-.52,2-1.06,3-1.56.68-.34,1.39-.64,2.08-1l.56-.29c.12-.06.19-.18.13-.3a1.06,1.06,0,0,0-.28-.23c-.23.08-.42.14-.61.22l-1.32.6c-.17.08-.35.13-.52.22-1.2.65-2.36,1.36-3.62,1.92a1.26,1.26,0,0,0-.21.12c-.11.08-.17.21-.08.31a.38.38,0,0,0,.29.14A1.84,1.84,0,0,0,22.53,75.27Z" transform="translate(-1.21 -1.68)"/><path class="cls-1" d="M25.78,71.2a4.09,4.09,0,0,1,.57-.2.26.26,0,0,1,.31.12c.18.25.24.27.49.11a4.14,4.14,0,0,1,1-.53,1.39,1.39,0,0,0,.34-.13c.07,0,.16-.13.16-.2a.28.28,0,0,0-.15-.2.75.75,0,0,0-.73,0l-1.09.61c-.11-.37-.35-.34-.67-.27a3.08,3.08,0,0,0-.85.33c-.22.12-.45.21-.68.32a5.85,5.85,0,0,0-.59.33.34.34,0,0,0-.12.45c.11.18.25.09.38,0Z" transform="translate(-1.21 -1.68)"/><path class="cls-1" d="M27.3,69.7a2.2,2.2,0,0,1,1-.38.73.73,0,0,0,.42-.21c.17-.16.1-.36-.13-.42l-.41-.07a4.66,4.66,0,0,0-.62.25c-.55.32-1.1.65-1.64,1-.16.1-.17.22,0,.36a.35.35,0,0,0,.44,0Z" transform="translate(-1.21 -1.68)"/><path class="cls-1" d="M30.25,76.55a.1.1,0,0,1,0-.07,3.48,3.48,0,0,1,1-.71c.22-.07.45-.1.65-.19s.31-.16.24-.36a.34.34,0,0,0-.38-.23h-.12l0-.05a3.83,3.83,0,0,0-.61.26c-.35.22-.67.49-1,.72a.76.76,0,0,0-.35.51.58.58,0,0,1-.4.46c-.32.11-.63.23-1,.32l-2.37.65c-.33.09-.66.21-1,.31a16.08,16.08,0,0,0-2.43.73,2.49,2.49,0,0,0-.52.3.22.22,0,0,0,.19.39,2.66,2.66,0,0,0,.5-.14c.47-.16.93-.34,1.41-.48.66-.19,1.32-.34,2-.51s1.21-.36,1.83-.49a6.4,6.4,0,0,0,1.71-.59C29.92,77.21,30.3,77.06,30.25,76.55Z" transform="translate(-1.21 -1.68)"/><path class="cls-1" d="M30.68,77.16c.31.15.57.28.87.11a4.27,4.27,0,0,1,.63-.25c.14,0,.29-.06.42-.12s.19-.14.19-.21-.1-.18-.18-.22a.84.84,0,0,0-.39-.06A3.3,3.3,0,0,0,30.68,77.16Z" transform="translate(-1.21 -1.68)"/><path class="cls-1" d="M26.12,63a1,1,0,0,0,.13-.21.83.83,0,0,0-.09-.18.38.38,0,0,0-.54,0c-.17.18-.33.39-.5.57l-1.29,1.32a1.46,1.46,0,0,0-.28.33.38.38,0,0,0,.06.29s.16,0,.21,0,.33-.25.51-.37A15.31,15.31,0,0,0,26.12,63Z" transform="translate(-1.21 -1.68)"/><path class="cls-1" d="M42.69,46.07c0,.2,0,.4,0,.6s0,.44-.3.56a.87.87,0,0,0-.3.32c0,.07-.08.2-.05.24a.33.33,0,0,0,.27.11,1.26,1.26,0,0,0,.46-.22,1.45,1.45,0,0,0,.06-2A1.57,1.57,0,0,0,42.69,46.07Z" transform="translate(-1.21 -1.68)"/><path class="cls-1" d="M40.94,47.53a.5.5,0,0,0-.56-.22,1,1,0,0,1-.7-.11.47.47,0,0,0-.27-.05c-.18,0-.25.14-.15.27a1.1,1.1,0,0,0,.79.53l.7-.07C41,47.85,41.06,47.73,40.94,47.53Z" transform="translate(-1.21 -1.68)"/><path class="cls-1" d="M42.39,37a1,1,0,0,1-.2.89,1.69,1.69,0,0,0-.15.24.3.3,0,0,0,.12.39c.12.08.21,0,.32-.07a1.66,1.66,0,0,0,.48-.91c-.07-.2-.14-.44-.25-.66,0,0-.16-.07-.24-.06S42.37,36.93,42.39,37Z" transform="translate(-1.21 -1.68)"/><path class="cls-1" d="M41.49,62.95a1.5,1.5,0,0,0,.77-.6.24.24,0,0,0,0-.32.2.2,0,0,0-.32,0,.91.91,0,0,1-.59.29,1.13,1.13,0,0,0-.38.12.65.65,0,0,0-.39.39.28.28,0,0,0,.37.28A5,5,0,0,0,41.49,62.95Z" transform="translate(-1.21 -1.68)"/><path class="cls-1" d="M39.46,52.64s-.13.07-.15.14.25.58.46.57.47-.08.7-.12.22-.09.18-.21-.12-.24-.2-.26C40.15,52.69,39.84,52.68,39.46,52.64Z" transform="translate(-1.21 -1.68)"/><path class="cls-1" d="M41.33,52.62a.31.31,0,0,0,.42.1,3.78,3.78,0,0,0,.37-.25c.28-.19.3-.36.11-.74-.28.17-.53.31-.77.47A.29.29,0,0,0,41.33,52.62Z" transform="translate(-1.21 -1.68)"/><path class="cls-1" d="M41.41,69.58c0,.19-.19.26-.37.33a6.94,6.94,0,0,0-.83.41.23.23,0,0,0-.11.34.27.27,0,0,0,.34.15l.23-.08c.23-.08.45-.17.68-.24a.7.7,0,0,0,.51-.71.56.56,0,0,0,0-.2c-.05-.08-.13-.18-.22-.2S41.43,69.46,41.41,69.58Z" transform="translate(-1.21 -1.68)"/><path class="cls-1" d="M42.65,41.64a.48.48,0,0,0-.19-.83,1.65,1.65,0,0,0-.37.32.75.75,0,0,1-.67.33,3.35,3.35,0,0,0-.67.1.35.35,0,0,0-.21.24c0,.09.09.2.17.29a.29.29,0,0,0,.19,0A3.06,3.06,0,0,0,42.16,42,1.54,1.54,0,0,0,42.65,41.64Z" transform="translate(-1.21 -1.68)"/><path class="cls-1" d="M34.66,65.08c.28-.16.54-.34.81-.52a.29.29,0,0,0,.09-.13c.06-.14.1-.29-.06-.4a.33.33,0,0,0-.41,0c-.24.16-.5.29-.76.43l-.21.11c-.15.1-.18.25-.05.37a1,1,0,0,0,.27.15C34.5,65.09,34.6,65.11,34.66,65.08Z" transform="translate(-1.21 -1.68)"/><path class="cls-1" d="M40.72,57.54a.35.35,0,0,0,.47,0c.12-.16.29-.17.44-.25a1.65,1.65,0,0,0,.42-.28c.05-.06,0-.2,0-.3a.59.59,0,0,0-.1-.19l-.44.19a6.7,6.7,0,0,0-.72.35A.31.31,0,0,0,40.72,57.54Z" transform="translate(-1.21 -1.68)"/><path class="cls-1" d="M48.87,57.13c-.27.11-.55.19-.82.3a.74.74,0,0,0-.19.16.36.36,0,0,0,.44.36,5.6,5.6,0,0,0,.84-.27,1.23,1.23,0,0,0,.39-.33.38.38,0,0,0,.05-.26c0-.19-.14-.24-.32-.15S49,57.08,48.87,57.13Z" transform="translate(-1.21 -1.68)"/><path class="cls-1" d="M49.18,50.29a1.64,1.64,0,0,0-.2,0c-.16,0-.3.22-.26.35a.33.33,0,0,0,.34.27,1.13,1.13,0,0,0,1.19-.62c.18-.39.17-.51-.24-.69a1.17,1.17,0,0,0-.2.25A.7.7,0,0,1,49.18,50.29Z" transform="translate(-1.21 -1.68)"/><path class="cls-1" d="M47.66,61.61a1.45,1.45,0,0,0-.38.1c-.22.1-.24.29,0,.43a1.53,1.53,0,0,0,.28.14l.83-.16a.56.56,0,0,0,.18-.08.35.35,0,0,0,.13-.45c-.1-.18-.23-.11-.38-.06A4.91,4.91,0,0,1,47.66,61.61Z" transform="translate(-1.21 -1.68)"/><path class="cls-1" d="M34.87,40.3c0-.13-.07-.25-.11-.42l-.42,0,0,.51-.25.08-.28,0a.34.34,0,0,0-.3.37.34.34,0,0,0,.35.31,1.19,1.19,0,0,0,.4,0C34.66,41,35,40.79,34.87,40.3Z" transform="translate(-1.21 -1.68)"/><path class="cls-1" d="M48.82,53.66a.41.41,0,0,0-.15,0,.32.32,0,0,0-.21.41c.06.16.19.22.4.17l.54-.13a.65.65,0,0,0,.45-.42c.08-.21,0-.34-.25-.34a.53.53,0,0,0-.19.08A.79.79,0,0,1,48.82,53.66Z" transform="translate(-1.21 -1.68)"/><path class="cls-1" d="M49.55,46.57a.67.67,0,0,1-.64.33,1.24,1.24,0,0,0-.2,0,.3.3,0,0,0-.28.33c0,.17.11.32.31.3a3.07,3.07,0,0,0,.75-.13.75.75,0,0,0,.52-.74.7.7,0,0,0-.17-.25C49.71,46.34,49.61,46.47,49.55,46.57Z" transform="translate(-1.21 -1.68)"/><path class="cls-1" d="M42.14,65.53h-.44a1.07,1.07,0,0,0-.31.05.26.26,0,0,0-.16.33c0,.09.12.22.17.22.45,0,.9-.07,1.35-.12l0,0c.05-.1.15-.2.15-.3s-.13-.18-.26-.18h-.52Z" transform="translate(-1.21 -1.68)"/><path class="cls-1" d="M35.78,37.35a1.29,1.29,0,0,0,.25-.4A2.8,2.8,0,0,0,36,36.5a.25.25,0,0,0-.15-.15.33.33,0,0,0-.21.07.24.24,0,0,0-.08.14.49.49,0,0,1-.39.36,1.59,1.59,0,0,0-.26.12.42.42,0,0,0-.24.46.4.4,0,0,0,.48.18A2.47,2.47,0,0,0,35.78,37.35Z" transform="translate(-1.21 -1.68)"/><path class="cls-1" d="M40.42,73.29c-.18.08-.23.24-.08.36a1.2,1.2,0,0,0,.3.13,1.43,1.43,0,0,0,1-.52.34.34,0,0,0,0-.32.36.36,0,0,0-.32,0C41.06,73,40.74,73.16,40.42,73.29Z" transform="translate(-1.21 -1.68)"/><path class="cls-1" d="M48.27,40.26a.92.92,0,0,0,.78-.62c0-.21,0-.37-.25-.44l-.84.65C48,40.05,48.05,40.23,48.27,40.26Z" transform="translate(-1.21 -1.68)"/><path class="cls-1" d="M49.17,43.25l-.62.34c.21.38.3.44.61.33a3.26,3.26,0,0,0,.72-.34.63.63,0,0,0,.22-.4c0-.23-.16-.33-.37-.22Z" transform="translate(-1.21 -1.68)"/><path class="cls-1" d="M33.09,57.67a.69.69,0,0,0,.28-.74.37.37,0,0,0-.22-.2.3.3,0,0,0-.23.15.4.4,0,0,1-.34.24,1,1,0,0,0-.41.16c-.09.06-.13.17-.23.31a1.3,1.3,0,0,0,.34.22A1.2,1.2,0,0,0,33.09,57.67Z" transform="translate(-1.21 -1.68)"/><path class="cls-1" d="M34.09,44c.14-.19.15-.36,0-.5s-.28-.15-.48,0-.49.52-.86.64c-.06,0-.1.11-.13.15s.13.26.31.27A1.25,1.25,0,0,0,34.09,44Z" transform="translate(-1.21 -1.68)"/><path class="cls-1" d="M33.88,60.76a1,1,0,0,0,.52-.35.21.21,0,0,0,0-.35l-.26-.21a1.39,1.39,0,0,1-.93.42l-.2,0c-.27.06-.36.19-.31.41a.33.33,0,0,0,.46.25C33.4,60.91,33.63,60.81,33.88,60.76Z" transform="translate(-1.21 -1.68)"/><path class="cls-1" d="M46.71,65.57a3.08,3.08,0,0,0-.43,0c-.15,0-.28.11-.27.3a.35.35,0,0,0,.32.35,6.43,6.43,0,0,0,.94-.13.33.33,0,0,0,.21-.17.47.47,0,0,0,0-.33c0-.06-.18-.09-.27-.09a4.34,4.34,0,0,0-.51.07Z" transform="translate(-1.21 -1.68)"/><path class="cls-1" d="M45.27,69.47a.37.37,0,0,0,.47.21,3,3,0,0,0,.59-.25c.24-.13.23-.36,0-.48a1.76,1.76,0,0,0-.31-.09c-.14,0-.31.08-.47.14A.4.4,0,0,0,45.27,69.47Z" transform="translate(-1.21 -1.68)"/><path class="cls-1" d="M47.15,36.54a.33.33,0,0,0-.05.13.29.29,0,0,0,.43.26c.17-.08.32-.19.48-.28s.31-.29.24-.45a.38.38,0,0,0-.58-.15A4.41,4.41,0,0,0,47.15,36.54Z" transform="translate(-1.21 -1.68)"/></svg>