<svg id="Layer_1" data-name="Layer 1" xmlns="http://www.w3.org/2000/svg" viewBox="0 0 103.81 79.44"><defs><style>.cls-1{fill:#201406;}</style></defs><title>boby2</title><path class="cls-1" d="M114.34,69.38a11.24,11.24,0,0,1-.05-1.54c0-1.19-.05-2.39-.11-3.58,0-1-.12-2.08-.21-3.12-.06-.65-.17-1.29-.29-1.93-.16-.86-.32-1.73-.56-2.57a34.74,34.74,0,0,0-1.56-4.21c-.32-.75-.61-1.52-1-2.25-.47-1-1-2-1.48-2.91-.34-.63-.74-1.22-1.09-1.84a18.47,18.47,0,0,0-2.11-3.06c-.13-.15-.24-.31-.36-.47-.27-.34-.53-.7-.82-1-.45-.52-.92-1-1.36-1.53a17.48,17.48,0,0,0-2.22-2.21c-.39-.32-.77-.63-1.15-1s-.54-.52-.83-.77-.67-.52-1-.82a20.78,20.78,0,0,0-3.51-3.07,9,9,0,0,1-1-.85c-.41-.34-.83-.66-1.24-1s-.84-.7-1.27-1a6.25,6.25,0,0,1-.62-.36,5.83,5.83,0,0,0-1.43-1c-.27-.14-.56-.23-.83-.37-.52-.27-1-.58-1.55-.85s-1.18-.54-1.77-.81a1.3,1.3,0,0,1-.25-.12,5.33,5.33,0,0,0-1.42-.68c-.8-.29-1.61-.51-2.42-.77-.23-.07-.45-.18-.69-.24-1.19-.31-2.38-.6-3.56-.92-.73-.2-1.45-.42-2.17-.65a8.19,8.19,0,0,0-1.84-.44c-.36,0-.73-.06-1.09-.11-.85-.12-1.7-.31-2.56-.35a13.43,13.43,0,0,0-3.18.09.56.56,0,0,1-.53-.17,9.54,9.54,0,0,0-1.92-1.52c-.13-.07-.25-.17-.38-.26a1.59,1.59,0,0,1,.1-.31c.27-.46.53-.92.83-1.35s.81-1.05,1.2-1.6a6.15,6.15,0,0,1,1.2-1.41,6.55,6.55,0,0,0,.88-.78,19.68,19.68,0,0,1,3.32-2.75,5.82,5.82,0,0,1,.6-.32,7.65,7.65,0,0,0,.67-.37,6.68,6.68,0,0,0,1.56-1.58,2.48,2.48,0,0,0,.3-.6,6.7,6.7,0,0,0,.28-.86.93.93,0,0,0,0-.52,5.5,5.5,0,0,0-.5-1,10.47,10.47,0,0,0-.79-1.05,3.61,3.61,0,0,0-2.23-1.37c-1.29-.2-2.58-.38-3.88-.48a1,1,0,0,0-.89.42,2,2,0,0,0-.16.26H64.38a1,1,0,0,0-1.07.83,7.65,7.65,0,0,1-.49,1.46,10.12,10.12,0,0,0-.55,1.29,1.21,1.21,0,0,0,0,.75.56.56,0,0,1,0,.35c-.29.57-.57,1.14-.9,1.67s-.71,1-1.09,1.55c-.53.72-1.07,1.43-1.63,2.13-.39.5-.82,1-1.23,1.46-.21.25-.32.31-.61.2a6.55,6.55,0,0,1-2.47-1.66,11.59,11.59,0,0,0-1.68-1.66,6.22,6.22,0,0,1-1.21-1.22c-.22-.27-.41-.57-.64-.83-.41-.46-.85-.9-1.27-1.37A.9.9,0,0,1,49.27,8c-.07-.83-.71-1.18-1.3-1.52a8.62,8.62,0,0,0-1.69-.64,2.42,2.42,0,0,0-2.1.46A4.47,4.47,0,0,0,42.8,8,17.83,17.83,0,0,0,42,9.59a4.6,4.6,0,0,0-.22.74c-.11.44-.21.88-.32,1.32a4.84,4.84,0,0,0-.18,2.07c.07.37.15.74.23,1.11a1.16,1.16,0,0,0,.72.87,8.92,8.92,0,0,0,2.92.63,5.16,5.16,0,0,1,1.8.59c.69.34,1.34.76,2,1.14l3.1,1.72a2.75,2.75,0,0,1,.31.24l0,.11-.34,0a11,11,0,0,0-2.5.44c-.21.07-.43.15-.65.2-.86.23-1.74.42-2.59.68-1.4.43-2.79.89-4.15,1.44a12.56,12.56,0,0,1-1.33.56,17.87,17.87,0,0,0-2.12.92,6.8,6.8,0,0,0-.73.37l-2.27,1.3c-.35.2-.72.38-1.05.62-.73.52-1.44,1.06-2.14,1.6-1,.74-1.92,1.48-2.87,2.23-.71.57-1.4,1.16-2.09,1.75a6.09,6.09,0,0,1-.48.42,24.12,24.12,0,0,0-3,2.66,1.57,1.57,0,0,0-.14.18c-.36.47-.71.94-1.09,1.39a18.52,18.52,0,0,0-1.81,2,6.28,6.28,0,0,1-.47.61,18.8,18.8,0,0,0-1.76,2.42c-.41.71-.85,1.4-1.27,2.1-.23.38-.57.94-1,1.68l-.47.81c-.49.85-.67,1.25-.94,1.76a1.94,1.94,0,0,0-.13.29c-.17.5-.32,1-.49,1.51-.24.67-.51,1.33-.74,2-.13.37-.19.76-.28,1.15,0,.2-.1.41-.14.61a8.77,8.77,0,0,1-.31,1.51,14.73,14.73,0,0,0-.62,2.41c-.14.67-.28,1.33-.42,2a9.68,9.68,0,0,0-.4,2.5,1.34,1.34,0,0,1-.06.36c-.12.51-.27,1-.37,1.54-.15.76-.29,1.51-.41,2.27,0,.3-.14.64.13.86a.83.83,0,0,1,.28.85,2.4,2.4,0,0,0,0,.59c.09.81.18,1.63.3,2.44s.27,1.61.41,2.42a1.54,1.54,0,0,0,.08.31c.25.63.49,1.27.77,1.89a5.91,5.91,0,0,0,1.13,2.05,1,1,0,0,1,.19.4,2.51,2.51,0,0,0,.63,1,11.69,11.69,0,0,1,1,1.08.89.89,0,0,0,.59.37A6,6,0,0,1,17,81a6.56,6.56,0,0,0,2.15.55c.32,0,.63-.09.95-.08a18.44,18.44,0,0,0,3,0,1.4,1.4,0,0,1,.36,0,9.39,9.39,0,0,0,3.3-.17l1-.24c1.18-.28,2.37-.53,3.54-.84.85-.23,1.68-.53,2.51-.81a10.22,10.22,0,0,0,1.6-.63c.93-.51,1.82-1.08,2.71-1.65.34-.22.64-.51,1-.75.6-.42,1.22-.8,1.81-1.22S42.3,74,43,73.51a25.26,25.26,0,0,0,2.49-2.19,9.43,9.43,0,0,1,1.42-1.14,3,3,0,0,0,.89-.87,10,10,0,0,1,.86-1c.14-.16.3-.29.45-.45l.73-.8c.28-.3.57-.59.82-.91.49-.65,1-1.33,1.42-2,.16-.23.29-.49.45-.73s.44-.58.62-.89c.43-.73.84-1.47,1.26-2.21.16-.27.36-.53.5-.81.27-.55.49-1.14.77-1.68a14.32,14.32,0,0,0,.88-2.12c.13-.38.35-.74.5-1.11a9.35,9.35,0,0,0,.7-1.72,3.24,3.24,0,0,1,.21-.79,12.78,12.78,0,0,0,.67-2.3c.12-.48.23-1,.35-1.45,0-.1.06-.2.08-.31.29-1.09.19-2.22.38-3.33.12-.69.21-1.38.33-2.07.06-.36.16-.71.25-1.06a1.53,1.53,0,0,1,.1-.22,1.38,1.38,0,0,1,.1.22c.08.42.17.83.24,1.25.12.67.19,1.35.35,2s.39,1.43.63,2.13c.17.5.42,1,.6,1.47.42,1.13.83,2.27,1.24,3.41a2.88,2.88,0,0,0,.23.44c.3.51.63,1,.89,1.53A19.05,19.05,0,0,0,66,56.37c.27.38.51.79.77,1.18a11.56,11.56,0,0,0,.92,1.35,41.33,41.33,0,0,1,2.63,3.54,32.57,32.57,0,0,0,2.41,2.9c.41.45.86.86,1.28,1.3.72.76,1.4,1.55,2.14,2.29s1.26,1.14,1.88,1.71A36.25,36.25,0,0,0,80.76,73c.5.37,1,.75,1.51,1.09s1.2.76,1.82,1.12a14.15,14.15,0,0,0,1.34.67c.83.37,1.68.69,2.51,1.07a18.19,18.19,0,0,0,1.94.88c.45.14.87.36,1.31.52,1,.38,2,.76,3.08,1.11.74.25,1.5.47,2.26.68s1.29.32,1.92.53a10.22,10.22,0,0,0,2.25.53,36.55,36.55,0,0,1,4.19.6,1.28,1.28,0,0,0,.5,0,2.47,2.47,0,0,1,1.12.1c.28.07.55.16.83.22a2.62,2.62,0,0,0,.76.09,8.34,8.34,0,0,0,2.39-.51,4.73,4.73,0,0,0,3-2.89,8.72,8.72,0,0,0,.62-2.41c0-1.17.13-2.34.12-3.5A22,22,0,0,0,114.34,69.38Z" transform="translate(-10.6 -2.8)"/><path class="cls-1" d="M64.24,13.24c-.1,0-.21,0-.28,0s-.19.35-.13.67a3.31,3.31,0,0,0,.4-.4C64.27,13.46,64.24,13.34,64.24,13.24Z" transform="translate(-10.6 -2.8)"/><path class="cls-1" d="M67.42,10l-.25-.09c-.36-.12-.46-.06-.55.29a.9.9,0,0,0,0,.31.38.38,0,0,0,.12.27.31.31,0,0,0,.28-.05c.2-.18.37-.38.57-.6C67.46,10,67.44,10,67.42,10Z" transform="translate(-10.6 -2.8)"/><path class="cls-1" d="M70.06,7.31a.29.29,0,0,0-.32.26.39.39,0,0,0,.08.31.69.69,0,0,0,1-.26A1.14,1.14,0,0,0,70.06,7.31Z" transform="translate(-10.6 -2.8)"/><path class="cls-1" d="M52,13.83c-.34-.25-.47-.21-.64.19-.06.15-.17.35,0,.45a2.31,2.31,0,0,0,.79.28c.22,0,.32-.18.46-.42C52.34,14.16,52.16,14,52,13.83Z" transform="translate(-10.6 -2.8)"/><path class="cls-1" d="M49.11,11a1.52,1.52,0,0,0-.31-.11c-.37,0-.71.4-.63.69a.43.43,0,0,0,.19.23c.35.2.53.14.84-.23S49.41,11.17,49.11,11Z" transform="translate(-10.6 -2.8)"/><path class="cls-1" d="M47.48,8.57a2.19,2.19,0,0,0-.72,1.13c.68.35,1,.31,1.4-.13A3,3,0,0,0,47.48,8.57Z" transform="translate(-10.6 -2.8)"/><path class="cls-1" d="M55.16,16c-.28-.1-.41,0-.58.21a2.41,2.41,0,0,0-.49.86,1,1,0,0,1-.3.45c-.23.23-.4.2-.61,0a.44.44,0,0,1,0-.51c.12-.24.26-.47.39-.72s.09-.42-.2-.51-.49-.09-.7.28a1.42,1.42,0,0,0-.11.25.37.37,0,0,1-.46.28.46.46,0,0,1-.39-.43,1.63,1.63,0,0,1,0-.41.3.3,0,0,0-.25-.4,2.46,2.46,0,0,0-1-.19c-.48.05-.7-.3-.5-.73s.3-.56.45-.84c.05-.1.09-.21.16-.38a3.3,3.3,0,0,0-.77-.18c-.12,0-.24.2-.36.31s-.06.08-.1.09a1.2,1.2,0,0,1-.51,0,.38.38,0,0,1-.28-.46c.07-.27-.09-.34-.3-.39a.6.6,0,0,0-.78.24c-.17.27-.35.3-.54.2a.51.51,0,0,1-.25-.54,2.9,2.9,0,0,0,0-.53c0-.22,0-.4.23-.53a1.1,1.1,0,0,0,.36-.44.19.19,0,0,0-.12-.29,1.85,1.85,0,0,0-.94-.09c-.13.37-.27.72-.39,1.07s-.21.73-.37,1.07a.91.91,0,0,1-.39.41.32.32,0,0,1-.52-.29,2.14,2.14,0,0,1,.06-.76c.12-.42.3-.82.47-1.23s.1-.36-.16-.51l-.12-.06a.38.38,0,0,1-.21-.46A.35.35,0,0,1,45,9.55l.18,0a.63.63,0,0,0,.62-.3c.19-.31.41-.6.61-.9.07-.11.13-.22.23-.39a1.13,1.13,0,0,0-1,.11,6.55,6.55,0,0,1-.64.35,2.21,2.21,0,0,0-1.16,1.27,18.25,18.25,0,0,1-.65,1.75,5.4,5.4,0,0,0-.34,2.14c0,.74.32,1.06,1.06,1.18a1.42,1.42,0,0,0,.44.08,3.41,3.41,0,0,1,1.45.15,13.76,13.76,0,0,1,1.68.37c.94.35,1.84.77,2.76,1.18.45.2.89.44,1.33.68s1.06.58,1.6.86c.28.14.58.24.89.37.26-.38.52-.79.81-1.17s.55-.66,1.06-.51c0,0,.07,0,.13-.06A1.43,1.43,0,0,0,55.16,16Z" transform="translate(-10.6 -2.8)"/><path class="cls-1" d="M16.34,51.35a4.11,4.11,0,0,0-.6,1.6,3.14,3.14,0,0,1-.11.48c-.08.24-.18.47-.27.71-.18.5-.36,1-.52,1.5a18.52,18.52,0,0,0-.52,3.54,17.79,17.79,0,0,0-.06,2.45c0,1,.1,1.94.16,2.9a2.09,2.09,0,0,0,.13.42c.24-.25.15-.48.15-.69s0-.69,0-1,0-.76,0-1.14c0-.09,0-.18,0-.27,0-.71.08-1.42.1-2.13a9.37,9.37,0,0,1,.35-2,2.36,2.36,0,0,0,.09-1.38.22.22,0,0,1,.11-.31c.26-.13.28-.37.33-.61.09-.45.19-.89.28-1.33a1.13,1.13,0,0,0,0-.22,5.33,5.33,0,0,1,.36-1.68A1.07,1.07,0,0,0,16.34,51.35Z" transform="translate(-10.6 -2.8)"/><path class="cls-1" d="M45.42,24.52a6.71,6.71,0,0,0-.69.35c-.55.34-1.1.69-1.64,1.06-1.09.74-2.19,1.48-3.26,2.24-.6.43-1.17.91-1.76,1.36s-1.23.89-1.81,1.37-1.23,1-1.8,1.61-1,1.13-1.54,1.72c-.22.26-.4.56-.65.92C32.15,35,32,35,32,34.89a2.73,2.73,0,0,1,.2-.91,4,4,0,0,1,.61-.72c.53-.6,1-1.22,1.6-1.78s1.53-1.28,2.3-1.92a26.18,26.18,0,0,0,2.4-1.91l.25-.27-.06-.08-.53.22c-.14.06-.26.17-.4.22a6.64,6.64,0,0,0-1.43.79l-3.11,2.06a4.08,4.08,0,0,0-.42.34A6.77,6.77,0,0,0,32.35,32c-.06.08-.18.12-.28.18a1.2,1.2,0,0,1,.41-1.66c-.35,0-.39.27-.58.38-.67.4-1.11,1.08-1.83,1.41a1.55,1.55,0,0,0-.35.28c-.55.49-1.11,1-1.65,1.49a16.53,16.53,0,0,0-1.65,1.68c-.16.21-.28.44-.42.66l.07.08c.19-.11.38-.23.58-.32a2.78,2.78,0,0,1,.62-.25.43.43,0,0,1,.33.16s0,.21-.1.3a1,1,0,0,1-.26.25A6.85,6.85,0,0,0,25.86,38q-.86,1.08-1.69,2.19c-.24.31-.42.66-.65,1s-.55.83-1.11.93a.37.37,0,0,1,.08-.53,1.68,1.68,0,0,0,.51-.79,1.08,1.08,0,0,1,.2-.3c.23-.33.48-.66.7-1s.53-.84.8-1.25A1.08,1.08,0,0,0,25,37.6l-.33.3a7.46,7.46,0,0,0-.84.93c-.18.24-.39.46-.58.69s-.45.57-.67.86c-.37.48-.75.94-1.11,1.43-.22.31-.35.69-.59,1a8.22,8.22,0,0,0-1.2,1.86c-.12.24-.24.49-.38.72a3,3,0,0,0-.41,1.32c.09,0,.13-.13.18-.2l1.06-1.41a2,2,0,0,1,.23-.28c.2-.18.51-.24.62-.1s0,.35-.09.53a9.17,9.17,0,0,0-1.4,2.88c0,.18-.07.36-.11.53-.09.35-.26.52-.5.49s-.43-.23-.41-.6.08-.6.11-.9a1.82,1.82,0,0,0,0-.33l-.12.2-1,2c-.17.33-.18.34.1.62a.76.76,0,0,1,.15.92A11.8,11.8,0,0,0,17,53.66c-.1.58-.23,1.16-.35,1.73-.07.33-.18.64-.26,1s-.19.86-.28,1.29a13.71,13.71,0,0,0-.3,1.6c-.09,1.1-.13,2.21-.16,3.31a20,20,0,0,0,0,2.27,12.37,12.37,0,0,1,0,1.81,5.77,5.77,0,0,0,.05.91.64.64,0,0,0,.1.2h.09c0-.16.07-.31.09-.47.14-1.13.24-2.26.42-3.38.16-1,.4-1.92.62-2.88.12-.52.31-1,.38-1.54.11-.85.16-1.72.23-2.58a1.14,1.14,0,0,1,.06-.36.54.54,0,0,1,.48-.36c.22,0,.32.13.38.32a.94.94,0,0,0,.15.22,3.11,3.11,0,0,1,.38-.22c.29-.12.49,0,.43.35s-.21.91-.33,1.37c-.19.78-.4,1.55-.58,2.33s-.3,1.58-.51,2.35a20.59,20.59,0,0,0-.43,2.87,21.51,21.51,0,0,1-.5,3.28,2.26,2.26,0,0,0,0,.42,6.79,6.79,0,0,0,.74-2.19c.05-.25.11-.5.18-.75.15-.55.32-1.1.46-1.66.09-.35.12-.71.18-1.07a1.45,1.45,0,0,1,0-.18c.28-.93.55-1.86.84-2.79a1.15,1.15,0,0,1,.19-.46,2.24,2.24,0,0,0,.51-.94c.21-.69.51-1.36.78-2a4.5,4.5,0,0,0,.27-.62,22.57,22.57,0,0,1,1.16-2.9c.21-.56.56-1.07.83-1.62s.55-1.21.86-1.79c.47-.88,1-1.74,1.46-2.61.34-.61.63-1.25,1-1.84s.61-1.07.88-1.63a13.87,13.87,0,0,1,1.06-1.63c.27-.4.56-.79.79-1.22a21.83,21.83,0,0,1,2-2.87c.35-.45.67-.93,1-1.4s.73-1.11,1.12-1.65c.27-.38.64-.7.88-1.09a11.89,11.89,0,0,1,2-2c.62-.62,1.4-1.08,2-1.74a12.55,12.55,0,0,1,2.24-1.9,2.1,2.1,0,0,0,.27-.24c.31-.29.6-.6.93-.86a9.27,9.27,0,0,0,1.44-1.24,1.25,1.25,0,0,1,.26-.19c.47-.32,1-.52,1.47-.88s.74-.51,1.12-.76C45.85,24.38,45.78,24.35,45.42,24.52Z" transform="translate(-10.6 -2.8)"/><path class="cls-1" d="M29.3,45.82c-.41.53-.45.61-.41.85C29.38,46.08,29.38,46.08,29.3,45.82Z" transform="translate(-10.6 -2.8)"/><path class="cls-1" d="M20.91,66.34a3.85,3.85,0,0,0-1.26,2.91L21,66.41Z" transform="translate(-10.6 -2.8)"/><path class="cls-1" d="M52.06,29.08c-.21.2-.42.39-.62.6-1.06,1.08-2.11,2.17-3.19,3.24-.92.9-1.88,1.77-2.8,2.67-.6.58-1.14,1.22-1.74,1.8a19.9,19.9,0,0,0-3.18,3.54.69.69,0,0,1-1.16.12c-.12-.13-.13-.26,0-.34a1.52,1.52,0,0,0,.52-.77,4.89,4.89,0,0,1,1-1.59l.46-.44a1.11,1.11,0,0,1,1.26-.41l2-2c.13-.13.27-.24.4-.37.56-.6,1.11-1.2,1.68-1.79s1-1,1.57-1.57l1.33-1.36L51,28.95l1.55-1.65a2.22,2.22,0,0,0,.18-.26.38.38,0,0,0-.34,0c-.3.26-.59.52-.87.8-.61.61-1.21,1.23-1.83,1.83s-1.24,1.15-1.85,1.74-1.11,1.11-1.69,1.64a30.52,30.52,0,0,0-3,3.21c-.19.23-.27.23-.62,0a2,2,0,0,1,.21-.48q.51-.63,1.06-1.23c.54-.59,1.1-1.17,1.65-1.74.3-.32.6-.63.92-.94s.75-.66,1.1-1c.66-.63,1.3-1.27,1.95-1.91a.39.39,0,0,0,.17-.42,1.59,1.59,0,0,0-.25.11c-.47.33-.95.65-1.41,1-.84.63-1.67,1.26-2.49,1.91-.46.37-.9.77-1.34,1.16l-2.16,1.94a.45.45,0,0,0-.17.34c0,.42-.12.52-.53.61a2.31,2.31,0,0,1-.41,0c-.33,0-.39-.05-.47-.36a.46.46,0,0,1,.24-.53c.61-.45,1.22-.89,1.8-1.38s1.28-1.2,1.95-1.77c.85-.73,1.75-1.41,2.57-2.17a9.05,9.05,0,0,1,1.4-1.07,2.44,2.44,0,0,0,.43-.25,11.13,11.13,0,0,1,2.05-1.4.44.44,0,0,0,.25-.48,1.57,1.57,0,0,0-.4.13,1.69,1.69,0,0,1-1,.37.64.64,0,0,0-.33.13c-.25.17-.49.35-.73.53-.45.33-.92.64-1.36,1-.62.49-1.21,1-1.82,1.51l-1.76,1.44c-.59.48-1.19.94-1.76,1.45-.95.85-1.88,1.71-2.8,2.59-.56.54-1.06,1.13-1.58,1.7a5.31,5.31,0,0,0-.38.45.29.29,0,0,1-.43.1c-.16-.09-.16-.23-.09-.39a2.15,2.15,0,0,1,.61-.88,7.15,7.15,0,0,0,.57-.52c.77-.79,1.52-1.6,2.3-2.37.43-.43.9-.81,1.35-1.21.23-.2.47-.38.7-.58l1.59-1.41,0,0A10.91,10.91,0,0,0,45.27,29c.52-.39,1-.84,1.48-1.27.13-.11.25-.24.38-.36l-.07-.1a3,3,0,0,0-.37.2c-.68.49-1.35,1-2,1.47s-1.21.92-1.81,1.38l-1.52,1.16A4.45,4.45,0,0,0,39.9,33a.73.73,0,0,1-.34.28,3.28,3.28,0,0,0-1.13.9,5.55,5.55,0,0,1-.75.85,9.45,9.45,0,0,0-1.15,1.15c-.19.21-.42.4-.42.73,0,.06-.07.13-.12.18a7.1,7.1,0,0,0-.51.58,1,1,0,0,0-.19.49.66.66,0,0,1-.2.52,2.33,2.33,0,0,0-.35.46.73.73,0,0,0-.06.21l.08,0a3.9,3.9,0,0,0,.31-.31,2.74,2.74,0,0,1,1-.81,3.75,3.75,0,0,1,1-.21c.1,0,.21.07.38.13-.31.25-.54.47-.79.65a5.77,5.77,0,0,0-1.3,1.26,4.39,4.39,0,0,0-1,1.56,1.79,1.79,0,0,1-.23.44c-.07.12-.16.25-.32.16a.3.3,0,0,1-.15-.39c.26-.59.12-1.3.6-1.82L34.2,40a1.13,1.13,0,0,0-.15.14c-.17.23-.35.46-.51.69-.65,1-1.31,1.93-1.95,2.9-.3.45-.58.92-.85,1.39s-.71,1.23-1,1.86a2,2,0,0,0-.33,1,.41.41,0,0,1-.05.17.32.32,0,0,1-.6.07c-.16-.24-.39-.49-.14-.81,0,0,0-.08,0-.21-.14.14-.28.22-.34.33-.26.49-.51,1-.75,1.5q-.47,1-.91,2c-.33.76-.65,1.53-1,2.3a4.79,4.79,0,0,1-.34.74.83.83,0,0,0-.12.73.52.52,0,0,1,0,.38,6.47,6.47,0,0,1-.74,1,3.83,3.83,0,0,0-.74,1.4.44.44,0,0,0,0,.38.41.41,0,0,1,0,.54c-.19.33-.39.65-.57,1a6.73,6.73,0,0,0-.62,1.25c-.24.84-.63,1.63-.8,2.5s-.46,1.66-.7,2.49A1.05,1.05,0,0,0,21,66l.09,0a3.65,3.65,0,0,0,.28-.44c.43-1,.85-1.91,1.29-2.86.23-.49.52-1,.75-1.45s.66-.87.7-1.45a.12.12,0,0,1,0,0c.31-.61.62-1.21.92-1.83.1-.2.14-.43.22-.64a.36.36,0,0,1,.46-.26.31.31,0,0,1,.28.4,1.33,1.33,0,0,1-.11.43c-.26.48-.56.93-.81,1.41-.55,1.06-1.08,2.12-1.62,3.19-.23.46-.46.92-.67,1.39s-.47,1.15-.72,1.71c-.44,1-.9,2-1.35,2.93-.2.44-.41.88-.6,1.32s-.35.9-.51,1.36a1.28,1.28,0,0,0,.08,1c.19-.38.38-.74.55-1.11.36-.8.92-1.48,1.26-2.3a13.35,13.35,0,0,1,1.56-2.7,3.12,3.12,0,0,0,.24-.43c.19-.38.36-.76.56-1.13.39-.68.81-1.35,1.2-2s.86-1.59,1.31-2.37c.35-.6.77-1.16,1.1-1.77A22.2,22.2,0,0,1,29,56a1.32,1.32,0,0,0,.14-.23c.11-.25.19-.5.31-.74s.33-.35.46-.29.21.42.09.62a1.25,1.25,0,0,1-.09.11c-.2.28-.42.56-.61.85l-2.25,3.46-.34.53c-.52.85-.9,1.78-1.5,2.58a1.11,1.11,0,0,0-.09.16l-1.32,2.53-1.49,2.91c-.09.17-.15.36-.23.54a3.1,3.1,0,0,0,1-1.14,7.14,7.14,0,0,1,.61-1.06c.8-1.13,1.63-2.25,2.45-3.38l.57-.8c.39-.57.77-1.16,1.18-1.72.22-.31.49-.58.72-.87s.28-.43.43-.64l.29-.4a14.89,14.89,0,0,1,1.31-1.74,12.11,12.11,0,0,0,1.62-2,10.61,10.61,0,0,1,1.29-1.75c.32-.33.6-.71.92-1a3,3,0,0,0,.66-.86,1.56,1.56,0,0,1,.18-.26c.43-.58.93-1.11,1.32-1.72A17.4,17.4,0,0,1,37.9,48c.47-.57,1-1.09,1.47-1.66a1.26,1.26,0,0,0,.36-.66.48.48,0,0,1,.28-.47,1.73,1.73,0,0,0,.72-1,6.22,6.22,0,0,1,1.1-1.89,2.77,2.77,0,0,1,1.32-.84c.31-.08.43-.28.52-.61a4.18,4.18,0,0,1-.47.13.34.34,0,0,1-.4-.23.29.29,0,0,1,.15-.41,1.5,1.5,0,0,0,.41-.35c.3-.34.57-.7.86-1.05l1.93-2.36c.61-.75,1.21-1.51,1.84-2.24s1.12-1.22,1.68-1.84,1-1.11,1.47-1.67,1-1.16,1.48-1.75A.38.38,0,0,0,52.06,29.08Z" transform="translate(-10.6 -2.8)"/><path class="cls-1" d="M56.83,31.24c-.26,0-.31.14-.37.29s-.16.46-.26.68c-.39.81-.81,1.62-1.2,2.43-.23.48-.41,1-.65,1.44-.34.65-.74,1.28-1.09,1.93-.46.85-.89,1.71-1.33,2.57-.33.64-.63,1.3-1,1.94-.2.39-.43.76-.65,1.14s-.54.94-.82,1.4a.7.7,0,0,1-.68.3c-.19,0-.33-.11-.28-.33a.78.78,0,0,1,.17-.39,4.83,4.83,0,0,0,1.15-1.55c.2-.39.41-.78.61-1.17s.54-1,.79-1.47A33.09,33.09,0,0,1,53,37.11a2.71,2.71,0,0,0,.26-.43c.45-1.12,1.17-2.12,1.57-3.27,0-.06.06-.11.09-.16.23-.49.47-1,.68-1.49a.63.63,0,0,0,0-.61c-.26.17-.29.42-.38.64-.22.49-.44,1-.68,1.47s-.43.76-.63,1.15c-.31.61-.58,1.23-.9,1.83-.16.29-.34.56-.49.86-.25.53-.57,1-.83,1.54a13.66,13.66,0,0,1-1.11,1.6c-.2.3-.36.63-.57.92-.36.49-.79.93-1.1,1.44a17.24,17.24,0,0,1-1.47,2l-.71.88c-.16.2-.3.41-.46.61s-.35.13-.55.06a.3.3,0,0,1-.23-.34c0-.24,0-.52.33-.65a.79.79,0,0,0,.23-.21c.45-.49.88-1,1.34-1.47a10.17,10.17,0,0,0,1.18-1.49c.51-.79,1-1.56,1.55-2.35s1.18-1.72,1.69-2.62,1-2,1.54-3c.13-.26.25-.52.38-.77a10,10,0,0,0,.71-1.87c-.08,0-.15,0-.16,0a3.12,3.12,0,0,0-.36.66,14.11,14.11,0,0,1-1.08,1.93,13.26,13.26,0,0,1-1,1.59c-.24.36-.46.75-.73,1.09s-.66.77-1,1.16c-.53.62-1.08,1.23-1.59,1.86a11.17,11.17,0,0,0-.72,1.09c-.15.23-.25.5-.61.43a.19.19,0,0,0-.16.06c-.23.33-.49.13-.72,0s-.16-.33-.16-.52a1.94,1.94,0,0,1,0-.28l-.45.53c-.43.49-.87,1-1.3,1.47-.58.68-1.14,1.37-1.72,2a4.1,4.1,0,0,0-.83,1.13,2,2,0,0,1-.36.52c-.55.66-1.12,1.31-1.66,2-.29.36-.52.78-.81,1.14s-.67.74-1,1.13c-.55.68-1.08,1.37-1.62,2.05-.08.11-.19.2-.26.31C35.41,54,34.39,55,33.58,56.2c-.49.72-1.06,1.39-1.58,2.09-.36.49-.71,1-1.06,1.48l-2.07,2.87c-.22.31-.44.62-.66.92s-.55.68-.79,1c-.59.9-1.13,1.83-1.73,2.72-.83,1.26-1.73,2.48-2.48,3.8-.23.41-.45.83-.68,1.24a.35.35,0,0,0,.22-.12l1.67-2c.1-.12.16-.27.28-.35a.58.58,0,0,1,.41-.06c.16,0,.15.22.1.35a1.78,1.78,0,0,1-.21.44c-.41.54-.84,1.07-1.26,1.61-.55.69-1.1,1.37-1.64,2.06a1.36,1.36,0,0,0-.41.72,4.17,4.17,0,0,0,.63-.51c.13-.13.23-.28.35-.41l2-2.13,1.59-1.69a1,1,0,0,1,.87-.42,3.69,3.69,0,0,1,.33-.8,6.18,6.18,0,0,1,.8-.85A35,35,0,0,0,33,63a2,2,0,0,1,.32-.38.34.34,0,0,1,.52.05l.34.36c.17.18.17.31,0,.51s-.54.57-.79.87c-.44.52-.85,1.06-1.28,1.59a2.78,2.78,0,0,1-.23.22c-.37.36-.75.7-1.1,1.08-.8.89-1.57,1.81-2.38,2.68a32.35,32.35,0,0,1-2.6,2.53c-1,.89-2,1.85-3.05,2.78l-.62.58c.32.47.53.53.91.24a13.18,13.18,0,0,0,1.15-1c.83-.82,1.67-1.63,2.56-2.39.74-.63,1.43-1.31,2.13-2,1.1-1.06,2.18-2.14,3.27-3.21.16-.16.32-.33.47-.5.41-.47.81-.94,1.23-1.4.62-.68,1.27-1.35,1.88-2,.4-.45.74-.94,1.14-1.39a3,3,0,0,0,.65-1,.38.38,0,0,1,.07-.11.33.33,0,0,1,.4-.14.32.32,0,0,1,.2.37A1.63,1.63,0,0,1,38,62c-.44.62-.89,1.22-1.38,1.8s-.82.85-1.23,1.28-.72.73-1.07,1.11-.67.74-1,1.11l-1.14,1.29a3.13,3.13,0,0,1-.22.23c-.61.57-1.23,1.12-1.84,1.7s-1.27,1.25-1.91,1.88l-.69.69.06.08L27.8,73A25.66,25.66,0,0,0,30,71.42a24.91,24.91,0,0,0,3.34-2.79l1.25-1.26c.21-.22.4-.45.61-.67l1.29-1.28c.35-.34.71-.66,1-1s.49-.57.75-.85c.47-.52,1-1,1.42-1.54.74-.84,1.49-1.68,2.2-2.55.54-.65,1-1.34,1.55-2s1-1.47,1.51-2.21c.13-.2.24-.42.37-.62.55-.85,1.12-1.68,1.65-2.54.42-.68.78-1.4,1.19-2.09.55-.92,1.14-1.82,1.69-2.74s1-1.66,1.47-2.49c.12-.21.2-.44.31-.65.2-.39.41-.77.61-1.16s.35-.78.56-1.14a16.37,16.37,0,0,0,1.5-3.29,22.14,22.14,0,0,1,1.26-2.95,4.64,4.64,0,0,0,.27-.62c.17-.53.31-1.08.48-1.61.12-.37.3-.72.43-1.09A1.93,1.93,0,0,0,56.83,31.24Z" transform="translate(-10.6 -2.8)"/><path class="cls-1" d="M47.45,65.29a.24.24,0,0,1,.29-.27h0A.24.24,0,0,0,47.45,65.29Z" transform="translate(-10.6 -2.8)"/><path class="cls-1" d="M53.27,53.88a4.8,4.8,0,0,0,.55-1.18c.14-.45.3-.88.46-1.32s.46-1.05.64-1.59c.28-.84.53-1.7.78-2.55s.45-1.57.67-2.35.46-1.72.67-2.58.42-1.79.63-2.69c.09-.38.12-.78.22-1.16a9.89,9.89,0,0,0,.32-2,.43.43,0,0,0-.38-.43c-.21,0-.25.14-.29.28s-.08.32-.11.48a5.24,5.24,0,0,1-.1.53A7,7,0,0,0,57,38.77a.72.72,0,0,1,0,.13l-.41,1.44c0,.16-.1.31-.16.47s-.13.3-.17.45a16,16,0,0,1-.44,1.62c-.23.59-.44,1.18-.66,1.77s-.48,1.32-.7,2c-.07.23-.21.43-.28.66s-.13.63-.25.92a5,5,0,0,1-.51.9.56.56,0,0,1-.63.12c-.21-.08-.18-.26-.18-.42s0-.18,0-.28a2.48,2.48,0,0,0,.79-1.62,5.09,5.09,0,0,0-.82,1.31,6.32,6.32,0,0,1-.63,1.08A15.17,15.17,0,0,0,50.26,52a5.76,5.76,0,0,1-1.37,2.2,5.05,5.05,0,0,0-1.3,1.84A3.78,3.78,0,0,1,47,57a17.44,17.44,0,0,0-1.16,1.33,10.21,10.21,0,0,1-1.22,1.38c-.45.46-.92.91-1.34,1.41a16.15,16.15,0,0,1-1.31,1.6c-.65.61-1.29,1.23-1.92,1.86a3.34,3.34,0,0,0-.25.3l.22.28c.19.27.19.29,0,.53l-.21.18c-.47.41-1,.8-1.4,1.22s-.93,1-1.43,1.46c-1.33,1.24-2.68,2.46-4,3.68-.31.28-.64.55-1,.83a.57.57,0,0,0-.25.45c.37-.25.67-.48,1-.67.59-.34,1.2-.64,1.78-1,.84-.51,1.68-1,2.47-1.59s1.54-1.22,2.31-1.83a3.88,3.88,0,0,1,.66-.39c.13-.07.29-.11.41,0a.4.4,0,0,1,0,.51,2.58,2.58,0,0,1-.46.49c-.46.37-.95.71-1.42,1.06a46.36,46.36,0,0,1-4.58,3c-.64.37-1.27.76-1.9,1.15l-2.67,1.64a1.57,1.57,0,0,0-.21.18,8.93,8.93,0,0,0,1.37-.36c.34-.12.66-.32,1-.43A9.79,9.79,0,0,0,34.6,73.5a14,14,0,0,1,1.47-1,1,1,0,0,1,.47-.09c.16,0,.31,0,.34.23s.05.37-.14.49l-.28.16c-.32.2-.65.39-1,.59a18,18,0,0,1-1.69,1.14c-.9.46-1.85.84-2.78,1.23s-1.61.62-2.41.95c-.3.12-.59.29-.88.43.13.35.16.37.45.3.54-.13,1.09-.26,1.63-.41.77-.21,1.56-.33,2.33-.58a19.56,19.56,0,0,0,3.17-1.54,16.37,16.37,0,0,0,1.52-1c.85-.59,1.68-1.19,2.52-1.79a7.83,7.83,0,0,1,.86-.67,13.73,13.73,0,0,0,2.33-1.73c.67-.56,1.31-1.17,1.94-1.78s1.16-1.19,1.74-1.8a3,3,0,0,0,.26-.37,16,16,0,0,0-1.38,1.06l-1.38,1.11c-.77.61-1.57,1.19-2.31,1.84-.58.51-1.16,1-1.77,1.48a1.49,1.49,0,0,1-1.15.4c-.13-.49-.07-.69.28-.93l1.7-1.2a5.44,5.44,0,0,1,.48-.41,7.72,7.72,0,0,0,1.5-1.17,6.09,6.09,0,0,1,1-.74,6.79,6.79,0,0,0,.79-.69l2.11-1.78a1.44,1.44,0,0,0,.47-.76c0-.12.06-.24.1-.35s.16-.36.4-.38a.53.53,0,0,1,.56.3c0,.09.08.19.12.29h-.07l-.16.62a1.68,1.68,0,0,0,.25-.23c.73-1,1.64-1.78,2.31-2.81.53-.83,1.2-1.56,1.79-2.35a17.1,17.1,0,0,0,1.09-1.56,11.46,11.46,0,0,0,1-1.81c.19-.52.47-1,.71-1.51s.38-.78.54-1.18c.29-.73.55-1.48.84-2.21a6.49,6.49,0,0,0,.4-1.48,5.33,5.33,0,0,1,.15-.61c.07-.27.16-.55.21-.82s0-.57.09-.85c.19-1.21.39-2.43.57-3.64a5.54,5.54,0,0,0,0-.73,2,2,0,0,0-.24.38q-.21.67-.38,1.35c-.09.36-.16.74-.25,1.1s-.15.55-.23.83-.17.51-.25.77,0,.37-.1.54c-.31.93-.64,1.85-1,2.78-.08.23-.2.45-.26.68a19.72,19.72,0,0,1-1.13,2.8,2.35,2.35,0,0,1-.18.37c-.18.28-.36.55-.56.82a.39.39,0,0,1-.56.11c-.21-.12-.12-.28-.05-.43A12,12,0,0,1,53.27,53.88Z" transform="translate(-10.6 -2.8)"/><path class="cls-1" d="M58.09,34.63H58V35c.08,0,.14-.07.14-.09A1.66,1.66,0,0,0,58.09,34.63Z" transform="translate(-10.6 -2.8)"/><path class="cls-1" d="M59.17,21.22a3,3,0,0,0-.35,0c0,.19,0,.32,0,.46a.42.42,0,0,0,0,.13.3.3,0,0,0,.53.09A.38.38,0,0,0,59.17,21.22Z" transform="translate(-10.6 -2.8)"/><path class="cls-1" d="M59.38,19.52a.37.37,0,0,0-.31.42.52.52,0,0,0,.56.41c.15,0,.3-.25.29-.46S59.63,19.5,59.38,19.52Z" transform="translate(-10.6 -2.8)"/><path class="cls-1" d="M68.68,6.87l0,0a.44.44,0,0,1-.26-.6c.07-.25.16-.3.48-.28h.28a2.8,2.8,0,0,0-1.71-.76c-.29,0-.57-.06-.86-.1a.8.8,0,0,0-1,.54c-.24.49-.5,1-.77,1.44a7.45,7.45,0,0,0-.49.81,6,6,0,0,1-.77,1.38,3.79,3.79,0,0,0-.46.73,11.08,11.08,0,0,1-1.26,2.1,3.38,3.38,0,0,0-.3.4,10.6,10.6,0,0,1-1.89,2.6,4.87,4.87,0,0,0-.53.62,2.77,2.77,0,0,1-1,1,.49.49,0,0,0-.13.12c-.66.75-1.32,1.5-2,2.26a2,2,0,0,0-.55,1.06,1.48,1.48,0,0,0,.8,1.57c.11-.43.14-.47.57-.44a9.32,9.32,0,0,1,.93.16l.41.09.1-.47-1.08-.38a.53.53,0,0,1-.34-.69c.05-.2.2-.26.53-.2l1,.19a1.2,1.2,0,0,0,.09-1c-.07-.18-.1-.4.13-.52s.43-.19.64-.29c.31.32.39.35.9.34.26-.57.22-.68-.36-.88h0a.41.41,0,0,1-.34-.43c0-.23.12-.36.4-.42s.45-.06.68-.09c.09-.41.28-.79-.22-1.09a.38.38,0,0,1,.08-.64,1.87,1.87,0,0,0,.83-.43c.17-.17.37-.06.4.2s0,.27,0,.42.25.12.38.17a1.59,1.59,0,0,0,.31.08.47.47,0,0,0,.53-.32c0-.18-.08-.34-.33-.42s-.27,0-.4-.07a.57.57,0,0,1-.47-.39.65.65,0,0,1,.08-.46.45.45,0,0,1,.54-.14l.83.25a3.9,3.9,0,0,0,.21-1,1.49,1.49,0,0,1,.44-1.06,3.73,3.73,0,0,1,.51-.52c.12-.1.25-.17.4,0l-.25.79c.76.44,1.16.21,1.17-.67a5.66,5.66,0,0,0-.6-.23.43.43,0,0,1-.34-.38.41.41,0,0,1,.25-.44.78.78,0,0,1,.61-.1c.54.13.56.1.65-.42a2.47,2.47,0,0,0,0-.29l-.63-.17A.37.37,0,0,1,65.2,9c0-.21.14-.3.31-.33s.48,0,.72-.07a1.34,1.34,0,0,0,.5-.16c.47-.3.63-.24.71.3,0,0,0,.09,0,.13a1.71,1.71,0,0,0,1,.36c.51-.74.19-1-.47-1.06l-.09,0c-.34-.08-.68-.14-1-.24a.58.58,0,0,1-.42-.77c.11-.28.4-.36.78-.21l1.22.48a3.49,3.49,0,0,0,.43.11C69.11,7.1,69.1,7.07,68.68,6.87Z" transform="translate(-10.6 -2.8)"/><path class="cls-1" d="M61.77,16.44c-.06-.09-.25-.1-.39-.13s-.06,0-.14,0a1.07,1.07,0,0,0-.1.35c0,.12.06.29.15.34s.25,0,.34-.11A.35.35,0,0,0,61.77,16.44Z" transform="translate(-10.6 -2.8)"/><path class="cls-1" d="M62.46,20.95c-.18-.22-.35-.24-.53,0a2,2,0,0,0-.33.63c-.14.43-.2.89-.35,1.31s-.18,1.14-.6,1.59c-.05.05,0,.17-.07.31a1.7,1.7,0,0,0,1.18-.38c.11-.1.19-.22.1-.36-.3-.45-.08-.8.2-1.15a10,10,0,0,0,.66-.92.71.71,0,0,0,.1-.5A1.75,1.75,0,0,0,62.46,20.95Z" transform="translate(-10.6 -2.8)"/><path class="cls-1" d="M91.49,76.41l.37.21c.28.14.57.28.86.41.69.3,1.38.61,2.08.9a.65.65,0,0,0,.53,0A11.44,11.44,0,0,0,91.49,76.41Z" transform="translate(-10.6 -2.8)"/><path class="cls-1" d="M98.92,77.76c-.59-.37-1.18-.74-1.76-1.12s-1.1-.76-1.65-1.13c-1-.68-2-1.32-3-2a22.8,22.8,0,0,0-2-1.38c-.67-.41-1.32-.84-2-1.27-.47-.3-.52-.62-.12-1.08a1.58,1.58,0,0,1,.39.24,10.31,10.31,0,0,0,2.1,1.58,2.58,2.58,0,0,0,.24.12l.23.12.05-.08c-.66-.6-1.32-1.2-2-1.79s-1.28-1.27-2-1.83a.61.61,0,0,1-.85,0A23.63,23.63,0,0,1,84,66.06a2.23,2.23,0,0,1-.21-.23l-.45-.5c-.56-.61-1.16-1.2-1.69-1.84s-1.08-1.4-1.61-2.11c-.41.25-.51.24-.77-.07-.08-.09-.14-.2-.21-.29-.83-1.12-1.67-2.23-2.49-3.36-.32-.44-.6-.91-.91-1.36-.49-.72-1-1.44-1.49-2.16-.29-.44-.54-.91-.86-1.32s-.68-1-1-1.45l-.61-.95c-.45-.71-.9-1.43-1.36-2.14a4,4,0,0,0-.4-.45l-.08.05a2.36,2.36,0,0,0,.1.28c.34.66.67,1.32,1,2,.47.82,1,1.64,1.46,2.44.2.33.45.63.69,1-.07.15,0,.32.14.49l.76,1.18.56.82c.22.32.44.64.64,1a.42.42,0,0,1-.08.54.38.38,0,0,1-.47,0,.76.76,0,0,1-.25-.19c-.17-.22-.33-.46-.5-.7a2.64,2.64,0,0,1-.44-.68,6,6,0,0,0-.71-1.36c-.28-.48-.58-1-.85-1.44s-.62-1.13-.92-1.69-.63-1.23-1-1.85a1.11,1.11,0,0,0-.2-.3,4.71,4.71,0,0,1-.74-1.23c-.18-.33-.3-.69-.47-1-.26-.51-.55-1-.81-1.52-.14-.27-.24-.56-.4-.82s-.5-.79-.75-1.18a.26.26,0,0,1,.06-.4c.07-.06.13-.12.21-.19s0-.18,0-.26a.38.38,0,0,1,.24-.4.37.37,0,0,1,.46.08,1.21,1.21,0,0,1,.3.44,5.24,5.24,0,0,0,.65,1.47.54.54,0,0,1,0,.66l-.39-.09.72,1.17.45-.39a1.13,1.13,0,0,1,.59.56,3,3,0,0,0,.21.43c.18.29.38.57.57.87l1.24,2,.09.11c.16.24.33.47.48.71l1.08,1.71L74.89,54a9.2,9.2,0,0,0,.74,1.13,20,20,0,0,1,1.49,2.1c.32.48.7.91,1,1.38s.52.78.76,1.18a1.86,1.86,0,0,0,1.29,1,.92.92,0,0,1,.83.59.81.81,0,0,0,.14.18c.67.86,1.32,1.74,2,2.58a15.78,15.78,0,0,0,3,2.85l.44.33.06-.07-1.42-1.58c-.3-.33-.61-.64-.9-1-.66-.77-1.27-1.59-2-2.3a20.68,20.68,0,0,1-2.12-2.52c-.34-.46-.71-.9-1.07-1.35a2.38,2.38,0,0,1-.18-.26c-.18-.3-.34-.61-.53-.9a2.52,2.52,0,0,0-1.06-1.13.42.42,0,0,1-.18-.13c-.17-.24-.34-.49-.49-.74s-.42-.74-.66-1.08-.64-.8-.94-1.21a22.62,22.62,0,0,0-1.37-2,.19.19,0,0,1,0-.08,2,2,0,0,0-.38-.65c-.61-.86-1.2-1.73-1.77-2.62a21.21,21.21,0,0,1-1.18-2.09,6.87,6.87,0,0,0-1.31-2.11.49.49,0,0,1-.1-.59.52.52,0,0,0,0-.52L68.21,41l-.11-.17c-.29.24-.49.11-.7-.07a2.25,2.25,0,0,1-.65-1,9.84,9.84,0,0,0-.51-1.11c-.34-.69-.64-1.4-1-2.1,0-.09-.1-.18-.15-.27a1.06,1.06,0,0,0,0,.53c.05.23-.15.26-.26.37a6.32,6.32,0,0,0,.27.64A9.54,9.54,0,0,0,66.45,40a3.32,3.32,0,0,1,.35.41,1.12,1.12,0,0,1,.19.4.31.31,0,0,1-.4.38.9.9,0,0,1-.46-.26c-.32-.44-.61-.9-.88-1.37a5.43,5.43,0,0,0-1.07-1.65.45.45,0,0,1-.11-.2c-.07-.2-.13-.4-.2-.6a15.67,15.67,0,0,0-1.34-3,1.09,1.09,0,0,1-.13.91.77.77,0,0,0,0,.57c.14.46.32.91.5,1.36s.43,1.06.66,1.58.48,1.07.72,1.61.34.8.53,1.2a3.46,3.46,0,0,0,.25.43c.17.27.34.54.53.79a.49.49,0,0,1,.07.5c-.54.22-.62.21-.93-.26a5.29,5.29,0,0,1-.39-.72,10.48,10.48,0,0,0-.67-1.48c-.56-.83-.71-1.83-1.28-2.65,0-.06,0-.15,0-.22-.06-.23-.12-.47-.2-.7a1.38,1.38,0,0,0-.2-.3l-.12.06.27.9c.19.62.41,1.24.55,1.87a13.17,13.17,0,0,0,.82,2.59c.5,1.08,1,2.17,1.56,3.21a11.06,11.06,0,0,1,.64,1.54c.28.73.53,1.48.82,2.21a.37.37,0,0,1-.14.47.4.4,0,0,1-.51,0,1.33,1.33,0,0,1-.54-.81,7.13,7.13,0,0,0-.87-2.47,1.88,1.88,0,0,1-.14-.34l-.31-.7c-.05-.11-.12-.21-.17-.32-.2-.44-.38-.89-.59-1.33a4.36,4.36,0,0,0-.3-.48l-.1,0a5,5,0,0,0,.13.51c.14.38.33.75.45,1.14.21.71.39,1.43.56,2.15A18.62,18.62,0,0,0,65,50a22.85,22.85,0,0,0,1.19,2.29c.38.65.81,1.27,1.22,1.91a1.89,1.89,0,0,1,.34.57,3.3,3.3,0,0,0,.82,1.42A1.9,1.9,0,0,1,69,56a.45.45,0,0,1,.32.11,7.3,7.3,0,0,1,.62.83,21,21,0,0,1,1.23,2.16c.18.38.41.74.62,1.12a8.24,8.24,0,0,1,.75,1.38c.07.22.33.38.5.57.55,0,.75.44,1,.79a4.11,4.11,0,0,0,.27.36c.29.31.59.61.9.9a2.11,2.11,0,0,0,.47.33,1.11,1.11,0,0,1,.62.57,1.23,1.23,0,0,0,.33.43l3.32,3a10.2,10.2,0,0,0,2.52,1.85.63.63,0,0,1,.43.86s0,.06,0,.13c.46.34.93.71,1.43,1,.32.22.68.4,1,.6a8.57,8.57,0,0,0,.9.53q1.92.83,3.85,1.62c.43.17.87.3,1.38.48,0-.14,0-.21-.08-.24-.38-.28-.75-.56-1.14-.82-.56-.36-1.14-.69-1.71-1-1.07-.63-2.11-1.3-3.21-1.89A12.14,12.14,0,0,1,83,70a2.32,2.32,0,0,1-.33-.37.25.25,0,0,1,0-.36.26.26,0,0,1,.4,0,4.23,4.23,0,0,0,.32.32,13.37,13.37,0,0,0,2.18,1.47c1,.52,2,1.12,3,1.71.57.34,1.12.72,1.68,1.08l1.47.91,1,.59.76.48.08-.11-.81-.54a9.87,9.87,0,0,1-1.5-1,5.12,5.12,0,0,0-.66-.55c-.39-.26-.81-.48-1.21-.72-.17-.1-.32-.23-.48-.35s-.4-.32-.61-.46-.55-.33-.8-.51c-.84-.59-1.67-1.2-2.51-1.79-.45-.31-.91-.6-1.37-.88a.55.55,0,0,1-.31-.56c0-.22.14-.3.34-.23a2.09,2.09,0,0,1,.48.25L87.74,71l1.27.89c1.13.77,2.25,1.54,3.39,2.29,1.31.85,2.64,1.66,4,2.51a18.26,18.26,0,0,0,2.13,1.11.94.94,0,0,0,.63.11Z" transform="translate(-10.6 -2.8)"/><path class="cls-1" d="M95.41,74.41c-.38-.29-.78-.56-1.18-.83a3.92,3.92,0,0,0-.42-.21,1.27,1.27,0,0,0,.33.45,5,5,0,0,0,1.51.93A1.2,1.2,0,0,0,95.41,74.41Z" transform="translate(-10.6 -2.8)"/><path class="cls-1" d="M96.59,75.35a5.46,5.46,0,0,0,1.63,1.1A3.22,3.22,0,0,0,96.59,75.35Z" transform="translate(-10.6 -2.8)"/><path class="cls-1" d="M99.77,73.22a37.93,37.93,0,0,0,3.14,2.83,2.48,2.48,0,0,0,.39.23,4.81,4.81,0,0,0-.42-.58c-.28-.3-.61-.54-.88-.84-.81-.92-1.59-1.86-2.41-2.78-.45-.51-.93-1-1.43-1.46a3.37,3.37,0,0,1-.8-.78c-.16-.29-.22-.48-.08-.61s.36-.1.61.13c.5.47,1,.95,1.45,1.44.7.75,1.38,1.52,2.07,2.28.43.47.87.93,1.32,1.38.18.18.38.33.57.49a.35.35,0,0,0-.09-.27,13,13,0,0,1-1.32-1.61c-.29-.4-.62-.78-.93-1.18L99.47,70l-.29-.35-1.42-1.89c-.3-.4-.6-.8-.89-1.21-.39-.57-.74-1.18-1.16-1.73a5,5,0,0,0-1.36-1.39.77.77,0,0,1-.35-.55,1,1,0,0,0-.3-.72,2.1,2.1,0,0,1-.23-.39,9.39,9.39,0,0,0-.48-.91c-.3-.44-.63-.85-1-1.26-.2-.25-.43-.47-.64-.71a4.87,4.87,0,0,1-.5-.59,13.29,13.29,0,0,0-1.48-1.95,5.94,5.94,0,0,1-.46-.67l-.63-.88-.79-1.05c-.42-.57-.82-1.16-1.27-1.71a16,16,0,0,1-1.75-2.26,1.81,1.81,0,0,0-.26-.31L83.79,49a3.15,3.15,0,0,0-.78-.74c.07.16.1.22.12.28a3.32,3.32,0,0,1,.17.61.22.22,0,0,1-.37.19,1.93,1.93,0,0,1-.55-.64,7.74,7.74,0,0,0-.63-1.1,25.83,25.83,0,0,0-2.37-3.33c-.43-.53-.87-1.05-1.31-1.57-.21-.25-.38-.49-.1-.79l-.41-.59a.39.39,0,0,0-.5-.2.54.54,0,0,1-.61-.2c-.1-.11-.2-.23-.29-.35-.7-.88-1.38-1.77-2.09-2.63-.55-.67-1.13-1.31-1.69-2l-1.65-1.88L69.3,32.47l-.71-.77a.9.9,0,0,0,0,.2c.64.86,1.25,1.74,1.94,2.57s1.22,1.65,1.88,2.44c1,1.14,1.85,2.32,2.78,3.47.32.4.34.49,0,1a.83.83,0,0,1-.83-.42q-.28-.44-.61-.85l-2.45-3.14c-.16-.2-.3-.42-.46-.62-.7-.89-1.41-1.78-2.09-2.68-.83-1.08-1.64-2.17-2.46-3.25a1.29,1.29,0,0,0-.24-.16,9.79,9.79,0,0,0,.45.93c.37.59.76,1.16,1.15,1.73l.58.86c.12.17.26.34.37.52.38.62.73,1.25,1.12,1.87S70.6,37.37,71,38a4.34,4.34,0,0,0,.64.76c.42.37.45.52.07,1l-.47,0c.24.34.42.62.63.89s.27.3.18.48a1,1,0,0,1-.41.45c-.23.11-.44-.06-.59-.24a1.74,1.74,0,0,1-.18-.31,10.76,10.76,0,0,0-1-1.91,7.35,7.35,0,0,1-.47-.77l-1-1.65a1.62,1.62,0,0,0-.22-.21,1.75,1.75,0,0,0,.07.33,9.18,9.18,0,0,0,.5,1,23,23,0,0,1,1.42,2.64c.18.37.33.75.52,1.11s.37.48.5.75a20.15,20.15,0,0,0,1.71,2.93C73.5,46,74.07,47,74.71,48s1.39,2,2.1,3c.19.26.41.49.6.74.39.56.76,1.13,1.15,1.68.55.78,1.11,1.55,1.66,2.32.33.47.66.94,1,1.4s.66.86,1,1.3a11.29,11.29,0,0,0,1.59,1.92,1.47,1.47,0,0,1,.3.4A3.12,3.12,0,0,0,85.15,62a2.15,2.15,0,0,1,.43.4l2.22,2.4,1.54,1.67c.34.37.71.71,1,1.09s.86.69,1,1.25c0,.05.08.09.12.13.36.28.73.54,1.08.83q.91.75,1.81,1.52c.82.7,1.62,1.42,2.44,2.11.52.44,1.05.86,1.59,1.28.24.19.5.34.74.52l1.81,1.3a2.3,2.3,0,0,0,.37.15c-.32-.38-.59-.67-.82-1a.69.69,0,0,1-.15-.41c0-.09.16-.17.25-.26l-.13-.14a9.18,9.18,0,0,1-1.31-1.51.61.61,0,0,1-.15-.55A1.26,1.26,0,0,1,99.77,73.22Z" transform="translate(-10.6 -2.8)"/><path class="cls-1" d="M103.33,76.31c.08.08.1.23.29.2C103.56,76.36,103.49,76.27,103.33,76.31Z" transform="translate(-10.6 -2.8)"/><path class="cls-1" d="M107,74.28c-.35-.57-.71-1.13-1.07-1.69l-.23-.34c-.11-.16-.19-.32,0-.49s.3-.11.46,0l.32.13c-.05-.2-.08-.32-.13-.44s-.14-.3-.21-.45l-1.5-3c0-.07-.09-.12-.13-.19-.36-.6-.73-1.19-1.08-1.79-.52-.89-1-1.79-1.54-2.68l-1.23-2.12-.08-.16c-.25-.43-.49-.87-.76-1.29q-.78-1.17-1.6-2.31c-.51-.71-1.06-1.4-1.59-2.1a7.59,7.59,0,0,1-.57-.82c-.12-.22,0-.38.26-.4a.63.63,0,0,1,.55.27c.37.46.76.9,1.12,1.37.65.86,1.32,1.7,1.91,2.6.75,1.15,1.42,2.35,2.12,3.54.21.35.39.71.59,1.06s.37.55.53.83c.55.94,1.07,1.9,1.62,2.84.36.61.75,1.2,1.12,1.81a6.71,6.71,0,0,1,.35.74c.09.2.18.41.25.62s.14.48.43.57a5.68,5.68,0,0,0-.48-1.3A23.21,23.21,0,0,1,105,66.2c-.24-.58-.57-1.13-.86-1.69s-.49-.91-.72-1.37-.5-1-.76-1.55-.55-1.08-.86-1.6-.68-1.07-1-1.6a19.1,19.1,0,0,0-2-2.56c-.19-.2-.17-.3.08-.44l.18-.09a4.83,4.83,0,0,0-.3-.53c-.95-1.26-1.89-2.52-2.85-3.76-.53-.68-1.09-1.34-1.66-2-1-1.13-2-2.24-3-3.36a1.83,1.83,0,0,0-.3-.28c-.62-.44-1.07-1.06-1.71-1.48a10.63,10.63,0,0,1-1.28-1.15c-.71-.66-1.44-1.3-2.13-2a24.29,24.29,0,0,0-2-2c-.22-.18-.46-.36-.43-.7,0-.07-.08-.16-.14-.23L82,36.71a.73.73,0,0,0-.63-.29.28.28,0,0,1-.19-.09L80,35.18c-.18-.18-.34-.39-.53-.56-1-.88-2-1.78-3-2.63s-1.81-1.41-2.72-2.11a.8.8,0,0,0-.35-.2c-.53-.06-.87-.47-1.31-.69s-.79-.49-1.19-.73a4.34,4.34,0,0,0-.48-.22l-.06.08a.78.78,0,0,0,.1.13c.44.37.88.75,1.33,1.1.9.69,1.81,1.37,2.71,2.06.33.26.63.56,1,.82s.7.51,1,.77a7,7,0,0,1,.6.48c.31.29.59.61.9.89s.88.74,1.32,1.1L81.5,37.3a.45.45,0,0,1,.18.52.4.4,0,0,1-.43.32,2.22,2.22,0,0,0-.34,0,5.38,5.38,0,0,0-1.34-1.46c-.34-.3-.71-.57-1-.88-1.12-1.06-2.25-2.12-3.47-3.07-.11-.09-.22-.2-.42-.15a4.23,4.23,0,0,0,.79.84c.86.83,1.71,1.68,2.55,2.52a1.43,1.43,0,0,1,.27.36.44.44,0,0,1-.12.54.4.4,0,0,1-.51,0,2.22,2.22,0,0,1-.43-.4c-.23-.26-.42-.56-.66-.81-1.45-1.48-2.94-2.93-4.51-4.3-.3-.26-.62-.49-.92-.73l-.06.07.54.54c.11.11.22.21.32.32L73.08,33l1.28,1.42c.42.47.81,1,1.25,1.42.84.87,1.73,1.69,2.56,2.57.65.69,1.23,1.45,1.86,2.17.34.39.69.76,1,1.14.16.18.34.35.49.54.55.7,1.08,1.42,1.63,2.12.43.55.89,1.07,1.33,1.61.13.16.23.35.36.51s.45.49.65.75.42.63.65.93c.52.68,1.06,1.36,1.59,2a2.77,2.77,0,0,1,.32.5,11,11,0,0,0,1.26,1.83c.34.46.74.88,1.08,1.34s.76,1.12,1.15,1.67c.16.23.34.46.52.71l.16-.12c.38-.29.44-.3.77,0a19.85,19.85,0,0,1,2.06,2.47.89.89,0,0,1,.11.2A8.75,8.75,0,0,0,96,60.26c.26.4.23.45-.17.7,0,0,0,.07,0,.09a27.33,27.33,0,0,0,1.88,2.61,6.53,6.53,0,0,1,.47.66c.2.31.33.34.6.1s.39-.25.68-.06a1.8,1.8,0,0,1,.41.35c.22.27.42.56.63.83.67.88,1.36,1.74,2,2.63s1.06,1.79,1.68,2.64c.74,1,1.32,2.14,2,3.2a8.4,8.4,0,0,0,.69.9.24.24,0,0,0,.23.06.26.26,0,0,0,.08-.23A1.6,1.6,0,0,0,107,74.28Z" transform="translate(-10.6 -2.8)"/><path class="cls-1" d="M111.22,66.93c0-.86-.24-1.71-.35-2.57a8.87,8.87,0,0,0-.79-2.69.66.66,0,0,1-.11-.3.63.63,0,0,1,.14-.4c.07-.06.25,0,.37,0a1.73,1.73,0,0,1,.35.22c0-.11.07-.16.07-.22,0-.39-.07-.79-.14-1.17a24.51,24.51,0,0,0-1.09-3.94c-.32-.93-.68-1.84-.93-2.79a10.35,10.35,0,0,0-1.14-2.67c-.37-.61-.75-1.21-1.14-1.8s-.89-1.37-1.37-2c-.61-.83-1.28-1.62-1.89-2.44s-1-1.41-1.49-2.11c0-.06-.11-.11-.16-.17l-1.09-1.27c-.15-.17-.31-.33-.47-.5s-.35-.33-.52-.51-.23-.33-.06-.54l.62-.09c-.26-.25-.45-.44-.66-.62a10.36,10.36,0,0,1-1.33-1.17,10.7,10.7,0,0,0-1.48-1.26,1.12,1.12,0,0,0-.29-.13,5,5,0,0,0,.32.74.46.46,0,0,1,0,.37.31.31,0,0,1-.45,0,1.76,1.76,0,0,1-.27-.24l-.59-.63-1.2-1.25a2.65,2.65,0,0,0-.35-.28c-.26-.19-.53-.35-.78-.55s-.25-.27-.12-.59l.07-.15a1.22,1.22,0,0,0-.66-.48,1.68,1.68,0,0,1-.36-.18c-.36-.28-.68-.6-1.06-.85a14.24,14.24,0,0,0-1.55-.94,16.16,16.16,0,0,0-2.05-1.06.49.49,0,0,1-.12-.07,25,25,0,0,0-3.57-2.08c-.3-.15-.57-.34-.88-.48-.76-.33-1.52-.65-2.3-1-1.15-.45-2.3-.92-3.48-1.32-1-.33-2-.58-3-.87,0,0-.1,0-.14,0v.09c.15.05.29.12.44.16s.57.11.84.2c.93.31,1.87.6,2.78,1s2.1.86,3.13,1.34c.83.39,1.62.87,2.44,1.29.46.24.92.45,1.39.66a.55.55,0,0,1,.38.51c0,.18-.22.45-.4.45a1.53,1.53,0,0,1-.66-.11,11,11,0,0,1-1.1-.64,21.41,21.41,0,0,0-3.79-1.95c-.68-.26-1.33-.58-2-.83s-1.61-.52-2.42-.78c-.27-.08-.54-.14-.81-.22l0,.09a1.78,1.78,0,0,0,.27.19c.39.17.78.32,1.16.51.85.42,1.7.86,2.54,1.31.21.11.39.28.6.41s.63.35.94.53.76.5,1.14.74.74.42,1.08.65a2.2,2.2,0,0,1,.48.47.32.32,0,0,1-.09.48.48.48,0,0,1-.55.07,6.06,6.06,0,0,1-.68-.44c-.51-.38-1-.79-1.51-1.15a6.8,6.8,0,0,0-1-.55c-.75-.36-1.41-.88-2.17-1.22-1-.42-1.86-.93-2.81-1.38a4.8,4.8,0,0,0-1.56-.5c0,.08.09.1.15.14l1.62.91c.36.2.69.44,1.06.61a13.21,13.21,0,0,1,2.62,1.7c.89.69,1.83,1.28,2.74,1.93a1.15,1.15,0,0,1,.33.47c.07.15,0,.29-.17.37a.72.72,0,0,1-.84-.14c-.16-.13-.32-.27-.5-.4-.49-.35-1-.69-1.47-1.05a30.89,30.89,0,0,0-3.84-2.58l-1-.53c-.33-.18-.67-.35-1-.54-.11-.07-.2-.13-.36,0l1.61,1.06c1.28.84,2.58,1.65,3.82,2.53a23.11,23.11,0,0,1,2,1.62c.8.72,1.68,1.33,2.51,2s1.76,1.48,2.65,2.22,1.78,1.42,2.62,2.18,1.86,1.78,2.78,2.68c.34.34.64.72,1,1.06.55.53,1.16,1,1.69,1.57s1.29,1.44,1.93,2.17c.39.44.78.89,1.18,1.32.56.59,1.14,1.16,1.69,1.77s1,1.12,1.42,1.7.78,1,1.16,1.51l1.4,1.85a5.2,5.2,0,0,1,.52.69,8.57,8.57,0,0,0,1.22,1.63,3.38,3.38,0,0,1,.29.34c.5.76,1,1.51,1.48,2.28s1,1.65,1.44,2.47c.21.35.44.69.62,1.06.38.78.77,1.55,1.07,2.36.41,1.07.92,2.1,1.24,3.21a17,17,0,0,0,.78,1.89,1.15,1.15,0,0,0,.17.23,8.84,8.84,0,0,0-.24-1.57c-.13-.51-.31-1-.44-1.53-.29-1.13-.56-2.26-.84-3.4a19.59,19.59,0,0,0-1.39-3.79c-.16-.33-.3-.66-.46-1s-.29-.59-.45-.88-.3-.49-.45-.74a.38.38,0,0,1,0-.5.48.48,0,0,1,.55,0,2,2,0,0,1,.41.47,15.56,15.56,0,0,1,1.11,2.12c.28.75.61,1.48.89,2.23.17.46.28,1,.43,1.43.09.3.2.6.29.91s.16.58.23.88.16.77.25,1.15c0,.19.12.37.19.55l.12,0c-.06-.34-.12-.67-.17-1a4.68,4.68,0,0,1-.06-.59.29.29,0,0,1,.31-.33.33.33,0,0,1,.38.26,1.87,1.87,0,0,0,.1.35,15.48,15.48,0,0,1,.65,2.65c.11.44.15.89.22,1.34a1.08,1.08,0,0,0,.08.2c.05,0,.09-.06.09-.08C111.33,68.16,111.26,67.55,111.22,66.93Z" transform="translate(-10.6 -2.8)"/><path class="cls-1" d="M108.76,56.89c0-.07-.09-.12-.13-.19a8.52,8.52,0,0,1-.4-.76c-.15-.36-.27-.74-.41-1.1-.08-.21-.18-.41-.26-.62s-.23-.72-.38-1.07c-.33-.8-.8-1.52-1.17-2.3-.67-1.42-1.48-2.77-2.24-4.15a11.94,11.94,0,0,0-1.49-2,1.27,1.27,0,0,0-.45-.27,1.32,1.32,0,0,0-.31-.07c-.22-.31-.38-.56-.57-.79q-.86-1.08-1.74-2.15c-.18-.22-.38-.43-.57-.64s-.61-.67-.94-1a.82.82,0,0,0-.45-.18.34.34,0,0,0-.36.53,2.58,2.58,0,0,0,.44.57c.45.46,1,.88,1.38,1.38.61.73,1.17,1.51,1.74,2.27.32.43.36.45.85.33l.64.81c.23.3.48.59.68.9q.68,1.07,1.32,2.17a19.77,19.77,0,0,1,1.11,2c.37.85.83,1.65,1.23,2.48S107,55,107.4,56c.16.44.28.9.44,1.34a.66.66,0,0,0,.75.36C108.79,57.58,108.88,57.16,108.76,56.89Z" transform="translate(-10.6 -2.8)"/><path class="cls-1" d="M95.55,38.28a2.91,2.91,0,0,0-.35-.68c-.34-.48-.7-1-1.07-1.41a12.37,12.37,0,0,0-1-1.09c-.67-.66-1.36-1.29-2.05-1.93-.49-.45-1-.9-1.51-1.31-.7-.55-1.44-1.05-2.16-1.58-.33-.24-.42-.24-.66.06a2,2,0,0,0-.16.3,2.67,2.67,0,0,0,1,.85A20.92,20.92,0,0,1,91,34.1c.45.39.84.83,1.28,1.23a14.6,14.6,0,0,1,2.09,2.73,1.83,1.83,0,0,0,.77.65c.13.06.29.09.37-.05A.5.5,0,0,0,95.55,38.28Z" transform="translate(-10.6 -2.8)"/><path class="cls-1" d="M98.24,48.44c-.36-.52-.75-1-1.13-1.53l-.29-.4c-.44-.66-.87-1.34-1.33-2-.7-1-1.48-1.87-2.21-2.81A17.85,17.85,0,0,0,91.67,40a1.94,1.94,0,0,0-.52-.3c-.44,0-.63.27-.47.56a1.66,1.66,0,0,0,.37.38,4.43,4.43,0,0,1,.36.27q.84.92,1.66,1.86c.25.28.49.58.73.87a13.49,13.49,0,0,1,1.26,1.59c.53.9,1.15,1.74,1.73,2.6a2.65,2.65,0,0,1,.44.83,1.13,1.13,0,0,0,.54.57c.3.17.58,0,.58-.38A.78.78,0,0,0,98.24,48.44Z" transform="translate(-10.6 -2.8)"/><path class="cls-1" d="M101.48,49.22c-.38-.67-.74-1.35-1.16-2-.7-1.09-1.42-2.17-2.14-3.24a10.8,10.8,0,0,0-.79-1,3.81,3.81,0,0,0-.7-.63.5.5,0,0,0-.66.06c-.12.17-.06.36.16.6l.13.13c.29.31.59.61.85.94s.56.75.82,1.14c.46.67.95,1.33,1.36,2s.8,1.52,1.2,2.28a2,2,0,0,0,.35.47.34.34,0,0,0,.6-.2c0-.07,0-.15,0-.3A.77.77,0,0,0,101.48,49.22Z" transform="translate(-10.6 -2.8)"/><path class="cls-1" d="M93,39.36a15.79,15.79,0,0,0-1.75-2c-.88-.77-1.73-1.56-2.58-2.37a.77.77,0,0,0-.85-.19.5.5,0,0,0,.08.54,3.68,3.68,0,0,0,.61.6,12.46,12.46,0,0,1,1.82,1.56,11.94,11.94,0,0,1,1.86,2.23.7.7,0,0,0,.85.38A.76.76,0,0,0,93,39.36Z" transform="translate(-10.6 -2.8)"/><path class="cls-1" d="M86.5,35.78c-.46-.44-.93-.87-1.4-1.28a2.3,2.3,0,0,0-.66-.46,1.1,1.1,0,0,1-.48-.31,5.63,5.63,0,0,0-1.42-1,.48.48,0,0,0-.17-.06.57.57,0,0,0-.55.31c-.06.23.11.3.27.41A26.21,26.21,0,0,1,84.44,35,11.77,11.77,0,0,1,86,36.53a2,2,0,0,0,.48.32C86.91,36.3,86.91,36.17,86.5,35.78Z" transform="translate(-10.6 -2.8)"/><path class="cls-1" d="M88.11,33.77a2.24,2.24,0,0,0-.46-.36c-.15-.1-.32-.16-.47-.26-.64-.43-1.27-.87-1.92-1.29a8,8,0,0,0-1-.54.46.46,0,0,0-.58.19c-.09.21,0,.36.21.53s.59.37.89.55a11.73,11.73,0,0,1,2.48,1.73,2.66,2.66,0,0,0,.49.31,2.4,2.4,0,0,0,.37-.31A.41.41,0,0,0,88.11,33.77Z" transform="translate(-10.6 -2.8)"/><path class="cls-1" d="M104.23,54.35c-.4-.62-.77-1.25-1.16-1.87a1.08,1.08,0,0,0-.27-.3,1.54,1.54,0,0,0-.47-.25c-.25-.07-.39.05-.37.31a1.21,1.21,0,0,0,.2.53c.5.74,1,1.46,1.53,2.19a2.18,2.18,0,0,0,.34.36.45.45,0,0,0,.52.08,2,2,0,0,0,0-.2C104.63,54.85,104.4,54.61,104.23,54.35Z" transform="translate(-10.6 -2.8)"/><path class="cls-1" d="M109.61,59a.47.47,0,0,0-.41,0,.37.37,0,0,0-.12.34,8.72,8.72,0,0,0,.58,1.17c.13.21.39.15.5-.08a2.08,2.08,0,0,0,.09-.34A2,2,0,0,0,109.61,59Z" transform="translate(-10.6 -2.8)"/><path class="cls-1" d="M33.58,59.6a.41.41,0,0,0-.37,0,1.75,1.75,0,0,0-.45.43c-.32.42-.61.86-.92,1.29l-.62.83c-.29.39-.55.79-.85,1.17s-.68.91-1.07,1.34c-.62.66-1.17,1.39-1.76,2.08-.43.51-.89,1-1.32,1.5a2.8,2.8,0,0,0-.27.51c.12.12.19.25.31.31a.4.4,0,0,0,.52-.15c.18-.26.36-.53.56-.77s.68-.73,1-1.11c.62-.76,1.22-1.53,1.83-2.3.41-.52.84-1,1.24-1.56s1-1.3,1.46-2a5.34,5.34,0,0,0,.33-.43,7.08,7.08,0,0,0,.44-.84A.34.34,0,0,0,33.58,59.6Z" transform="translate(-10.6 -2.8)"/><path class="cls-1" d="M43.12,53a.37.37,0,0,0-.56,0c-.4.43-.79.87-1.18,1.32s-.77.93-1.15,1.39c-.21.25-.42.51-.65.75-.64.7-1.31,1.38-1.94,2.09-.43.48-.65.72.24,1.11,0,0,.08.05.12.07a.3.3,0,0,0,.42-.27c0-.12,0-.24,0-.36a1,1,0,0,1,.13-.41,5.44,5.44,0,0,1,.5-.58c.72-.77,1.46-1.53,2.17-2.32a14.47,14.47,0,0,0,1.89-2.38l.14-.24A1,1,0,0,0,43.12,53Z" transform="translate(-10.6 -2.8)"/><path class="cls-1" d="M45.69,51.68a.42.42,0,0,0-.33,0,.53.53,0,0,0-.33.63.43.43,0,0,1,0,.26,5.49,5.49,0,0,1-.44.74c-.45.59-.92,1.16-1.37,1.75-.26.34-.48.69-.74,1a2.21,2.21,0,0,1-.42.47,4.62,4.62,0,0,0-1.2,1.63.47.47,0,0,0,.14.64c.16.09.36,0,.52-.24s.24-.45.39-.66c.6-.8,1.21-1.58,1.81-2.37a19.79,19.79,0,0,0,1.73-2.45A2.62,2.62,0,0,0,45.91,52C45.84,51.88,45.79,51.74,45.69,51.68Z" transform="translate(-10.6 -2.8)"/><path class="cls-1" d="M44.56,47.4a.33.33,0,0,0-.46,0,5.19,5.19,0,0,0-.55.47,18.58,18.58,0,0,0-1.81,2.42,2.25,2.25,0,0,0-.31.44,5.86,5.86,0,0,1-1.09,1.62c-.38.47-.55,1.08-1.07,1.45,0,.27-.3.38-.36.59a1.35,1.35,0,0,1-.46.6,1.18,1.18,0,0,0-.4,1,2.73,2.73,0,0,0,.32-.27c.24-.29.46-.59.69-.89l1.76-2.3c.18-.24.39-.47.57-.71.46-.62.9-1.24,1.37-1.85A8.16,8.16,0,0,0,44,48.47a3.35,3.35,0,0,1,.52-.68C44.6,47.67,44.71,47.54,44.56,47.4Z" transform="translate(-10.6 -2.8)"/><path class="cls-1" d="M45.09,43a.39.39,0,0,0-.36,0,1.91,1.91,0,0,0-.49.46c-.21.29-.38.61-.59.91-.41.58-.81,1.17-1.24,1.73s-.86,1.05-1.28,1.59c-.08.11-.17.31-.12.4s.27.21.44.33a1.94,1.94,0,0,0,.3-.22c.18-.2.35-.41.52-.63a8.33,8.33,0,0,0,.87-1.08,13.05,13.05,0,0,1,1-1.43c.3-.42.62-.81.92-1.23a1.08,1.08,0,0,0,.2-.45A.44.44,0,0,0,45.09,43Z" transform="translate(-10.6 -2.8)"/><path class="cls-1" d="M38.27,52.28c-.21-.09-.36,0-.46.19s-.26.41-.38.62c-.35.58-.68,1.18-1.06,1.74s-.78,1-1.15,1.57A3,3,0,0,0,35,57a1.45,1.45,0,0,0,0,.38c0,.1.12.24.2.25s.2-.09.26-.18.2-.37.33-.54c.36-.48.72-1,1.11-1.43a14,14,0,0,0,1.53-2.2,1.92,1.92,0,0,0,.17-.32A.67.67,0,0,0,38.27,52.28Z" transform="translate(-10.6 -2.8)"/><path class="cls-1" d="M47.71,46.83c-.16-.08-.32,0-.42.18l-.12.2a7.24,7.24,0,0,1-1,1.5c-.1.11-.16.26-.26.37a.55.55,0,0,0,0,.67c0,.08.14.2.21.2a.43.43,0,0,0,.27-.18c.15-.22.26-.48.42-.69s.51-.62.78-.92a2,2,0,0,0,.39-1C47.88,47,47.82,46.88,47.71,46.83Z" transform="translate(-10.6 -2.8)"/><path class="cls-1" d="M38.93,40.72a.35.35,0,0,0-.37-.26,1.11,1.11,0,0,0-.7.28l-1.12,1a13.78,13.78,0,0,0-1.62,1.56c-.39.48-.73,1-1.13,1.46-.64.75-1.31,1.46-2,2.2-.21.24-.39.5-.6.74s-.5.56-.76.82-.63.57-.93.86a1.45,1.45,0,0,0-.19.38c.09.16.14.37.26.45a.65.65,0,0,0,.89-.4,1.17,1.17,0,0,1,.3-.59l2.74-3.15c.53-.62,1.07-1.23,1.59-1.86a18.77,18.77,0,0,1,2.38-2.29c.34-.3.7-.57,1.06-.85C38.89,41,39,40.88,38.93,40.72Z" transform="translate(-10.6 -2.8)"/><path class="cls-1" d="M35.63,46.29c-.33.43-.64.87-1,1.31-.05.07-.1.15-.16.22a23.59,23.59,0,0,0-1.93,2.57c-.27.45-.61.86-.9,1.29a6.43,6.43,0,0,0-.47.82.56.56,0,0,0,.07.6c.29,0,.36-.19.47-.36.35-.56.7-1.12,1.07-1.68s.58-.81.87-1.22l.54-.72.77-1a3.71,3.71,0,0,1,.62-.77,3.25,3.25,0,0,0,.81-1.08C36.07,46,35.87,46,35.63,46.29Z" transform="translate(-10.6 -2.8)"/><path class="cls-1" d="M28.93,51.54a2.21,2.21,0,0,0-.42.07.44.44,0,0,0-.18.19c-.16.27-.32.55-.47.82a11.12,11.12,0,0,0-.6,1.1A1.88,1.88,0,0,0,27,54.93c.29,0,.36-.22.45-.39a12.13,12.13,0,0,1,1.1-1.87,3.41,3.41,0,0,0,.42-.75A1,1,0,0,0,28.93,51.54Z" transform="translate(-10.6 -2.8)"/><path class="cls-1" d="M78.24,48.91c-.31-.55-.61-1.11-.93-1.65s-.75-1.2-1.12-1.81-.87-1.41-1.33-2.1a.42.42,0,0,0-.7.08.66.66,0,0,0,.14.7,6.14,6.14,0,0,1,.89,1.49c-.18-.22-.38-.43-.55-.67-.38-.55-.74-1.11-1.1-1.66-.16-.24-.3-.49-.61-.58a.4.4,0,0,0-.41.12.28.28,0,0,0-.06.37,4,4,0,0,0,.31.61c.62.89,1.27,1.77,1.89,2.67A16.58,16.58,0,0,1,76,48.56c.34.69.74,1.35,1.12,2a.46.46,0,0,0,.61.23.44.44,0,0,0,.14-.69c-.19-.31-.39-.61-.58-.92-.31-.52-.61-1-.91-1.57-.07-.12-.13-.25-.19-.38a.29.29,0,0,1,.22.1c.17.23.31.48.48.71q.47.64.95,1.27c.12.15.24.32.47.24A.65.65,0,0,0,78.24,48.91Zm-2.44-2.22-.24-.45.12-.06.23.46Z" transform="translate(-10.6 -2.8)"/><path class="cls-1" d="M95.54,66.85c-.15-.17-.32-.32-.48-.48l-1-1c-.51-.51-1-1-1.53-1.54s-1.33-1.28-2-1.91a6.81,6.81,0,0,0-.67-.54,4.26,4.26,0,0,1-1.05-1.11c-.35-.52-.7-1-1.08-1.54s-.66-.74-1-1.11a1,1,0,0,1-.12-.19,15.52,15.52,0,0,0-1.73-2.21.74.74,0,0,0-.38-.24.48.48,0,0,0-.36.09.27.27,0,0,0,0,.41c.18.24.36.49.55.72s.54.61.8.93c.54.67,1.06,1.36,1.59,2,.41.51.82,1,1.24,1.51a9.88,9.88,0,0,0,1,1.16,10.64,10.64,0,0,1,1,.93c.45.51,1,1,1.43,1.45.94,1,1.88,1.94,2.84,2.88a1.87,1.87,0,0,0,.71.36c.18.06.36-.11.37-.34A1,1,0,0,0,95.54,66.85Z" transform="translate(-10.6 -2.8)"/><path class="cls-1" d="M93.26,62.74l-.65-.87-2-2.55c-.11-.14-.19-.31-.3-.45-.48-.6-1-1.19-1.45-1.79s-1.14-1.53-1.72-2.28c-.24-.31-.5-.6-.75-.9-.06-.07-.1-.15-.16-.22-.27-.32-.54-.64-.83-1a1,1,0,0,0-.23-.14l-.17.1a.41.41,0,0,0-.06.64c.14.18.3.34.44.52l1.76,2.25c.69.88,1.39,1.76,2.07,2.64.44.58.85,1.18,1.29,1.76.58.78,1.17,1.54,1.76,2.31a3.92,3.92,0,0,0,.38.45c.2.2.33.19.52,0A.34.34,0,0,0,93.26,62.74Z" transform="translate(-10.6 -2.8)"/><path class="cls-1" d="M88.06,62.29a3.43,3.43,0,0,0-.7-.83.62.62,0,0,1-.17-.21,6,6,0,0,0-1-1.42l-.46-.56c-.65-.82-1.3-1.63-1.94-2.46-.29-.38-.56-.78-.85-1.16s-.62-.85-.95-1.27-.55-.63-.81-1-.37-.3-.6,0-.21.32,0,.55.39.38.56.6c.37.48.7,1,1.07,1.46q1.55,2,3.12,4l1.63,2.06c.31.39.59.8.92,1.18s.61.38.92-.14A6.38,6.38,0,0,1,88.06,62.29Z" transform="translate(-10.6 -2.8)"/><path class="cls-1" d="M82.66,51.65l-.05-.07c-.15-.22-.31-.45-.46-.68-.42-.66-.85-1.32-1.26-2a18.51,18.51,0,0,0-1.28-2c-.62-.77-1.17-1.61-1.72-2.44A6.42,6.42,0,0,0,76.58,43a3.87,3.87,0,0,0-.34-.22c-.09.1-.23.17-.23.25a1,1,0,0,0,.11.55c.45.62.94,1.22,1.41,1.82s.88,1.07,1.27,1.64.89,1.43,1.34,2.13.75,1.1,1.12,1.65c.17.25.32.51.49.76a3.69,3.69,0,0,0,.36.47.43.43,0,0,0,.53.12A.44.44,0,0,0,82.66,51.65Z" transform="translate(-10.6 -2.8)"/><path class="cls-1" d="M98.12,71.81c-.59-.54-1.18-1.08-1.77-1.62-.86-.76-1.73-1.52-2.59-2.27S92,66.39,91.1,65.64a6.67,6.67,0,0,0-.73-.53.35.35,0,0,0-.48.11.34.34,0,0,0,.07.49c.26.21.52.42.78.62s.61.45.9.69c.68.58,1.33,1.18,2,1.77s1.09.9,1.63,1.37c.71.62,1.39,1.26,2.1,1.87a.89.89,0,0,0,.94.25C98.4,72.05,98.25,71.93,98.12,71.81Z" transform="translate(-10.6 -2.8)"/><path class="cls-1" d="M75.49,60.95l-1-1.36-.2-.3L73.55,58c-.16-.27-.32-.54-.49-.81a7.37,7.37,0,0,1-.55-.79,16.72,16.72,0,0,0-1.09-1.82,9.56,9.56,0,0,1-.67-.91c-.25-.52-.61-1-.89-1.45a3.16,3.16,0,0,1-.31-.49,11.3,11.3,0,0,0-1.2-2.15,14,14,0,0,1-.8-1.6,3.08,3.08,0,0,0-.6-1,.93.93,0,0,1-.16-.35c0-.1,0-.2-.08-.3-.22-.48-.45-1-.68-1.43-.15-.3-.32-.58-.5-.86a.89.89,0,0,0-.22-.19c-.24,0-.37.09-.36.28a2,2,0,0,0,.12.56c.18.46.39.91.59,1.36s.41.94.66,1.39c.5.91,1,1.81,1.56,2.71s.88,1.58,1.35,2.35c.59,1,1.22,1.91,1.84,2.85A8.05,8.05,0,0,0,72.16,57a.45.45,0,0,1,.07.12c.22.38.42.77.65,1.14s.62,1,.92,1.51.52.92.79,1.38a1.53,1.53,0,0,0,.32.37.58.58,0,0,0,.62-.12C75.68,61.2,75.57,61.07,75.49,60.95Z" transform="translate(-10.6 -2.8)"/><path class="cls-1" d="M82.52,66.55l-1.64-1.36c-.37-.31-.78-.58-1.13-.92-.59-.57-1.14-1.17-1.7-1.77a.68.68,0,0,0-.65-.25.26.26,0,0,0-.24.34.44.44,0,0,0,.26.46,1.07,1.07,0,0,1,.26.24c.43.45.85.9,1.29,1.34a2,2,0,0,0,.44.32,13.25,13.25,0,0,1,2.22,1.72,3.91,3.91,0,0,0,.71.47c.17.09.29,0,.34-.17A.39.39,0,0,0,82.52,66.55Z" transform="translate(-10.6 -2.8)"/><path class="cls-1" d="M68.4,53.92a4.48,4.48,0,0,0-.23-.78c-.22-.48-.46-.94-.7-1.41a4,4,0,0,0-.3-.55.36.36,0,0,0-.48-.14.44.44,0,0,0-.29.5,1.05,1.05,0,0,0,.07.26,13.56,13.56,0,0,0,1,1.89c.18.28.31.6.7.66C68.32,54.26,68.46,54.13,68.4,53.92Z" transform="translate(-10.6 -2.8)"/><path class="cls-1" d="M30.54,35.9a.48.48,0,0,0-.5-.24c-.2,0-.36.1-.37.33a1.19,1.19,0,0,1-.46.8c-.38.39-.75.79-1.1,1.21s-.74,1-1.11,1.47a3,3,0,0,0-.34.42,15.55,15.55,0,0,1-1.24,1.78c-.23.34-.47.67-.71,1s-.58.74-.83,1.13-.6,1.08-.91,1.62a.92.92,0,0,1-.17.21A4.82,4.82,0,0,0,22,47.18a1.42,1.42,0,0,0-.05.25c.06.09.11.29.23.33a.62.62,0,0,0,.44-.13.92.92,0,0,0,.24-.33c.06-.1.09-.22.15-.33.43-.78.86-1.56,1.31-2.33.33-.56.68-1.1,1.05-1.63.75-1.06,1.53-2.1,2.28-3.17a12.92,12.92,0,0,1,1.8-2.22c.42-.38.65-.9,1.11-1.25A.35.35,0,0,0,30.54,35.9Z" transform="translate(-10.6 -2.8)"/><path class="cls-1" d="M24.24,47.71a.49.49,0,0,0-.32.06.55.55,0,0,0-.18.2c-.12.18-.23.36-.33.54-.29.49-.56,1-.88,1.47a10.74,10.74,0,0,0-1,2c-.1.25-.14.53-.26.77-.26.52-.57,1-.84,1.55a1.77,1.77,0,0,0-.12.53c0,.18.1.28.24.34s.26,0,.34-.14a2.91,2.91,0,0,0,.23-.39c.36-.78.73-1.55,1.08-2.34.58-1.3,1.25-2.54,1.95-3.78.06-.11.12-.21.17-.32a2.32,2.32,0,0,0,.08-.29C24.33,47.88,24.31,47.73,24.24,47.71Z" transform="translate(-10.6 -2.8)"/><path class="cls-1" d="M31.47,32.3a2.75,2.75,0,0,0-1.15.61c-.36.38-.74.75-1.07,1.15a3.4,3.4,0,0,0-.43.74.43.43,0,0,0,.2.51.35.35,0,0,0,.48-.11,2.27,2.27,0,0,0,.17-.21,6.45,6.45,0,0,1,1.93-2.07.73.73,0,0,0,.35-.6A1.35,1.35,0,0,0,31.47,32.3Z" transform="translate(-10.6 -2.8)"/><path class="cls-1" d="M32.43,35.31a.29.29,0,0,0-.24.05,6,6,0,0,0-.53.46c-.48.48-1,.93-1.43,1.44a6.34,6.34,0,0,0-.6,1c.11.17.18.36.31.43s.37,0,.5-.19l.05-.07A13.72,13.72,0,0,1,32.4,36a.93.93,0,0,0,.17-.45A.26.26,0,0,0,32.43,35.31Z" transform="translate(-10.6 -2.8)"/><path class="cls-1" d="M93.08,51c0-.09-.12-.17-.18-.25a2.64,2.64,0,0,1-.42-.58,3.53,3.53,0,0,0-.65-1c-.41-.48-.79-1-1.19-1.48l-.72-.87c-.34-.43-.65-.88-1-1.28-.75-.85-1.52-1.68-2.28-2.52-.34-.38-.7-.75-1-1.14-.69-.82-1.36-1.66-2-2.49a1.26,1.26,0,0,0-.31-.33.56.56,0,0,0-.39,0c-.07,0-.1.16-.16.26a3.51,3.51,0,0,0,.21.42c.2.29.4.56.61.84s.38.54.6.79c.36.41.75.79,1.11,1.19s.48.58.73.86l1.7,1.89c.26.29.53.58.78.88q.77,1,1.52,1.92c.37.48.72,1,1.08,1.46a14.43,14.43,0,0,0,1.25,1.77.86.86,0,0,0,.36.24.41.41,0,0,0,.35-.1A.63.63,0,0,0,93.08,51Z" transform="translate(-10.6 -2.8)"/><path class="cls-1" d="M104.81,69.15a1,1,0,0,0-.16-.27A14.67,14.67,0,0,1,103.46,67a2.75,2.75,0,0,0-.18-.31L102.11,65c-.82-1.15-1.61-2.31-2.45-3.44-.6-.8-1.26-1.55-1.9-2.32a3.91,3.91,0,0,0-.47-.43.34.34,0,0,0-.46,0,.41.41,0,0,0-.19.51,1.28,1.28,0,0,0,.31.49A8,8,0,0,1,98.1,61l.41.48c.31.38.63.77.92,1.16s.7,1,1.1,1.5a23.67,23.67,0,0,1,1.87,2.68c.5.78.93,1.6,1.4,2.39a.74.74,0,0,0,.64.44A.36.36,0,0,0,104.81,69.15Z" transform="translate(-10.6 -2.8)"/><path class="cls-1" d="M88.14,47.88c-.13-.18-.26-.37-.4-.55L86,45.19l-.76-.9-1-1.15c-.37-.44-.72-.9-1.11-1.32a6.19,6.19,0,0,1-1-1.19,1.59,1.59,0,0,0-.23-.34c-.56-.58-1.11-1.16-1.68-1.72-.26-.26-.52-.36-.85-.06a.72.72,0,0,0,.3.69c.33.32.68.61,1,.94s.6.76.91,1.12c.58.66,1.17,1.31,1.75,2,.27.31.54.61.8.93s.66.83,1,1.25c.62.82,1.25,1.63,1.85,2.47a1.7,1.7,0,0,0,.68.51.3.3,0,0,0,.41-.06A.34.34,0,0,0,88.14,47.88Z" transform="translate(-10.6 -2.8)"/><path class="cls-1" d="M50.88,57.34l-.15.23c-.23.35-.44.72-.7,1s-.74.87-1.14,1.29a5.84,5.84,0,0,0-1.16,1.32c-.12.23-.11.4,0,.49a.43.43,0,0,0,.55-.13,1.15,1.15,0,0,1,.28-.28A6,6,0,0,0,50,60a5.63,5.63,0,0,0,1.29-1.89C51.46,57.7,51.44,57.62,50.88,57.34Z" transform="translate(-10.6 -2.8)"/><path class="cls-1" d="M46.36,58.76l-.82,1.31a3.15,3.15,0,0,1-.42.57A5.3,5.3,0,0,0,44,62a3.41,3.41,0,0,1-.46.72,1.09,1.09,0,0,0-.26,1c.22.09.29,0,.38-.17.24-.34.49-.69.75-1,.48-.6,1.05-1.11,1.58-1.66a2.94,2.94,0,0,0,.92-1.58C47,58.85,46.84,58.7,46.36,58.76Z" transform="translate(-10.6 -2.8)"/><path class="cls-1" d="M52.43,51.26a.39.39,0,0,0-.35-.32c-.19,0-.26.08-.33.23s-.22.46-.34.69-.17.35-.26.52c-.21.38-.43.76-.62,1.15a.36.36,0,0,0,0,.33.33.33,0,0,0,.32,0,2.41,2.41,0,0,0,.66-.52,6.69,6.69,0,0,0,.6-1.05c.13-.27.23-.55.31-.76S52.44,51.33,52.43,51.26Z" transform="translate(-10.6 -2.8)"/><path class="cls-1" d="M43.19,65.33a1.83,1.83,0,0,0-1,.42c-.44.37-.88.74-1.29,1.14a.58.58,0,0,0,0,.79c.17.16.45.09.69-.22a6.08,6.08,0,0,1,1.23-1.14l.32-.26C43.45,65.79,43.45,65.75,43.19,65.33Z" transform="translate(-10.6 -2.8)"/></svg>