<svg id="Layer_1" data-name="Layer 1" xmlns="http://www.w3.org/2000/svg" viewBox="0 0 103.81 79.44"><defs><style>.cls-1{fill:#201406;}</style></defs><title>boby</title><path class="cls-1" d="M114.34,69.38a11.24,11.24,0,0,1-.05-1.54c0-1.19-.05-2.39-.11-3.58,0-1-.12-2.08-.21-3.12-.06-.65-.17-1.29-.29-1.93-.16-.86-.32-1.73-.56-2.57a34.74,34.74,0,0,0-1.56-4.21c-.32-.75-.61-1.52-1-2.25-.47-1-1-2-1.48-2.91-.34-.63-.74-1.22-1.09-1.84a18.47,18.47,0,0,0-2.11-3.06c-.13-.15-.24-.31-.36-.47-.27-.34-.53-.7-.82-1-.45-.52-.92-1-1.36-1.53a17.48,17.48,0,0,0-2.22-2.21c-.39-.32-.77-.63-1.15-1s-.54-.52-.83-.77-.67-.52-1-.82a20.78,20.78,0,0,0-3.51-3.07,9,9,0,0,1-1-.85c-.41-.34-.83-.66-1.24-1s-.84-.7-1.27-1a6.25,6.25,0,0,1-.62-.36,5.83,5.83,0,0,0-1.43-1c-.27-.14-.56-.23-.83-.37-.52-.27-1-.58-1.55-.85s-1.18-.54-1.77-.81a1.3,1.3,0,0,1-.25-.12,5.33,5.33,0,0,0-1.42-.68c-.8-.29-1.61-.51-2.42-.77-.23-.07-.45-.18-.69-.24-1.19-.31-2.38-.6-3.56-.92-.73-.2-1.45-.42-2.17-.65a8.19,8.19,0,0,0-1.84-.44c-.36,0-.73-.06-1.09-.11-.85-.12-1.7-.31-2.56-.35a13.43,13.43,0,0,0-3.18.09.56.56,0,0,1-.53-.17,9.54,9.54,0,0,0-1.92-1.52c-.13-.07-.25-.17-.38-.26a1.59,1.59,0,0,1,.1-.31c.27-.46.53-.92.83-1.35s.81-1.05,1.2-1.6a6.15,6.15,0,0,1,1.2-1.41,6.55,6.55,0,0,0,.88-.78,19.68,19.68,0,0,1,3.32-2.75,5.82,5.82,0,0,1,.6-.32,7.65,7.65,0,0,0,.67-.37,6.68,6.68,0,0,0,1.56-1.58,2.48,2.48,0,0,0,.3-.6,6.7,6.7,0,0,0,.28-.86.93.93,0,0,0,0-.52,5.5,5.5,0,0,0-.5-1,10.47,10.47,0,0,0-.79-1.05,3.61,3.61,0,0,0-2.23-1.37c-1.29-.2-2.58-.38-3.88-.48a1,1,0,0,0-.89.42,2,2,0,0,0-.16.26H64.38a1,1,0,0,0-1.07.83,7.65,7.65,0,0,1-.49,1.46,10.12,10.12,0,0,0-.55,1.29,1.21,1.21,0,0,0,0,.75.56.56,0,0,1,0,.35c-.29.57-.57,1.14-.9,1.67s-.71,1-1.09,1.55c-.53.72-1.07,1.43-1.63,2.13-.39.5-.82,1-1.23,1.46-.21.25-.32.31-.61.2a6.55,6.55,0,0,1-2.47-1.66,11.59,11.59,0,0,0-1.68-1.66,6.22,6.22,0,0,1-1.21-1.22c-.22-.27-.41-.57-.64-.83-.41-.46-.85-.9-1.27-1.37A.9.9,0,0,1,49.27,8c-.07-.83-.71-1.18-1.3-1.52a8.62,8.62,0,0,0-1.69-.64,2.42,2.42,0,0,0-2.1.46A4.47,4.47,0,0,0,42.8,8,17.83,17.83,0,0,0,42,9.59a4.6,4.6,0,0,0-.22.74c-.11.44-.21.88-.32,1.32a4.84,4.84,0,0,0-.18,2.07c.07.37.15.74.23,1.11a1.16,1.16,0,0,0,.72.87,8.92,8.92,0,0,0,2.92.63,5.16,5.16,0,0,1,1.8.59c.69.34,1.34.76,2,1.14l3.1,1.72a2.75,2.75,0,0,1,.31.24l0,.11-.34,0a11,11,0,0,0-2.5.44c-.21.07-.43.15-.65.2-.86.23-1.74.42-2.59.68-1.4.43-2.79.89-4.15,1.44a12.56,12.56,0,0,1-1.33.56,17.87,17.87,0,0,0-2.12.92,6.8,6.8,0,0,0-.73.37l-2.27,1.3c-.35.2-.72.38-1.05.62-.73.52-1.44,1.06-2.14,1.6-1,.74-1.92,1.48-2.87,2.23-.71.57-1.4,1.16-2.09,1.75a6.09,6.09,0,0,1-.48.42,24.12,24.12,0,0,0-3,2.66,1.57,1.57,0,0,0-.14.18c-.36.47-.71.94-1.09,1.39a18.52,18.52,0,0,0-1.81,2,6.28,6.28,0,0,1-.47.61,18.8,18.8,0,0,0-1.76,2.42c-.41.71-.85,1.4-1.27,2.1-.23.38-.57.94-1,1.68l-.47.81c-.49.85-.67,1.25-.94,1.76a1.94,1.94,0,0,0-.13.29c-.17.5-.32,1-.49,1.51-.24.67-.51,1.33-.74,2-.13.37-.19.76-.28,1.15,0,.2-.1.41-.14.61a8.77,8.77,0,0,1-.31,1.51,14.73,14.73,0,0,0-.62,2.41c-.14.67-.28,1.33-.42,2a9.68,9.68,0,0,0-.4,2.5,1.34,1.34,0,0,1-.06.36c-.12.51-.27,1-.37,1.54-.15.76-.29,1.51-.41,2.27,0,.3-.14.64.13.86a.83.83,0,0,1,.28.85,2.4,2.4,0,0,0,0,.59c.09.81.18,1.63.3,2.44s.27,1.61.41,2.42a1.54,1.54,0,0,0,.08.31c.25.63.49,1.27.77,1.89a5.91,5.91,0,0,0,1.13,2.05,1,1,0,0,1,.19.4,2.51,2.51,0,0,0,.63,1,11.69,11.69,0,0,1,1,1.08.89.89,0,0,0,.59.37A6,6,0,0,1,17,81a6.56,6.56,0,0,0,2.15.55c.32,0,.63-.09.95-.08a18.44,18.44,0,0,0,3,0,1.4,1.4,0,0,1,.36,0,9.39,9.39,0,0,0,3.3-.17l1-.24c1.18-.28,2.37-.53,3.54-.84.85-.23,1.68-.53,2.51-.81a10.22,10.22,0,0,0,1.6-.63c.93-.51,1.82-1.08,2.71-1.65.34-.22.64-.51,1-.75.6-.42,1.22-.8,1.81-1.22S42.3,74,43,73.51a25.26,25.26,0,0,0,2.49-2.19,9.43,9.43,0,0,1,1.42-1.14,3,3,0,0,0,.89-.87,10,10,0,0,1,.86-1c.14-.16.3-.29.45-.45l.73-.8c.28-.3.57-.59.82-.91.49-.65,1-1.33,1.42-2,.16-.23.29-.49.45-.73s.44-.58.62-.89c.43-.73.84-1.47,1.26-2.21.16-.27.36-.53.5-.81.27-.55.49-1.14.77-1.68a14.32,14.32,0,0,0,.88-2.12c.13-.38.35-.74.5-1.11a9.35,9.35,0,0,0,.7-1.72,3.24,3.24,0,0,1,.21-.79,12.78,12.78,0,0,0,.67-2.3c.12-.48.23-1,.35-1.45,0-.1.06-.2.08-.31.29-1.09.19-2.22.38-3.33.12-.69.21-1.38.33-2.07.06-.36.16-.71.25-1.06a1.53,1.53,0,0,1,.1-.22,1.38,1.38,0,0,1,.1.22c.08.42.17.83.24,1.25.12.67.19,1.35.35,2s.39,1.43.63,2.13c.17.5.42,1,.6,1.47.42,1.13.83,2.27,1.24,3.41a2.88,2.88,0,0,0,.23.44c.3.51.63,1,.89,1.53A19.05,19.05,0,0,0,66,56.37c.27.38.51.79.77,1.18a11.56,11.56,0,0,0,.92,1.35,41.33,41.33,0,0,1,2.63,3.54,32.57,32.57,0,0,0,2.41,2.9c.41.45.86.86,1.28,1.3.72.76,1.4,1.55,2.14,2.29s1.26,1.14,1.88,1.71A36.25,36.25,0,0,0,80.76,73c.5.37,1,.75,1.51,1.09s1.2.76,1.82,1.12a14.15,14.15,0,0,0,1.34.67c.83.37,1.68.69,2.51,1.07a18.19,18.19,0,0,0,1.94.88c.45.14.87.36,1.31.52,1,.38,2,.76,3.08,1.11.74.25,1.5.47,2.26.68s1.29.32,1.92.53a10.22,10.22,0,0,0,2.25.53,36.55,36.55,0,0,1,4.19.6,1.28,1.28,0,0,0,.5,0,2.47,2.47,0,0,1,1.12.1c.28.07.55.16.83.22a2.62,2.62,0,0,0,.76.09,8.34,8.34,0,0,0,2.39-.51,4.73,4.73,0,0,0,3-2.89,8.72,8.72,0,0,0,.62-2.41c0-1.17.13-2.34.12-3.5A22,22,0,0,0,114.34,69.38ZM64.23,13.52a3.31,3.31,0,0,1-.4.4c-.05-.32-.09-.54.13-.67s.19,0,.28,0S64.27,13.46,64.23,13.52ZM67,10.68a.31.31,0,0,1-.28.05.38.38,0,0,1-.12-.27.9.9,0,0,1,0-.31c.09-.35.2-.41.55-.29l.25.09s0,0,.13.13C67.35,10.3,67.18,10.5,67,10.68Zm3.08-3.37a1.14,1.14,0,0,1,.72.31.69.69,0,0,1-1,.26.39.39,0,0,1-.08-.31A.29.29,0,0,1,70.06,7.31ZM51.31,14c.17-.39.29-.44.64-.19s.39.32.61.51c-.14.24-.24.45-.46.42a2.31,2.31,0,0,1-.79-.28C51.14,14.38,51.25,14.17,51.31,14Zm-2.51-3.13a1.52,1.52,0,0,1,.31.11c.3.17.31.31.09.57s-.49.43-.84.23a.43.43,0,0,1-.19-.23C48.1,11.29,48.44,10.89,48.81,10.89ZM47.48,8.57a3,3,0,0,1,.68,1c-.38.44-.72.47-1.4.13A2.19,2.19,0,0,1,47.48,8.57Zm4.07,8.67c-.44-.23-.88-.47-1.33-.68-.91-.41-1.82-.83-2.76-1.18A13.76,13.76,0,0,0,45.77,15a3.41,3.41,0,0,0-1.45-.15,1.42,1.42,0,0,1-.44-.08c-.74-.12-1.07-.44-1.06-1.18a5.4,5.4,0,0,1,.34-2.14,18.25,18.25,0,0,0,.65-1.75A2.21,2.21,0,0,1,45,8.45a6.55,6.55,0,0,0,.64-.35,1.13,1.13,0,0,1,1-.11c-.1.17-.16.28-.23.39-.2.3-.42.6-.61.9a.63.63,0,0,1-.62.3l-.18,0a.35.35,0,0,0-.41.21.38.38,0,0,0,.21.46l.12.06c.26.15.28.22.16.51s-.34.81-.47,1.23a2.14,2.14,0,0,0-.06.76.32.32,0,0,0,.52.29.91.91,0,0,0,.39-.41c.15-.34.24-.72.37-1.07s.26-.71.39-1.07a1.85,1.85,0,0,1,.94.09.19.19,0,0,1,.12.29,1.1,1.1,0,0,1-.36.44c-.24.13-.25.31-.23.53a2.9,2.9,0,0,1,0,.53A.51.51,0,0,0,47,13c.18.1.37.07.54-.2a.6.6,0,0,1,.78-.24c.22.06.37.12.3.39a.38.38,0,0,0,.28.46,1.2,1.2,0,0,0,.51,0s.07-.06.1-.09.24-.31.36-.31a3.3,3.3,0,0,1,.77.18c-.07.17-.1.28-.16.38-.15.28-.31.55-.45.84s0,.78.5.73a2.46,2.46,0,0,1,1,.19.3.3,0,0,1,.25.4,1.63,1.63,0,0,0,0,.41.46.46,0,0,0,.39.43.37.37,0,0,0,.46-.28,1.42,1.42,0,0,1,.11-.25c.2-.37.29-.4.7-.28s.35.22.2.51-.27.47-.39.72a.44.44,0,0,0,0,.51c.2.25.38.27.61,0a1,1,0,0,0,.3-.45,2.41,2.41,0,0,1,.49-.86c.17-.26.29-.31.58-.21a1.43,1.43,0,0,1,.88.76c-.06,0-.1.06-.13.06-.51-.15-.8.16-1.06.51s-.55.79-.81,1.17c-.31-.13-.61-.23-.89-.37C52.6,17.82,52.08,17.52,51.54,17.24ZM15.33,56.05a.22.22,0,0,0-.11.31,2.36,2.36,0,0,1-.09,1.38,9.37,9.37,0,0,0-.35,2c0,.71-.07,1.42-.1,2.13,0,.09,0,.18,0,.27,0,.38,0,.76,0,1.14s0,.69,0,1,.09.45-.15.69a2.09,2.09,0,0,1-.13-.42c-.06-1-.14-1.93-.16-2.9a17.79,17.79,0,0,1,.06-2.45,18.52,18.52,0,0,1,.52-3.54c.16-.5.34-1,.52-1.5.09-.24.19-.47.27-.71a3.14,3.14,0,0,0,.11-.48,4.11,4.11,0,0,1,.6-1.6,1.07,1.07,0,0,1,0,.86A5.33,5.33,0,0,0,16,53.89a1.13,1.13,0,0,1,0,.22c-.09.44-.2.89-.28,1.33C15.61,55.69,15.59,55.93,15.33,56.05Zm3.46,7.59a1.45,1.45,0,0,0,0,.18c-.06.36-.09.72-.18,1.07-.14.56-.31,1.1-.46,1.66-.07.25-.13.5-.18.75a6.79,6.79,0,0,1-.74,2.19,2.26,2.26,0,0,1,0-.42,21.51,21.51,0,0,0,.5-3.28,20.59,20.59,0,0,1,.43-2.87c.2-.78.33-1.57.51-2.35s.38-1.56.58-2.33c.11-.46.23-.91.33-1.37s-.14-.47-.43-.35a3.11,3.11,0,0,0-.38.22.94.94,0,0,1-.15-.22c-.06-.19-.17-.33-.38-.32a.54.54,0,0,0-.48.36,1.14,1.14,0,0,0-.06.36c-.08.86-.12,1.72-.23,2.58-.07.52-.26,1-.38,1.54-.22,1-.46,1.91-.62,2.88-.18,1.12-.28,2.25-.42,3.38,0,.16-.06.31-.09.47h-.09a.64.64,0,0,1-.1-.2,5.77,5.77,0,0,1-.05-.91,12.37,12.37,0,0,0,0-1.81,20,20,0,0,1,0-2.27c0-1.11.08-2.21.16-3.31a13.71,13.71,0,0,1,.3-1.6c.09-.43.18-.86.28-1.29s.18-.64.26-1c.13-.58.25-1.15.35-1.73A11.8,11.8,0,0,1,17.67,51a.76.76,0,0,0-.15-.92c-.27-.28-.26-.29-.1-.62l1-2,.12-.2a1.82,1.82,0,0,1,0,.33c0,.3-.1.6-.11.9s.14.58.41.6.41-.14.5-.49c0-.18.07-.36.11-.53a9.17,9.17,0,0,1,1.4-2.88c.11-.17.25-.33.09-.53s-.42-.08-.62.1a2,2,0,0,0-.23.28L19,46.48c-.05.07-.09.16-.18.2a3,3,0,0,1,.41-1.32c.14-.23.26-.48.38-.72a8.22,8.22,0,0,1,1.2-1.86c.25-.28.37-.66.59-1,.35-.49.74-1,1.11-1.43.22-.29.44-.58.67-.86s.4-.45.58-.69a7.46,7.46,0,0,1,.84-.93l.33-.3a1.08,1.08,0,0,1-.26.61c-.27.41-.53.84-.8,1.25s-.47.67-.7,1a1.08,1.08,0,0,0-.2.3,1.68,1.68,0,0,1-.51.79.37.37,0,0,0-.08.53c.55-.09.82-.53,1.11-.93s.42-.67.65-1Q25,39.07,25.86,38a6.85,6.85,0,0,1,1.38-1.31,1,1,0,0,0,.26-.25c.06-.09.13-.25.1-.3a.43.43,0,0,0-.33-.16,2.78,2.78,0,0,0-.62.25c-.2.1-.38.21-.58.32L26,36.46c.14-.22.26-.46.42-.66a16.53,16.53,0,0,1,1.65-1.68c.53-.51,1.1-1,1.65-1.49a1.55,1.55,0,0,1,.35-.28c.72-.33,1.16-1,1.83-1.41.19-.11.23-.42.58-.38a1.2,1.2,0,0,0-.41,1.66c.1-.07.22-.1.28-.18a6.77,6.77,0,0,1,1.07-1.1,4.08,4.08,0,0,1,.42-.34L37,28.52a6.64,6.64,0,0,1,1.43-.79c.14-.05.26-.16.4-.22l.53-.22.06.08-.25.27a26.18,26.18,0,0,1-2.4,1.91c-.77.63-1.58,1.22-2.3,1.92s-1.08,1.18-1.6,1.78a4,4,0,0,0-.61.72,2.73,2.73,0,0,0-.2.91c0,.06.15.15.27.26.25-.36.43-.66.65-.92.5-.59,1-1.18,1.54-1.72s1.18-1.1,1.8-1.61,1.21-.91,1.81-1.37,1.15-.93,1.76-1.36c1.08-.76,2.17-1.5,3.26-2.24.54-.36,1.09-.71,1.64-1.06a6.71,6.71,0,0,1,.69-.35c.36-.17.44-.14.71.25-.37.25-.77.48-1.12.76s-1,.55-1.47.88a1.25,1.25,0,0,0-.26.19,9.27,9.27,0,0,1-1.44,1.24c-.33.26-.62.57-.93.86a2.1,2.1,0,0,1-.27.24,12.55,12.55,0,0,0-2.24,1.9c-.62.66-1.4,1.11-2,1.74a11.89,11.89,0,0,0-2,2c-.24.39-.61.71-.88,1.09-.39.54-.74,1.1-1.12,1.65s-.64,1-1,1.4a21.83,21.83,0,0,0-2,2.87c-.23.42-.53.81-.79,1.22a13.87,13.87,0,0,0-1.06,1.63c-.27.56-.56,1.1-.88,1.63s-.65,1.23-1,1.84c-.48.87-1,1.73-1.46,2.61-.31.58-.57,1.2-.86,1.79s-.61,1.05-.83,1.62a22.57,22.57,0,0,0-1.16,2.9,4.5,4.5,0,0,1-.27.62c-.27.68-.57,1.34-.78,2a2.24,2.24,0,0,1-.51.94,1.15,1.15,0,0,0-.19.46C19.35,61.78,19.07,62.71,18.79,63.64Zm10.09-17c0-.24,0-.31.41-.85C29.38,46.08,29.38,46.08,28.88,46.67Zm-8,19.67.1.07-1.36,2.84A3.85,3.85,0,0,1,20.91,66.34Zm.59,2.46c-.34.82-.9,1.5-1.26,2.3-.16.37-.36.72-.55,1.11a1.28,1.28,0,0,1-.08-1c.16-.46.33-.91.51-1.36s.39-.88.6-1.32c.45-1,.91-1.95,1.35-2.93.25-.57.47-1.15.72-1.71s.44-.93.67-1.39c.54-1.06,1.07-2.13,1.62-3.19.25-.48.55-.94.81-1.41a1.33,1.33,0,0,0,.11-.43.31.31,0,0,0-.28-.4.36.36,0,0,0-.46.26c-.08.21-.12.44-.22.64-.3.61-.61,1.22-.92,1.83a.12.12,0,0,0,0,0c0,.57-.47,1-.7,1.45s-.52,1-.75,1.45c-.44.95-.86,1.91-1.29,2.86a3.65,3.65,0,0,1-.28.44L21,66a1.05,1.05,0,0,1,0-.27c.23-.83.53-1.65.7-2.49s.55-1.66.8-2.5a6.73,6.73,0,0,1,.62-1.25c.18-.33.38-.65.57-1a.41.41,0,0,0,0-.54.44.44,0,0,1,0-.38,3.83,3.83,0,0,1,.74-1.4,6.47,6.47,0,0,0,.74-1,.52.52,0,0,0,0-.38.83.83,0,0,1,.12-.73,4.79,4.79,0,0,0,.34-.74c.33-.77.65-1.53,1-2.3s.6-1.36.91-2c.24-.51.49-1,.75-1.5.06-.12.19-.2.34-.33,0,.13,0,.19,0,.21-.25.32,0,.57.14.81a.32.32,0,0,0,.6-.07.41.41,0,0,0,.05-.17,2,2,0,0,1,.33-1c.31-.64.67-1.25,1-1.86s.55-.94.85-1.39c.64-1,1.29-1.94,1.95-2.9.16-.24.34-.46.51-.69A1.13,1.13,0,0,1,34.2,40l.11.08c-.47.53-.34,1.23-.6,1.82a.3.3,0,0,0,.15.39c.16.09.25,0,.32-.16a1.79,1.79,0,0,0,.23-.44,4.39,4.39,0,0,1,1-1.56,5.77,5.77,0,0,1,1.3-1.26c.25-.18.48-.4.79-.65-.18-.07-.29-.15-.38-.13a3.75,3.75,0,0,0-1,.21,2.74,2.74,0,0,0-1,.81,3.9,3.9,0,0,1-.31.31l-.08,0a.73.73,0,0,1,.06-.21,2.33,2.33,0,0,1,.35-.46.66.66,0,0,0,.2-.52,1,1,0,0,1,.19-.49,7.1,7.1,0,0,1,.51-.58c0-.06.12-.12.12-.18,0-.33.23-.52.42-.73A9.45,9.45,0,0,1,37.68,35a5.55,5.55,0,0,0,.75-.85,3.28,3.28,0,0,1,1.13-.9A.73.73,0,0,0,39.9,33a4.45,4.45,0,0,1,1.43-1.5l1.52-1.16c.6-.46,1.2-.92,1.81-1.38s1.35-1,2-1.47a3,3,0,0,1,.37-.2l.07.1c-.12.12-.24.25-.38.36-.49.43-1,.88-1.48,1.27a10.91,10.91,0,0,1-1.52,1.21l0,0-1.59,1.41c-.23.2-.47.38-.7.58-.46.4-.93.79-1.35,1.21-.78.78-1.53,1.58-2.3,2.37a7.15,7.15,0,0,1-.57.52,2.15,2.15,0,0,0-.61.88c-.07.17-.06.3.09.39a.29.29,0,0,0,.43-.1,5.31,5.31,0,0,1,.38-.45c.52-.57,1-1.16,1.58-1.7.91-.88,1.85-1.74,2.8-2.59.56-.5,1.17-1,1.76-1.45l1.76-1.44c.61-.5,1.2-1,1.82-1.51.44-.35.9-.66,1.36-1,.24-.18.48-.36.73-.53a.64.64,0,0,1,.33-.13,1.69,1.69,0,0,0,1-.37,1.57,1.57,0,0,1,.4-.13.44.44,0,0,1-.25.48,11.13,11.13,0,0,0-2.05,1.4,2.44,2.44,0,0,1-.43.25,9.05,9.05,0,0,0-1.4,1.07c-.82.76-1.72,1.43-2.57,2.17-.66.57-1.28,1.21-1.95,1.77s-1.19.94-1.8,1.38a.46.46,0,0,0-.24.53c.08.31.14.37.47.36a2.31,2.31,0,0,0,.41,0c.41-.09.51-.19.53-.61a.45.45,0,0,1,.17-.34l2.16-1.94c.44-.39.88-.79,1.34-1.16.82-.65,1.65-1.28,2.49-1.91.46-.35.94-.67,1.41-1a1.59,1.59,0,0,1,.25-.11.39.39,0,0,1-.17.42c-.65.64-1.29,1.28-1.95,1.91-.36.35-.74.66-1.1,1s-.61.62-.92.94c-.55.58-1.11,1.15-1.65,1.74q-.55.6-1.06,1.23a2,2,0,0,0-.21.48c.35.25.44.26.62,0a30.52,30.52,0,0,1,3-3.21c.58-.53,1.12-1.1,1.69-1.64s1.24-1.15,1.85-1.74,1.22-1.23,1.83-1.83c.28-.28.57-.54.87-.8a.38.38,0,0,1,.34,0,2.22,2.22,0,0,1-.18.26L51,28.95l-1.38,1.44L48.3,31.75c-.52.53-1.06,1-1.57,1.57s-1.12,1.2-1.68,1.79c-.12.13-.27.24-.4.37l-2,2a1.11,1.11,0,0,0-1.26.41l-.46.44a4.89,4.89,0,0,0-1,1.59,1.52,1.52,0,0,1-.52.77c-.14.09-.13.21,0,.34a.69.69,0,0,0,1.16-.12,19.9,19.9,0,0,1,3.18-3.54c.6-.58,1.14-1.22,1.74-1.8.92-.9,1.88-1.76,2.8-2.67,1.08-1.06,2.13-2.16,3.19-3.24.2-.2.42-.4.62-.6a.38.38,0,0,1,.57,0c-.5.58-1,1.17-1.48,1.75s-1,1.12-1.47,1.67S48.54,33.71,48,34.34s-1.23,1.49-1.84,2.24l-1.93,2.36c-.29.35-.57.71-.86,1.05a1.5,1.5,0,0,1-.41.35.29.29,0,0,0-.15.41.34.34,0,0,0,.4.23,4.18,4.18,0,0,0,.47-.13c-.1.33-.21.53-.52.61a2.77,2.77,0,0,0-1.32.84,6.22,6.22,0,0,0-1.1,1.89,1.73,1.73,0,0,1-.72,1,.48.48,0,0,0-.28.47,1.26,1.26,0,0,1-.36.66c-.48.56-1,1.09-1.47,1.66a17.4,17.4,0,0,0-1.27,1.65c-.4.61-.89,1.14-1.32,1.72a1.56,1.56,0,0,0-.18.26,3,3,0,0,1-.66.86c-.33.33-.6.71-.92,1a10.61,10.61,0,0,0-1.29,1.75,12.11,12.11,0,0,1-1.62,2A14.89,14.89,0,0,0,29.32,59l-.29.4c-.14.21-.27.43-.43.64s-.5.57-.72.87c-.4.57-.78,1.15-1.18,1.72l-.57.8c-.82,1.13-1.64,2.25-2.45,3.38a7.14,7.14,0,0,0-.61,1.06,3.1,3.1,0,0,1-1,1.14c.08-.18.14-.37.23-.54l1.49-2.91L25.14,63a1.11,1.11,0,0,1,.09-.16c.6-.8,1-1.73,1.5-2.58l.34-.53,2.25-3.46c.19-.29.41-.57.61-.85a1.25,1.25,0,0,0,.09-.11c.11-.2.06-.55-.09-.62s-.36.07-.46.29-.2.5-.31.74A1.32,1.32,0,0,1,29,56a22.2,22.2,0,0,0-1.55,2.39c-.32.61-.75,1.17-1.1,1.77-.45.78-.87,1.59-1.31,2.37s-.81,1.35-1.2,2c-.21.36-.38.75-.56,1.13a3.12,3.12,0,0,1-.24.43A13.35,13.35,0,0,0,21.5,68.81Zm6.08,4.32L27.52,73l.69-.69c.64-.63,1.26-1.26,1.91-1.88s1.22-1.13,1.84-1.7a3.13,3.13,0,0,0,.22-.23l1.14-1.29c.33-.37.66-.75,1-1.11S35,65.4,35.4,65s.85-.83,1.23-1.28S37.57,62.57,38,62a1.63,1.63,0,0,0,.21-.64.32.32,0,0,0-.2-.37.33.33,0,0,0-.4.14.38.38,0,0,0-.07.11,3,3,0,0,1-.65,1c-.4.45-.74.94-1.14,1.39-.61.69-1.26,1.35-1.88,2-.42.46-.82.93-1.23,1.4-.15.17-.31.34-.47.5-1.09,1.07-2.17,2.15-3.27,3.21-.7.67-1.39,1.36-2.13,2-.89.75-1.73,1.57-2.56,2.39a13.18,13.18,0,0,1-1.15,1c-.38.29-.59.24-.91-.24l.62-.58c1-.93,2-1.89,3.05-2.78A32.35,32.35,0,0,0,28.43,70c.82-.87,1.58-1.79,2.38-2.68.34-.38.73-.72,1.1-1.08a2.78,2.78,0,0,0,.23-.22c.43-.53.85-1.07,1.28-1.59.25-.3.53-.58.79-.87s.18-.33,0-.51l-.34-.36a.34.34,0,0,0-.52-.05A2,2,0,0,0,33,63a35,35,0,0,1-4.75,5.19,6.18,6.18,0,0,0-.8.85,3.69,3.69,0,0,0-.33.8,1,1,0,0,0-.87.42l-1.59,1.69-2,2.13c-.12.13-.22.29-.35.41a4.17,4.17,0,0,1-.63.51,1.36,1.36,0,0,1,.41-.72c.54-.69,1.09-1.38,1.64-2.06.42-.53.85-1.07,1.26-1.61a1.78,1.78,0,0,0,.21-.44c.05-.13.06-.31-.1-.35a.58.58,0,0,0-.41.06c-.12.08-.19.23-.28.35l-1.67,2a.35.35,0,0,1-.22.12c.22-.41.44-.83.68-1.24.75-1.32,1.64-2.54,2.48-3.8.59-.9,1.14-1.82,1.73-2.72.24-.37.53-.7.79-1s.44-.62.66-.92l2.07-2.87c.35-.49.7-1,1.06-1.48.52-.7,1.09-1.37,1.58-2.09.81-1.19,1.83-2.22,2.61-3.42.07-.11.18-.2.26-.31.54-.68,1.07-1.38,1.62-2.05.31-.39.67-.74,1-1.13s.52-.78.81-1.14c.54-.67,1.11-1.32,1.66-2a2,2,0,0,0,.36-.52,4.1,4.1,0,0,1,.83-1.13c.58-.68,1.14-1.37,1.72-2,.42-.5.86-1,1.3-1.47l.45-.53a1.94,1.94,0,0,0,0,.28c0,.19-.08.43.16.52s.5.29.72,0a.19.19,0,0,1,.16-.06c.36.07.46-.2.61-.43a11.17,11.17,0,0,1,.72-1.09c.51-.64,1.06-1.24,1.59-1.86.33-.38.68-.76,1-1.16s.49-.73.73-1.09a13.26,13.26,0,0,0,1-1.59A14.11,14.11,0,0,0,53.95,32a3.12,3.12,0,0,1,.36-.66s.08,0,.16,0a10,10,0,0,1-.71,1.87c-.13.26-.25.52-.38.77-.51,1-1,2-1.54,3s-1.12,1.75-1.69,2.62-1,1.56-1.55,2.35a10.17,10.17,0,0,1-1.18,1.49c-.46.48-.89,1-1.34,1.47a.79.79,0,0,1-.23.21c-.3.13-.28.41-.33.65a.3.3,0,0,0,.23.34c.19.06.39.12.55-.06s.3-.41.46-.61l.71-.88a17.24,17.24,0,0,0,1.47-2c.31-.52.74-1,1.1-1.44.21-.29.37-.62.57-.92a13.66,13.66,0,0,0,1.11-1.6c.26-.53.58-1,.83-1.54.14-.3.33-.57.49-.86.32-.6.6-1.22.9-1.83.2-.39.43-.76.63-1.15s.47-1,.68-1.47c.1-.22.12-.47.38-.64a.63.63,0,0,1,0,.61c-.21.5-.45,1-.68,1.49,0,.05-.07.1-.09.16-.4,1.15-1.12,2.14-1.57,3.27a2.71,2.71,0,0,1-.26.43,33.09,33.09,0,0,0-1.7,3.35c-.25.5-.53,1-.79,1.47s-.42.77-.61,1.17a4.83,4.83,0,0,1-1.15,1.55.78.78,0,0,0-.17.39c-.05.22.09.32.28.33a.7.7,0,0,0,.68-.3c.29-.46.55-.93.82-1.4s.45-.75.65-1.14c.33-.64.64-1.3,1-1.94.44-.86.87-1.72,1.33-2.57.35-.65.75-1.28,1.09-1.93.24-.47.42-1,.65-1.44.39-.82.8-1.62,1.2-2.43.11-.22.17-.45.26-.68s.11-.33.37-.29a1.93,1.93,0,0,1-.12,1c-.13.37-.3.72-.43,1.09-.17.53-.31,1.08-.48,1.61a4.64,4.64,0,0,1-.27.62,22.14,22.14,0,0,0-1.26,2.95,16.37,16.37,0,0,1-1.5,3.29c-.21.36-.37.76-.56,1.14s-.41.77-.61,1.16c-.11.22-.19.45-.31.65-.48.83-1,1.67-1.47,2.49S48.68,49.08,48.12,50c-.41.69-.77,1.41-1.19,2.09-.53.86-1.1,1.7-1.65,2.54-.13.2-.23.42-.37.62-.5.74-1,1.48-1.51,2.21s-1,1.37-1.55,2c-.71.86-1.46,1.71-2.2,2.55-.46.52-.95,1-1.42,1.54-.26.28-.49.58-.75.85s-.7.67-1,1L35.15,66.7c-.21.21-.4.45-.61.67l-1.25,1.26A24.91,24.91,0,0,1,30,71.42,25.66,25.66,0,0,1,27.8,73ZM47.74,65a.24.24,0,0,0-.29.27.24.24,0,0,1,.29-.27ZM57.89,38.46c-.1.38-.13.77-.22,1.16-.2.9-.41,1.8-.63,2.69s-.44,1.72-.67,2.58-.43,1.57-.67,2.35-.5,1.71-.78,2.55c-.18.54-.43,1.06-.64,1.59s-.33.87-.46,1.32a4.8,4.8,0,0,1-.55,1.18,12,12,0,0,0-.69,1.41c-.07.15-.16.31.05.43a.39.39,0,0,0,.56-.11c.2-.27.38-.54.56-.82a2.35,2.35,0,0,0,.18-.37,19.72,19.72,0,0,0,1.13-2.8c.06-.23.18-.45.26-.68.33-.92.65-1.85,1-2.78.06-.17.05-.36.1-.54s.17-.51.25-.77.16-.55.23-.83.16-.74.25-1.1.24-.9.38-1.35a2,2,0,0,1,.24-.38,5.54,5.54,0,0,1,0,.73c-.18,1.21-.38,2.43-.57,3.64,0,.28,0,.57-.09.85s-.14.55-.21.82a5.33,5.33,0,0,0-.15.61,6.49,6.49,0,0,1-.4,1.48c-.28.73-.55,1.48-.84,2.21-.16.4-.36.79-.54,1.18s-.52,1-.71,1.51a11.46,11.46,0,0,1-1,1.81,17.1,17.1,0,0,1-1.09,1.56c-.59.79-1.26,1.52-1.79,2.35-.66,1-1.57,1.85-2.31,2.81a1.68,1.68,0,0,1-.25.23l.16-.62H48c0-.1-.08-.2-.12-.29a.53.53,0,0,0-.56-.3c-.24,0-.33.19-.4.38s-.07.23-.1.35a1.44,1.44,0,0,1-.47.76l-2.11,1.78a6.79,6.79,0,0,1-.79.69,6.09,6.09,0,0,0-1,.74A7.72,7.72,0,0,1,41,69.66a5.44,5.44,0,0,0-.48.41l-1.7,1.2c-.35.25-.41.44-.28.93a1.49,1.49,0,0,0,1.15-.4c.61-.47,1.19-1,1.77-1.48.74-.65,1.54-1.23,2.31-1.84l1.38-1.11a16,16,0,0,1,1.38-1.06,3,3,0,0,1-.26.37c-.57.6-1.14,1.22-1.74,1.8s-1.26,1.22-1.94,1.78A13.73,13.73,0,0,1,40.22,72a7.83,7.83,0,0,0-.86.67c-.83.6-1.67,1.2-2.52,1.79a16.37,16.37,0,0,1-1.52,1A19.56,19.56,0,0,1,32.15,77c-.77.25-1.56.37-2.33.58-.54.15-1.08.28-1.63.41-.29.07-.32,0-.45-.3.29-.14.58-.31.88-.43.8-.32,1.61-.62,2.41-.95s1.88-.77,2.78-1.23a18,18,0,0,0,1.69-1.14c.31-.21.64-.4,1-.59l.28-.16c.19-.12.16-.31.14-.49s-.18-.24-.34-.23a1,1,0,0,0-.47.09,14,14,0,0,0-1.47,1,9.79,9.79,0,0,1-3.16,1.76c-.34.11-.66.31-1,.43a8.93,8.93,0,0,1-1.37.36,1.57,1.57,0,0,1,.21-.18L32,74.23c.63-.39,1.26-.78,1.9-1.15a46.36,46.36,0,0,0,4.58-3c.47-.36,1-.7,1.42-1.06a2.58,2.58,0,0,0,.46-.49.4.4,0,0,0,0-.51c-.12-.16-.28-.11-.41,0a3.88,3.88,0,0,0-.66.39c-.78.6-1.52,1.26-2.31,1.83s-1.64,1.08-2.47,1.59c-.58.35-1.19.66-1.78,1-.32.19-.62.42-1,.67a.57.57,0,0,1,.25-.45c.32-.28.65-.55,1-.83,1.35-1.22,2.7-2.44,4-3.68.5-.46.94-1,1.43-1.46s.93-.82,1.4-1.22l.21-.18c.23-.24.24-.26,0-.53l-.22-.28a3.34,3.34,0,0,1,.25-.3c.64-.62,1.27-1.25,1.92-1.86a16.15,16.15,0,0,0,1.31-1.6c.42-.5.89-.95,1.34-1.41a10.21,10.21,0,0,0,1.22-1.38A17.44,17.44,0,0,1,47,57a3.78,3.78,0,0,0,.61-.88,5.05,5.05,0,0,1,1.3-1.84A5.76,5.76,0,0,0,50.26,52a15.17,15.17,0,0,1,1.59-2.73,6.32,6.32,0,0,0,.63-1.08,5.09,5.09,0,0,1,.82-1.31,2.48,2.48,0,0,1-.79,1.62c0,.1,0,.19,0,.28s0,.34.18.42a.56.56,0,0,0,.63-.12,5,5,0,0,0,.51-.9c.12-.29.15-.62.25-.92s.21-.43.28-.66c.22-.67.46-1.33.7-2s.43-1.18.66-1.77a16,16,0,0,0,.44-1.62c0-.15.12-.3.17-.45s.11-.31.16-.47l.41-1.44a.72.72,0,0,0,0-.13,7,7,0,0,1,.39-1.48,5.24,5.24,0,0,0,.1-.53c0-.16.06-.33.11-.48s.07-.31.29-.28a.43.43,0,0,1,.38.43A9.89,9.89,0,0,1,57.89,38.46ZM58,35v-.33h.1a1.66,1.66,0,0,1,0,.24S58.07,34.91,58,35Zm1.4-13.1a.3.3,0,0,1-.53-.09.42.42,0,0,1,0-.13c0-.13,0-.26,0-.46a3,3,0,0,1,.35,0A.38.38,0,0,1,59.38,21.86Zm.24-1.51a.52.52,0,0,1-.56-.41.37.37,0,0,1,.31-.42c.26,0,.53.17.54.37S59.78,20.33,59.63,20.35Zm.84-3.58c-.23,0-.46,0-.68.09s-.39.18-.4.42a.41.41,0,0,0,.34.43h0c.58.2.62.31.36.88-.51,0-.59,0-.9-.34-.21.09-.43.18-.64.29s-.2.34-.13.52a1.2,1.2,0,0,1-.09,1l-1-.19c-.33-.06-.48,0-.53.2a.53.53,0,0,0,.34.69l1.08.38-.1.47-.41-.09a9.32,9.32,0,0,0-.93-.16c-.44,0-.47,0-.57.44a1.48,1.48,0,0,1-.8-1.57A2,2,0,0,1,56,19.14c.65-.76,1.31-1.51,2-2.26a.49.49,0,0,1,.13-.12,2.77,2.77,0,0,0,1-1,4.87,4.87,0,0,1,.53-.62,10.6,10.6,0,0,0,1.89-2.6,3.38,3.38,0,0,1,.3-.4A11.08,11.08,0,0,0,63.06,10a3.79,3.79,0,0,1,.46-.73,6,6,0,0,0,.77-1.38,7.45,7.45,0,0,1,.49-.81c.27-.47.53-.95.77-1.44a.8.8,0,0,1,1-.54c.28,0,.57.08.86.1A2.8,2.8,0,0,1,69.14,6h-.28c-.32,0-.41,0-.48.28a.44.44,0,0,0,.26.6l0,0c.42.2.43.24.18.69a3.49,3.49,0,0,1-.43-.11L67.21,7c-.38-.15-.67-.07-.78.21a.58.58,0,0,0,.42.77c.33.1.68.16,1,.24l.09,0c.65.08,1,.32.47,1.06a1.71,1.71,0,0,1-1-.36s0-.08,0-.13c-.07-.54-.24-.6-.71-.3a1.34,1.34,0,0,1-.5.16c-.24,0-.48,0-.72.07s-.32.11-.31.33a.37.37,0,0,0,.27.38l.63.17a2.47,2.47,0,0,1,0,.29c-.09.52-.12.55-.65.42a.78.78,0,0,0-.61.1.41.41,0,0,0-.25.44.43.43,0,0,0,.34.38,5.66,5.66,0,0,1,.6.23c0,.88-.4,1.1-1.17.67l.25-.79c-.15-.16-.28-.1-.4,0a3.73,3.73,0,0,0-.51.52,1.49,1.49,0,0,0-.44,1.06,3.9,3.9,0,0,1-.21,1l-.83-.25a.45.45,0,0,0-.54.14.65.65,0,0,0-.08.46.57.57,0,0,0,.47.39c.13,0,.27,0,.4.07s.37.24.33.42a.47.47,0,0,1-.53.32,1.59,1.59,0,0,1-.31-.08c-.13,0-.25-.11-.38-.17s0-.28,0-.42-.23-.37-.4-.2a1.87,1.87,0,0,1-.83.43.38.38,0,0,0-.08.64C60.75,16,60.56,16.36,60.47,16.77Zm1.17.14c-.09.07-.27.15-.34.11s-.14-.22-.15-.34a1.07,1.07,0,0,1,.1-.35c.08,0,.11,0,.14,0s.33,0,.39.13A.35.35,0,0,1,61.64,16.91Zm-1.06,7.86c0-.14,0-.26.07-.31.42-.45.41-1.06.6-1.59s.22-.88.35-1.31a2,2,0,0,1,.33-.63c.17-.22.35-.2.53,0a1.75,1.75,0,0,1,.36.52.71.71,0,0,1-.1.5,10,10,0,0,1-.66.92c-.27.35-.5.7-.2,1.15.09.13,0,.25-.1.36A1.7,1.7,0,0,1,60.58,24.77ZM94.79,77.93c-.7-.29-1.39-.59-2.08-.9-.29-.13-.57-.27-.86-.41l-.37-.21A11.44,11.44,0,0,1,95.32,78,.65.65,0,0,1,94.79,77.93Zm3.69-.13a18.26,18.26,0,0,1-2.13-1.11c-1.31-.85-2.64-1.65-4-2.51-1.14-.74-2.26-1.52-3.39-2.29L87.74,71l-3.64-2.64a2.09,2.09,0,0,0-.48-.25c-.2-.08-.32,0-.34.23a.55.55,0,0,0,.31.56c.46.28.92.57,1.37.88.84.59,1.67,1.2,2.51,1.79.26.18.54.33.8.51s.41.31.61.46.31.24.48.35c.4.24.82.46,1.21.72a5.12,5.12,0,0,1,.66.55,9.87,9.87,0,0,0,1.5,1l.81.54-.08.11-.76-.48-1-.59-1.47-.91c-.56-.36-1.11-.73-1.68-1.08-1-.58-1.94-1.18-3-1.71a13.37,13.37,0,0,1-2.18-1.47,4.23,4.23,0,0,1-.32-.32.26.26,0,0,0-.4,0,.25.25,0,0,0,0,.36A2.32,2.32,0,0,0,83,70a12.14,12.14,0,0,0,2.42,1.66c1.09.58,2.14,1.25,3.21,1.89.57.34,1.15.68,1.71,1,.39.25.77.54,1.14.82,0,0,0,.1.08.24-.51-.17-1-.3-1.38-.48q-1.93-.79-3.85-1.62a8.57,8.57,0,0,1-.9-.53c-.34-.2-.69-.37-1-.6-.5-.34-1-.71-1.43-1,0-.07,0-.11,0-.13a.63.63,0,0,0-.43-.86A10.2,10.2,0,0,1,80,68.54l-3.32-3a1.23,1.23,0,0,1-.33-.43,1.11,1.11,0,0,0-.62-.57,2.11,2.11,0,0,1-.47-.33c-.31-.29-.6-.6-.9-.9a4.11,4.11,0,0,1-.27-.36c-.27-.35-.46-.8-1-.79-.17-.19-.42-.35-.5-.57a8.24,8.24,0,0,0-.75-1.38c-.21-.37-.44-.74-.62-1.12A21,21,0,0,0,69.95,57a7.3,7.3,0,0,0-.62-.83A.45.45,0,0,0,69,56a1.9,1.9,0,0,0-.42.1,3.3,3.3,0,0,1-.82-1.42,1.89,1.89,0,0,0-.34-.57c-.41-.64-.84-1.25-1.22-1.91A22.85,22.85,0,0,1,65,50a18.62,18.62,0,0,1-1.12-2.9c-.18-.72-.35-1.44-.56-2.15-.12-.39-.3-.76-.45-1.14a5,5,0,0,1-.13-.51l.1,0a4.36,4.36,0,0,1,.3.48c.21.44.39.88.59,1.33,0,.11.12.21.17.32l.31.7a1.88,1.88,0,0,0,.14.34,7.13,7.13,0,0,1,.87,2.47,1.33,1.33,0,0,0,.54.81.4.4,0,0,0,.51,0,.37.37,0,0,0,.14-.47c-.28-.73-.54-1.48-.82-2.21A11.06,11.06,0,0,0,65,45.39c-.59-1-1.06-2.13-1.56-3.21a13.17,13.17,0,0,1-.82-2.59c-.15-.63-.37-1.24-.55-1.87l-.27-.9.12-.06a1.38,1.38,0,0,1,.2.3c.08.23.14.46.2.7,0,.07,0,.16,0,.22.57.81.72,1.82,1.28,2.65a10.48,10.48,0,0,1,.67,1.48,5.29,5.29,0,0,0,.39.72c.32.47.39.49.93.26a.49.49,0,0,0-.07-.5c-.19-.25-.36-.52-.53-.79a3.46,3.46,0,0,1-.25-.43c-.18-.4-.35-.8-.53-1.2s-.49-1.07-.72-1.61-.44-1-.66-1.58-.36-.9-.5-1.36a.77.77,0,0,1,0-.57,1.09,1.09,0,0,0,.13-.91,15.67,15.67,0,0,1,1.34,3c.07.2.13.4.2.6a.45.45,0,0,0,.11.2,5.43,5.43,0,0,1,1.07,1.65c.27.47.57.93.88,1.37a.9.9,0,0,0,.46.26.31.31,0,0,0,.4-.38,1.12,1.12,0,0,0-.19-.4,3.32,3.32,0,0,0-.35-.41,9.54,9.54,0,0,1-1.33-2.2,6.32,6.32,0,0,1-.27-.64c.11-.11.31-.14.26-.37a1.06,1.06,0,0,1,0-.53c0,.09.1.18.15.27.32.7.62,1.41,1,2.1a9.84,9.84,0,0,1,.51,1.11,2.25,2.25,0,0,0,.65,1c.21.18.4.31.7.07l.11.17.75,1.4a.52.52,0,0,1,0,.52.49.49,0,0,0,.1.59,6.87,6.87,0,0,1,1.31,2.11,21.21,21.21,0,0,0,1.18,2.09c.56.89,1.16,1.76,1.77,2.62a2,2,0,0,1,.38.65.19.19,0,0,0,0,.08,22.62,22.62,0,0,1,1.37,2c.31.41.65.79.94,1.21s.44.72.66,1.08.32.5.49.74a.42.42,0,0,0,.18.13,2.52,2.52,0,0,1,1.06,1.13c.19.29.35.6.53.9a2.38,2.38,0,0,0,.18.26c.36.45.73.89,1.07,1.35a20.68,20.68,0,0,0,2.12,2.52c.72.71,1.33,1.53,2,2.3.29.33.6.64.9,1l1.42,1.58-.06.07-.44-.33a15.78,15.78,0,0,1-3-2.85c-.7-.84-1.35-1.72-2-2.58a.81.81,0,0,1-.14-.18.92.92,0,0,0-.83-.59,1.86,1.86,0,0,1-1.29-1c-.24-.4-.49-.8-.76-1.18s-.71-.9-1-1.38a20,20,0,0,0-1.49-2.1A9.2,9.2,0,0,1,74.89,54l-1.25-1.94-1.08-1.71c-.15-.24-.32-.47-.48-.71L72,49.52l-1.24-2c-.18-.29-.38-.57-.57-.87a3,3,0,0,1-.21-.43,1.13,1.13,0,0,0-.59-.56l-.45.39-.72-1.17.39.09a.54.54,0,0,0,0-.66A5.24,5.24,0,0,1,68,42.85a1.21,1.21,0,0,0-.3-.44.37.37,0,0,0-.46-.08.38.38,0,0,0-.24.4c0,.09,0,.18,0,.26s-.14.14-.21.19a.26.26,0,0,0-.06.4c.25.39.52.78.75,1.18s.25.55.4.82c.27.51.55,1,.81,1.52.17.34.29.7.47,1a4.71,4.71,0,0,0,.74,1.23,1.11,1.11,0,0,1,.2.3c.32.61.63,1.24,1,1.85s.6,1.14.92,1.69.57,1,.85,1.44A6,6,0,0,1,73.55,56a2.64,2.64,0,0,0,.44.68c.16.23.32.47.5.7a.76.76,0,0,0,.25.19.38.38,0,0,0,.47,0,.42.42,0,0,0,.08-.54c-.2-.33-.43-.65-.64-1l-.56-.82L73.32,54c-.11-.17-.21-.34-.14-.49-.25-.34-.49-.64-.69-1-.5-.81-1-1.62-1.46-2.44-.37-.64-.69-1.31-1-2a2.36,2.36,0,0,1-.1-.28l.08-.05a4,4,0,0,1,.4.45c.46.71.91,1.42,1.36,2.14l.61.95c.32.49.64,1,1,1.45s.56.89.86,1.32c.49.72,1,1.44,1.49,2.16.31.45.59.92.91,1.36.82,1.12,1.66,2.24,2.49,3.36.07.1.13.2.21.29.26.31.36.32.77.07.53.7,1,1.43,1.61,2.11s1.12,1.23,1.69,1.84l.45.5a2.23,2.23,0,0,0,.21.23,23.63,23.63,0,0,0,2.61,2.08.61.61,0,0,0,.85,0c.72.56,1.32,1.23,2,1.83s1.33,1.19,2,1.79l-.05.08-.23-.12a2.58,2.58,0,0,1-.24-.12A10.31,10.31,0,0,1,88.84,70a1.58,1.58,0,0,0-.39-.24c-.4.46-.35.78.12,1.08.66.42,1.31.86,2,1.27a22.8,22.8,0,0,1,2,1.38c1,.73,2,1.37,3,2,.55.37,1.09.76,1.65,1.13s1.17.75,1.76,1.12l.19.15A.94.94,0,0,1,98.48,77.8ZM93.8,73.37a3.92,3.92,0,0,1,.42.21c.4.27.8.54,1.18.83a1.2,1.2,0,0,1,.23.34,5,5,0,0,1-1.51-.93A1.27,1.27,0,0,1,93.8,73.37Zm2.78,2a3.22,3.22,0,0,1,1.63,1.1A5.46,5.46,0,0,1,96.59,75.35Zm6.32.7a37.93,37.93,0,0,1-3.14-2.83,1.26,1.26,0,0,0-.73-.46.61.61,0,0,0,.15.55,9.18,9.18,0,0,0,1.31,1.51l.13.14c-.09.09-.25.17-.25.26a.69.69,0,0,0,.15.41c.24.31.5.59.82,1a2.3,2.3,0,0,1-.37-.15l-1.81-1.3c-.25-.18-.51-.33-.74-.52-.54-.42-1.07-.84-1.59-1.28-.82-.7-1.62-1.41-2.44-2.11q-.89-.77-1.81-1.52c-.35-.29-.72-.55-1.08-.83,0,0-.11-.08-.12-.13-.18-.55-.69-.83-1-1.25s-.69-.73-1-1.09L87.8,64.76l-2.22-2.4a2.15,2.15,0,0,0-.43-.4,3.12,3.12,0,0,1-1.06-1.27,1.47,1.47,0,0,0-.3-.4,11.29,11.29,0,0,1-1.59-1.92c-.32-.44-.66-.86-1-1.3s-.67-.93-1-1.4c-.55-.77-1.11-1.54-1.66-2.32-.39-.56-.76-1.13-1.15-1.68-.18-.26-.41-.49-.6-.74-.71-1-1.42-2-2.1-3S73.5,46,72.86,45.11a20.15,20.15,0,0,1-1.71-2.93c-.13-.27-.36-.49-.5-.75s-.34-.74-.52-1.11a23,23,0,0,0-1.42-2.64,9.18,9.18,0,0,1-.5-1,1.75,1.75,0,0,1-.07-.33,1.62,1.62,0,0,1,.22.21l1,1.65a7.35,7.35,0,0,0,.47.77,10.76,10.76,0,0,1,1,1.91,1.74,1.74,0,0,0,.18.31c.15.18.36.35.59.24a1,1,0,0,0,.41-.45c.1-.18-.06-.33-.18-.48s-.39-.55-.63-.89l.47,0c.39-.45.36-.59-.07-1A4.34,4.34,0,0,1,71,38c-.44-.62-.87-1.24-1.28-1.87s-.74-1.25-1.12-1.87c-.11-.18-.25-.34-.37-.52l-.58-.86c-.38-.58-.78-1.15-1.15-1.73a9.79,9.79,0,0,1-.45-.93,1.29,1.29,0,0,1,.24.16c.82,1.08,1.63,2.17,2.46,3.25.69.9,1.4,1.78,2.09,2.68.16.2.3.42.46.62l2.45,3.14q.32.41.61.85a.83.83,0,0,0,.83.42c.33-.47.31-.56,0-1-.93-1.16-1.83-2.34-2.78-3.47-.66-.79-1.22-1.65-1.88-2.44s-1.3-1.71-1.94-2.57a.9.9,0,0,1,0-.2l.71.77,1.43,1.59,1.65,1.88c.57.65,1.15,1.29,1.69,2,.71.87,1.39,1.75,2.09,2.63.09.12.19.24.29.35a.54.54,0,0,0,.61.2.39.39,0,0,1,.5.2l.41.59c-.28.3-.11.54.1.79.44.52.88,1,1.31,1.57a25.83,25.83,0,0,1,2.37,3.33,7.74,7.74,0,0,1,.63,1.1,1.93,1.93,0,0,0,.55.64.22.22,0,0,0,.37-.19,3.32,3.32,0,0,0-.17-.61c0-.06-.05-.13-.12-.28a3.15,3.15,0,0,1,.78.74l.46.49a1.81,1.81,0,0,1,.26.31A16,16,0,0,0,86.26,52c.45.55.84,1.14,1.27,1.71l.79,1.05.63.88a5.94,5.94,0,0,0,.46.67,13.29,13.29,0,0,1,1.48,1.95,4.87,4.87,0,0,0,.5.59c.21.24.44.46.64.71.33.41.67.83,1,1.26a9.39,9.39,0,0,1,.48.91,2.1,2.1,0,0,0,.23.39,1,1,0,0,1,.3.72.77.77,0,0,0,.35.55,5,5,0,0,1,1.36,1.39c.42.55.77,1.16,1.16,1.73.28.41.59.81.89,1.21l1.42,1.89.29.35,1.48,1.9c.31.39.63.77.93,1.18a13,13,0,0,0,1.32,1.61.35.35,0,0,1,.09.27c-.19-.16-.39-.32-.57-.49-.45-.45-.89-.91-1.32-1.38-.69-.76-1.37-1.53-2.07-2.28-.47-.5-1-1-1.45-1.44-.25-.23-.48-.25-.61-.13s-.08.31.08.61a3.37,3.37,0,0,0,.8.78c.5.46,1,1,1.43,1.46.81.92,1.6,1.86,2.41,2.78.27.3.6.55.88.84a4.81,4.81,0,0,1,.42.58A2.48,2.48,0,0,1,102.9,76.06Zm.42.26c.16,0,.23,0,.29.2C103.43,76.54,103.4,76.4,103.33,76.31ZM107.07,75a.24.24,0,0,1-.23-.06,8.4,8.4,0,0,1-.69-.9c-.67-1.06-1.25-2.19-2-3.2-.62-.85-1.06-1.8-1.68-2.64s-1.34-1.76-2-2.63c-.21-.28-.41-.57-.63-.83a1.8,1.8,0,0,0-.41-.35c-.29-.19-.42-.17-.68.06s-.4.21-.6-.1a6.53,6.53,0,0,0-.47-.66A27.33,27.33,0,0,1,95.81,61s0-.06,0-.09c.4-.25.43-.3.17-.7a8.75,8.75,0,0,1-.76-1.48.89.89,0,0,0-.11-.2A19.85,19.85,0,0,0,93,56.12c-.33-.32-.39-.31-.77,0l-.16.12c-.19-.25-.36-.48-.52-.71-.38-.56-.74-1.13-1.15-1.67S89.7,53,89.36,52.5a11,11,0,0,1-1.26-1.83,2.77,2.77,0,0,0-.32-.5c-.53-.68-1.07-1.36-1.59-2-.23-.3-.42-.63-.65-.93s-.44-.5-.65-.75-.23-.35-.36-.51c-.44-.54-.9-1.06-1.33-1.61-.55-.7-1.09-1.42-1.63-2.12-.15-.19-.32-.36-.49-.54-.35-.38-.71-.75-1-1.14-.62-.72-1.21-1.47-1.86-2.17-.83-.88-1.72-1.71-2.56-2.57-.44-.45-.83-.95-1.25-1.42L73.08,33l-1.17-1.33c-.1-.11-.21-.21-.32-.32L71,30.77l.06-.07c.31.24.63.48.92.73,1.57,1.36,3.05,2.81,4.51,4.3.24.25.43.54.66.81a2.22,2.22,0,0,0,.43.4.4.4,0,0,0,.51,0,.44.44,0,0,0,.12-.54A1.43,1.43,0,0,0,78,36c-.85-.85-1.69-1.69-2.55-2.52a4.23,4.23,0,0,1-.79-.84c.2-.06.31.06.42.15,1.22,1,2.35,2,3.47,3.07.33.31.7.58,1,.88a5.38,5.38,0,0,1,1.34,1.46,2.22,2.22,0,0,1,.34,0,.4.4,0,0,0,.43-.32.45.45,0,0,0-.18-.52l-2.15-1.81c-.44-.37-.89-.72-1.32-1.1s-.59-.6-.9-.89a7,7,0,0,0-.6-.48c-.35-.26-.71-.5-1-.77s-.63-.57-1-.82c-.9-.69-1.81-1.37-2.71-2.06-.45-.35-.89-.73-1.33-1.1a.78.78,0,0,1-.1-.13l.06-.08a4.34,4.34,0,0,1,.48.22c.4.24.77.53,1.19.73s.78.63,1.31.69a.8.8,0,0,1,.35.2c.91.7,1.83,1.38,2.72,2.11s2,1.74,3,2.63c.19.17.35.38.53.56l1.17,1.14a.28.28,0,0,0,.19.09.73.73,0,0,1,.63.29l1.19,1.18c.06.06.14.15.14.23,0,.35.21.53.43.7a24.29,24.29,0,0,1,2,2c.69.69,1.42,1.33,2.13,2a10.63,10.63,0,0,0,1.28,1.15c.64.42,1.09,1,1.71,1.48a1.83,1.83,0,0,1,.3.28c1,1.12,2,2.23,3,3.36.57.65,1.13,1.31,1.66,2,1,1.24,1.91,2.5,2.85,3.76a4.83,4.83,0,0,1,.3.53l-.18.09c-.25.13-.28.24-.08.44a19.1,19.1,0,0,1,2,2.56c.36.52.72,1.05,1,1.6s.58,1.06.86,1.6.5,1,.76,1.55.48.91.72,1.37.62,1.11.86,1.69a23.21,23.21,0,0,0,1.36,2.87,5.68,5.68,0,0,1,.48,1.3c-.29-.09-.35-.34-.43-.57s-.16-.42-.25-.62a6.71,6.71,0,0,0-.35-.74c-.36-.61-.76-1.2-1.12-1.81-.55-.94-1.08-1.89-1.62-2.84-.16-.28-.37-.55-.53-.83s-.39-.71-.59-1.06c-.7-1.18-1.37-2.38-2.12-3.54-.58-.9-1.26-1.74-1.91-2.6-.36-.47-.75-.91-1.12-1.37a.63.63,0,0,0-.55-.27c-.25,0-.38.18-.26.4a7.59,7.59,0,0,0,.57.82c.53.7,1.07,1.39,1.59,2.1s1.08,1.53,1.6,2.31c.28.41.51.86.76,1.29l.08.16,1.23,2.12c.51.89,1,1.79,1.54,2.68.35.6.72,1.19,1.08,1.79,0,.06.09.12.13.19l1.5,3c.07.15.15.3.21.45s.07.24.13.44l-.32-.13c-.16-.07-.32-.12-.46,0s-.07.34,0,.49l.23.34c.36.56.72,1.12,1.07,1.69a1.6,1.6,0,0,1,.18.46A.26.26,0,0,1,107.07,75Zm4.21-6.12a1.08,1.08,0,0,1-.08-.2c-.08-.45-.11-.9-.22-1.34a15.48,15.48,0,0,0-.65-2.65,1.87,1.87,0,0,1-.1-.35.33.33,0,0,0-.38-.26.29.29,0,0,0-.31.33,4.68,4.68,0,0,0,.06.59c.05.34.11.67.17,1l-.12,0c-.06-.18-.14-.36-.19-.55-.09-.38-.16-.77-.25-1.15s-.15-.59-.23-.88-.2-.6-.29-.91c-.14-.48-.26-1-.43-1.43-.28-.75-.61-1.48-.89-2.23a15.56,15.56,0,0,0-1.11-2.12,2,2,0,0,0-.41-.47.48.48,0,0,0-.55,0,.38.38,0,0,0,0,.5c.14.25.31.49.45.74s.31.58.45.88.31.66.46,1A19.59,19.59,0,0,1,108,63.14c.28,1.13.55,2.27.84,3.4.13.51.32,1,.44,1.53a8.84,8.84,0,0,1,.24,1.57,1.15,1.15,0,0,1-.17-.23,17,17,0,0,1-.78-1.89c-.32-1.11-.83-2.14-1.24-3.21-.31-.81-.7-1.58-1.07-2.36-.18-.37-.41-.71-.62-1.06-.48-.82-.94-1.66-1.44-2.47s-1-1.53-1.48-2.28a3.38,3.38,0,0,0-.29-.34,8.57,8.57,0,0,1-1.22-1.63,5.2,5.2,0,0,0-.52-.69l-1.4-1.85c-.38-.51-.76-1-1.16-1.51s-.93-1.15-1.42-1.7-1.13-1.17-1.69-1.77c-.4-.43-.79-.88-1.18-1.32-.64-.72-1.26-1.47-1.93-2.17s-1.14-1-1.69-1.57c-.35-.33-.65-.72-1-1.06-.92-.9-1.82-1.82-2.78-2.68s-1.75-1.45-2.62-2.18-1.76-1.49-2.65-2.22-1.72-1.3-2.51-2a23.11,23.11,0,0,0-2-1.62c-1.24-.89-2.54-1.69-3.82-2.53l-1.61-1.06c.16-.16.25-.09.36,0,.32.19.66.36,1,.54l1,.53a30.89,30.89,0,0,1,3.84,2.58c.48.37,1,.7,1.47,1.05.17.12.33.26.5.4a.72.72,0,0,0,.84.14c.17-.08.24-.22.17-.37a1.15,1.15,0,0,0-.33-.47c-.91-.64-1.86-1.24-2.74-1.93A13.21,13.21,0,0,0,74.7,27c-.37-.17-.71-.41-1.06-.61L72,25.46c-.06,0-.13-.06-.15-.14a4.8,4.8,0,0,1,1.56.5c.94.45,1.85,1,2.81,1.38.77.34,1.42.86,2.17,1.22a6.8,6.8,0,0,1,1,.55c.52.36,1,.77,1.51,1.15a6.06,6.06,0,0,0,.68.44.48.48,0,0,0,.55-.07.32.32,0,0,0,.09-.48,2.2,2.2,0,0,0-.48-.47c-.35-.24-.73-.43-1.08-.65s-.76-.5-1.14-.74-.63-.35-.94-.53-.39-.29-.6-.41c-.84-.45-1.69-.88-2.54-1.31-.38-.19-.78-.33-1.16-.51a1.78,1.78,0,0,1-.27-.19l0-.09c.27.07.54.13.81.22.81.25,1.62.49,2.42.78s1.34.57,2,.83a21.41,21.41,0,0,1,3.79,1.95,11,11,0,0,0,1.1.64,1.53,1.53,0,0,0,.66.11c.18,0,.38-.27.4-.45a.55.55,0,0,0-.38-.51c-.47-.21-.93-.43-1.39-.66-.82-.42-1.61-.9-2.44-1.29-1-.48-2.07-.93-3.13-1.34s-1.85-.65-2.78-1c-.27-.09-.56-.13-.84-.2s-.3-.1-.44-.16V24s.1-.06.14,0c1,.28,2,.53,3,.87,1.17.4,2.32.87,3.48,1.32.77.3,1.54.63,2.3,1,.3.13.58.33.88.48a25,25,0,0,1,3.57,2.08.49.49,0,0,0,.12.07,16.16,16.16,0,0,1,2.05,1.06,14.24,14.24,0,0,1,1.55.94c.37.25.7.57,1.06.85a1.68,1.68,0,0,0,.36.18,1.22,1.22,0,0,1,.66.48l-.07.15c-.14.31-.13.39.12.59s.52.37.78.55a2.65,2.65,0,0,1,.35.28l1.2,1.25.59.63a1.76,1.76,0,0,0,.27.24.31.31,0,0,0,.45,0,.46.46,0,0,0,0-.37,5,5,0,0,1-.32-.74,1.12,1.12,0,0,1,.29.13,10.7,10.7,0,0,1,1.48,1.26,10.36,10.36,0,0,0,1.33,1.17c.2.18.39.37.66.62l-.62.09c-.17.21-.08.39.06.54s.35.34.52.51.32.33.47.5l1.09,1.27c0,.06.11.1.16.17.5.7,1,1.42,1.49,2.11s1.28,1.61,1.89,2.44c.48.65.93,1.34,1.37,2s.77,1.19,1.14,1.8a10.35,10.35,0,0,1,1.14,2.67c.25,1,.61,1.86.93,2.79a24.51,24.51,0,0,1,1.09,3.94c.07.39.1.78.14,1.17,0,.05,0,.11-.07.22a1.73,1.73,0,0,0-.35-.22c-.12,0-.3-.07-.37,0a.63.63,0,0,0-.14.4.66.66,0,0,0,.11.3,8.87,8.87,0,0,1,.79,2.69c.11.86.31,1.71.35,2.57,0,.62.11,1.23.15,1.84C111.38,68.79,111.33,68.81,111.28,68.86Z" transform="translate(-10.6 -2.8)"/><path class="cls-1" d="M108.76,56.89c0-.07-.09-.12-.13-.19a8.52,8.52,0,0,1-.4-.76c-.15-.36-.27-.74-.41-1.1-.08-.21-.18-.41-.26-.62s-.23-.72-.38-1.07c-.33-.8-.8-1.52-1.17-2.3-.67-1.42-1.48-2.77-2.24-4.15a11.94,11.94,0,0,0-1.49-2,1.27,1.27,0,0,0-.45-.27,1.32,1.32,0,0,0-.31-.07c-.22-.31-.38-.56-.57-.79q-.86-1.08-1.74-2.15c-.18-.22-.38-.43-.57-.64s-.61-.67-.94-1a.82.82,0,0,0-.45-.18.34.34,0,0,0-.36.53,2.58,2.58,0,0,0,.44.57c.45.46,1,.88,1.38,1.38.61.73,1.17,1.51,1.74,2.27.32.43.36.45.85.33l.64.81c.23.3.48.59.68.9q.68,1.07,1.32,2.17a19.77,19.77,0,0,1,1.11,2c.37.85.83,1.65,1.23,2.48S107,55,107.4,56c.16.44.28.9.44,1.34a.66.66,0,0,0,.75.36C108.79,57.58,108.88,57.16,108.76,56.89Z" transform="translate(-10.6 -2.8)"/><path class="cls-1" d="M95.55,38.28a2.91,2.91,0,0,0-.35-.68c-.34-.48-.7-1-1.07-1.41a12.37,12.37,0,0,0-1-1.09c-.67-.66-1.36-1.29-2.05-1.93-.49-.45-1-.9-1.51-1.31-.7-.55-1.44-1.05-2.16-1.58-.33-.24-.42-.24-.66.06a2,2,0,0,0-.16.3,2.67,2.67,0,0,0,1,.85A20.92,20.92,0,0,1,91,34.1c.45.39.84.83,1.28,1.23a14.6,14.6,0,0,1,2.09,2.73,1.83,1.83,0,0,0,.77.65c.13.06.29.09.37-.05A.5.5,0,0,0,95.55,38.28Z" transform="translate(-10.6 -2.8)"/><path class="cls-1" d="M98.24,48.44c-.36-.52-.75-1-1.13-1.53l-.29-.4c-.44-.66-.87-1.34-1.33-2-.7-1-1.48-1.87-2.21-2.81A17.85,17.85,0,0,0,91.67,40a1.94,1.94,0,0,0-.52-.3c-.44,0-.63.27-.47.56a1.66,1.66,0,0,0,.37.38,4.43,4.43,0,0,1,.36.27q.84.92,1.66,1.86c.25.28.49.58.73.87a13.49,13.49,0,0,1,1.26,1.59c.53.9,1.15,1.74,1.73,2.6a2.65,2.65,0,0,1,.44.83,1.13,1.13,0,0,0,.54.57c.3.17.58,0,.58-.38A.78.78,0,0,0,98.24,48.44Z" transform="translate(-10.6 -2.8)"/><path class="cls-1" d="M101.48,49.22c-.38-.67-.74-1.35-1.16-2-.7-1.09-1.42-2.17-2.14-3.24a10.8,10.8,0,0,0-.79-1,3.81,3.81,0,0,0-.7-.63.5.5,0,0,0-.66.06c-.12.17-.06.36.16.6l.13.13c.29.31.59.61.85.94s.56.75.82,1.14c.46.67.95,1.33,1.36,2s.8,1.52,1.2,2.28a2,2,0,0,0,.35.47.34.34,0,0,0,.6-.2c0-.07,0-.15,0-.3A.77.77,0,0,0,101.48,49.22Z" transform="translate(-10.6 -2.8)"/><path class="cls-1" d="M93,39.36a15.79,15.79,0,0,0-1.75-2c-.88-.77-1.73-1.56-2.58-2.37a.77.77,0,0,0-.85-.19.5.5,0,0,0,.08.54,3.68,3.68,0,0,0,.61.6,12.46,12.46,0,0,1,1.82,1.56,11.94,11.94,0,0,1,1.86,2.23.7.7,0,0,0,.85.38A.76.76,0,0,0,93,39.36Z" transform="translate(-10.6 -2.8)"/><path class="cls-1" d="M86.5,35.78c-.46-.44-.93-.87-1.4-1.28a2.3,2.3,0,0,0-.66-.46,1.1,1.1,0,0,1-.48-.31,5.63,5.63,0,0,0-1.42-1,.48.48,0,0,0-.17-.06.57.57,0,0,0-.55.31c-.06.23.11.3.27.41A26.21,26.21,0,0,1,84.44,35,11.77,11.77,0,0,1,86,36.53a2,2,0,0,0,.48.32C86.91,36.3,86.91,36.17,86.5,35.78Z" transform="translate(-10.6 -2.8)"/><path class="cls-1" d="M88.11,33.77a2.24,2.24,0,0,0-.46-.36c-.15-.1-.32-.16-.47-.26-.64-.43-1.27-.87-1.92-1.29a8,8,0,0,0-1-.54.46.46,0,0,0-.58.19c-.09.21,0,.36.21.53s.59.37.89.55a11.73,11.73,0,0,1,2.48,1.73,2.66,2.66,0,0,0,.49.31,2.4,2.4,0,0,0,.37-.31A.41.41,0,0,0,88.11,33.77Z" transform="translate(-10.6 -2.8)"/><path class="cls-1" d="M104.23,54.35c-.4-.62-.77-1.25-1.16-1.87a1.08,1.08,0,0,0-.27-.3,1.54,1.54,0,0,0-.47-.25c-.25-.07-.39.05-.37.31a1.21,1.21,0,0,0,.2.53c.5.74,1,1.46,1.53,2.19a2.18,2.18,0,0,0,.34.36.45.45,0,0,0,.52.08,2,2,0,0,0,0-.2C104.63,54.85,104.4,54.61,104.23,54.35Z" transform="translate(-10.6 -2.8)"/><path class="cls-1" d="M109.61,59a.47.47,0,0,0-.41,0,.37.37,0,0,0-.12.34,8.72,8.72,0,0,0,.58,1.17c.13.21.39.15.5-.08a2.08,2.08,0,0,0,.09-.34A2,2,0,0,0,109.61,59Z" transform="translate(-10.6 -2.8)"/><path class="cls-1" d="M33.58,59.6a.41.41,0,0,0-.37,0,1.75,1.75,0,0,0-.45.43c-.32.42-.61.86-.92,1.29l-.62.83c-.29.39-.55.79-.85,1.17s-.68.91-1.07,1.34c-.62.66-1.17,1.39-1.76,2.08-.43.51-.89,1-1.32,1.5a2.8,2.8,0,0,0-.27.51c.12.12.19.25.31.31a.4.4,0,0,0,.52-.15c.18-.26.36-.53.56-.77s.68-.73,1-1.11c.62-.76,1.22-1.53,1.83-2.3.41-.52.84-1,1.24-1.56s1-1.3,1.46-2a5.34,5.34,0,0,0,.33-.43,7.08,7.08,0,0,0,.44-.84A.34.34,0,0,0,33.58,59.6Z" transform="translate(-10.6 -2.8)"/><path class="cls-1" d="M43.12,53a.37.37,0,0,0-.56,0c-.4.43-.79.87-1.18,1.32s-.77.93-1.15,1.39c-.21.25-.42.51-.65.75-.64.7-1.31,1.38-1.94,2.09-.43.48-.65.72.24,1.11,0,0,.08.05.12.07a.3.3,0,0,0,.42-.27c0-.12,0-.24,0-.36a1,1,0,0,1,.13-.41,5.44,5.44,0,0,1,.5-.58c.72-.77,1.46-1.53,2.17-2.32a14.47,14.47,0,0,0,1.89-2.38l.14-.24A1,1,0,0,0,43.12,53Z" transform="translate(-10.6 -2.8)"/><path class="cls-1" d="M45.69,51.68a.42.42,0,0,0-.33,0,.53.53,0,0,0-.33.63.43.43,0,0,1,0,.26,5.49,5.49,0,0,1-.44.74c-.45.59-.92,1.16-1.37,1.75-.26.34-.48.69-.74,1a2.21,2.21,0,0,1-.42.47,4.62,4.62,0,0,0-1.2,1.63.47.47,0,0,0,.14.64c.16.09.36,0,.52-.24s.24-.45.39-.66c.6-.8,1.21-1.58,1.81-2.37a19.79,19.79,0,0,0,1.73-2.45A2.62,2.62,0,0,0,45.91,52C45.84,51.88,45.79,51.74,45.69,51.68Z" transform="translate(-10.6 -2.8)"/><path class="cls-1" d="M44.56,47.4a.33.33,0,0,0-.46,0,5.19,5.19,0,0,0-.55.47,18.58,18.58,0,0,0-1.81,2.42,2.25,2.25,0,0,0-.31.44,5.86,5.86,0,0,1-1.09,1.62c-.38.47-.55,1.08-1.07,1.45,0,.27-.3.38-.36.59a1.35,1.35,0,0,1-.46.6,1.18,1.18,0,0,0-.4,1,2.73,2.73,0,0,0,.32-.27c.24-.29.46-.59.69-.89l1.76-2.3c.18-.24.39-.47.57-.71.46-.62.9-1.24,1.37-1.85A8.16,8.16,0,0,0,44,48.47a3.35,3.35,0,0,1,.52-.68C44.6,47.67,44.71,47.54,44.56,47.4Z" transform="translate(-10.6 -2.8)"/><path class="cls-1" d="M45.09,43a.39.39,0,0,0-.36,0,1.91,1.91,0,0,0-.49.46c-.21.29-.38.61-.59.91-.41.58-.81,1.17-1.24,1.73s-.86,1.05-1.28,1.59c-.08.11-.17.31-.12.4s.27.21.44.33a1.94,1.94,0,0,0,.3-.22c.18-.2.35-.41.52-.63a8.33,8.33,0,0,0,.87-1.08,13.05,13.05,0,0,1,1-1.43c.3-.42.62-.81.92-1.23a1.08,1.08,0,0,0,.2-.45A.44.44,0,0,0,45.09,43Z" transform="translate(-10.6 -2.8)"/><path class="cls-1" d="M38.27,52.28c-.21-.09-.36,0-.46.19s-.26.41-.38.62c-.35.58-.68,1.18-1.06,1.74s-.78,1-1.15,1.57A3,3,0,0,0,35,57a1.45,1.45,0,0,0,0,.38c0,.1.12.24.2.25s.2-.09.26-.18.2-.37.33-.54c.36-.48.72-1,1.11-1.43a14,14,0,0,0,1.53-2.2,1.92,1.92,0,0,0,.17-.32A.67.67,0,0,0,38.27,52.28Z" transform="translate(-10.6 -2.8)"/><path class="cls-1" d="M47.71,46.83c-.16-.08-.32,0-.42.18l-.12.2a7.24,7.24,0,0,1-1,1.5c-.1.11-.16.26-.26.37a.55.55,0,0,0,0,.67c0,.08.14.2.21.2a.43.43,0,0,0,.27-.18c.15-.22.26-.48.42-.69s.51-.62.78-.92a2,2,0,0,0,.39-1C47.88,47,47.82,46.88,47.71,46.83Z" transform="translate(-10.6 -2.8)"/><path class="cls-1" d="M38.93,40.72a.35.35,0,0,0-.37-.26,1.11,1.11,0,0,0-.7.28l-1.12,1a13.78,13.78,0,0,0-1.62,1.56c-.39.48-.73,1-1.13,1.46-.64.75-1.31,1.46-2,2.2-.21.24-.39.5-.6.74s-.5.56-.76.82-.63.57-.93.86a1.45,1.45,0,0,0-.19.38c.09.16.14.37.26.45a.65.65,0,0,0,.89-.4,1.17,1.17,0,0,1,.3-.59l2.74-3.15c.53-.62,1.07-1.23,1.59-1.86a18.77,18.77,0,0,1,2.38-2.29c.34-.3.7-.57,1.06-.85C38.89,41,39,40.88,38.93,40.72Z" transform="translate(-10.6 -2.8)"/><path class="cls-1" d="M35.63,46.29c-.33.43-.64.87-1,1.31-.05.07-.1.15-.16.22a23.59,23.59,0,0,0-1.93,2.57c-.27.45-.61.86-.9,1.29a6.43,6.43,0,0,0-.47.82.56.56,0,0,0,.07.6c.29,0,.36-.19.47-.36.35-.56.7-1.12,1.07-1.68s.58-.81.87-1.22l.54-.72.77-1a3.71,3.71,0,0,1,.62-.77,3.25,3.25,0,0,0,.81-1.08C36.07,46,35.87,46,35.63,46.29Z" transform="translate(-10.6 -2.8)"/><path class="cls-1" d="M28.93,51.54a2.21,2.21,0,0,0-.42.07.44.44,0,0,0-.18.19c-.16.27-.32.55-.47.82a11.12,11.12,0,0,0-.6,1.1A1.88,1.88,0,0,0,27,54.93c.29,0,.36-.22.45-.39a12.13,12.13,0,0,1,1.1-1.87,3.41,3.41,0,0,0,.42-.75A1,1,0,0,0,28.93,51.54Z" transform="translate(-10.6 -2.8)"/><path class="cls-1" d="M78.24,48.91c-.31-.55-.61-1.11-.93-1.65s-.75-1.2-1.12-1.81-.87-1.41-1.33-2.1a.42.42,0,0,0-.7.08.66.66,0,0,0,.14.7,6.14,6.14,0,0,1,.89,1.49c-.18-.22-.38-.43-.55-.67-.38-.55-.74-1.11-1.1-1.66-.16-.24-.3-.49-.61-.58a.4.4,0,0,0-.41.12.28.28,0,0,0-.06.37,4,4,0,0,0,.31.61c.62.89,1.27,1.77,1.89,2.67A16.58,16.58,0,0,1,76,48.56c.34.69.74,1.35,1.12,2a.46.46,0,0,0,.61.23.44.44,0,0,0,.14-.69c-.19-.31-.39-.61-.58-.92-.31-.52-.61-1-.91-1.57-.07-.12-.13-.25-.19-.38a.29.29,0,0,1,.22.1c.17.23.31.48.48.71q.47.64.95,1.27c.12.15.24.32.47.24A.65.65,0,0,0,78.24,48.91Zm-2.44-2.22-.24-.45.12-.06.23.46Z" transform="translate(-10.6 -2.8)"/><path class="cls-1" d="M95.54,66.85c-.15-.17-.32-.32-.48-.48l-1-1c-.51-.51-1-1-1.53-1.54s-1.33-1.28-2-1.91a6.81,6.81,0,0,0-.67-.54,4.26,4.26,0,0,1-1.05-1.11c-.35-.52-.7-1-1.08-1.54s-.66-.74-1-1.11a1,1,0,0,1-.12-.19,15.52,15.52,0,0,0-1.73-2.21.74.74,0,0,0-.38-.24.48.48,0,0,0-.36.09.27.27,0,0,0,0,.41c.18.24.36.49.55.72s.54.61.8.93c.54.67,1.06,1.36,1.59,2,.41.51.82,1,1.24,1.51a9.88,9.88,0,0,0,1,1.16,10.64,10.64,0,0,1,1,.93c.45.51,1,1,1.43,1.45.94,1,1.88,1.94,2.84,2.88a1.87,1.87,0,0,0,.71.36c.18.06.36-.11.37-.34A1,1,0,0,0,95.54,66.85Z" transform="translate(-10.6 -2.8)"/><path class="cls-1" d="M93.26,62.74l-.65-.87-2-2.55c-.11-.14-.19-.31-.3-.45-.48-.6-1-1.19-1.45-1.79s-1.14-1.53-1.72-2.28c-.24-.31-.5-.6-.75-.9-.06-.07-.1-.15-.16-.22-.27-.32-.54-.64-.83-1a1,1,0,0,0-.23-.14l-.17.1a.41.41,0,0,0-.06.64c.14.18.3.34.44.52l1.76,2.25c.69.88,1.39,1.76,2.07,2.64.44.58.85,1.18,1.29,1.76.58.78,1.17,1.54,1.76,2.31a3.92,3.92,0,0,0,.38.45c.2.2.33.19.52,0A.34.34,0,0,0,93.26,62.74Z" transform="translate(-10.6 -2.8)"/><path class="cls-1" d="M88.06,62.29a3.43,3.43,0,0,0-.7-.83.62.62,0,0,1-.17-.21,6,6,0,0,0-1-1.42l-.46-.56c-.65-.82-1.3-1.63-1.94-2.46-.29-.38-.56-.78-.85-1.16s-.62-.85-.95-1.27-.55-.63-.81-1-.37-.3-.6,0-.21.32,0,.55.39.38.56.6c.37.48.7,1,1.07,1.46q1.55,2,3.12,4l1.63,2.06c.31.39.59.8.92,1.18s.61.38.92-.14A6.38,6.38,0,0,1,88.06,62.29Z" transform="translate(-10.6 -2.8)"/><path class="cls-1" d="M82.66,51.65l-.05-.07c-.15-.22-.31-.45-.46-.68-.42-.66-.85-1.32-1.26-2a18.51,18.51,0,0,0-1.28-2c-.62-.77-1.17-1.61-1.72-2.44A6.42,6.42,0,0,0,76.58,43a3.87,3.87,0,0,0-.34-.22c-.09.1-.23.17-.23.25a1,1,0,0,0,.11.55c.45.62.94,1.22,1.41,1.82s.88,1.07,1.27,1.64.89,1.43,1.34,2.13.75,1.1,1.12,1.65c.17.25.32.51.49.76a3.69,3.69,0,0,0,.36.47.43.43,0,0,0,.53.12A.44.44,0,0,0,82.66,51.65Z" transform="translate(-10.6 -2.8)"/><path class="cls-1" d="M98.12,71.81c-.59-.54-1.18-1.08-1.77-1.62-.86-.76-1.73-1.52-2.59-2.27S92,66.39,91.1,65.64a6.67,6.67,0,0,0-.73-.53.35.35,0,0,0-.48.11.34.34,0,0,0,.07.49c.26.21.52.42.78.62s.61.45.9.69c.68.58,1.33,1.18,2,1.77s1.09.9,1.63,1.37c.71.62,1.39,1.26,2.1,1.87a.89.89,0,0,0,.94.25C98.4,72.05,98.25,71.93,98.12,71.81Z" transform="translate(-10.6 -2.8)"/><path class="cls-1" d="M75.49,60.95l-1-1.36-.2-.3L73.55,58c-.16-.27-.32-.54-.49-.81a7.37,7.37,0,0,1-.55-.79,16.72,16.72,0,0,0-1.09-1.82,9.56,9.56,0,0,1-.67-.91c-.25-.52-.61-1-.89-1.45a3.16,3.16,0,0,1-.31-.49,11.3,11.3,0,0,0-1.2-2.15,14,14,0,0,1-.8-1.6,3.08,3.08,0,0,0-.6-1,.93.93,0,0,1-.16-.35c0-.1,0-.2-.08-.3-.22-.48-.45-1-.68-1.43-.15-.3-.32-.58-.5-.86a.89.89,0,0,0-.22-.19c-.24,0-.37.09-.36.28a2,2,0,0,0,.12.56c.18.46.39.91.59,1.36s.41.94.66,1.39c.5.91,1,1.81,1.56,2.71s.88,1.58,1.35,2.35c.59,1,1.22,1.91,1.84,2.85A8.05,8.05,0,0,0,72.16,57a.45.45,0,0,1,.07.12c.22.38.42.77.65,1.14s.62,1,.92,1.51.52.92.79,1.38a1.53,1.53,0,0,0,.32.37.58.58,0,0,0,.62-.12C75.68,61.2,75.57,61.07,75.49,60.95Z" transform="translate(-10.6 -2.8)"/><path class="cls-1" d="M82.52,66.55l-1.64-1.36c-.37-.31-.78-.58-1.13-.92-.59-.57-1.14-1.17-1.7-1.77a.68.68,0,0,0-.65-.25.26.26,0,0,0-.24.34.44.44,0,0,0,.26.46,1.07,1.07,0,0,1,.26.24c.43.45.85.9,1.29,1.34a2,2,0,0,0,.44.32,13.25,13.25,0,0,1,2.22,1.72,3.91,3.91,0,0,0,.71.47c.17.09.29,0,.34-.17A.39.39,0,0,0,82.52,66.55Z" transform="translate(-10.6 -2.8)"/><path class="cls-1" d="M68.4,53.92a4.48,4.48,0,0,0-.23-.78c-.22-.48-.46-.94-.7-1.41a4,4,0,0,0-.3-.55.36.36,0,0,0-.48-.14.44.44,0,0,0-.29.5,1.05,1.05,0,0,0,.07.26,13.56,13.56,0,0,0,1,1.89c.18.28.31.6.7.66C68.32,54.26,68.46,54.13,68.4,53.92Z" transform="translate(-10.6 -2.8)"/><path class="cls-1" d="M30.54,35.9a.48.48,0,0,0-.5-.24c-.2,0-.36.1-.37.33a1.19,1.19,0,0,1-.46.8c-.38.39-.75.79-1.1,1.21s-.74,1-1.11,1.47a3,3,0,0,0-.34.42,15.55,15.55,0,0,1-1.24,1.78c-.23.34-.47.67-.71,1s-.58.74-.83,1.13-.6,1.08-.91,1.62a.92.92,0,0,1-.17.21A4.82,4.82,0,0,0,22,47.18a1.42,1.42,0,0,0-.05.25c.06.09.11.29.23.33a.62.62,0,0,0,.44-.13.92.92,0,0,0,.24-.33c.06-.1.09-.22.15-.33.43-.78.86-1.56,1.31-2.33.33-.56.68-1.1,1.05-1.63.75-1.06,1.53-2.1,2.28-3.17a12.92,12.92,0,0,1,1.8-2.22c.42-.38.65-.9,1.11-1.25A.35.35,0,0,0,30.54,35.9Z" transform="translate(-10.6 -2.8)"/><path class="cls-1" d="M24.24,47.71a.49.49,0,0,0-.32.06.55.55,0,0,0-.18.2c-.12.18-.23.36-.33.54-.29.49-.56,1-.88,1.47a10.74,10.74,0,0,0-1,2c-.1.25-.14.53-.26.77-.26.52-.57,1-.84,1.55a1.77,1.77,0,0,0-.12.53c0,.18.1.28.24.34s.26,0,.34-.14a2.91,2.91,0,0,0,.23-.39c.36-.78.73-1.55,1.08-2.34.58-1.3,1.25-2.54,1.95-3.78.06-.11.12-.21.17-.32a2.32,2.32,0,0,0,.08-.29C24.33,47.88,24.31,47.73,24.24,47.71Z" transform="translate(-10.6 -2.8)"/><path class="cls-1" d="M31.47,32.3a2.75,2.75,0,0,0-1.15.61c-.36.38-.74.75-1.07,1.15a3.4,3.4,0,0,0-.43.74.43.43,0,0,0,.2.51.35.35,0,0,0,.48-.11,2.27,2.27,0,0,0,.17-.21,6.45,6.45,0,0,1,1.93-2.07.73.73,0,0,0,.35-.6A1.35,1.35,0,0,0,31.47,32.3Z" transform="translate(-10.6 -2.8)"/><path class="cls-1" d="M32.43,35.31a.29.29,0,0,0-.24.05,6,6,0,0,0-.53.46c-.48.48-1,.93-1.43,1.44a6.34,6.34,0,0,0-.6,1c.11.17.18.36.31.43s.37,0,.5-.19l.05-.07A13.72,13.72,0,0,1,32.4,36a.93.93,0,0,0,.17-.45A.26.26,0,0,0,32.43,35.31Z" transform="translate(-10.6 -2.8)"/><path class="cls-1" d="M93.08,51c0-.09-.12-.17-.18-.25a2.64,2.64,0,0,1-.42-.58,3.53,3.53,0,0,0-.65-1c-.41-.48-.79-1-1.19-1.48l-.72-.87c-.34-.43-.65-.88-1-1.28-.75-.85-1.52-1.68-2.28-2.52-.34-.38-.7-.75-1-1.14-.69-.82-1.36-1.66-2-2.49a1.26,1.26,0,0,0-.31-.33.56.56,0,0,0-.39,0c-.07,0-.1.16-.16.26a3.51,3.51,0,0,0,.21.42c.2.29.4.56.61.84s.38.54.6.79c.36.41.75.79,1.11,1.19s.48.58.73.86l1.7,1.89c.26.29.53.58.78.88q.77,1,1.52,1.92c.37.48.72,1,1.08,1.46a14.43,14.43,0,0,0,1.25,1.77.86.86,0,0,0,.36.24.41.41,0,0,0,.35-.1A.63.63,0,0,0,93.08,51Z" transform="translate(-10.6 -2.8)"/><path class="cls-1" d="M104.81,69.15a1,1,0,0,0-.16-.27A14.67,14.67,0,0,1,103.46,67a2.75,2.75,0,0,0-.18-.31L102.11,65c-.82-1.15-1.61-2.31-2.45-3.44-.6-.8-1.26-1.55-1.9-2.32a3.91,3.91,0,0,0-.47-.43.34.34,0,0,0-.46,0,.41.41,0,0,0-.19.51,1.28,1.28,0,0,0,.31.49A8,8,0,0,1,98.1,61l.41.48c.31.38.63.77.92,1.16s.7,1,1.1,1.5a23.67,23.67,0,0,1,1.87,2.68c.5.78.93,1.6,1.4,2.39a.74.74,0,0,0,.64.44A.36.36,0,0,0,104.81,69.15Z" transform="translate(-10.6 -2.8)"/><path class="cls-1" d="M88.14,47.88c-.13-.18-.26-.37-.4-.55L86,45.19l-.76-.9-1-1.15c-.37-.44-.72-.9-1.11-1.32a6.19,6.19,0,0,1-1-1.19,1.59,1.59,0,0,0-.23-.34c-.56-.58-1.11-1.16-1.68-1.72-.26-.26-.52-.36-.85-.06a.72.72,0,0,0,.3.69c.33.32.68.61,1,.94s.6.76.91,1.12c.58.66,1.17,1.31,1.75,2,.27.31.54.61.8.93s.66.83,1,1.25c.62.82,1.25,1.63,1.85,2.47a1.7,1.7,0,0,0,.68.51.3.3,0,0,0,.41-.06A.34.34,0,0,0,88.14,47.88Z" transform="translate(-10.6 -2.8)"/><path class="cls-1" d="M50.88,57.34l-.15.23c-.23.35-.44.72-.7,1s-.74.87-1.14,1.29a5.84,5.84,0,0,0-1.16,1.32c-.12.23-.11.4,0,.49a.43.43,0,0,0,.55-.13,1.15,1.15,0,0,1,.28-.28A6,6,0,0,0,50,60a5.63,5.63,0,0,0,1.29-1.89C51.46,57.7,51.44,57.62,50.88,57.34Z" transform="translate(-10.6 -2.8)"/><path class="cls-1" d="M46.36,58.76l-.82,1.31a3.15,3.15,0,0,1-.42.57A5.3,5.3,0,0,0,44,62a3.41,3.41,0,0,1-.46.72,1.09,1.09,0,0,0-.26,1c.22.09.29,0,.38-.17.24-.34.49-.69.75-1,.48-.6,1.05-1.11,1.58-1.66a2.94,2.94,0,0,0,.92-1.58C47,58.85,46.84,58.7,46.36,58.76Z" transform="translate(-10.6 -2.8)"/><path class="cls-1" d="M52.43,51.26a.39.39,0,0,0-.35-.32c-.19,0-.26.08-.33.23s-.22.46-.34.69-.17.35-.26.52c-.21.38-.43.76-.62,1.15a.36.36,0,0,0,0,.33.33.33,0,0,0,.32,0,2.41,2.41,0,0,0,.66-.52,6.69,6.69,0,0,0,.6-1.05c.13-.27.23-.55.31-.76S52.44,51.33,52.43,51.26Z" transform="translate(-10.6 -2.8)"/><path class="cls-1" d="M43.19,65.33a1.83,1.83,0,0,0-1,.42c-.44.37-.88.74-1.29,1.14a.58.58,0,0,0,0,.79c.17.16.45.09.69-.22a6.08,6.08,0,0,1,1.23-1.14l.32-.26C43.45,65.79,43.45,65.75,43.19,65.33Z" transform="translate(-10.6 -2.8)"/></svg>